<svg width="93" height="55" viewBox="0 0 93 55" fill="none" xmlns="http://www.w3.org/2000/svg">
<path d="M26.981 5.46521L7.4209 19.87C3.32245 22.8882 2.38732 28.7399 5.33223 32.94L5.34296 32.9553C8.28787 37.1555 13.9976 38.1136 18.0961 35.0954L37.6562 20.6906C41.7547 17.6724 42.6898 11.8207 39.7449 7.62055L39.7342 7.60524C36.7892 3.40509 31.0795 2.44697 26.981 5.46521Z" fill="white"/>
<path d="M26.981 5.46521L7.4209 19.87C3.32245 22.8882 2.38732 28.7399 5.33223 32.94L5.34296 32.9553C8.28787 37.1555 13.9976 38.1136 18.0961 35.0954L37.6562 20.6906C41.7547 17.6724 42.6898 11.8207 39.7449 7.62055L39.7342 7.60524C36.7892 3.40509 31.0795 2.44697 26.981 5.46521Z" fill="url(#paint0_radial_1144_4205)"/>
<path d="M26.981 5.46521L7.4209 19.87C3.32245 22.8882 2.38732 28.7399 5.33223 32.94L5.34296 32.9553C8.28787 37.1555 13.9976 38.1136 18.0961 35.0954L37.6562 20.6906C41.7547 17.6724 42.6898 11.8207 39.7449 7.62055L39.7342 7.60524C36.7892 3.40509 31.0795 2.44697 26.981 5.46521Z" fill="url(#paint1_radial_1144_4205)"/>
<path d="M26.981 5.46521L7.4209 19.87C3.32245 22.8882 2.38732 28.7399 5.33223 32.94L5.34296 32.9553C8.28787 37.1555 13.9976 38.1136 18.0961 35.0954L37.6562 20.6906C41.7547 17.6724 42.6898 11.8207 39.7449 7.62055L39.7342 7.60524C36.7892 3.40509 31.0795 2.44697 26.981 5.46521Z" fill="url(#paint2_radial_1144_4205)"/>
<path d="M26.981 5.46521L7.4209 19.87C3.32245 22.8882 2.38732 28.7399 5.33223 32.94L5.34296 32.9553C8.28787 37.1555 13.9976 38.1136 18.0961 35.0954L37.6562 20.6906C41.7547 17.6724 42.6898 11.8207 39.7449 7.62055L39.7342 7.60524C36.7892 3.40509 31.0795 2.44697 26.981 5.46521Z" fill="url(#paint3_radial_1144_4205)"/>
<path d="M26.981 5.46521L7.4209 19.87C3.32245 22.8882 2.38732 28.7399 5.33223 32.94L5.34296 32.9553C8.28787 37.1555 13.9976 38.1136 18.0961 35.0954L37.6562 20.6906C41.7547 17.6724 42.6898 11.8207 39.7449 7.62055L39.7342 7.60524C36.7892 3.40509 31.0795 2.44697 26.981 5.46521Z" stroke="#1F2123" stroke-width="0.99659" stroke-miterlimit="10"/>
<path d="M5.34393 22.0121L5.33321 22.0274C2.3883 26.2275 3.32343 32.0792 7.42188 35.0974L26.982 49.5022C31.0804 52.5204 36.7902 51.5623 39.7351 47.3622L39.7459 47.3469C42.6908 43.1467 41.7556 37.295 37.6572 34.2768L18.0971 19.872C13.9986 16.8538 8.28884 17.8119 5.34393 22.0121Z" fill="white"/>
<path d="M5.34393 22.0121L5.33321 22.0274C2.3883 26.2275 3.32343 32.0792 7.42188 35.0974L26.982 49.5022C31.0804 52.5204 36.7902 51.5623 39.7351 47.3622L39.7459 47.3469C42.6908 43.1467 41.7556 37.295 37.6572 34.2768L18.0971 19.872C13.9986 16.8538 8.28884 17.8119 5.34393 22.0121Z" fill="url(#paint4_radial_1144_4205)"/>
<path d="M5.34393 22.0121L5.33321 22.0274C2.3883 26.2275 3.32343 32.0792 7.42188 35.0974L26.982 49.5022C31.0804 52.5204 36.7902 51.5623 39.7351 47.3622L39.7459 47.3469C42.6908 43.1467 41.7556 37.295 37.6572 34.2768L18.0971 19.872C13.9986 16.8538 8.28884 17.8119 5.34393 22.0121Z" fill="url(#paint5_radial_1144_4205)"/>
<path d="M5.34393 22.0121L5.33321 22.0274C2.3883 26.2275 3.32343 32.0792 7.42188 35.0974L26.982 49.5022C31.0804 52.5204 36.7902 51.5623 39.7351 47.3622L39.7459 47.3469C42.6908 43.1467 41.7556 37.295 37.6572 34.2768L18.0971 19.872C13.9986 16.8538 8.28884 17.8119 5.34393 22.0121Z" fill="url(#paint6_radial_1144_4205)"/>
<path d="M5.34393 22.0121L5.33321 22.0274C2.3883 26.2275 3.32343 32.0792 7.42188 35.0974L26.982 49.5022C31.0804 52.5204 36.7902 51.5623 39.7351 47.3622L39.7459 47.3469C42.6908 43.1467 41.7556 37.295 37.6572 34.2768L18.0971 19.872C13.9986 16.8538 8.28884 17.8119 5.34393 22.0121Z" fill="url(#paint7_radial_1144_4205)"/>
<path d="M5.34393 22.0121L5.33321 22.0274C2.3883 26.2275 3.32343 32.0792 7.42188 35.0974L26.982 49.5022C31.0804 52.5204 36.7902 51.5623 39.7351 47.3622L39.7459 47.3469C42.6908 43.1467 41.7556 37.295 37.6572 34.2768L18.0971 19.872C13.9986 16.8538 8.28884 17.8119 5.34393 22.0121Z" stroke="#1F2123" stroke-width="0.99659" stroke-miterlimit="10"/>
<path d="M74.2054 19.86L54.6444 34.2635C50.5457 37.2815 49.6107 43.1328 52.5558 47.3327L52.5666 47.348C55.5117 51.548 61.2219 52.5062 65.3205 49.4882L84.8815 35.0847C88.9802 32.0667 89.9152 26.2154 86.9701 22.0155L86.9593 22.0002C84.0142 17.8002 78.304 16.842 74.2054 19.86Z" fill="white"/>
<path d="M74.2054 19.86L54.6444 34.2635C50.5457 37.2815 49.6107 43.1328 52.5558 47.3327L52.5666 47.348C55.5117 51.548 61.2219 52.5062 65.3205 49.4882L84.8815 35.0847C88.9802 32.0667 89.9152 26.2154 86.9701 22.0155L86.9593 22.0002C84.0142 17.8002 78.304 16.842 74.2054 19.86Z" fill="url(#paint8_radial_1144_4205)"/>
<path d="M74.2054 19.86L54.6444 34.2635C50.5457 37.2815 49.6107 43.1328 52.5558 47.3327L52.5666 47.348C55.5117 51.548 61.2219 52.5062 65.3205 49.4882L84.8815 35.0847C88.9802 32.0667 89.9152 26.2154 86.9701 22.0155L86.9593 22.0002C84.0142 17.8002 78.304 16.842 74.2054 19.86Z" fill="url(#paint9_radial_1144_4205)"/>
<path d="M74.2054 19.86L54.6444 34.2635C50.5457 37.2815 49.6107 43.1328 52.5558 47.3327L52.5666 47.348C55.5117 51.548 61.2219 52.5062 65.3205 49.4882L84.8815 35.0847C88.9802 32.0667 89.9152 26.2154 86.9701 22.0155L86.9593 22.0002C84.0142 17.8002 78.304 16.842 74.2054 19.86Z" fill="url(#paint10_radial_1144_4205)"/>
<path d="M74.2054 19.86L54.6444 34.2635C50.5457 37.2815 49.6107 43.1328 52.5558 47.3327L52.5666 47.348C55.5117 51.548 61.2219 52.5062 65.3205 49.4882L84.8815 35.0847C88.9802 32.0667 89.9152 26.2154 86.9701 22.0155L86.9593 22.0002C84.0142 17.8002 78.304 16.842 74.2054 19.86Z" fill="url(#paint11_radial_1144_4205)"/>
<path d="M74.2054 19.86L54.6444 34.2635C50.5457 37.2815 49.6107 43.1328 52.5558 47.3327L52.5666 47.348C55.5117 51.548 61.2219 52.5062 65.3205 49.4882L84.8815 35.0847C88.9802 32.0667 89.9152 26.2154 86.9701 22.0155L86.9593 22.0002C84.0142 17.8002 78.304 16.842 74.2054 19.86Z" stroke="#1F2123" stroke-width="0.99659" stroke-miterlimit="10"/>
<path d="M52.5651 7.61264L52.5544 7.62794C49.6092 11.8279 50.5443 17.6792 54.6429 20.6972L74.2039 35.1007C78.3026 38.1186 84.0127 37.1604 86.9579 32.9605L86.9686 32.9452C89.9138 28.7452 88.9787 22.8939 84.8801 19.876L65.3191 5.47247C61.2204 2.4545 55.5103 3.41268 52.5651 7.61264Z" fill="white"/>
<path d="M52.5651 7.61264L52.5544 7.62794C49.6092 11.8279 50.5443 17.6792 54.6429 20.6972L74.2039 35.1007C78.3026 38.1186 84.0127 37.1604 86.9579 32.9605L86.9686 32.9452C89.9138 28.7452 88.9787 22.8939 84.8801 19.876L65.3191 5.47247C61.2204 2.4545 55.5103 3.41268 52.5651 7.61264Z" fill="url(#paint12_radial_1144_4205)"/>
<path d="M52.5651 7.61264L52.5544 7.62794C49.6092 11.8279 50.5443 17.6792 54.6429 20.6972L74.2039 35.1007C78.3026 38.1186 84.0127 37.1604 86.9579 32.9605L86.9686 32.9452C89.9138 28.7452 88.9787 22.8939 84.8801 19.876L65.3191 5.47247C61.2204 2.4545 55.5103 3.41268 52.5651 7.61264Z" fill="url(#paint13_radial_1144_4205)"/>
<path d="M52.5651 7.61264L52.5544 7.62794C49.6092 11.8279 50.5443 17.6792 54.6429 20.6972L74.2039 35.1007C78.3026 38.1186 84.0127 37.1604 86.9579 32.9605L86.9686 32.9452C89.9138 28.7452 88.9787 22.8939 84.8801 19.876L65.3191 5.47247C61.2204 2.4545 55.5103 3.41268 52.5651 7.61264Z" fill="url(#paint14_radial_1144_4205)"/>
<path d="M52.5651 7.61264L52.5544 7.62794C49.6092 11.8279 50.5443 17.6792 54.6429 20.6972L74.2039 35.1007C78.3026 38.1186 84.0127 37.1604 86.9579 32.9605L86.9686 32.9452C89.9138 28.7452 88.9787 22.8939 84.8801 19.876L65.3191 5.47247C61.2204 2.4545 55.5103 3.41268 52.5651 7.61264Z" fill="url(#paint15_radial_1144_4205)"/>
<path d="M52.5651 7.61264L52.5544 7.62794C49.6092 11.8279 50.5443 17.6792 54.6429 20.6972L74.2039 35.1007C78.3026 38.1186 84.0127 37.1604 86.9579 32.9605L86.9686 32.9452C89.9138 28.7452 88.9787 22.8939 84.8801 19.876L65.3191 5.47247C61.2204 2.4545 55.5103 3.41268 52.5651 7.61264Z" stroke="#1F2123" stroke-width="0.99659" stroke-miterlimit="10"/>
<defs>
<radialGradient id="paint0_radial_1144_4205" cx="0" cy="0" r="1" gradientTransform="matrix(-5.21081 22.0664 -26.3552 11.7249 17.1777 12.6847)" gradientUnits="userSpaceOnUse">
<stop stop-color="#F94543"/>
<stop offset="1" stop-color="#F7306E" stop-opacity="0"/>
</radialGradient>
<radialGradient id="paint1_radial_1144_4205" cx="0" cy="0" r="1" gradientTransform="matrix(9.4698 -15.6901 23.3143 -4.8727 23.3775 30.9404)" gradientUnits="userSpaceOnUse">
<stop stop-color="#08B962"/>
<stop offset="1" stop-color="#08B962" stop-opacity="0"/>
</radialGradient>
<radialGradient id="paint2_radial_1144_4205" cx="0" cy="0" r="1" gradientTransform="matrix(-12.5458 9.23914 -5.68133 -8.10295 10.0434 28.6855)" gradientUnits="userSpaceOnUse">
<stop stop-color="#FABC12"/>
<stop offset="1" stop-color="#FABC12" stop-opacity="0"/>
</radialGradient>
<radialGradient id="paint3_radial_1144_4205" cx="0" cy="0" r="1" gradientTransform="matrix(-21.9289 11.26 2.06094 -24.5284 34.3275 11.2705)" gradientUnits="userSpaceOnUse">
<stop stop-color="#3186FF"/>
<stop offset="1" stop-color="#3186FF" stop-opacity="0"/>
</radialGradient>
<radialGradient id="paint4_radial_1144_4205" cx="0" cy="0" r="1" gradientTransform="matrix(22.9306 26.0404 -18.5256 1.65951 5.33135 22.03)" gradientUnits="userSpaceOnUse">
<stop stop-color="#F94543"/>
<stop offset="1" stop-color="#F7306E" stop-opacity="0"/>
</radialGradient>
<radialGradient id="paint5_radial_1144_4205" cx="0" cy="0" r="1" gradientTransform="matrix(-8.79882 -15.5396 23.7936 5.69214 37.9869 48.9998)" gradientUnits="userSpaceOnUse">
<stop stop-color="#08B962"/>
<stop offset="1" stop-color="#08B962" stop-opacity="0"/>
</radialGradient>
<radialGradient id="paint6_radial_1144_4205" cx="0" cy="0" r="1" gradientTransform="matrix(-3.89305 5.55243 -18.3087 -13.4832 17.5894 39.1799)" gradientUnits="userSpaceOnUse">
<stop stop-color="#FABC12"/>
<stop offset="1" stop-color="#FABC12" stop-opacity="0"/>
</radialGradient>
<radialGradient id="paint7_radial_1144_4205" cx="0" cy="0" r="1" gradientTransform="matrix(-13.3886 3.33942 -30.3471 -30.8721 25.756 29.0426)" gradientUnits="userSpaceOnUse">
<stop stop-color="#3186FF"/>
<stop offset="1" stop-color="#3186FF" stop-opacity="0"/>
</radialGradient>
<radialGradient id="paint8_radial_1144_4205" cx="0" cy="0" r="1" gradientTransform="matrix(-5.21069 22.065 -26.3565 11.7236 64.4016 27.0789)" gradientUnits="userSpaceOnUse">
<stop stop-color="#F94543"/>
<stop offset="1" stop-color="#F7306E" stop-opacity="0"/>
</radialGradient>
<radialGradient id="paint9_radial_1144_4205" cx="0" cy="0" r="1" gradientTransform="matrix(9.47006 -15.6889 23.3156 -4.87192 70.6021 45.3336)" gradientUnits="userSpaceOnUse">
<stop stop-color="#08B962"/>
<stop offset="1" stop-color="#08B962" stop-opacity="0"/>
</radialGradient>
<radialGradient id="paint10_radial_1144_4205" cx="0" cy="0" r="1" gradientTransform="matrix(-12.5463 9.23832 -5.68183 -8.10258 57.2672 43.0786)" gradientUnits="userSpaceOnUse">
<stop stop-color="#FABC12"/>
<stop offset="1" stop-color="#FABC12" stop-opacity="0"/>
</radialGradient>
<radialGradient id="paint11_radial_1144_4205" cx="0" cy="0" r="1" gradientTransform="matrix(-21.93 11.2589 2.06058 -24.5269 81.5524 25.6651)" gradientUnits="userSpaceOnUse">
<stop stop-color="#3186FF"/>
<stop offset="1" stop-color="#3186FF" stop-opacity="0"/>
</radialGradient>
<radialGradient id="paint12_radial_1144_4205" cx="0" cy="0" r="1" gradientTransform="matrix(22.9314 26.0384 -18.5268 1.65979 52.5525 7.63059)" gradientUnits="userSpaceOnUse">
<stop stop-color="#F94543"/>
<stop offset="1" stop-color="#F7306E" stop-opacity="0"/>
</radialGradient>
<radialGradient id="paint13_radial_1144_4205" cx="0" cy="0" r="1" gradientTransform="matrix(-8.79905 -15.5385 23.7949 5.6913 85.2095 34.598)" gradientUnits="userSpaceOnUse">
<stop stop-color="#08B962"/>
<stop offset="1" stop-color="#08B962" stop-opacity="0"/>
</radialGradient>
<radialGradient id="paint14_radial_1144_4205" cx="0" cy="0" r="1" gradientTransform="matrix(-3.8934 5.55217 -18.3095 -13.482 64.811 24.7792)" gradientUnits="userSpaceOnUse">
<stop stop-color="#FABC12"/>
<stop offset="1" stop-color="#FABC12" stop-opacity="0"/>
</radialGradient>
<radialGradient id="paint15_radial_1144_4205" cx="0" cy="0" r="1" gradientTransform="matrix(-13.3895 3.3395 -30.3483 -30.8696 72.9783 14.6423)" gradientUnits="userSpaceOnUse">
<stop stop-color="#3186FF"/>
<stop offset="1" stop-color="#3186FF" stop-opacity="0"/>
</radialGradient>
</defs>
</svg>
