<svg width="93" height="55" viewBox="0 0 93 55" fill="none" xmlns="http://www.w3.org/2000/svg">
<path d="M26.981 5.46524L7.4209 19.87C3.32245 22.8883 2.38732 28.7399 5.33223 32.9401L5.34296 32.9554C8.28787 37.1555 13.9976 38.1136 18.0961 35.0954L37.6562 20.6906C41.7547 17.6724 42.6898 11.8207 39.7449 7.62058L39.7342 7.60527C36.7892 3.40512 31.0795 2.447 26.981 5.46524Z" fill="#FBBD03" stroke="#1F2123" stroke-width="0.99659" stroke-miterlimit="10"/>
<path d="M5.34393 22.012L5.33321 22.0273C2.3883 26.2275 3.32343 32.0792 7.42188 35.0974L26.982 49.5022C31.0804 52.5204 36.7902 51.5623 39.7351 47.3621L39.7459 47.3468C42.6908 43.1467 41.7556 37.295 37.6572 34.2768L18.0971 19.872C13.9986 16.8538 8.28884 17.8119 5.34393 22.012Z" fill="#FFE003" stroke="#1F2123" stroke-width="0.99659" stroke-miterlimit="10"/>
<path d="M74.2054 19.86L54.6444 34.2635C50.5457 37.2815 49.6107 43.1328 52.5558 47.3327L52.5666 47.348C55.5117 51.548 61.2219 52.5062 65.3205 49.4882L84.8815 35.0847C88.9802 32.0667 89.9152 26.2154 86.9701 22.0155L86.9593 22.0002C84.0142 17.8002 78.304 16.842 74.2054 19.86Z" fill="#FBBD03" stroke="#1F2123" stroke-width="0.99659" stroke-miterlimit="10"/>
<path d="M52.5651 7.61267L52.5544 7.62797C49.6092 11.8279 50.5443 17.6792 54.6429 20.6972L74.2039 35.1007C78.3026 38.1187 84.0127 37.1605 86.9579 32.9605L86.9686 32.9452C89.9138 28.7453 88.9787 22.894 84.8801 19.876L65.3191 5.4725C61.2204 2.45453 55.5103 3.41271 52.5651 7.61267Z" fill="#FFE003" stroke="#1F2123" stroke-width="0.99659" stroke-miterlimit="10"/>
</svg>
