<svg width="318" height="118" viewBox="0 0 318 118" fill="none" xmlns="http://www.w3.org/2000/svg">
<mask id="mask0_1099_1733" style="mask-type:alpha" maskUnits="userSpaceOnUse" x="0" y="0" width="356" height="119">
<rect x="355.1" y="1.55219e-05" width="118.367" height="355.1" rx="15.4697" transform="rotate(90 355.1 1.55219e-05)" fill="#4285F3"/>
</mask>
<g mask="url(#mask0_1099_1733)">
<rect x="355.1" y="1.55219e-05" width="118.367" height="355.1" rx="15.4697" transform="rotate(90 355.1 1.55219e-05)" fill="#32A952"/>
<path d="M189.299 6.68824C189.299 6.68824 200.896 8.84485 197.404 18.63C196.853 20.0964 196.012 21.437 194.933 22.5722C193.853 23.7073 192.556 24.6138 191.119 25.2379C188.671 26.33 185.957 26.6826 183.312 26.252C180.666 25.8215 178.204 24.6267 176.229 22.8148C174.016 21.1204 172.18 18.9829 170.84 16.5389C169.5 14.0949 168.684 11.3981 168.446 8.62095C168.171 4.85384 169.043 1.09183 170.948 -2.16999C172.374 -4.47396 174.252 -6.46523 176.469 -8.02366C178.685 -9.58208 181.195 -10.6753 183.845 -11.2376C191.95 -13.1863 205.333 -11.8804 211.945 7.16901C212.287 8.19126 212.874 9.11433 213.655 9.85742C214.435 10.6005 215.386 11.1411 216.424 11.432C222.284 13.009 234.108 17.8448 237.521 31.911C239.189 38.7859 243.215 45.4336 248.489 50.1487C252.609 53.8321 256.716 59.3575 258.076 67.2892C258.63 70.5302 256.215 73.3552 253.148 72.1815C242.92 68.4366 232.078 66.6479 221.189 66.9086C206.044 67.2236 188.967 62.2354 186.187 50.8838C185.953 49.8006 185.361 48.8278 184.507 48.1221C183.653 47.4163 182.586 47.0187 181.478 46.9935C173.71 46.9827 157.397 45.0692 148.204 30.2022C137.456 12.8059 132.622 -8.29179 124.92 -19.4192C122.545 -22.8365 123.822 -25.737 127.976 -26.0284C140.94 -26.9911 164.706 -24.9742 175.112 -7.00107" stroke="#14D364" stroke-width="3.93138" stroke-miterlimit="10"/>
<path d="M214.158 43.0814C214.158 43.0814 214.495 24.3166 192.668 24.5027" stroke="#14D364" stroke-width="3.93138" stroke-miterlimit="10"/>
<path d="M47.6427 77.252C47.6427 77.252 58.0842 82.739 51.8569 91.0555C50.8969 92.2934 49.6978 93.3258 48.3309 94.0912C46.9639 94.8566 45.4571 95.3394 43.8999 95.511C41.2386 95.8311 38.5417 95.3659 36.1414 94.1729C33.7411 92.9798 31.7421 91.1108 30.3905 88.7961C28.7767 86.5234 27.655 83.9391 27.0969 81.2082C26.5387 78.4773 26.5564 75.6599 27.1489 72.9362C27.9997 69.2562 29.9449 65.92 32.7283 63.3666C34.7716 61.587 37.1541 60.2395 39.7322 59.4057C42.3103 58.5718 45.0306 58.2689 47.729 58.515C56.0473 59.0481 68.4471 64.2503 69.1348 84.4028C69.1594 85.4805 69.4474 86.5358 69.9738 87.4764C70.5001 88.417 71.2488 89.2144 72.1544 89.799C77.2869 93.0373 87.1534 101.151 86.2573 115.597C85.8193 122.658 87.702 130.199 91.3472 136.262C94.1947 140.998 96.4854 147.49 95.4408 155.47C95.0125 158.73 91.8701 160.715 89.2872 158.687C80.6222 152.087 70.7936 147.175 60.3134 144.206C45.7521 140.032 30.9112 130.22 31.6095 118.554C31.7062 117.45 31.4284 116.346 30.8209 115.419C30.2134 114.493 29.3115 113.798 28.2606 113.446C20.8427 111.14 5.82356 104.492 1.43369 87.5724C-3.69305 67.7772 -2.07694 46.1933 -6.14765 33.2867C-7.40642 29.3202 -5.32948 26.9267 -1.2745 27.8758C11.3951 30.7869 33.5033 39.7362 38.1339 59.9817" stroke="#14D364" stroke-width="3.93138" stroke-miterlimit="10"/>
<path d="M60.6373 119.365C60.6373 119.365 66.5045 101.538 45.5976 95.2663" stroke="#14D364" stroke-width="3.93138" stroke-miterlimit="10"/>
<path d="M287.427 32.5821C285.065 46.9247 311.655 43.7359 304.412 24.7161C299.723 12.2584 278.618 6.84717 269.859 24.2932C262.662 38.6771 271.623 53.6033 289.248 58.6953C311.36 65.099 318.997 73.6807 325.243 78.878C330.521 83.38 336.79 86.5685 343.537 88.1828C350.284 89.7972 357.318 89.7915 364.063 88.1662C364.389 88.1126 364.697 87.978 364.958 87.7746C365.219 87.5712 365.425 87.3055 365.557 87.0019C365.689 86.6983 365.742 86.3666 365.713 86.037C365.683 85.7074 365.571 85.3905 365.387 85.1153C360.419 77.9916 357.888 69.4521 358.173 60.7716C359.535 43.3104 349.696 34.8283 346.818 29.4562C340.957 18.5274 347.198 9.53133 342.698 -2.57559C341.523 -6.23118 339.251 -9.43633 336.191 -11.7557C333.13 -14.075 329.43 -15.3962 325.593 -15.5397" stroke="#14D364" stroke-width="3.93138" stroke-miterlimit="10"/>
<path d="M305.495 -20.5942C317.676 -25.7648 303.171 -43.1238 290.994 -30.6112C283.141 -22.4253 290.835 -8.31734 303.089 -5.99842C315.343 -3.67951 325.209 -9.20813 327.347 -21.4674C328.22 -26.9194 327.16 -32.5049 324.352 -37.2587C321.544 -42.0124 317.163 -45.6357 311.967 -47.5023C301.758 -50.49 292.076 -55.0446 283.265 -61.0034C261.17 -74.8757 254.871 -65.1181 238.319 -74.6131C238.19 -74.6962 238.04 -74.739 237.886 -74.7359C237.733 -74.7329 237.584 -74.6843 237.459 -74.5962C237.333 -74.5082 237.237 -74.3847 237.182 -74.2417C237.127 -74.0986 237.116 -73.9424 237.15 -73.793C238.596 -68.5171 241.754 -53.4142 238.043 -38.929C233.813 -22.8597 242.671 -5.64662 272.248 20.8737" stroke="#14D364" stroke-width="3.93138" stroke-miterlimit="10"/>
<path d="M289.274 -28.3534C289.274 -28.3534 285.716 -34.7084 273.649 -37.2036C266.747 -38.6037 263.385 -41.0821 261.785 -42.9278C261.609 -43.1186 261.385 -43.2584 261.137 -43.3325C260.889 -43.4067 260.625 -43.4123 260.374 -43.3488C260.122 -43.2854 259.893 -43.1552 259.709 -42.9721C259.526 -42.789 259.395 -42.5597 259.331 -42.3085C257.851 -37.0268 256.05 -25.7209 263.8 -16.0456C274.303 -2.89183 285.298 1.46225 283.308 13.0171" stroke="#14D364" stroke-width="3.93138" stroke-miterlimit="10"/>
<path d="M312.754 -5.89926C312.754 -5.89926 322.296 -2.18714 323.812 16.2664C324.978 30.5298 328.502 46.8064 334.129 52.6582C334.354 52.8673 334.514 53.137 334.59 53.435C334.665 53.733 334.653 54.0464 334.554 54.3375C334.455 54.6286 334.274 54.8849 334.033 55.0754C333.792 55.266 333.501 55.3827 333.195 55.4115C328.89 55.9406 318.492 52.9306 303.546 38.212" stroke="#14D364" stroke-width="3.93138" stroke-miterlimit="10"/>
<path d="M149.219 145.027C148.21 159.528 174.384 153.864 165.393 135.606C159.558 123.642 138.039 120.23 130.952 138.419C125.133 153.414 135.452 167.436 153.476 170.855C176.091 175.161 184.498 182.99 191.203 187.58C196.879 191.568 203.419 194.155 210.288 195.131C217.157 196.107 224.159 195.442 230.722 193.193C231.042 193.109 231.336 192.946 231.577 192.719C231.817 192.492 231.998 192.208 232.1 191.894C232.203 191.579 232.225 191.244 232.165 190.918C232.105 190.593 231.964 190.288 231.755 190.031C226.142 183.404 222.823 175.139 222.293 166.47C222.015 148.958 211.425 141.434 208.056 136.355C201.198 126.023 206.57 116.482 200.956 104.85C199.444 101.32 196.882 98.3417 193.618 96.319C190.354 94.2964 186.546 93.3274 182.713 93.5438" stroke="#14D364" stroke-width="3.93138" stroke-miterlimit="10"/>
<path d="M162.229 90.3925C173.873 84.1043 157.806 68.1794 146.854 81.777C139.802 90.6622 148.783 103.988 161.2 105.149C173.617 106.311 182.922 99.8831 183.903 87.4775C184.262 81.9677 182.684 76.5059 179.443 72.0359C176.202 67.5659 171.502 64.3687 166.153 62.9967C155.71 60.9778 145.643 57.3497 136.313 52.2419C113.017 40.4989 107.659 50.8034 90.2909 42.8996C90.1549 42.829 90.0009 42.8005 89.8486 42.8178C89.6963 42.8352 89.5527 42.8976 89.436 42.997C89.3193 43.0964 89.2349 43.2283 89.1936 43.3759C89.1523 43.5235 89.1559 43.6801 89.204 43.8256C91.1372 48.943 95.6957 63.6838 93.3569 78.4528C90.65 94.8476 101.08 111.156 133.01 134.791" stroke="#14D364" stroke-width="3.93138" stroke-miterlimit="10"/>
<path d="M145.353 84.1864C145.353 84.1864 141.215 78.1924 128.968 76.8379C121.965 76.0901 118.386 73.9373 116.62 72.2495C116.427 72.076 116.192 71.9577 115.937 71.9072C115.683 71.8566 115.42 71.8757 115.176 71.9624C114.931 72.0491 114.715 72.2002 114.55 72.3997C114.384 72.5992 114.275 72.8397 114.235 73.0957C113.256 78.4928 112.521 89.9177 121.144 98.825C132.832 110.938 144.186 114.243 143.286 125.934" stroke="#14D364" stroke-width="3.93138" stroke-miterlimit="10"/>
<path d="M170.832 104.344C170.832 104.344 180.679 107.147 183.917 125.377C186.412 139.469 191.445 155.344 197.595 160.643C197.839 160.83 198.023 161.084 198.126 161.374C198.229 161.663 198.246 161.976 198.175 162.275C198.104 162.574 197.948 162.847 197.726 163.059C197.503 163.271 197.224 163.415 196.922 163.472C192.687 164.402 182.052 162.378 165.794 149.124" stroke="#14D364" stroke-width="3.93138" stroke-miterlimit="10"/>
<path d="M284.592 94.1836C284.592 94.1836 283.904 85.4881 292.26 87.2001C293.595 87.5324 294.826 88.1926 295.842 89.1209C296.858 90.0492 297.626 91.2161 298.077 92.5162C298.701 94.2596 298.85 96.1375 298.51 97.9576C298.17 99.7778 297.353 101.475 296.142 102.876C293.673 105.671 289.094 107.972 280.859 104.493C265.884 98.1538 272.362 72.3769 292.815 76.8594C292.815 76.8594 303.431 77.8134 313.485 93.7801C313.485 93.7801 316.191 98.3941 326.272 104.659C332.463 108.419 337.81 113.42 341.974 119.347C346.104 125.477 351.869 130.328 358.616 133.349C369.438 138.031 372.325 144.879 373.145 148.677C373.202 149.018 373.169 149.368 373.05 149.693C372.932 150.018 372.731 150.306 372.468 150.53C372.204 150.755 371.888 150.907 371.548 150.972C371.208 151.038 370.858 151.015 370.53 150.904C365.7 149.129 360.659 147.992 355.534 147.523C348.997 147.494 338.33 151.64 332.482 155.129C324.028 160.176 318.419 155.286 309.285 154.078C301.296 153.271 293.226 154.125 285.583 156.587C281.243 158.208 271.836 156.013 267.709 146.53C264.452 138.817 259.045 132.202 252.134 127.475C245.489 123.424 238.17 119.446 230.954 109.017C228.5 105.501 225.254 102.61 221.477 100.579C218.619 99.0809 215.54 98.051 212.356 97.5282C209.009 96.9196 203.336 94.6332 211.7 86.4951C218.95 79.4427 233.548 85.6188 233.548 85.6188C233.548 85.6188 245.429 91.347 256.531 87.1651C269.39 82.2876 272.894 89.0666 272.894 89.0666" stroke="#14D364" stroke-width="3.93138" stroke-miterlimit="10" stroke-linecap="round"/>
<path d="M295.074 124.751C295.074 124.751 292.042 118.821 287.167 121.806C280.454 125.872 290.895 137.191 301.287 131.611C310.875 126.465 301.647 113.571 290.331 113.07C281.92 112.576 273.724 110.216 266.338 106.16C263.773 104.519 252.445 99.0015 247.632 105.597C247.449 105.864 247.329 106.169 247.279 106.489C247.23 106.809 247.254 107.136 247.348 107.446C247.443 107.756 247.606 108.04 247.825 108.278C248.045 108.516 248.315 108.702 248.616 108.822C253.444 110.602 264.906 115.422 270.28 122.926C272.738 126.368 274.604 128.911 275.957 130.7C278.441 134.087 281.718 136.814 285.5 138.64C289.282 140.467 293.454 141.338 297.651 141.178C298.306 141.154 299.004 141.092 299.689 140.996C308.701 139.577 309.128 136.067 323.294 137.549C323.294 137.549 339.317 141.207 334.795 133.092C332.201 129.01 328.391 125.844 323.904 124.041C318.483 121.262 313.936 117.038 310.767 111.835C306.712 104.258 296.121 102.923 296.121 102.923" stroke="#14D364" stroke-width="3.93138" stroke-miterlimit="10" stroke-linecap="round"/>
<path d="M65.9621 -30.6006C65.9621 -30.6006 66.7336 -39.2892 74.6874 -36.2076C75.9485 -35.6573 77.0524 -34.8009 77.8992 -33.7162C78.7459 -32.6316 79.3087 -31.3529 79.5365 -29.9958C79.8606 -28.1728 79.6948 -26.2963 79.056 -24.5583C78.4172 -22.8204 77.3285 -21.2833 75.9009 -20.104C73.0007 -17.7601 68.1022 -16.2541 60.5624 -21.058C46.854 -29.8059 57.5403 -54.1415 76.9594 -46.3108C76.9594 -46.3108 87.2672 -43.5999 94.5178 -26.1801C94.5178 -26.1801 96.4166 -21.1794 105.312 -13.3208C110.789 -8.58122 115.227 -2.75897 118.344 3.77949C121.394 10.5131 126.27 16.2575 132.418 20.3612C142.308 26.7826 144.013 34.0158 144.188 37.8972C144.187 38.243 144.096 38.5827 143.925 38.8832C143.754 39.1836 143.508 39.4347 143.211 39.6119C142.914 39.7891 142.576 39.8864 142.23 39.8944C141.884 39.9024 141.542 39.8208 141.238 39.6575C136.771 37.1016 131.99 35.1402 127.016 33.823C120.575 32.704 109.366 35.0134 103.018 37.4775C93.841 41.0448 89.1255 35.2875 80.3212 32.5726C72.5784 30.445 64.4792 29.9416 56.5325 31.094C51.9827 31.9687 43.0734 28.236 40.5864 18.1975C38.6607 10.0485 34.433 2.62507 28.4069 -3.1885C22.5308 -8.29046 15.9773 -13.4341 10.6012 -24.9196C8.76824 -28.7964 6.04964 -32.1879 2.66479 -34.8206C0.0969279 -36.774 -2.7675 -38.3029 -5.81946 -39.3494C-9.01858 -40.5077 -14.2304 -43.7081 -4.62687 -50.3375C3.6976 -56.082 17.0612 -47.5579 17.0612 -47.5579C17.0612 -47.5579 27.8204 -39.9286 39.4646 -42.2005C52.9567 -44.8653 55.2819 -37.5967 55.2819 -37.5967" stroke="#14D364" stroke-width="3.93138" stroke-miterlimit="10" stroke-linecap="round"/>
<path d="M71.2006 1.28811C71.2006 1.28811 69.2 -5.06514 63.8958 -2.93434C56.5985 -0.0454014 65.0058 12.857 76.183 9.08728C86.4945 5.6131 79.5458 -8.63947 68.4724 -11.0205C60.2612 -12.9106 52.5736 -16.6048 45.9675 -21.835C43.7125 -23.8813 33.4629 -31.2104 27.6175 -25.5102C27.3926 -25.2772 27.2229 -24.9967 27.1211 -24.6892C27.0194 -24.3818 26.9881 -24.0554 27.0296 -23.7342C27.0711 -23.4131 27.1844 -23.1054 27.361 -22.8339C27.5376 -22.5625 27.7731 -22.3344 28.0499 -22.1663C32.5129 -19.6053 43.011 -12.9419 47.0588 -4.64684C48.9075 -0.842779 50.324 1.97604 51.3598 3.96579C53.2441 7.71954 56.0201 10.954 59.4446 13.3858C62.869 15.8176 66.8376 17.3726 71.0026 17.9147C71.652 17.9995 72.351 18.0552 73.0424 18.0753C82.1643 18.1784 83.1708 14.7886 96.891 18.6125C96.891 18.6125 112.08 24.8912 108.974 16.1358C107.097 11.6784 103.869 7.92193 99.7454 5.39529C94.8633 1.75162 91.0849 -3.17203 88.8281 -8.83055C86.0932 -16.9777 75.8735 -20.0602 75.8735 -20.0602" stroke="#14D364" stroke-width="3.93138" stroke-miterlimit="10" stroke-linecap="round"/>
<rect x="352.756" y="2.34391" width="113.679" height="350.412" rx="13.1258" transform="rotate(90 352.756 2.34391)" stroke="#14D364" stroke-width="4.68778"/>
</g>
</svg>
