<svg width="17" height="180" viewBox="0 0 17 180" fill="none" xmlns="http://www.w3.org/2000/svg">
<mask id="mask0_1162_4283" style="mask-type:alpha" maskUnits="userSpaceOnUse" x="-43" y="0" width="60" height="180">
<rect x="-43" width="60" height="180" rx="7.84158" fill="#4285F3"/>
</mask>
<g mask="url(#mask0_1162_4283)">
<rect x="-43" width="60" height="180" rx="7.84158" fill="#4285F3"/>
<path d="M-39.6098 84.0436C-39.6098 84.0436 -38.5166 78.1652 -33.5565 79.9352C-32.8132 80.2147 -32.1336 80.6408 -31.5582 81.1881C-30.9828 81.7354 -30.5233 82.3927 -30.207 83.1211C-29.6534 84.362 -29.4747 85.7377 -29.6929 87.0788C-29.9111 88.4198 -30.5168 89.6678 -31.4353 90.6691C-32.2941 91.791 -33.3776 92.7213 -34.6165 93.4006C-35.8554 94.08 -37.2224 94.4934 -38.6301 94.6144C-40.5397 94.7536 -42.4466 94.3114 -44.1 93.3459C-45.2679 92.623 -46.2773 91.6711 -47.0673 90.5475C-47.8572 89.4239 -48.4114 88.1519 -48.6964 86.8083C-49.6842 82.7002 -49.0223 75.9162 -39.3661 72.5646C-38.8479 72.3913 -38.38 72.0938 -38.0033 71.698C-37.6267 71.3022 -37.3527 70.8202 -37.2052 70.2941C-36.4058 67.3235 -33.9546 61.3303 -26.8244 59.6003C-23.3395 58.7548 -19.9698 56.7136 -17.5797 54.0402C-15.7126 51.9519 -12.9118 49.8702 -8.89117 49.1808C-7.24832 48.8999 -5.81632 50.1243 -6.41125 51.6788C-8.30956 56.8636 -9.21625 62.359 -9.0841 67.8788C-8.9244 75.5556 -11.4529 84.2122 -17.2071 85.6215C-17.7561 85.74 -18.2492 86.0399 -18.607 86.4729C-18.9647 86.9059 -19.1663 87.4467 -19.1791 88.0083C-19.1846 91.9459 -20.1545 100.215 -27.6906 104.875C-36.5088 110.323 -47.2032 112.773 -52.8437 116.678C-54.5759 117.881 -56.0461 117.234 -56.1939 115.128C-56.6819 108.557 -55.6595 96.5101 -46.5489 91.2352" stroke="#63BDFD" stroke-width="1.99282" stroke-miterlimit="10"/>
<path d="M-3.84047 155.85C-3.84047 155.85 -1.05909 150.557 3.15651 153.714C3.78404 154.2 4.30735 154.808 4.69534 155.501C5.08332 156.194 5.32806 156.958 5.41503 157.747C5.57727 159.096 5.34149 160.463 4.73671 161.68C4.13194 162.896 3.18458 163.91 2.01125 164.595C0.859229 165.413 -0.450788 165.981 -1.83508 166.264C-3.21937 166.547 -4.64748 166.538 -6.02813 166.238C-7.89354 165.807 -9.58467 164.821 -10.879 163.41C-11.7811 162.374 -12.4641 161.166 -12.8868 159.86C-13.3094 158.553 -13.463 157.174 -13.3383 155.806C-13.068 151.589 -10.431 145.304 -0.215706 144.955C0.330547 144.943 0.865476 144.797 1.34228 144.53C1.81909 144.263 2.22329 143.884 2.51962 143.425C4.16111 140.823 8.27385 135.822 15.5968 136.276C19.1759 136.498 22.9983 135.544 26.0716 133.696C28.4725 132.253 31.7633 131.091 35.8081 131.621C37.4606 131.838 38.4668 133.431 37.4392 134.74C34.0936 139.132 31.6035 144.115 30.0987 149.427C27.9828 156.808 23.0092 164.331 17.0956 163.977C16.5361 163.928 15.9763 164.069 15.5066 164.377C15.0369 164.685 14.6845 165.142 14.5064 165.675C13.3376 169.435 9.96754 177.048 1.39095 179.273C-8.64324 181.872 -19.5841 181.053 -26.1265 183.116C-28.1371 183.754 -29.3504 182.701 -28.8692 180.646C-27.3937 174.224 -22.8572 163.017 -12.5948 160.67" stroke="#63BDFD" stroke-width="1.99282" stroke-miterlimit="10"/>
<path d="M17.5067 149.263C17.5067 149.263 8.47004 146.289 5.29089 156.887" stroke="#63BDFD" stroke-width="1.99282" stroke-miterlimit="10"/>
<path d="M-26.4841 34.3038C-19.2138 35.5012 -20.8303 22.023 -30.4714 25.6942C-36.7862 28.0712 -39.5291 38.7694 -30.6857 43.2092C-23.3946 46.8576 -15.8284 42.3153 -13.2473 33.3811C-10.0013 22.1725 -5.65124 18.3012 -3.0167 15.1353C-0.734665 12.4597 0.881593 9.28185 1.69991 5.86172C2.51822 2.44158 2.51534 -1.12375 1.69149 -4.54264C1.66433 -4.70818 1.59607 -4.86425 1.49296 -4.99658C1.38985 -5.12891 1.25518 -5.23325 1.1013 -5.30006C0.947423 -5.36687 0.779248 -5.394 0.61217 -5.37898C0.445092 -5.36396 0.284463 -5.30725 0.144978 -5.21407C-3.46603 -2.69579 -7.7947 -1.41294 -12.1948 -1.55699C-21.0459 -2.2477 -25.3455 2.73977 -28.0686 4.19887C-33.6085 7.16963 -38.1685 4.00609 -44.3055 6.28698C-46.1586 6.88274 -47.7833 8.03444 -48.9589 9.58567C-50.1346 11.1369 -50.8043 13.0124 -50.877 14.9576" stroke="#63BDFD" stroke-width="1.99282" stroke-miterlimit="10"/>
<path d="M30.5149 104.361C37.8654 104.872 34.9943 91.6048 25.7392 96.1624C19.6746 99.1202 17.9452 110.028 27.1654 113.621C34.7661 116.57 41.8738 111.34 43.6072 102.203C45.7897 90.7399 49.7582 86.4783 52.0848 83.0797C54.1063 80.2022 55.418 76.887 55.9125 73.4053C56.407 69.9236 56.0704 66.3742 54.9301 63.0474C54.8876 62.8851 54.805 62.7361 54.6899 62.614C54.5749 62.4919 54.4311 62.4007 54.2716 62.3486C54.1121 62.2964 53.9422 62.2852 53.7772 62.3158C53.6123 62.3464 53.4577 62.4179 53.3275 62.5237C49.9681 65.369 45.7786 67.0514 41.3843 67.3199C32.5074 67.4609 28.6936 72.8289 26.1191 74.5366C20.8816 78.0129 16.0454 75.2901 10.1489 78.1355C8.35979 78.9022 6.85006 80.2009 5.82476 81.8554C4.79946 83.5099 4.30829 85.4399 4.41799 87.3832" stroke="#63BDFD" stroke-width="1.99282" stroke-miterlimit="10"/>
<path d="M2.82028 97.7659C-0.367217 91.8637 -8.43953 100.008 -1.54688 105.56C2.95698 109.134 9.71177 104.582 10.3006 98.2875C10.8894 91.9932 7.63105 87.2767 1.34266 86.7795C-1.45023 86.5977 -4.21884 87.3973 -6.48468 89.0401C-8.75052 90.6829 -10.3712 93.0657 -11.0666 95.7767C-12.09 101.07 -13.9291 106.173 -16.5182 110.903C-22.4708 122.711 -17.2474 125.428 -21.2539 134.231C-21.2897 134.3 -21.3041 134.378 -21.2953 134.456C-21.2865 134.533 -21.2549 134.606 -21.2045 134.665C-21.1541 134.724 -21.0872 134.767 -21.0124 134.788C-20.9376 134.809 -20.8582 134.807 -20.7845 134.782C-18.1905 133.802 -10.7183 131.492 -3.23193 132.677C5.07857 134.049 13.3452 128.762 25.3258 112.577" stroke="#63BDFD" stroke-width="1.99282" stroke-miterlimit="10"/>
<path d="M-0.325506 106.321C-0.325506 106.321 -3.36386 108.418 -4.05049 114.627C-4.42956 118.176 -5.52079 119.991 -6.37631 120.886C-6.46427 120.983 -6.52424 121.103 -6.54986 121.232C-6.57548 121.361 -6.56579 121.494 -6.52185 121.618C-6.47791 121.742 -6.40132 121.851 -6.3002 121.935C-6.19908 122.019 -6.07718 122.074 -5.94738 122.094C-3.21158 122.591 2.57968 122.963 7.09477 118.593C13.2347 112.668 14.9103 106.912 20.8362 107.368" stroke="#63BDFD" stroke-width="1.99282" stroke-miterlimit="10"/>
<path d="M9.89206 93.4049C9.89206 93.4049 11.3127 88.4132 20.5537 86.7723C27.6968 85.5071 35.7439 82.9562 38.4302 79.8388C38.525 79.7152 38.6535 79.6216 38.8003 79.5694C38.9471 79.5173 39.1059 79.5087 39.2575 79.5447C39.4091 79.5807 39.547 79.6599 39.6546 79.7725C39.7622 79.8852 39.835 80.0266 39.864 80.1797C40.3353 82.3268 39.3096 87.7174 32.5908 95.9587" stroke="#63BDFD" stroke-width="1.99282" stroke-miterlimit="10"/>
<path d="M4.74165 35.7407C4.74165 35.7407 0.333871 36.0896 1.20167 31.8538C1.37013 31.177 1.70482 30.5528 2.17535 30.038C2.64589 29.5231 3.2374 29.1337 3.8964 28.9051C4.78015 28.589 5.73206 28.5133 6.65469 28.6856C7.57733 28.858 8.43761 29.2722 9.14768 29.886C10.5643 31.1374 11.7311 33.4583 9.96751 37.6329C6.75412 45.2238 -6.3122 41.94 -4.04 31.5723C-4.04 31.5723 -3.55644 26.1913 4.5371 21.0949C4.5371 21.0949 6.87592 19.7231 10.0517 14.6131C11.9575 11.4746 14.4924 8.76466 17.4968 6.65376C20.6044 4.56016 23.0633 1.63776 24.5946 -1.7821C26.9681 -7.2677 30.4391 -8.73129 32.3642 -9.14695C32.5372 -9.17565 32.7146 -9.15911 32.8792 -9.09893C33.0439 -9.03875 33.1901 -8.93698 33.3038 -8.80353C33.4175 -8.67008 33.4947 -8.50948 33.5279 -8.33736C33.5611 -8.16524 33.5492 -7.98745 33.4934 -7.82129C32.5935 -5.37297 32.0174 -2.81758 31.7795 -0.219983C31.7647 3.09371 33.8665 8.50081 35.6347 11.465C38.1934 15.7503 35.7145 18.5938 35.1019 23.2238C34.693 27.2735 35.1261 31.364 36.3738 35.2384C37.1956 37.4384 36.0831 42.2068 31.2762 44.2984C27.3661 45.9498 24.0132 48.6903 21.617 52.1936C19.5637 55.5618 17.5469 59.2721 12.2609 62.93C10.4782 64.1738 9.01296 65.8193 7.98326 67.7336C7.22405 69.1821 6.70201 70.743 6.437 72.3568C6.12851 74.0537 4.96952 76.9291 0.844315 72.6897C-2.73052 69.0147 0.400133 61.6149 0.400133 61.6149C0.400133 61.6149 3.30377 55.5926 1.18396 49.9648C-1.28847 43.4467 2.1478 41.6701 2.1478 41.6701" stroke="#63BDFD" stroke-width="1.99282" stroke-miterlimit="10" stroke-linecap="round"/>
<path d="M20.2364 30.4268C20.2364 30.4268 17.2301 31.9638 18.7435 34.4347C20.8043 37.8377 26.5422 32.545 23.7132 27.2773C21.1052 22.4173 14.5691 27.0951 14.3152 32.8309C14.0646 37.0947 12.8681 41.2492 10.8125 44.9931C9.98039 46.2931 7.18373 52.0355 10.5268 54.4751C10.6623 54.5678 10.8168 54.6289 10.9791 54.6538C11.1414 54.6787 11.3071 54.6667 11.4641 54.6188C11.6211 54.5709 11.7654 54.4883 11.8861 54.3771C12.0068 54.2659 12.101 54.1289 12.1615 53.9763C13.0642 51.5292 15.5072 45.719 19.3109 42.9946C21.0559 41.7491 22.345 40.8029 23.2519 40.1169C24.9688 38.8578 26.3507 37.197 27.2766 35.2798C28.2026 33.3627 28.6443 31.2478 28.5631 29.1203C28.5506 28.7885 28.5193 28.4345 28.4709 28.0872C27.7514 23.5193 25.972 23.3028 26.7234 16.1222C26.7234 16.1222 28.5775 7.99991 24.4641 10.2923C22.395 11.6073 20.7903 13.5381 19.8762 15.8129C18.4677 18.561 16.3263 20.8657 13.6889 22.4719C9.84819 24.5276 9.17145 29.896 9.17145 29.896" stroke="#63BDFD" stroke-width="1.99282" stroke-miterlimit="10" stroke-linecap="round"/>
<rect x="-41.8119" y="1.18812" width="57.6238" height="177.624" rx="6.65347" stroke="#63BDFD" stroke-width="2.37624"/>
</g>
</svg>
