<svg width="250" height="575" viewBox="0 0 250 575" fill="none" xmlns="http://www.w3.org/2000/svg">
<mask id="mask0_1099_1625" style="mask-type:alpha" maskUnits="userSpaceOnUse" x="0" y="0" width="348" height="575">
<rect x="-2.29703" y="2.29703" width="343.406" height="569.663" rx="39.0495" transform="matrix(-1 0 0 1 343.406 0)" fill="#EA4335" stroke="#FF807F" stroke-width="4.59406"/>
</mask>
<g mask="url(#mask0_1099_1625)">
<rect width="348" height="574.257" rx="41.3465" transform="matrix(-1 0 0 1 348 0)" fill="#FAF6D7"/>
<path d="M-248.255 533.589H-241.029C-238.799 533.589 -236.858 534.037 -235.206 534.933C-233.553 535.829 -232.279 537.083 -231.383 538.695C-230.487 540.308 -230.04 542.169 -230.04 544.279C-230.04 546.39 -230.487 548.251 -231.383 549.863C-232.279 551.476 -233.553 552.73 -235.206 553.626C-236.858 554.522 -238.799 554.97 -241.029 554.97H-248.255V533.589ZM-241.208 551.147C-238.898 551.147 -237.137 550.54 -235.922 549.326C-234.708 548.092 -234.101 546.409 -234.101 544.279C-234.101 542.149 -234.708 540.477 -235.922 539.263C-237.137 538.028 -238.898 537.411 -241.208 537.411H-244.224V551.147H-241.208ZM-221.241 555.448C-222.754 555.448 -224.118 555.099 -225.332 554.402C-226.547 553.706 -227.502 552.75 -228.199 551.536C-228.876 550.301 -229.214 548.918 -229.214 547.385C-229.214 545.932 -228.876 544.588 -228.199 543.354C-227.522 542.099 -226.587 541.104 -225.392 540.368C-224.198 539.631 -222.864 539.263 -221.391 539.263C-219.818 539.263 -218.464 539.601 -217.33 540.278C-216.195 540.955 -215.339 541.88 -214.761 543.055C-214.164 544.23 -213.866 545.534 -213.866 546.967C-213.866 547.425 -213.895 547.863 -213.955 548.281H-225.392C-225.193 549.495 -224.715 550.421 -223.959 551.058C-223.182 551.675 -222.257 551.984 -221.182 551.984C-220.286 551.984 -219.519 551.794 -218.882 551.416C-218.225 551.018 -217.708 550.491 -217.33 549.834L-214.164 551.386C-215.717 554.094 -218.076 555.448 -221.241 555.448ZM-217.628 545.504C-217.668 545.026 -217.847 544.558 -218.166 544.1C-218.464 543.622 -218.892 543.234 -219.45 542.936C-219.987 542.617 -220.624 542.458 -221.361 542.458C-222.296 542.458 -223.103 542.737 -223.78 543.294C-224.437 543.831 -224.914 544.568 -225.213 545.504H-217.628ZM-214.04 539.74H-209.591L-205.739 549.654H-205.5L-201.588 539.74H-197.199L-203.708 554.97H-207.59L-214.04 539.74ZM-195.732 533.589H-182.175V537.411H-191.7V542.607H-183.13V546.429H-191.7V554.97H-195.732V533.589ZM-174.113 555.448C-175.626 555.448 -176.99 555.099 -178.204 554.402C-179.418 553.706 -180.374 552.75 -181.071 551.536C-181.747 550.301 -182.086 548.918 -182.086 547.385C-182.086 545.932 -181.747 544.588 -181.071 543.354C-180.394 542.099 -179.458 541.104 -178.264 540.368C-177.069 539.631 -175.735 539.263 -174.262 539.263C-172.689 539.263 -171.336 539.601 -170.201 540.278C-169.066 540.955 -168.21 541.88 -167.633 543.055C-167.036 544.23 -166.737 545.534 -166.737 546.967C-166.737 547.425 -166.767 547.863 -166.827 548.281H-178.264C-178.065 549.495 -177.587 550.421 -176.83 551.058C-176.054 551.675 -175.128 551.984 -174.053 551.984C-173.157 551.984 -172.391 551.794 -171.754 551.416C-171.097 551.018 -170.579 550.491 -170.201 549.834L-167.036 551.386C-168.589 554.094 -170.948 555.448 -174.113 555.448ZM-170.5 545.504C-170.539 545.026 -170.719 544.558 -171.037 544.1C-171.336 543.622 -171.764 543.234 -172.321 542.936C-172.859 542.617 -173.496 542.458 -174.232 542.458C-175.168 542.458 -175.974 542.737 -176.651 543.294C-177.308 543.831 -177.786 544.568 -178.084 545.504H-170.5ZM-158.979 555.448C-160.831 555.448 -162.334 555.069 -163.488 554.313C-164.623 553.556 -165.419 552.571 -165.877 551.356L-162.383 549.834C-162.065 550.55 -161.617 551.098 -161.04 551.476C-160.442 551.834 -159.756 552.013 -158.979 552.013C-158.263 552.013 -157.665 551.904 -157.188 551.685C-156.71 551.446 -156.471 551.068 -156.471 550.55C-156.471 550.053 -156.69 549.684 -157.128 549.445C-157.566 549.187 -158.223 548.958 -159.099 548.759L-160.89 548.37C-162.125 548.072 -163.15 547.534 -163.966 546.758C-164.782 545.962 -165.19 544.976 -165.19 543.802C-165.19 542.926 -164.932 542.139 -164.414 541.443C-163.876 540.746 -163.16 540.208 -162.264 539.83C-161.348 539.452 -160.343 539.263 -159.248 539.263C-156.103 539.263 -154.002 540.368 -152.947 542.577L-156.292 544.04C-156.889 542.965 -157.844 542.428 -159.158 542.428C-159.835 542.428 -160.373 542.557 -160.771 542.816C-161.169 543.055 -161.368 543.364 -161.368 543.742C-161.368 544.459 -160.691 544.996 -159.338 545.354L-157.098 545.892C-155.585 546.27 -154.45 546.847 -153.694 547.624C-152.917 548.4 -152.529 549.356 -152.529 550.491C-152.529 551.466 -152.818 552.332 -153.395 553.088C-153.953 553.825 -154.729 554.402 -155.724 554.82C-156.7 555.238 -157.785 555.448 -158.979 555.448ZM-144.407 555.209C-145.163 555.209 -145.86 555.099 -146.497 554.88C-147.134 554.641 -147.652 554.323 -148.05 553.925C-148.986 553.029 -149.453 551.755 -149.453 550.102V543.085H-152.111V539.74H-149.453V535.44H-145.542V539.74H-141.809V543.085H-145.542V549.386C-145.542 550.162 -145.372 550.719 -145.034 551.058C-144.755 551.376 -144.277 551.536 -143.601 551.536C-143.222 551.536 -142.914 551.486 -142.675 551.386C-142.416 551.287 -142.088 551.118 -141.689 550.879V554.701C-142.546 555.039 -143.451 555.209 -144.407 555.209ZM-133.408 533.589H-125.046C-123.852 533.589 -122.757 533.838 -121.762 534.336C-120.746 534.833 -119.95 535.51 -119.373 536.366C-118.795 537.222 -118.507 538.158 -118.507 539.173C-118.507 540.248 -118.776 541.184 -119.313 541.98C-119.831 542.756 -120.517 543.354 -121.373 543.772V544.011C-120.259 544.409 -119.373 545.046 -118.716 545.922C-118.059 546.778 -117.73 547.813 -117.73 549.027C-117.73 550.202 -118.049 551.247 -118.686 552.163C-119.303 553.059 -120.149 553.755 -121.224 554.253C-122.279 554.731 -123.454 554.97 -124.748 554.97H-133.408V533.589ZM-125.345 542.308C-124.469 542.308 -123.772 542.07 -123.255 541.592C-122.717 541.094 -122.448 540.477 -122.448 539.74C-122.448 539.024 -122.707 538.427 -123.225 537.949C-123.723 537.451 -124.389 537.202 -125.226 537.202H-129.376V542.308H-125.345ZM-124.897 551.297C-123.922 551.297 -123.165 551.048 -122.628 550.55C-122.07 550.033 -121.792 549.366 -121.792 548.55C-121.792 547.733 -122.07 547.066 -122.628 546.549C-123.185 546.031 -123.981 545.772 -125.017 545.772H-129.376V551.297H-124.897ZM-111.147 555.448C-112.76 555.448 -114.083 554.98 -115.119 554.044C-116.154 553.088 -116.671 551.844 -116.671 550.311C-116.671 549.296 -116.403 548.4 -115.865 547.624C-115.328 546.847 -114.591 546.25 -113.655 545.832C-112.72 545.414 -111.685 545.205 -110.55 545.205C-108.977 545.205 -107.633 545.434 -106.519 545.892V545.235C-106.519 544.399 -106.837 543.722 -107.474 543.204C-108.091 542.687 -108.927 542.428 -109.983 542.428C-110.699 542.428 -111.396 542.597 -112.073 542.936C-112.73 543.254 -113.277 543.682 -113.715 544.22L-116.224 542.249C-115.487 541.293 -114.561 540.557 -113.446 540.039C-112.332 539.521 -111.117 539.263 -109.803 539.263C-107.474 539.263 -105.702 539.8 -104.488 540.875C-103.274 541.95 -102.666 543.523 -102.666 545.593V554.97H-106.519V553.417H-106.757C-107.215 554.014 -107.823 554.502 -108.579 554.88C-109.316 555.258 -110.172 555.448 -111.147 555.448ZM-110.221 552.402C-109.087 552.402 -108.191 552.043 -107.534 551.327C-106.857 550.59 -106.519 549.734 -106.519 548.759C-107.534 548.281 -108.599 548.042 -109.714 548.042C-111.744 548.042 -112.76 548.798 -112.76 550.311C-112.76 550.928 -112.541 551.436 -112.103 551.834C-111.665 552.213 -111.038 552.402 -110.221 552.402ZM-100.261 539.74H-96.5883V541.652H-96.3494C-95.8915 540.915 -95.2445 540.338 -94.4084 539.92C-93.5723 539.482 -92.6665 539.263 -91.691 539.263C-89.8595 539.263 -88.466 539.82 -87.5104 540.935C-86.5549 542.05 -86.0771 543.573 -86.0771 545.504V554.97H-89.9889V545.981C-89.9889 545.006 -90.2378 544.249 -90.7355 543.712C-91.2331 543.174 -91.9299 542.906 -92.8257 542.906C-93.8809 542.906 -94.7369 543.314 -95.3938 544.13C-96.0309 544.946 -96.3494 545.971 -96.3494 547.206V554.97H-100.261V539.74ZM-77.04 555.448C-78.4137 555.448 -79.6678 555.109 -80.8026 554.432C-81.9174 553.735 -82.8033 552.78 -83.4602 551.566C-84.0973 550.331 -84.4158 548.928 -84.4158 547.355C-84.4158 545.802 -84.0973 544.409 -83.4602 543.174C-82.8033 541.94 -81.9174 540.985 -80.8026 540.308C-79.6678 539.611 -78.4137 539.263 -77.04 539.263C-76.0048 539.263 -75.0891 539.492 -74.2928 539.949C-73.4965 540.387 -72.8893 540.935 -72.4712 541.592H-72.2324L-72.4712 539.442V533.589H-68.5893V554.97H-72.2324V553.148H-72.4712C-72.8694 553.805 -73.4766 554.353 -74.2928 554.791C-75.0891 555.229 -76.0048 555.448 -77.04 555.448ZM-76.3831 551.834C-75.6465 551.834 -74.9597 551.645 -74.3227 551.267C-73.6856 550.889 -73.178 550.361 -72.7997 549.684C-72.4215 549.007 -72.2324 548.231 -72.2324 547.355C-72.2324 546.479 -72.4215 545.703 -72.7997 545.026C-73.178 544.349 -73.6856 543.831 -74.3227 543.473C-74.9597 543.095 -75.6465 542.906 -76.3831 542.906C-77.0998 542.906 -77.7766 543.095 -78.4137 543.473C-79.0507 543.831 -79.5584 544.349 -79.9366 545.026C-80.3148 545.703 -80.504 546.479 -80.504 547.355C-80.504 548.231 -80.3148 549.007 -79.9366 549.684C-79.5584 550.361 -79.0507 550.889 -78.4137 551.267C-77.7766 551.645 -77.0998 551.834 -76.3831 551.834ZM-60.4413 555.448C-62.2728 555.448 -63.6663 554.88 -64.6219 553.745C-65.5775 552.611 -66.0553 551.028 -66.0553 548.997V539.74H-62.1434V548.52C-62.1434 549.555 -61.8946 550.371 -61.3969 550.968C-60.8992 551.546 -60.2422 551.834 -59.426 551.834C-58.3112 551.834 -57.4253 551.426 -56.7684 550.61C-56.1114 549.794 -55.7829 548.759 -55.7829 547.504V539.74H-51.8711V554.97H-55.544V553.059H-55.7829C-56.2408 553.795 -56.8878 554.382 -57.7239 554.82C-58.5401 555.238 -59.4459 555.448 -60.4413 555.448ZM-49.2543 539.74H-45.5813V541.652H-45.3424C-44.8845 540.915 -44.2375 540.338 -43.4014 539.92C-42.5653 539.482 -41.6595 539.263 -40.684 539.263C-38.8525 539.263 -37.459 539.82 -36.5034 540.935C-35.5479 542.05 -35.0701 543.573 -35.0701 545.504V554.97H-38.9819V545.981C-38.9819 545.006 -39.2308 544.249 -39.7285 543.712C-40.2262 543.174 -40.9229 542.906 -41.8188 542.906C-42.8739 542.906 -43.7299 543.314 -44.3869 544.13C-45.0239 544.946 -45.3424 545.971 -45.3424 547.206V554.97H-49.2543V539.74ZM-25.7011 561.898C-27.6321 561.898 -29.2347 561.46 -30.5088 560.584C-31.7829 559.728 -32.6389 558.692 -33.0769 557.478L-29.4039 555.985C-29.0854 556.742 -28.5977 557.339 -27.9407 557.777C-27.2838 558.215 -26.5372 558.434 -25.7011 558.434C-24.4668 558.434 -23.4914 558.055 -22.7747 557.299C-22.0381 556.542 -21.6698 555.467 -21.6698 554.074V552.879H-21.9087C-22.3865 553.556 -23.0136 554.074 -23.79 554.432C-24.5664 554.791 -25.4523 554.97 -26.4476 554.97C-27.7018 554.97 -28.8764 554.651 -29.9713 554.014C-31.0463 553.357 -31.9123 552.441 -32.5692 551.267C-33.2262 550.072 -33.5546 548.689 -33.5546 547.116C-33.5546 545.543 -33.2262 544.17 -32.5692 542.995C-31.9123 541.801 -31.0463 540.885 -29.9713 540.248C-28.8764 539.591 -27.7018 539.263 -26.4476 539.263C-25.4523 539.263 -24.5664 539.442 -23.79 539.8C-23.0136 540.158 -22.3865 540.676 -21.9087 541.353H-21.6698V539.74H-17.9073V553.925C-17.9073 555.557 -18.2258 556.97 -18.8628 558.165C-19.4999 559.359 -20.4057 560.275 -21.5802 560.912C-22.7548 561.569 -24.1284 561.898 -25.7011 561.898ZM-25.6414 551.416C-24.5465 551.416 -23.6108 551.038 -22.8344 550.281C-22.058 549.505 -21.6698 548.45 -21.6698 547.116C-21.6698 545.743 -22.058 544.687 -22.8344 543.951C-23.5909 543.194 -24.5266 542.816 -25.6414 542.816C-26.7562 542.816 -27.7018 543.194 -28.4782 543.951C-29.2546 544.707 -29.6428 545.762 -29.6428 547.116C-29.6428 548.47 -29.2546 549.525 -28.4782 550.281C-27.7018 551.038 -26.7562 551.416 -25.6414 551.416ZM-9.8328 551.416C-9.17585 550.759 -7.91172 549.495 -6.0404 547.624C-4.14918 545.733 -2.93482 544.498 -2.39731 543.921C-1.68064 543.145 -1.1929 542.498 -0.934104 541.98C-0.655398 541.462 -0.516045 540.875 -0.516045 540.218C-0.516045 539.521 -0.774843 538.934 -1.29244 538.456C-1.81004 537.979 -2.49685 537.74 -3.35288 537.74C-4.189 537.74 -4.86585 537.979 -5.38345 538.456C-5.90105 538.934 -6.26934 539.531 -6.48832 540.248L-10.012 538.785C-9.79298 538.008 -9.39483 537.262 -8.81751 536.545C-8.22028 535.809 -7.45384 535.211 -6.51818 534.754C-5.58253 534.296 -4.50752 534.067 -3.29315 534.067C-1.93944 534.067 -0.754936 534.336 0.260351 534.873C1.27564 535.391 2.06199 536.107 2.6194 537.023C3.17681 537.919 3.45552 538.924 3.45552 540.039C3.45552 542.249 2.38051 544.409 0.23049 546.519C-0.645444 547.375 -2.26791 548.987 -4.63692 551.356L-4.54733 551.536H3.72427V554.97H-9.8328V551.416ZM14.0761 555.448C12.3641 555.448 10.8611 554.99 9.56707 554.074C8.27307 553.138 7.26774 551.864 6.55107 550.252C5.8543 548.619 5.50592 546.788 5.50592 544.757C5.50592 542.727 5.8543 540.905 6.55107 539.292C7.26774 537.66 8.27307 536.386 9.56707 535.47C10.8611 534.535 12.3641 534.067 14.0761 534.067C15.7882 534.067 17.2912 534.535 18.5852 535.47C19.8792 536.386 20.8746 537.66 21.5713 539.292C22.288 540.905 22.6464 542.727 22.6464 544.757C22.6464 546.788 22.288 548.619 21.5713 550.252C20.8746 551.864 19.8792 553.138 18.5852 554.074C17.2912 554.99 15.7882 555.448 14.0761 555.448ZM14.0761 551.775C15.0317 551.775 15.8579 551.476 16.5546 550.879C17.2713 550.262 17.8088 549.425 18.1671 548.37C18.5454 547.295 18.7345 546.091 18.7345 544.757C18.7345 542.687 18.3165 541.005 17.4803 539.711C16.6442 538.397 15.5095 537.74 14.0761 537.74C12.6627 537.74 11.5379 538.397 10.7018 539.711C9.86568 541.024 9.44762 542.707 9.44762 544.757C9.44762 546.091 9.62679 547.295 9.98513 548.37C10.3634 549.425 10.9009 550.262 11.5976 550.879C12.3143 551.476 13.1405 551.775 14.0761 551.775ZM24.2302 551.416C24.8871 550.759 26.1512 549.495 28.0226 547.624C29.9138 545.733 31.1281 544.498 31.6656 543.921C32.3823 543.145 32.8701 542.498 33.1289 541.98C33.4076 541.462 33.5469 540.875 33.5469 540.218C33.5469 539.521 33.2881 538.934 32.7705 538.456C32.2529 537.979 31.5661 537.74 30.7101 537.74C29.874 537.74 29.1971 537.979 28.6795 538.456C28.1619 538.934 27.7936 539.531 27.5746 540.248L24.051 538.785C24.27 538.008 24.6681 537.262 25.2454 536.545C25.8427 535.809 26.6091 535.211 27.5448 534.754C28.4804 534.296 29.5554 534.067 30.7698 534.067C32.1235 534.067 33.308 534.336 34.3233 534.873C35.3386 535.391 36.1249 536.107 36.6824 537.023C37.2398 537.919 37.5185 538.924 37.5185 540.039C37.5185 542.249 36.4435 544.409 34.2934 546.519C33.4175 547.375 31.795 548.987 29.426 551.356L29.5156 551.536H37.7872V554.97H24.2302V551.416ZM46.7057 555.448C45.6307 555.448 44.5955 555.248 43.6002 554.85C42.6048 554.432 41.7288 553.815 40.9724 552.999C40.2358 552.163 39.7281 551.138 39.4494 549.923L42.9731 548.55C43.212 549.565 43.6499 550.371 44.287 550.968C44.924 551.546 45.7203 551.834 46.6759 551.834C47.6314 551.834 48.4278 551.516 49.0648 550.879C49.7018 550.242 50.0204 549.435 50.0204 548.46C50.0204 547.504 49.7018 546.708 49.0648 546.071C48.4477 545.414 47.6514 545.086 46.6759 545.086C46.0787 545.086 45.5312 545.215 45.0335 545.474C44.5557 545.713 44.1476 546.041 43.8092 546.459L40.0168 544.757L41.1814 534.545H52.7079V537.979H44.4363L43.6897 542.756L43.9286 542.816C44.924 542 46.1085 541.592 47.4821 541.592C48.6169 541.592 49.672 541.88 50.6474 542.458C51.6428 543.035 52.4391 543.851 53.0364 544.906C53.6336 545.942 53.9322 547.126 53.9322 548.46C53.9322 549.814 53.6236 551.018 53.0065 552.073C52.3894 553.128 51.5333 553.954 50.4384 554.552C49.3435 555.149 48.0993 555.448 46.7057 555.448Z" fill="#1F2123"/>
<path d="M74.311 536.938C75.8236 540.559 78.7207 543.457 82.3413 544.97C78.721 546.482 75.8237 549.38 74.311 553C72.7983 549.379 69.9004 546.482 66.2798 544.97C69.9007 543.457 72.7984 540.559 74.311 536.938Z" fill="#FBBD03" stroke="#FFE003" stroke-width="2.29703"/>
<path d="M95.4975 533.589H102.724C104.954 533.589 106.895 534.037 108.547 534.933C110.199 535.829 111.473 537.083 112.369 538.695C113.265 540.308 113.713 542.169 113.713 544.279C113.713 546.39 113.265 548.251 112.369 549.863C111.473 551.476 110.199 552.73 108.547 553.626C106.895 554.522 104.954 554.97 102.724 554.97H95.4975V533.589ZM102.545 551.147C104.854 551.147 106.616 550.54 107.83 549.326C109.045 548.092 109.652 546.409 109.652 544.279C109.652 542.149 109.045 540.477 107.83 539.263C106.616 538.028 104.854 537.411 102.545 537.411H99.5288V551.147H102.545ZM122.511 555.448C120.998 555.448 119.634 555.099 118.42 554.402C117.206 553.706 116.25 552.75 115.553 551.536C114.877 550.301 114.538 548.918 114.538 547.385C114.538 545.932 114.877 544.588 115.553 543.354C116.23 542.099 117.166 541.104 118.36 540.368C119.555 539.631 120.889 539.263 122.362 539.263C123.934 539.263 125.288 539.601 126.423 540.278C127.558 540.955 128.414 541.88 128.991 543.055C129.588 544.23 129.887 545.534 129.887 546.967C129.887 547.425 129.857 547.863 129.797 548.281H118.36C118.559 549.495 119.037 550.421 119.794 551.058C120.57 551.675 121.496 551.984 122.571 551.984C123.467 551.984 124.233 551.794 124.87 551.416C125.527 551.018 126.045 550.491 126.423 549.834L129.588 551.386C128.035 554.094 125.676 555.448 122.511 555.448ZM126.124 545.504C126.084 545.026 125.905 544.558 125.587 544.1C125.288 543.622 124.86 543.234 124.303 542.936C123.765 542.617 123.128 542.458 122.392 542.458C121.456 542.458 120.65 542.737 119.973 543.294C119.316 543.831 118.838 544.568 118.54 545.504H126.124ZM129.712 539.74H134.161L138.014 549.654H138.252L142.164 539.74H146.554L140.044 554.97H136.162L129.712 539.74ZM148.021 533.589H161.578V537.411H152.052V542.607H160.622V546.429H152.052V554.97H148.021V533.589ZM169.64 555.448C168.127 555.448 166.763 555.099 165.549 554.402C164.334 553.706 163.379 552.75 162.682 551.536C162.005 550.301 161.667 548.918 161.667 547.385C161.667 545.932 162.005 544.588 162.682 543.354C163.359 542.099 164.294 541.104 165.489 540.368C166.683 539.631 168.017 539.263 169.49 539.263C171.063 539.263 172.417 539.601 173.551 540.278C174.686 540.955 175.542 541.88 176.119 543.055C176.717 544.23 177.015 545.534 177.015 546.967C177.015 547.425 176.985 547.863 176.926 548.281H165.489C165.688 549.495 166.166 550.421 166.922 551.058C167.699 551.675 168.624 551.984 169.699 551.984C170.595 551.984 171.362 551.794 171.999 551.416C172.656 551.018 173.173 550.491 173.551 549.834L176.717 551.386C175.164 554.094 172.805 555.448 169.64 555.448ZM173.253 545.504C173.213 545.026 173.034 544.558 172.715 544.1C172.417 543.622 171.989 543.234 171.431 542.936C170.894 542.617 170.257 542.458 169.52 542.458C168.584 542.458 167.778 542.737 167.101 543.294C166.444 543.831 165.967 544.568 165.668 545.504H173.253ZM184.773 555.448C182.922 555.448 181.419 555.069 180.264 554.313C179.129 553.556 178.333 552.571 177.875 551.356L181.369 549.834C181.688 550.55 182.135 551.098 182.713 551.476C183.31 551.834 183.997 552.013 184.773 552.013C185.49 552.013 186.087 551.904 186.565 551.685C187.043 551.446 187.282 551.068 187.282 550.55C187.282 550.053 187.063 549.684 186.625 549.445C186.187 549.187 185.53 548.958 184.654 548.759L182.862 548.37C181.628 548.072 180.603 547.534 179.786 546.758C178.97 545.962 178.562 544.976 178.562 543.802C178.562 542.926 178.821 542.139 179.338 541.443C179.876 540.746 180.593 540.208 181.488 539.83C182.404 539.452 183.41 539.263 184.504 539.263C187.65 539.263 189.75 540.368 190.805 542.577L187.461 544.04C186.864 542.965 185.908 542.428 184.594 542.428C183.917 542.428 183.38 542.557 182.982 542.816C182.583 543.055 182.384 543.364 182.384 543.742C182.384 544.459 183.061 544.996 184.415 545.354L186.654 545.892C188.167 546.27 189.302 546.847 190.059 547.624C190.835 548.4 191.223 549.356 191.223 550.491C191.223 551.466 190.935 552.332 190.357 553.088C189.8 553.825 189.023 554.402 188.028 554.82C187.053 555.238 185.968 555.448 184.773 555.448ZM199.346 555.209C198.589 555.209 197.892 555.099 197.255 554.88C196.618 554.641 196.101 554.323 195.702 553.925C194.767 553.029 194.299 551.755 194.299 550.102V543.085H191.641V539.74H194.299V535.44H198.211V539.74H201.944V543.085H198.211V549.386C198.211 550.162 198.38 550.719 198.718 551.058C198.997 551.376 199.475 551.536 200.152 551.536C200.53 551.536 200.839 551.486 201.078 551.386C201.336 551.287 201.665 551.118 202.063 550.879V554.701C201.207 555.039 200.301 555.209 199.346 555.209ZM210.345 533.589H218.706C219.9 533.589 220.995 533.838 221.991 534.336C223.006 534.833 223.802 535.51 224.38 536.366C224.957 537.222 225.246 538.158 225.246 539.173C225.246 540.248 224.977 541.184 224.439 541.98C223.922 542.756 223.235 543.354 222.379 543.772V544.011C223.494 544.409 224.38 545.046 225.037 545.922C225.694 546.778 226.022 547.813 226.022 549.027C226.022 550.202 225.704 551.247 225.066 552.163C224.449 553.059 223.603 553.755 222.528 554.253C221.473 554.731 220.299 554.97 219.005 554.97H210.345V533.589ZM218.407 542.308C219.283 542.308 219.98 542.07 220.498 541.592C221.035 541.094 221.304 540.477 221.304 539.74C221.304 539.024 221.045 538.427 220.528 537.949C220.03 537.451 219.363 537.202 218.527 537.202H214.376V542.308H218.407ZM218.855 551.297C219.831 551.297 220.587 551.048 221.125 550.55C221.682 550.033 221.961 549.366 221.961 548.55C221.961 547.733 221.682 547.066 221.125 546.549C220.567 546.031 219.771 545.772 218.736 545.772H214.376V551.297H218.855ZM232.605 555.448C230.993 555.448 229.669 554.98 228.634 554.044C227.599 553.088 227.081 551.844 227.081 550.311C227.081 549.296 227.35 548.4 227.887 547.624C228.425 546.847 229.161 546.25 230.097 545.832C231.033 545.414 232.068 545.205 233.203 545.205C234.775 545.205 236.119 545.434 237.234 545.892V545.235C237.234 544.399 236.915 543.722 236.278 543.204C235.661 542.687 234.825 542.428 233.77 542.428C233.053 542.428 232.356 542.597 231.68 542.936C231.023 543.254 230.475 543.682 230.037 544.22L227.529 542.249C228.265 541.293 229.191 540.557 230.306 540.039C231.421 539.521 232.635 539.263 233.949 539.263C236.278 539.263 238.05 539.8 239.264 540.875C240.479 541.95 241.086 543.523 241.086 545.593V554.97H237.234V553.417H236.995C236.537 554.014 235.93 554.502 235.173 554.88C234.437 555.258 233.581 555.448 232.605 555.448ZM233.531 552.402C234.666 552.402 235.562 552.043 236.219 551.327C236.895 550.59 237.234 549.734 237.234 548.759C236.219 548.281 235.154 548.042 234.039 548.042C232.008 548.042 230.993 548.798 230.993 550.311C230.993 550.928 231.212 551.436 231.65 551.834C232.088 552.213 232.715 552.402 233.531 552.402ZM243.491 539.74H247.164V541.652H247.403C247.861 540.915 248.508 540.338 249.344 539.92C250.18 539.482 251.086 539.263 252.061 539.263C253.893 539.263 255.286 539.82 256.242 540.935C257.198 542.05 257.675 543.573 257.675 545.504V554.97H253.764V545.981C253.764 545.006 253.515 544.249 253.017 543.712C252.519 543.174 251.823 542.906 250.927 542.906C249.872 542.906 249.016 543.314 248.359 544.13C247.722 544.946 247.403 545.971 247.403 547.206V554.97H243.491V539.74ZM266.712 555.448C265.339 555.448 264.085 555.109 262.95 554.432C261.835 553.735 260.949 552.78 260.292 551.566C259.655 550.331 259.337 548.928 259.337 547.355C259.337 545.802 259.655 544.409 260.292 543.174C260.949 541.94 261.835 540.985 262.95 540.308C264.085 539.611 265.339 539.263 266.712 539.263C267.748 539.263 268.663 539.492 269.46 539.949C270.256 540.387 270.863 540.935 271.281 541.592H271.52L271.281 539.442V533.589H275.163V554.97H271.52V553.148H271.281C270.883 553.805 270.276 554.353 269.46 554.791C268.663 555.229 267.748 555.448 266.712 555.448ZM267.369 551.834C268.106 551.834 268.793 551.645 269.43 551.267C270.067 550.889 270.574 550.361 270.953 549.684C271.331 549.007 271.52 548.231 271.52 547.355C271.52 546.479 271.331 545.703 270.953 545.026C270.574 544.349 270.067 543.831 269.43 543.473C268.793 543.095 268.106 542.906 267.369 542.906C266.653 542.906 265.976 543.095 265.339 543.473C264.702 543.831 264.194 544.349 263.816 545.026C263.438 545.703 263.248 546.479 263.248 547.355C263.248 548.231 263.438 549.007 263.816 549.684C264.194 550.361 264.702 550.889 265.339 551.267C265.976 551.645 266.653 551.834 267.369 551.834ZM283.311 555.448C281.48 555.448 280.086 554.88 279.131 553.745C278.175 552.611 277.697 551.028 277.697 548.997V539.74H281.609V548.52C281.609 549.555 281.858 550.371 282.356 550.968C282.853 551.546 283.51 551.834 284.326 551.834C285.441 551.834 286.327 551.426 286.984 550.61C287.641 549.794 287.97 548.759 287.97 547.504V539.74H291.881V554.97H288.208V553.059H287.97C287.512 553.795 286.865 554.382 286.029 554.82C285.212 555.238 284.307 555.448 283.311 555.448ZM294.498 539.74H298.171V541.652H298.41C298.868 540.915 299.515 540.338 300.351 539.92C301.187 539.482 302.093 539.263 303.068 539.263C304.9 539.263 306.293 539.82 307.249 540.935C308.205 542.05 308.682 543.573 308.682 545.504V554.97H304.77V545.981C304.77 545.006 304.522 544.249 304.024 543.712C303.526 543.174 302.83 542.906 301.934 542.906C300.879 542.906 300.023 543.314 299.366 544.13C298.729 544.946 298.41 545.971 298.41 547.206V554.97H294.498V539.74ZM318.051 561.898C316.12 561.898 314.518 561.46 313.244 560.584C311.97 559.728 311.114 558.692 310.676 557.478L314.349 555.985C314.667 556.742 315.155 557.339 315.812 557.777C316.469 558.215 317.215 558.434 318.051 558.434C319.286 558.434 320.261 558.055 320.978 557.299C321.714 556.542 322.083 555.467 322.083 554.074V552.879H321.844C321.366 553.556 320.739 554.074 319.962 554.432C319.186 554.791 318.3 554.97 317.305 554.97C316.051 554.97 314.876 554.651 313.781 554.014C312.706 553.357 311.84 552.441 311.183 551.267C310.526 550.072 310.198 548.689 310.198 547.116C310.198 545.543 310.526 544.17 311.183 542.995C311.84 541.801 312.706 540.885 313.781 540.248C314.876 539.591 316.051 539.263 317.305 539.263C318.3 539.263 319.186 539.442 319.962 539.8C320.739 540.158 321.366 540.676 321.844 541.353H322.083V539.74H325.845V553.925C325.845 555.557 325.527 556.97 324.89 558.165C324.253 559.359 323.347 560.275 322.172 560.912C320.998 561.569 319.624 561.898 318.051 561.898ZM318.111 551.416C319.206 551.416 320.142 551.038 320.918 550.281C321.694 549.505 322.083 548.45 322.083 547.116C322.083 545.743 321.694 544.687 320.918 543.951C320.162 543.194 319.226 542.816 318.111 542.816C316.996 542.816 316.051 543.194 315.274 543.951C314.498 544.707 314.11 545.762 314.11 547.116C314.11 548.47 314.498 549.525 315.274 550.281C316.051 551.038 316.996 551.416 318.111 551.416ZM333.92 551.416C334.577 550.759 335.841 549.495 337.712 547.624C339.603 545.733 340.818 544.498 341.355 543.921C342.072 543.145 342.56 542.498 342.818 541.98C343.097 541.462 343.236 540.875 343.236 540.218C343.236 539.521 342.978 538.934 342.46 538.456C341.942 537.979 341.256 537.74 340.4 537.74C339.563 537.74 338.887 537.979 338.369 538.456C337.851 538.934 337.483 539.531 337.264 540.248L333.74 538.785C333.959 538.008 334.358 537.262 334.935 536.545C335.532 535.809 336.299 535.211 337.234 534.754C338.17 534.296 339.245 534.067 340.459 534.067C341.813 534.067 342.998 534.336 344.013 534.873C345.028 535.391 345.814 536.107 346.372 537.023C346.929 537.919 347.208 538.924 347.208 540.039C347.208 542.249 346.133 544.409 343.983 546.519C343.107 547.375 341.485 548.987 339.116 551.356L339.205 551.536H347.477V554.97H333.92V551.416ZM357.829 555.448C356.117 555.448 354.614 554.99 353.32 554.074C352.026 553.138 351.02 551.864 350.304 550.252C349.607 548.619 349.258 546.788 349.258 544.757C349.258 542.727 349.607 540.905 350.304 539.292C351.02 537.66 352.026 536.386 353.32 535.47C354.614 534.535 356.117 534.067 357.829 534.067C359.541 534.067 361.044 534.535 362.338 535.47C363.632 536.386 364.627 537.66 365.324 539.292C366.04 540.905 366.399 542.727 366.399 544.757C366.399 546.788 366.04 548.619 365.324 550.252C364.627 551.864 363.632 553.138 362.338 554.074C361.044 554.99 359.541 555.448 357.829 555.448ZM357.829 551.775C358.784 551.775 359.61 551.476 360.307 550.879C361.024 550.262 361.561 549.425 361.92 548.37C362.298 547.295 362.487 546.091 362.487 544.757C362.487 542.687 362.069 541.005 361.233 539.711C360.397 538.397 359.262 537.74 357.829 537.74C356.415 537.74 355.29 538.397 354.454 539.711C353.618 541.024 353.2 542.707 353.2 544.757C353.2 546.091 353.379 547.295 353.738 548.37C354.116 549.425 354.653 550.262 355.35 550.879C356.067 551.476 356.893 551.775 357.829 551.775ZM367.983 551.416C368.64 550.759 369.904 549.495 371.775 547.624C373.666 545.733 374.881 544.498 375.418 543.921C376.135 543.145 376.622 542.498 376.881 541.98C377.16 541.462 377.299 540.875 377.299 540.218C377.299 539.521 377.041 538.934 376.523 538.456C376.005 537.979 375.319 537.74 374.463 537.74C373.626 537.74 372.95 537.979 372.432 538.456C371.914 538.934 371.546 539.531 371.327 540.248L367.803 538.785C368.022 538.008 368.421 537.262 368.998 536.545C369.595 535.809 370.362 535.211 371.297 534.754C372.233 534.296 373.308 534.067 374.522 534.067C375.876 534.067 377.06 534.336 378.076 534.873C379.091 535.391 379.877 536.107 380.435 537.023C380.992 537.919 381.271 538.924 381.271 540.039C381.271 542.249 380.196 544.409 378.046 546.519C377.17 547.375 375.547 548.987 373.178 551.356L373.268 551.536H381.54V554.97H367.983V551.416ZM390.458 555.448C389.383 555.448 388.348 555.248 387.353 554.85C386.357 554.432 385.481 553.815 384.725 552.999C383.988 552.163 383.481 551.138 383.202 549.923L386.726 548.55C386.964 549.565 387.402 550.371 388.039 550.968C388.676 551.546 389.473 551.834 390.428 551.834C391.384 551.834 392.18 551.516 392.817 550.879C393.454 550.242 393.773 549.435 393.773 548.46C393.773 547.504 393.454 546.708 392.817 546.071C392.2 545.414 391.404 545.086 390.428 545.086C389.831 545.086 389.284 545.215 388.786 545.474C388.308 545.713 387.9 546.041 387.562 546.459L383.769 544.757L384.934 534.545H396.46V537.979H388.189L387.442 542.756L387.681 542.816C388.676 542 389.861 541.592 391.235 541.592C392.369 541.592 393.424 541.88 394.4 542.458C395.395 543.035 396.192 543.851 396.789 544.906C397.386 545.942 397.685 547.126 397.685 548.46C397.685 549.814 397.376 551.018 396.759 552.073C396.142 553.128 395.286 553.954 394.191 554.552C393.096 555.149 391.852 555.448 390.458 555.448Z" fill="#1F2123"/>
<rect width="174.574" height="519.129" transform="matrix(-1 0 0 1 348 0)" fill="#FBBD03" stroke="#FFE003" stroke-width="4.59406"/>
<rect x="-2.29703" y="2.29703" width="169.98" height="516.832" transform="matrix(-1 0 0 1 169.98 0)" fill="#FBBD03" stroke="#FFE003" stroke-width="4.59406"/>
<path d="M173.426 346.851V519.128H345.703V346.851H173.426Z" stroke="#FFE003" stroke-width="4.59406"/>
<path d="M218.793 421.84L247.403 442.907C253.398 447.321 254.765 455.879 250.458 462.022L250.442 462.044C246.134 468.187 237.783 469.589 231.788 465.175L203.178 444.108C197.183 439.694 195.815 431.135 200.123 424.993L200.139 424.97C204.446 418.827 212.798 417.426 218.793 421.84Z" fill="#FBBD03" stroke="#FFE003" stroke-width="4.59406" stroke-miterlimit="10"/>
<path d="M250.444 403.927L250.46 403.949C254.768 410.092 253.4 418.65 247.405 423.064L218.795 444.131C212.8 448.545 204.449 447.144 200.141 441.001L200.125 440.978C195.818 434.835 197.185 426.277 203.18 421.863L231.79 400.796C237.785 396.382 246.137 397.784 250.444 403.927Z" fill="#FBBD03" stroke="#FFE003" stroke-width="4.59406" stroke-miterlimit="10"/>
<path d="M1.14893 174.574V346.852H173.426V174.574H1.14893Z" stroke="#FFE003" stroke-width="4.59406"/>
<path d="M1.16455 174.59C95.7437 175.818 172.182 252.257 173.41 346.836C78.8313 345.608 2.39242 269.169 1.16455 174.59Z" stroke="#FFE003" stroke-width="4.59406"/>
<path d="M1.14893 2.29688V174.574H173.426V2.29688H1.14893Z" fill="#FAF6D7" stroke="#FFE003" stroke-width="4.59406"/>
<g clip-path="url(#clip0_1099_1625)">
<path d="M85.7531 38.3231C85.7531 38.3192 85.7562 38.3161 85.76 38.3161C86.0133 38.3161 86.2649 38.3125 86.5165 38.3089C86.9079 38.3035 87.2154 37.9681 87.1955 37.5772C87.0547 34.8056 87.3518 32.0021 86.9636 29.2371C86.8714 28.5798 86.1186 28.58 86.026 29.2373C85.6012 32.2532 85.9876 35.3084 85.7531 38.3231Z" fill="#1F2123"/>
<path d="M160.194 111.578C160.488 110.71 159.842 109.81 158.925 109.81H15.4284C14.5429 109.81 13.901 110.654 14.1376 111.507L20.5126 134.498C20.6735 135.078 21.2015 135.48 21.8034 135.48H151.16C151.734 135.48 152.245 135.113 152.429 134.569L160.194 111.578Z" fill="#1F2123"/>
<path d="M138.141 90.1745C138.372 89.3228 137.73 88.4844 136.848 88.4844H36.7581C35.8712 88.4844 35.2292 89.3308 35.4682 90.1848L38.9878 102.762C39.1497 103.341 39.677 103.741 40.2778 103.741H133.437C134.042 103.741 134.571 103.335 134.73 102.752L138.141 90.1745Z" fill="#1F2123"/>
<path d="M160.792 109.81L134.462 103.74H39.262L13.667 109.81H160.792Z" fill="#FAF6D7"/>
<path d="M116.864 82.54L138.599 88.4846H34.9923L55.4309 82.54H116.864Z" fill="#FAF6D7"/>
<path d="M119.14 71.08C119.304 70.2517 118.671 69.4797 117.826 69.4797H55.1547C54.3415 69.4797 53.7159 70.1983 53.8279 71.0037L55.2713 81.3847C55.3633 82.0468 55.9295 82.5397 56.598 82.5397H115.766C116.405 82.5397 116.955 82.088 117.08 81.461L119.14 71.08Z" fill="#1F2123"/>
<path d="M90.3556 62.8843L119.458 69.4801H53.616L82.718 62.8843H90.3556Z" fill="#FAF6D7"/>
<path d="M84.6997 34.2703H88.1997V60.2932H84.6997V34.2703Z" fill="#FAF6D7"/>
<path d="M86.4954 38.4895C84.8112 38.4895 83.4459 37.3883 83.4459 36.0299C83.4459 34.6715 84.8112 33.5703 86.4954 33.5703C88.1796 33.5703 89.5449 34.6715 89.5449 36.0299C89.5449 37.3883 88.1796 38.4895 86.4954 38.4895Z" fill="#1F2123"/>
<path d="M86.5364 42.8059C84.8522 42.8059 83.4869 41.7047 83.4869 40.3463C83.4869 38.9879 84.8522 37.8867 86.5364 37.8867C88.2206 37.8867 89.5859 38.9879 89.5859 40.3463C89.5859 41.7047 88.2206 42.8059 86.5364 42.8059Z" fill="#1F2123"/>
<path d="M86.5301 47.2817C84.8459 47.2817 83.4806 46.1805 83.4806 44.8221C83.4806 43.4637 84.8459 42.3625 86.5301 42.3625C88.2143 42.3625 89.5796 43.4637 89.5796 44.8221C89.5796 46.1805 88.2143 47.2817 86.5301 47.2817Z" fill="#1F2123"/>
<path d="M86.5364 51.8537C84.8522 51.8537 83.4869 50.7525 83.4869 49.3941C83.4869 48.0358 84.8522 46.9346 86.5364 46.9346C88.2206 46.9346 89.5859 48.0358 89.5859 49.3941C89.5859 50.7525 88.2206 51.8537 86.5364 51.8537Z" fill="#1F2123"/>
<path d="M86.5364 56.2468C84.8522 56.2468 83.4869 55.1456 83.4869 53.7872C83.4869 52.4288 84.8522 51.3276 86.5364 51.3276C88.2206 51.3276 89.5859 52.4288 89.5859 53.7872C89.5859 55.1456 88.2206 56.2468 86.5364 56.2468Z" fill="#1F2123"/>
<path d="M86.5301 60.8266C84.8459 60.8266 83.4806 59.7254 83.4806 58.367C83.4806 57.0087 84.8459 55.9075 86.5301 55.9075C88.2143 55.9075 89.5796 57.0087 89.5796 58.367C89.5796 59.7254 88.2143 60.8266 86.5301 60.8266Z" fill="#1F2123"/>
<path d="M30.9247 120.771H143.541C145.52 120.771 147.125 122.374 147.125 124.353V152.787C147.125 154.765 145.52 156.369 143.541 156.369H30.9247C28.9457 156.369 27.3415 154.765 27.3415 152.787V124.353C27.3415 122.374 28.9457 120.771 30.9247 120.771Z" fill="#FAF6D7"/>
<path d="M128.758 128.218H137.705C138.972 128.218 140 129.245 140 130.512V147.015C140 148.281 138.972 149.308 137.705 149.308H128.758C127.491 149.308 126.464 148.281 126.464 147.015V130.512C126.464 129.245 127.491 128.218 128.758 128.218Z" fill="#1F2123"/>
<path d="M35.8864 128.218H44.8339C46.1008 128.218 47.1279 129.245 47.1279 130.512V147.015C47.1279 148.281 46.1008 149.308 44.8339 149.308H35.8864C34.6194 149.308 33.5923 148.281 33.5923 147.015V130.512C33.5923 129.245 34.6194 128.218 35.8864 128.218Z" fill="#1F2123"/>
<path d="M105.367 128.024H114.314C115.581 128.024 116.608 129.051 116.608 130.317V146.821C116.608 148.087 115.581 149.114 114.314 149.114H105.367C104.1 149.114 103.073 148.087 103.073 146.821V130.317C103.073 129.051 104.1 128.024 105.367 128.024Z" fill="#1F2123"/>
<path d="M58.7589 128.218H67.7064C68.9734 128.218 70.0005 129.245 70.0005 130.512V147.015C70.0005 148.281 68.9734 149.308 67.7064 149.308H58.7589C57.4919 149.308 56.4649 148.281 56.4649 147.015V130.512C56.4649 129.245 57.4919 128.218 58.7589 128.218Z" fill="#1F2123"/>
<path d="M82.3234 128.218H91.2709C92.5379 128.218 93.5649 129.245 93.5649 130.512V147.015C93.5649 148.281 92.5379 149.308 91.2709 149.308H82.3234C81.0564 149.308 80.0293 148.281 80.0293 147.015V130.512C80.0293 129.245 81.0564 128.218 82.3234 128.218Z" fill="#1F2123"/>
<path d="M83.692 60.293H89.3664C89.7363 60.293 90.0361 60.5928 90.0361 60.9627V62.2144C90.0361 62.5843 89.7363 62.8842 89.3664 62.8842H83.692C83.3221 62.8842 83.0223 62.5843 83.0223 62.2144V60.9627C83.0223 60.5928 83.3221 60.293 83.692 60.293Z" fill="#1F2123"/>
</g>
<path d="M1.14893 346.851V519.128H173.426V346.851H1.14893Z" stroke="#FFE003" stroke-width="4.59406"/>
<path d="M175.723 432.99C126.881 432.99 87.2875 393.396 87.2875 344.554C87.2875 393.396 47.6935 432.99 -1.14813 432.99C47.6935 432.99 87.2875 472.584 87.2875 521.425C87.2875 472.584 126.881 432.99 175.723 432.99Z" fill="#FBBD03" stroke="#FFE003" stroke-width="4.59406"/>
<path d="M173.426 174.574V346.852H345.703V174.574H173.426Z" stroke="#FFE003" stroke-width="4.59406"/>
<path d="M345.688 174.59C251.108 175.818 174.67 252.257 173.442 346.836C268.021 345.608 344.46 269.169 345.688 174.59Z" stroke="#FFE003" stroke-width="4.59406"/>
<path d="M173.426 2.29688V174.574H345.703V2.29688H173.426Z" stroke="#FFE003" stroke-width="4.59406"/>
<path d="M259.564 1.14917C235.872 1.14933 216.48 19.5442 214.882 42.8308C191.16 43.9715 172.278 63.5647 172.278 87.5691C172.278 111.544 191.114 131.12 214.795 132.304C215.521 156.407 235.286 175.722 259.564 175.722C283.842 175.722 303.607 156.407 304.333 132.304C328.015 131.12 346.852 111.544 346.852 87.5691C346.852 63.5646 327.969 43.9713 304.247 42.8308C302.649 19.5441 283.256 1.14917 259.564 1.14917ZM259.564 5.74292C281.765 5.74292 299.763 23.7405 299.763 45.9412V47.3708H302.06C324.26 47.3711 342.258 65.3687 342.258 87.5691C342.258 109.769 324.26 127.766 302.06 127.766H299.763V128.634H299.762V130.93C299.762 153.131 281.765 171.129 259.564 171.129C237.363 171.128 219.367 153.131 219.367 130.93V127.766H217.07C194.869 127.766 176.872 109.77 176.872 87.5691C176.872 65.3685 194.869 47.3708 217.07 47.3708H219.367V45.9412L219.38 44.9041C219.93 23.1828 237.71 5.74309 259.564 5.74292Z" fill="#FFE003"/>
<rect x="-2.29703" y="2.29703" width="343.406" height="569.663" rx="39.0495" transform="matrix(-1 0 0 1 343.406 0)" stroke="#FFE003" stroke-width="4.59406"/>
</g>
<defs>
<clipPath id="clip0_1099_1625">
<rect width="147.01" height="116.201" fill="white" transform="matrix(-1 0 0 1 160.792 27.0645)"/>
</clipPath>
</defs>
</svg>
