<svg width="70" height="35" viewBox="0 0 70 35" fill="none" xmlns="http://www.w3.org/2000/svg">
<mask id="mask0_1162_4367" style="mask-type:alpha" maskUnits="userSpaceOnUse" x="0" y="0" width="145" height="49">
<rect x="144.1" y="6.29879e-06" width="48.0332" height="144.1" rx="6.27761" transform="rotate(90 144.1 6.29879e-06)" fill="#4285F3"/>
</mask>
<g mask="url(#mask0_1162_4367)">
<rect x="144.1" y="6.29879e-06" width="48.0332" height="144.1" rx="6.27761" transform="rotate(90 144.1 6.29879e-06)" fill="#32A952"/>
<path d="M76.8175 2.71432C76.8175 2.71432 81.5234 3.58948 80.1064 7.56031C79.8827 8.15537 79.5416 8.69938 79.1035 9.16003C78.6653 9.62067 78.139 9.98853 77.5559 10.2418C76.5625 10.685 75.4613 10.828 74.3876 10.6533C73.314 10.4786 72.3149 9.99377 71.5134 9.25848C70.6153 8.57091 69.8705 7.70351 69.3266 6.71173C68.7828 5.71994 68.4518 4.62559 68.3549 3.49862C68.2435 1.96992 68.5975 0.443294 69.3704 -0.880353C69.9492 -1.8153 70.7112 -2.62337 71.6107 -3.25577C72.5103 -3.88818 73.5285 -4.33183 74.6042 -4.55999C77.8929 -5.35077 83.3238 -4.82086 86.007 2.90942C86.1457 3.32425 86.3839 3.69883 86.7008 4.00038C87.0176 4.30192 87.4035 4.52128 87.8247 4.63932C90.2027 5.2793 95.0007 7.24165 96.3856 12.9497C97.0625 15.7396 98.6966 18.4372 100.837 20.3506C102.509 21.8453 104.175 24.0875 104.727 27.3062C104.952 28.6214 103.972 29.7678 102.727 29.2915C98.5765 27.7718 94.1771 27.046 89.7582 27.1518C83.6126 27.2796 76.6825 25.2554 75.5543 20.6489C75.4594 20.2094 75.2193 19.8146 74.8727 19.5282C74.526 19.2418 74.0931 19.0805 73.6435 19.0702C70.4913 19.0658 63.8714 18.2893 60.1407 12.2563C55.7795 5.19686 53.8179 -3.36458 50.6921 -7.88009C49.7285 -9.26685 50.2467 -10.4438 51.9325 -10.5621C57.1933 -10.9528 66.8373 -10.1343 71.0602 -2.84081" stroke="#14D364" stroke-width="1.59536" stroke-miterlimit="10"/>
<path d="M19.3333 31.349C19.3333 31.349 23.5705 33.5757 21.0434 36.9505C20.6538 37.4528 20.1672 37.8718 19.6125 38.1824C19.0578 38.493 18.4464 38.6889 17.8145 38.7585C16.7345 38.8884 15.6401 38.6997 14.6661 38.2155C13.692 37.7314 12.8808 36.9729 12.3323 36.0336C11.6775 35.1114 11.2223 34.0626 10.9958 32.9544C10.7693 31.8462 10.7765 30.703 11.0169 29.5977C11.3622 28.1043 12.1515 26.7505 13.281 25.7143C14.1102 24.9921 15.077 24.4453 16.1232 24.107C17.1694 23.7686 18.2733 23.6457 19.3683 23.7455C22.7439 23.9619 27.7757 26.0729 28.0548 34.2508C28.0648 34.6881 28.1816 35.1164 28.3952 35.4981C28.6089 35.8798 28.9127 36.2034 29.2802 36.4406C31.3629 37.7547 35.3667 41.0472 35.0031 46.9096C34.8254 49.7749 35.5894 52.8349 37.0686 55.2953C38.2241 57.2172 39.1537 59.8518 38.7298 63.0898C38.556 64.4127 37.2808 65.2183 36.2327 64.3956C32.7164 61.7172 28.7279 59.7238 24.4751 58.5191C18.5661 56.8252 12.5436 52.8436 12.827 48.1095C12.8662 47.6615 12.7535 47.2134 12.507 46.8374C12.2604 46.4614 11.8945 46.1793 11.468 46.0366C8.45783 45.101 2.36306 42.4031 0.581644 35.537C-1.49879 27.5041 -0.842972 18.7454 -2.49487 13.5079C-3.00568 11.8983 -2.16286 10.927 -0.517342 11.3121C4.62399 12.4934 13.5955 16.1251 15.4746 24.3407" stroke="#14D364" stroke-width="1.59536" stroke-miterlimit="10"/>
<path d="M60.5528 58.8519C60.1433 64.7364 70.7647 62.4379 67.1161 55.0287C64.7482 50.1737 56.0158 48.7892 53.1399 56.1705C50.7785 62.2553 54.9658 67.9453 62.2802 69.333C71.4571 71.0802 74.8687 74.2572 77.5895 76.1198C79.8931 77.7381 82.5471 78.7882 85.3344 79.1841C88.1217 79.58 90.9632 79.3105 93.6264 78.3976C93.7563 78.3636 93.8756 78.2975 93.9733 78.2054C94.0711 78.1133 94.1442 77.9981 94.1859 77.8704C94.2276 77.7428 94.2366 77.6067 94.2121 77.4747C94.1876 77.3426 94.1304 77.2189 94.0457 77.1147C91.7679 74.4253 90.421 71.0713 90.206 67.5534C90.0932 60.447 85.7958 57.3939 84.4287 55.3328C81.6457 51.14 83.8254 47.2683 81.5476 42.5479C80.9338 41.1156 79.8941 39.907 78.5696 39.0862C77.2451 38.2654 75.7 37.8721 74.1443 37.96" stroke="#14D364" stroke-width="1.59536" stroke-miterlimit="10"/>
<path d="M65.8327 36.6813C70.5577 34.1295 64.0377 27.6672 59.5933 33.1851C56.7316 36.7907 60.3762 42.1983 65.4151 42.6697C70.454 43.141 74.2298 40.5326 74.6279 35.4984C74.7734 33.2625 74.1333 31.0461 72.8181 29.2322C71.503 27.4182 69.5954 26.1208 67.4252 25.5641C63.1872 24.7448 59.1022 23.2725 55.3161 21.1998C45.8625 16.4344 43.6881 20.616 36.6401 17.4086C36.5849 17.38 36.5224 17.3684 36.4606 17.3755C36.3988 17.3825 36.3405 17.4078 36.2932 17.4482C36.2458 17.4885 36.2116 17.542 36.1948 17.6019C36.1781 17.6618 36.1795 17.7254 36.199 17.7844C36.9835 19.8611 38.8334 25.8429 37.8843 31.8362C36.7858 38.4892 41.0185 45.107 53.9757 54.6981" stroke="#14D364" stroke-width="1.59536" stroke-miterlimit="10"/>
<path d="M58.9843 34.1627C58.9843 34.1627 57.3051 31.7304 52.335 31.1807C49.4935 30.8772 48.0408 30.0037 47.3243 29.3188C47.2462 29.2483 47.1504 29.2003 47.0473 29.1798C46.9441 29.1593 46.8373 29.1671 46.7382 29.2022C46.6391 29.2374 46.5513 29.2987 46.4841 29.3797C46.417 29.4606 46.3729 29.5582 46.3566 29.6621C45.9592 31.8523 45.6609 36.4885 49.16 40.1031C53.903 45.0184 58.5106 46.3599 58.1455 51.1038" stroke="#14D364" stroke-width="1.59536" stroke-miterlimit="10"/>
<path d="M26.7676 -12.4179C26.7676 -12.4179 27.0807 -15.9438 30.3083 -14.6933C30.8201 -14.4699 31.2681 -14.1224 31.6117 -13.6823C31.9553 -13.2421 32.1837 -12.7232 32.2761 -12.1725C32.4076 -11.4327 32.3403 -10.6713 32.0811 -9.96599C31.8219 -9.26072 31.3801 -8.63697 30.8008 -8.15842C29.6238 -7.20726 27.6361 -6.59614 24.5764 -8.54555C19.0135 -12.0955 23.35 -21.9708 31.2303 -18.7932C31.2303 -18.7932 35.4132 -17.6931 38.3555 -10.6241C38.3555 -10.6241 39.126 -8.59482 42.7357 -5.4058C44.9585 -3.48247 46.7592 -1.1198 48.0243 1.53352C49.262 4.26604 51.2405 6.59709 53.7355 8.26239C57.7486 10.8682 58.4405 13.8034 58.5116 15.3785C58.5111 15.5188 58.4744 15.6567 58.4049 15.7786C58.3354 15.9005 58.2356 16.0024 58.1151 16.0743C57.9946 16.1462 57.8575 16.1857 57.7172 16.189C57.5769 16.1922 57.4381 16.1591 57.3144 16.0928C55.502 15.0557 53.5619 14.2597 51.5432 13.7252C48.9295 13.2711 44.3809 14.2082 41.805 15.2082C38.0809 16.6558 36.1673 14.3195 32.5945 13.2178C29.4525 12.3544 26.1659 12.1501 22.941 12.6178C21.0947 12.9727 17.4794 11.458 16.4701 7.38437C15.6887 4.0775 13.9731 1.06505 11.5277 -1.2941C9.14316 -3.36448 6.48373 -5.45176 4.30211 -10.1126C3.5583 -11.6858 2.45509 -13.0621 1.08151 -14.1304C0.0394741 -14.9231 -1.12291 -15.5436 -2.3614 -15.9682C-3.6596 -16.4382 -5.77455 -17.737 -1.87745 -20.4272C1.50063 -22.7583 6.9236 -19.2992 6.9236 -19.2992C6.9236 -19.2992 11.2897 -16.2033 16.0149 -17.1252C21.49 -18.2066 22.4336 -15.257 22.4336 -15.257" stroke="#14D364" stroke-width="1.59536" stroke-miterlimit="10" stroke-linecap="round"/>
<path d="M28.8934 0.52304C28.8934 0.52304 28.0816 -2.05511 25.9291 -1.19043C22.9679 -0.0181018 26.3796 5.2177 30.9153 3.68794C35.0997 2.27812 32.2799 -3.50558 27.7863 -4.4718C24.4542 -5.2388 21.3346 -6.7379 18.6538 -8.86035C17.7387 -9.6907 13.5794 -12.6649 11.2074 -10.3517C11.1161 -10.2572 11.0473 -10.1433 11.006 -10.0186C10.9647 -9.89382 10.952 -9.76137 10.9688 -9.63104C10.9857 -9.50072 11.0316 -9.37585 11.1033 -9.26571C11.175 -9.15556 11.2705 -9.06297 11.3828 -8.99478C13.1939 -7.95553 17.4541 -5.25152 19.0967 -1.88537C19.8469 -0.341678 20.4217 0.802201 20.842 1.60964C21.6067 3.13291 22.7332 4.44546 24.1228 5.43229C25.5125 6.41913 27.1229 7.05015 28.8131 7.27012C29.0766 7.30451 29.3602 7.32711 29.6408 7.33528C33.3425 7.37711 33.7509 6.00153 39.3186 7.55328C39.3186 7.55328 45.4824 10.1012 44.2221 6.54823C43.4603 4.73941 42.1504 3.21505 40.4769 2.18974C38.4958 0.711131 36.9625 -1.28689 36.0467 -3.58312C34.9368 -6.88922 30.7897 -8.14012 30.7897 -8.14012" stroke="#14D364" stroke-width="1.59536" stroke-miterlimit="10" stroke-linecap="round"/>
<rect x="143.148" y="0.951159" width="46.1309" height="142.197" rx="5.32645" transform="rotate(90 143.148 0.951159)" stroke="#14D364" stroke-width="1.90231"/>
</g>
</svg>
