<svg width="135" height="316" viewBox="0 0 135 316" fill="none" xmlns="http://www.w3.org/2000/svg">
<mask id="mask0_1099_1683" style="mask-type:alpha" maskUnits="userSpaceOnUse" x="-11" y="-120" width="146" height="436">
<rect x="-11" y="-120" width="145.333" height="436" rx="18.9941" fill="#4285F3"/>
</mask>
<g mask="url(#mask0_1099_1683)">
<rect x="-11" y="-120" width="145.333" height="436" rx="18.9941" fill="#4285F3"/>
<path d="M-2.78797 83.5724C-2.78797 83.5724 -0.140032 69.3338 11.8745 73.6211C13.6749 74.2981 15.3209 75.33 16.7147 76.6557C18.1085 77.9814 19.2215 79.5738 19.9877 81.3381C21.3287 84.3437 21.7616 87.6759 21.2329 90.9243C20.7043 94.1727 19.2374 97.1956 17.0126 99.6209C14.9322 102.338 12.3077 104.592 9.30691 106.237C6.30609 107.883 2.99493 108.884 -0.41494 109.177C-5.04029 109.515 -9.65938 108.443 -13.6643 106.105C-16.4932 104.354 -18.9381 102.048 -20.8516 99.3263C-22.7651 96.6047 -24.1074 93.5237 -24.7978 90.2692C-27.1904 80.3185 -25.587 63.8862 -2.19767 55.7679C-0.942523 55.3481 0.190835 54.6273 1.10322 53.6686C2.0156 52.7099 2.67931 51.5424 3.03647 50.268C4.97285 43.0728 10.9103 28.5558 28.1812 24.3655C36.6224 22.3175 44.7846 17.3731 50.5738 10.8977C55.0964 5.83915 61.8806 0.796802 71.6194 -0.872947C75.5987 -1.5533 79.0673 1.41251 77.6263 5.17774C73.0282 17.7364 70.832 31.0476 71.1521 44.4179C71.5389 63.0126 65.4142 83.9808 51.4764 87.3944C50.1465 87.6814 48.952 88.4079 48.0855 89.4567C47.2189 90.5056 46.7308 91.8156 46.6998 93.1758C46.6865 102.714 44.3371 122.743 26.0831 134.031C4.72341 147.227 -21.1808 153.162 -34.8433 162.62C-39.0392 165.535 -42.6004 163.967 -42.9582 158.866C-44.1403 142.949 -41.6638 113.769 -19.596 100.992" stroke="#63BDFD" stroke-width="4.82705" stroke-miterlimit="10"/>
<path d="M41.8965 53.0518C41.8965 53.0518 18.8565 52.6375 19.085 79.4367" stroke="#63BDFD" stroke-width="4.82705" stroke-miterlimit="10"/>
<path d="M83.8522 257.503C83.8522 257.503 90.5893 244.683 100.8 252.329C102.32 253.507 103.588 254.98 104.528 256.658C105.468 258.336 106.06 260.186 106.271 262.098C106.664 265.366 106.093 268.677 104.628 271.625C103.163 274.572 100.868 277.026 98.0263 278.686C95.2359 280.667 92.0627 282.044 88.7097 282.73C85.3566 283.415 81.8974 283.393 78.5532 282.666C74.0347 281.621 69.9384 279.233 66.8033 275.815C64.6182 273.306 62.9638 270.381 61.94 267.216C60.9162 264.05 60.5442 260.71 60.8464 257.397C61.501 247.184 67.8883 231.959 92.6321 231.114C93.9553 231.084 95.251 230.731 96.4059 230.084C97.5609 229.438 98.5399 228.519 99.2577 227.407C103.234 221.105 113.196 208.991 130.934 210.091C139.603 210.629 148.862 208.317 156.306 203.842C162.121 200.345 170.093 197.533 179.89 198.815C183.893 199.341 186.33 203.2 183.841 206.371C175.737 217.01 169.705 229.078 166.06 241.946C160.935 259.824 148.888 278.046 134.564 277.189C133.209 277.07 131.853 277.411 130.715 278.157C129.577 278.903 128.724 280.011 128.292 281.301C125.461 290.409 117.298 308.85 96.5238 314.24C72.2188 320.534 45.7175 318.55 29.8704 323.548C25.0004 325.094 22.0615 322.544 23.2269 317.565C26.8011 302.009 37.7894 274.864 62.6473 269.178" stroke="#63BDFD" stroke-width="4.82705" stroke-miterlimit="10"/>
<path d="M135.56 241.549C135.56 241.549 113.671 234.345 105.971 260.015" stroke="#63BDFD" stroke-width="4.82705" stroke-miterlimit="10"/>
<path d="M29.0046 -36.9096C46.6148 -34.0092 42.6995 -66.6563 19.3466 -57.7639C4.05066 -52.0061 -2.59336 -26.0928 18.8273 -15.3387C36.4882 -6.50148 54.815 -17.5039 61.0671 -39.1444C68.9297 -66.2941 79.4665 -75.6714 85.8479 -83.3399C91.3755 -89.8208 95.2904 -97.5182 97.2726 -105.803C99.2547 -114.087 99.2477 -122.723 97.2522 -131.004C97.1864 -131.405 97.021 -131.783 96.7713 -132.104C96.5215 -132.424 96.1953 -132.677 95.8226 -132.839C95.4499 -133.001 95.0425 -133.066 94.6378 -133.03C94.2331 -132.994 93.844 -132.856 93.5062 -132.631C84.7595 -126.531 74.2745 -123.423 63.6164 -123.772C42.1771 -125.445 31.7626 -113.365 25.1666 -109.83C11.7479 -102.634 0.702309 -110.297 -14.1629 -104.772C-18.6513 -103.329 -22.5867 -100.54 -25.4344 -96.7823C-28.2822 -93.0248 -29.9043 -88.4818 -30.0805 -83.7704" stroke="#63BDFD" stroke-width="4.82705" stroke-miterlimit="10"/>
<path d="M-36.2868 -59.0938C-42.6353 -74.0503 -63.9492 -56.2399 -48.5859 -41.2888C-38.535 -31.6467 -21.2129 -41.0941 -18.3657 -56.1398C-15.5185 -71.1854 -22.3066 -83.2985 -37.3589 -85.9236C-44.053 -86.9953 -50.911 -85.6948 -56.7478 -82.2468C-62.5846 -78.7989 -67.0333 -73.4201 -69.3251 -67.04C-72.9935 -54.5057 -78.5858 -42.6171 -85.9021 -31.7989C-102.935 -4.67074 -90.9542 3.06394 -102.612 23.3868C-102.714 23.5449 -102.767 23.7299 -102.763 23.918C-102.76 24.1062 -102.7 24.289 -102.592 24.443C-102.484 24.5971 -102.332 24.7154 -102.156 24.7829C-101.981 24.8503 -101.789 24.8639 -101.605 24.8218C-95.1276 23.0469 -76.5839 19.1688 -58.7987 23.7255C-39.0683 28.9189 -17.9337 18.0429 14.6286 -18.2724" stroke="#63BDFD" stroke-width="4.82705" stroke-miterlimit="10"/>
<path d="M-45.8139 -39.1777C-45.8139 -39.1777 -53.6168 -34.8084 -56.6805 -19.9922C-58.3995 -11.5185 -61.4425 -7.38983 -63.7087 -5.42529C-63.9429 -5.20987 -64.1147 -4.93513 -64.2057 -4.63017C-64.2967 -4.32521 -64.3036 -4.00135 -64.2257 -3.69278C-64.1478 -3.3842 -63.988 -3.10239 -63.7631 -2.87714C-63.5383 -2.65189 -63.2568 -2.49156 -62.9484 -2.41311C-56.4634 -0.595377 -42.5817 1.61625 -30.7021 -7.90038C-14.5516 -20.7959 -9.20553 -34.296 4.98175 -31.8524" stroke="#63BDFD" stroke-width="4.82705" stroke-miterlimit="10"/>
<path d="M167.068 132.786C184.872 134.025 177.918 101.888 155.5 112.927C140.81 120.092 136.621 146.513 158.955 155.215C177.365 162.36 194.582 149.69 198.78 127.559C204.067 99.7927 213.679 89.4703 219.315 81.238C224.211 74.2681 227.389 66.238 228.586 57.8045C229.784 49.371 228.969 40.7735 226.207 32.7154C226.104 32.3224 225.904 31.9615 225.625 31.6657C225.347 31.37 224.998 31.1489 224.612 31.0226C224.226 30.8964 223.814 30.8691 223.414 30.9432C223.015 31.0174 222.64 31.1905 222.325 31.4469C214.188 38.3388 204.04 42.414 193.396 43.0644C171.894 43.4058 162.656 56.4085 156.42 60.5447C143.734 68.9652 132.02 62.3701 117.737 69.2622C113.403 71.1192 109.746 74.265 107.263 78.2725C104.779 82.28 103.59 86.955 103.855 91.6622" stroke="#63BDFD" stroke-width="4.82705" stroke-miterlimit="10"/>
<path d="M99.9862 116.811C92.2653 102.515 72.7124 122.242 89.4079 135.69C100.317 144.348 116.679 133.321 118.105 118.075C119.531 102.829 111.639 91.4042 96.4071 90.1998C89.642 89.7595 82.9359 91.6963 77.4475 95.6756C71.9591 99.6548 68.0335 105.426 66.349 111.993C63.8702 124.816 59.4154 137.176 53.144 148.631C38.7256 177.235 51.3778 183.814 41.6733 205.139C41.5865 205.306 41.5516 205.495 41.5729 205.682C41.5942 205.869 41.6707 206.045 41.7928 206.189C41.9148 206.332 42.0768 206.435 42.2581 206.486C42.4393 206.537 42.6315 206.533 42.8102 206.473C49.0935 204.1 67.1926 198.503 85.3264 201.374C105.456 204.698 125.48 191.891 154.499 152.687" stroke="#63BDFD" stroke-width="4.82705" stroke-miterlimit="10"/>
<path d="M92.3656 137.532C92.3656 137.532 85.006 142.613 83.3428 157.651C82.4246 166.248 79.7814 170.643 77.7092 172.811C77.4961 173.048 77.3509 173.337 77.2888 173.65C77.2267 173.962 77.2502 174.285 77.3566 174.585C77.4631 174.885 77.6486 175.15 77.8935 175.353C78.1385 175.557 78.4337 175.69 78.7481 175.739C85.3748 176.942 99.4026 177.844 110.339 167.257C125.211 152.906 129.27 138.965 143.624 140.07" stroke="#63BDFD" stroke-width="4.82705" stroke-miterlimit="10"/>
<path d="M117.116 106.248C117.116 106.248 120.557 94.1572 142.94 90.1826C160.243 87.1181 179.735 80.9392 186.241 73.3881C186.471 73.0887 186.782 72.8621 187.138 72.7357C187.493 72.6093 187.878 72.5885 188.245 72.6758C188.612 72.7631 188.946 72.9547 189.207 73.2276C189.468 73.5005 189.644 73.843 189.714 74.2138C190.856 79.4147 188.371 92.4719 172.097 112.434" stroke="#63BDFD" stroke-width="4.82705" stroke-miterlimit="10"/>
<path d="M104.641 -33.4288C104.641 -33.4288 93.9644 -32.5838 96.0664 -42.8438C96.4744 -44.4833 97.2851 -45.9951 98.4249 -47.2422C99.5646 -48.4894 100.997 -49.4326 102.594 -49.9863C104.734 -50.7519 107.04 -50.9354 109.275 -50.5179C111.51 -50.1005 113.593 -49.0971 115.313 -47.6104C118.745 -44.5791 121.571 -38.9573 117.299 -28.8457C109.516 -10.4587 77.8661 -18.4129 83.3699 -43.5257C83.3699 -43.5257 84.5412 -56.5597 104.146 -68.9044C104.146 -68.9044 109.811 -72.2271 117.503 -84.6048C122.119 -92.2068 128.259 -98.7709 135.537 -103.884C143.064 -108.955 149.02 -116.034 152.729 -124.317C158.478 -137.605 166.886 -141.15 171.549 -142.157C171.968 -142.226 172.398 -142.186 172.796 -142.04C173.195 -141.895 173.55 -141.648 173.825 -141.325C174.1 -141.002 174.287 -140.613 174.368 -140.196C174.448 -139.779 174.419 -139.348 174.284 -138.946C172.104 -133.015 170.709 -126.826 170.133 -120.534C170.097 -112.507 175.188 -99.41 179.471 -92.23C185.669 -81.85 179.664 -74.9625 178.18 -63.7477C177.19 -53.9385 178.239 -44.0303 181.261 -34.6457C183.252 -29.3167 180.557 -17.7665 168.913 -12.7002C159.442 -8.70031 151.321 -2.06205 145.517 6.4237C140.543 14.5822 135.658 23.5693 122.854 32.4295C118.536 35.4424 114.987 39.4281 112.493 44.0649C110.654 47.5736 109.389 51.3545 108.748 55.2635C108 59.3737 105.193 66.3385 95.2008 56.0697C86.5417 47.1681 94.1249 29.2442 94.1249 29.2442C94.1249 29.2442 101.158 14.6567 96.0235 1.02508C90.0347 -14.7632 98.3581 -19.0665 98.3581 -19.0665" stroke="#63BDFD" stroke-width="4.82705" stroke-miterlimit="10" stroke-linecap="round"/>
<path d="M142.173 -46.2996C142.173 -46.2996 134.891 -42.5767 138.557 -36.5916C143.548 -28.3488 157.447 -41.1689 150.595 -53.9284C144.277 -65.7004 128.445 -54.3698 127.83 -40.4764C127.224 -30.1486 124.325 -20.0855 119.346 -11.0169C117.331 -7.86794 110.556 6.04129 118.654 11.9506C118.982 12.1753 119.357 12.3232 119.75 12.3835C120.143 12.4438 120.544 12.4148 120.925 12.2988C121.305 12.1827 121.654 11.9826 121.947 11.7132C122.239 11.4438 122.467 11.1121 122.614 10.7425C124.8 4.81506 130.718 -9.25864 139.931 -15.8575C144.158 -18.8746 147.28 -21.1666 149.477 -22.828C153.636 -25.8779 156.983 -29.9008 159.226 -34.5445C161.469 -39.1882 162.539 -44.3111 162.342 -49.4643C162.312 -50.2679 162.236 -51.1255 162.119 -51.9667C160.376 -63.0311 156.066 -63.5555 157.886 -80.9485C157.886 -80.9485 162.377 -100.623 152.413 -95.07C147.401 -91.8846 143.515 -87.2078 141.3 -81.6977C137.889 -75.0413 132.702 -69.4588 126.314 -65.5681C117.01 -60.5889 115.371 -47.5855 115.371 -47.5855" stroke="#63BDFD" stroke-width="4.82705" stroke-miterlimit="10" stroke-linecap="round"/>
<path d="M-48.5709 235.009C-48.5709 235.009 -59.2389 234.062 -55.4553 224.296C-54.7796 222.747 -53.7281 221.392 -52.3963 220.352C-51.0646 219.313 -49.4946 218.622 -47.8283 218.342C-45.59 217.944 -43.286 218.148 -41.152 218.932C-39.0181 219.716 -37.1308 221.053 -35.6829 222.806C-32.805 226.367 -30.9559 232.381 -36.8542 241.639C-47.5952 258.47 -77.475 245.35 -67.8603 221.506C-67.8603 221.506 -64.5318 208.85 -43.1432 199.948C-43.1432 199.948 -37.0033 197.616 -27.3543 186.695C-21.535 179.969 -14.3862 174.521 -6.35816 170.693C1.90958 166.948 8.96261 160.962 14.0013 153.413C21.8856 141.27 30.7668 139.177 35.5324 138.962C35.957 138.963 36.3741 139.074 36.743 139.284C37.1119 139.495 37.4202 139.797 37.6377 140.161C37.8553 140.526 37.9748 140.941 37.9846 141.365C37.9944 141.79 37.8942 142.21 37.6937 142.584C34.5556 148.068 32.1473 153.938 30.53 160.046C29.1561 167.954 31.9916 181.717 35.0171 189.51C39.3971 200.779 32.3282 206.568 28.9947 217.379C26.3824 226.885 25.7643 236.83 27.1793 246.587C28.2532 252.173 23.6701 263.112 11.3447 266.166C1.33914 268.53 -7.77559 273.721 -14.9136 281.12C-21.1779 288.335 -27.4934 296.382 -41.5956 302.982C-46.3556 305.233 -50.5198 308.571 -53.7523 312.727C-56.1507 315.88 -58.028 319.397 -59.3128 323.144C-60.735 327.072 -64.6645 333.471 -72.8043 321.68C-79.8576 311.459 -69.3915 295.051 -69.3915 295.051C-69.3915 295.051 -60.024 281.84 -62.8135 267.543C-66.0854 250.977 -57.1609 248.122 -57.1609 248.122" stroke="#63BDFD" stroke-width="4.82705" stroke-miterlimit="10" stroke-linecap="round"/>
<path d="M-9.41789 228.578C-9.41789 228.578 -17.2186 231.034 -14.6023 237.547C-11.0552 246.506 4.78666 236.184 0.158115 222.46C-4.10757 209.8 -21.6072 218.331 -24.5307 231.927C-26.8514 242.009 -31.3872 251.448 -37.8091 259.56C-40.3215 262.328 -49.3203 274.913 -42.3215 282.09C-42.0355 282.366 -41.691 282.575 -41.3135 282.7C-40.936 282.825 -40.5353 282.863 -40.1409 282.812C-39.7466 282.761 -39.3688 282.622 -39.0356 282.405C-38.7023 282.188 -38.4221 281.899 -38.2158 281.559C-35.0714 276.079 -26.8899 263.19 -16.705 258.22C-12.0343 255.95 -8.57323 254.211 -6.13017 252.939C-1.52123 250.625 2.45011 247.217 5.43596 243.012C8.42181 238.807 10.3311 233.935 10.9966 228.821C11.1007 228.023 11.1691 227.165 11.1938 226.316C11.3204 215.116 7.15829 213.88 11.8534 197.034C11.8534 197.034 19.5626 178.385 8.81243 182.198C3.33951 184.503 -1.27273 188.466 -4.375 193.53C-8.84879 199.524 -14.8942 204.163 -21.8418 206.934C-31.8451 210.292 -35.6299 222.84 -35.6299 222.84" stroke="#63BDFD" stroke-width="4.82705" stroke-miterlimit="10" stroke-linecap="round"/>
<rect x="-8.12211" y="-117.122" width="139.578" height="430.244" rx="16.1162" stroke="#63BDFD" stroke-width="5.75578"/>
</g>
</svg>
