<svg width="235" height="303" viewBox="0 0 235 303" fill="none" xmlns="http://www.w3.org/2000/svg">
<mask id="mask0_1099_1709" style="mask-type:alpha" maskUnits="userSpaceOnUse" x="-196" y="0" width="431" height="303">
<rect x="-195.587" y="0.412807" width="430.144" height="302.174" rx="29.3093" fill="#EA4335" stroke="black" stroke-width="0.825613"/>
</mask>
<g mask="url(#mask0_1099_1709)">
<rect x="-195.587" y="0.412807" width="430.144" height="302.174" rx="29.3093" fill="#EA4335" stroke="black" stroke-width="0.825613"/>
<path d="M-144.413 -7.49732H-125.376V-2.81476H-139.512V5.85016H-126.777V10.489H-139.512V19.1539H-125.376V23.8364H-144.413V-7.49732ZM-114.941 12.502L-122.643 1.5177H-117.042L-112.097 8.78223H-111.965L-107.239 1.5177H-101.462L-109.252 12.502L-101.375 23.8364H-107.064L-112.053 16.3093H-112.184L-117.042 23.8364H-122.731L-114.941 12.502ZM-98.0195 -7.49732H-93.2057V1.03631L-93.4245 4.44977H-93.2057C-92.5638 3.39947 -91.6156 2.53882 -90.3611 1.8678C-89.0774 1.1676 -87.7062 0.817504 -86.2475 0.817504C-83.5342 0.817504 -81.4628 1.61981 -80.0332 3.22443C-78.6037 4.79986 -77.8889 6.9588 -77.8889 9.70123V23.8364H-82.7027V10.3577C-82.7027 8.66553 -83.1549 7.39642 -84.0594 6.55035C-84.9346 5.70428 -86.087 5.28125 -87.5166 5.28125C-88.596 5.28125 -89.5734 5.58758 -90.4486 6.20026C-91.2947 6.81293 -91.9657 7.62982 -92.4617 8.65094C-92.9577 9.64288 -93.2057 10.7078 -93.2057 11.8456V23.8364H-98.0195V-7.49732ZM-69.6633 -1.72071C-70.5677 -1.72071 -71.3409 -2.02704 -71.9827 -2.63971C-72.5954 -3.28156 -72.9017 -4.05469 -72.9017 -4.95911C-72.9017 -5.86353 -72.5954 -6.62207 -71.9827 -7.23474C-71.3409 -7.87659 -70.5677 -8.19751 -69.6633 -8.19751C-68.7589 -8.19751 -68.0003 -7.87659 -67.3877 -7.23474C-66.7458 -6.62207 -66.4249 -5.86353 -66.4249 -4.95911C-66.4249 -4.05469 -66.7458 -3.28156 -67.3877 -2.63971C-68.0003 -2.02704 -68.7589 -1.72071 -69.6633 -1.72071ZM-72.0702 1.5177H-67.2564V23.8364H-72.0702V1.5177ZM-49.3628 24.5366C-50.9382 24.5366 -52.3532 24.1865 -53.6077 23.4863C-54.8622 22.7861 -55.8104 21.9401 -56.4522 20.9481H-56.6711V23.8364H-61.2661V-7.49732H-56.4522V1.29889L-56.6711 4.44977H-56.4522C-55.8104 3.42865 -54.8622 2.56799 -53.6077 1.8678C-52.3532 1.1676 -50.9382 0.817504 -49.3628 0.817504C-47.3497 0.817504 -45.5263 1.32806 -43.8925 2.34918C-42.2587 3.3703 -40.975 4.78528 -40.0414 6.59412C-39.0787 8.37378 -38.5973 10.4014 -38.5973 12.6771C-38.5973 14.9527 -39.0787 16.9949 -40.0414 18.8038C-40.975 20.5834 -42.2587 21.9838 -43.8925 23.0049C-45.5263 24.0261 -47.3497 24.5366 -49.3628 24.5366ZM-50.063 20.1166C-48.896 20.1166 -47.8019 19.8103 -46.7808 19.1976C-45.7597 18.585 -44.9428 17.7097 -44.3301 16.5719C-43.7174 15.4341 -43.4111 14.1358 -43.4111 12.6771C-43.4111 11.2183 -43.7174 9.93463 -44.3301 8.82599C-44.9428 7.68817 -45.7597 6.81293 -46.7808 6.20026C-47.8019 5.58758 -48.896 5.28125 -50.063 5.28125C-51.23 5.28125 -52.324 5.58758 -53.3451 6.20026C-54.3371 6.81293 -55.1394 7.68817 -55.7521 8.82599C-56.3647 9.93463 -56.6711 11.2183 -56.6711 12.6771C-56.6711 14.1358 -56.3647 15.4341 -55.7521 16.5719C-55.1394 17.7097 -54.3371 18.585 -53.3451 19.1976C-52.324 19.8103 -51.23 20.1166 -50.063 20.1166ZM-31.6705 -1.72071C-32.575 -1.72071 -33.3481 -2.02704 -33.9899 -2.63971C-34.6026 -3.28156 -34.9089 -4.05469 -34.9089 -4.95911C-34.9089 -5.86353 -34.6026 -6.62207 -33.9899 -7.23474C-33.3481 -7.87659 -32.575 -8.19751 -31.6705 -8.19751C-30.7661 -8.19751 -30.0076 -7.87659 -29.3949 -7.23474C-28.7531 -6.62207 -28.4321 -5.86353 -28.4321 -4.95911C-28.4321 -4.05469 -28.7531 -3.28156 -29.3949 -2.63971C-30.0076 -2.02704 -30.7661 -1.72071 -31.6705 -1.72071ZM-34.0775 1.5177H-29.2636V23.8364H-34.0775V1.5177ZM-14.3407 24.1865C-15.3326 24.1865 -16.2662 24.0261 -17.1415 23.7051C-18.0167 23.3842 -18.7315 22.9612 -19.2858 22.436C-20.5403 21.1815 -21.1676 19.4748 -21.1676 17.3159V5.76263H-25.0624V1.5177H-21.1676V-4.78406H-16.3538V1.5177H-10.9272V5.76263H-16.3538V16.2656C-16.3538 17.4617 -16.1204 18.3078 -15.6536 18.8038C-15.2159 19.3873 -14.4574 19.679 -13.3779 19.679C-12.882 19.679 -12.4443 19.6207 -12.0651 19.504C-11.6858 19.3581 -11.2773 19.1393 -10.8397 18.8475V23.5301C-11.8025 23.9677 -12.9695 24.1865 -14.3407 24.1865ZM-3.37895 -1.72071C-4.28337 -1.72071 -5.0565 -2.02704 -5.69835 -2.63971C-6.31102 -3.28156 -6.61736 -4.05469 -6.61736 -4.95911C-6.61736 -5.86353 -6.31102 -6.62207 -5.69835 -7.23474C-5.0565 -7.87659 -4.28337 -8.19751 -3.37895 -8.19751C-2.47453 -8.19751 -1.71599 -7.87659 -1.10332 -7.23474C-0.461471 -6.62207 -0.140548 -5.86353 -0.140548 -4.95911C-0.140548 -4.05469 -0.461471 -3.28156 -1.10332 -2.63971C-1.71599 -2.02704 -2.47453 -1.72071 -3.37895 -1.72071ZM-5.78587 1.5177H-0.97203V23.8364H-5.78587V1.5177ZM15.2637 24.5366C13.0173 24.5366 11.0042 24.0261 9.22456 23.0049C7.4449 21.9547 6.0591 20.5251 5.06715 18.7162C4.07521 16.9074 3.57924 14.8943 3.57924 12.6771C3.57924 10.4598 4.07521 8.44672 5.06715 6.63788C6.0591 4.82904 7.4449 3.41406 9.22456 2.39294C11.0042 1.34265 13.0173 0.817504 15.2637 0.817504C17.5102 0.817504 19.5233 1.34265 21.3029 2.39294C23.0826 3.44324 24.4684 4.8728 25.4603 6.68164C26.4523 8.49048 26.9483 10.489 26.9483 12.6771C26.9483 14.8943 26.4523 16.9074 25.4603 18.7162C24.4684 20.5251 23.0826 21.9547 21.3029 23.0049C19.5233 24.0261 17.5102 24.5366 15.2637 24.5366ZM15.2637 20.1166C16.4891 20.1166 17.6269 19.8249 18.6772 19.2414C19.7275 18.6287 20.559 17.7681 21.1716 16.6594C21.8135 15.5216 22.1344 14.1942 22.1344 12.6771C22.1344 11.16 21.8135 9.84711 21.1716 8.73846C20.559 7.62982 19.7275 6.78375 18.6772 6.20026C17.6269 5.58758 16.4891 5.28125 15.2637 5.28125C14.0384 5.28125 12.9006 5.58758 11.8503 6.20026C10.8 6.78375 9.95393 7.62982 9.31209 8.73846C8.69942 9.84711 8.39308 11.16 8.39308 12.6771C8.39308 14.1942 8.69942 15.5216 9.31209 16.6594C9.95393 17.7681 10.8 18.6287 11.8503 19.2414C12.9006 19.8249 14.0384 20.1166 15.2637 20.1166ZM30.9593 1.5177H35.5544V4.44977H35.7732C36.415 3.39947 37.3632 2.53882 38.6177 1.8678C39.9014 1.1676 41.258 0.817504 42.6876 0.817504C45.4009 0.817504 47.4577 1.61981 48.8581 3.22443C50.2876 4.79986 51.0024 6.9588 51.0024 9.70123V23.8364H46.1886V10.3577C46.1886 8.60718 45.751 7.32349 44.8757 6.50659C44.0296 5.6897 42.8481 5.28125 41.331 5.28125C40.2515 5.28125 39.2887 5.58758 38.4427 6.20026C37.5966 6.78375 36.9402 7.57147 36.4734 8.56342C36.0066 9.55536 35.7732 10.6202 35.7732 11.7581V23.8364H30.9593V1.5177ZM67.4748 -7.49732H79.2468C80.9098 -7.49732 82.4415 -7.13263 83.8419 -6.40326C85.2714 -5.67389 86.4093 -4.66736 87.2553 -3.38367C88.1014 -2.09998 88.5244 -0.684998 88.5244 0.861266C88.5244 2.40753 88.1306 3.74957 87.3429 4.88739C86.5843 6.02521 85.5778 6.88586 84.3233 7.46936V7.73193C85.8987 8.28625 87.1678 9.20526 88.1306 10.489C89.1225 11.7726 89.6185 13.2751 89.6185 14.9965C89.6185 16.7178 89.1663 18.2495 88.2619 19.5915C87.3866 20.9335 86.1904 21.9838 84.6734 22.7424C83.1854 23.4717 81.5517 23.8364 79.772 23.8364H67.4748V-7.49732ZM79.028 5.63135C80.4284 5.63135 81.5517 5.19373 82.3977 4.31848C83.273 3.44324 83.7106 2.43671 83.7106 1.29889C83.7106 0.161071 83.2876 -0.830872 82.4415 -1.67694C81.6246 -2.55219 80.5451 -2.98981 79.2031 -2.98981H72.3762V5.63135H79.028ZM79.772 19.2852C81.2599 19.2852 82.4415 18.8184 83.3167 17.8848C84.2211 16.9512 84.6734 15.8717 84.6734 14.6464C84.6734 13.3918 84.2066 12.3124 83.273 11.408C82.3685 10.4744 81.1432 10.0076 79.5969 10.0076H72.3762V19.2852H79.772ZM104.626 24.5366C102.379 24.5366 100.366 24.0261 98.5867 23.0049C96.807 21.9547 95.4212 20.5251 94.4293 18.7162C93.4373 16.9074 92.9413 14.8943 92.9413 12.6771C92.9413 10.4598 93.4373 8.44672 94.4293 6.63788C95.4212 4.82904 96.807 3.41406 98.5867 2.39294C100.366 1.34265 102.379 0.817504 104.626 0.817504C106.872 0.817504 108.885 1.34265 110.665 2.39294C112.445 3.44324 113.831 4.8728 114.822 6.68164C115.814 8.49048 116.31 10.489 116.31 12.6771C116.31 14.8943 115.814 16.9074 114.822 18.7162C113.831 20.5251 112.445 21.9547 110.665 23.0049C108.885 24.0261 106.872 24.5366 104.626 24.5366ZM104.626 20.1166C105.851 20.1166 106.989 19.8249 108.039 19.2414C109.09 18.6287 109.921 17.7681 110.534 16.6594C111.176 15.5216 111.497 14.1942 111.497 12.6771C111.497 11.16 111.176 9.84711 110.534 8.73846C109.921 7.62982 109.09 6.78375 108.039 6.20026C106.989 5.58758 105.851 5.28125 104.626 5.28125C103.401 5.28125 102.263 5.58758 101.212 6.20026C100.162 6.78375 99.316 7.62982 98.6742 8.73846C98.0615 9.84711 97.7552 11.16 97.7552 12.6771C97.7552 14.1942 98.0615 15.5216 98.6742 16.6594C99.316 17.7681 100.162 18.6287 101.212 19.2414C102.263 19.8249 103.401 20.1166 104.626 20.1166ZM131.208 24.5366C128.961 24.5366 126.948 24.0261 125.169 23.0049C123.389 21.9547 122.003 20.5251 121.011 18.7162C120.019 16.9074 119.523 14.8943 119.523 12.6771C119.523 10.4598 120.019 8.44672 121.011 6.63788C122.003 4.82904 123.389 3.41406 125.169 2.39294C126.948 1.34265 128.961 0.817504 131.208 0.817504C133.454 0.817504 135.467 1.34265 137.247 2.39294C139.027 3.44324 140.413 4.8728 141.405 6.68164C142.396 8.49048 142.892 10.489 142.892 12.6771C142.892 14.8943 142.396 16.9074 141.405 18.7162C140.413 20.5251 139.027 21.9547 137.247 23.0049C135.467 24.0261 133.454 24.5366 131.208 24.5366ZM131.208 20.1166C132.433 20.1166 133.571 19.8249 134.621 19.2414C135.672 18.6287 136.503 17.7681 137.116 16.6594C137.758 15.5216 138.079 14.1942 138.079 12.6771C138.079 11.16 137.758 9.84711 137.116 8.73846C136.503 7.62982 135.672 6.78375 134.621 6.20026C133.571 5.58758 132.433 5.28125 131.208 5.28125C129.983 5.28125 128.845 5.58758 127.794 6.20026C126.744 6.78375 125.898 7.62982 125.256 8.73846C124.644 9.84711 124.337 11.16 124.337 12.6771C124.337 14.1942 124.644 15.5216 125.256 16.6594C125.898 17.7681 126.744 18.6287 127.794 19.2414C128.845 19.8249 129.983 20.1166 131.208 20.1166ZM155.836 24.1865C154.844 24.1865 153.911 24.0261 153.035 23.7051C152.16 23.3842 151.445 22.9612 150.891 22.436C149.637 21.1815 149.009 19.4748 149.009 17.3159V5.76263H145.114V1.5177H149.009V-4.78406H153.823V1.5177H159.25V5.76263H153.823V16.2656C153.823 17.4617 154.057 18.3078 154.523 18.8038C154.961 19.3873 155.719 19.679 156.799 19.679C157.295 19.679 157.733 19.6207 158.112 19.504C158.491 19.3581 158.9 19.1393 159.337 18.8475V23.5301C158.374 23.9677 157.207 24.1865 155.836 24.1865ZM164.041 -7.49732H168.855V1.03631L168.636 4.44977H168.855C169.497 3.39947 170.445 2.53882 171.699 1.8678C172.983 1.1676 174.354 0.817504 175.813 0.817504C178.526 0.817504 180.598 1.61981 182.027 3.22443C183.457 4.79986 184.172 6.9588 184.172 9.70123V23.8364H179.358V10.3577C179.358 8.66553 178.905 7.39642 178.001 6.55035C177.126 5.70428 175.973 5.28125 174.544 5.28125C173.464 5.28125 172.487 5.58758 171.612 6.20026C170.766 6.81293 170.095 7.62982 169.599 8.65094C169.103 9.64288 168.855 10.7078 168.855 11.8456V23.8364H164.041V-7.49732ZM-117.505 80.5366C-120.54 80.5366 -123.311 79.8218 -125.82 78.3923C-128.329 76.9627 -130.299 74.9934 -131.728 72.4844C-133.158 69.9753 -133.873 67.2037 -133.873 64.1696C-133.873 61.1354 -133.158 58.3638 -131.728 55.8547C-130.299 53.3457 -128.329 51.3764 -125.82 49.9468C-123.311 48.5173 -120.54 47.8025 -117.505 47.8025C-115.142 47.8025 -112.998 48.2401 -111.072 49.1154C-109.118 49.9906 -107.396 51.2597 -105.908 52.9227L-109.409 56.2924C-110.489 55.0087 -111.685 54.0605 -112.998 53.4478C-114.311 52.806 -115.813 52.485 -117.505 52.485C-119.606 52.485 -121.532 52.9664 -123.282 53.9292C-125.003 54.892 -126.375 56.2632 -127.396 58.0428C-128.417 59.7933 -128.927 61.8356 -128.927 64.1696C-128.927 66.5035 -128.417 68.5604 -127.396 70.34C-126.375 72.0905 -125.003 73.4471 -123.282 74.4099C-121.532 75.3727 -119.606 75.8541 -117.505 75.8541C-114.005 75.8541 -111.029 74.3953 -108.578 71.4778L-105.033 74.8913C-106.55 76.671 -108.374 78.0568 -110.504 79.0487C-112.633 80.0406 -114.967 80.5366 -117.505 80.5366ZM-90.7442 80.5366C-92.9907 80.5366 -95.0037 80.0261 -96.7834 79.0049C-98.563 77.9547 -99.9489 76.5251 -100.941 74.7162C-101.933 72.9074 -102.429 70.8943 -102.429 68.6771C-102.429 66.4598 -101.933 64.4467 -100.941 62.6379C-99.9489 60.829 -98.563 59.4141 -96.7834 58.3929C-95.0037 57.3427 -92.9907 56.8175 -90.7442 56.8175C-88.4977 56.8175 -86.4847 57.3427 -84.705 58.3929C-82.9254 59.4432 -81.5395 60.8728 -80.5476 62.6816C-79.5557 64.4905 -79.0597 66.489 -79.0597 68.6771C-79.0597 70.8943 -79.5557 72.9074 -80.5476 74.7162C-81.5395 76.5251 -82.9254 77.9547 -84.705 79.0049C-86.4847 80.0261 -88.4977 80.5366 -90.7442 80.5366ZM-90.7442 76.1166C-89.5189 76.1166 -88.381 75.8249 -87.3307 75.2414C-86.2805 74.6287 -85.449 73.7681 -84.8363 72.6594C-84.1945 71.5216 -83.8735 70.1942 -83.8735 68.6771C-83.8735 67.16 -84.1945 65.8471 -84.8363 64.7385C-85.449 63.6298 -86.2805 62.7838 -87.3307 62.2003C-88.381 61.5876 -89.5189 61.2812 -90.7442 61.2812C-91.9695 61.2812 -93.1074 61.5876 -94.1577 62.2003C-95.2079 62.7838 -96.054 63.6298 -96.6959 64.7385C-97.3085 65.8471 -97.6149 67.16 -97.6149 68.6771C-97.6149 70.1942 -97.3085 71.5216 -96.6959 72.6594C-96.054 73.7681 -95.2079 74.6287 -94.1577 75.2414C-93.1074 75.8249 -91.9695 76.1166 -90.7442 76.1166ZM-75.0486 57.5177H-70.4536V60.7999H-70.2348C-69.7388 59.662 -68.8781 58.7285 -67.6528 57.9991C-66.4275 57.2405 -65.1292 56.8613 -63.758 56.8613C-62.6785 56.8613 -61.7741 57.0071 -61.0447 57.2989V62.2878C-62.3284 61.821 -63.4808 61.5876 -64.5019 61.5876C-65.6106 61.5876 -66.6025 61.8793 -67.4778 62.4628C-68.3238 63.0463 -68.9948 63.834 -69.4908 64.826C-69.9868 65.7888 -70.2348 66.8536 -70.2348 68.0206V79.8364H-75.0486V57.5177ZM-57.3557 57.5177H-52.7607V60.4498H-52.5418C-51.9 59.3995 -50.9518 58.5388 -49.6973 57.8678C-48.4136 57.1676 -47.057 56.8175 -45.6274 56.8175C-42.9142 56.8175 -40.8573 57.6198 -39.4569 59.2244C-38.0274 60.7999 -37.3126 62.9588 -37.3126 65.7012V79.8364H-42.1264V66.3577C-42.1264 64.6072 -42.5641 63.3235 -43.4393 62.5066C-44.2854 61.6897 -45.467 61.2812 -46.984 61.2812C-48.0635 61.2812 -49.0263 61.5876 -49.8724 62.2003C-50.7184 62.7838 -51.3749 63.5715 -51.8417 64.5634C-52.3084 65.5554 -52.5418 66.6202 -52.5418 67.7581V79.8364H-57.3557V57.5177ZM-21.6881 80.5366C-23.8762 80.5366 -25.8455 80.0261 -27.596 79.0049C-29.3173 77.9838 -30.674 76.5834 -31.6659 74.8038C-32.6287 72.9949 -33.1101 70.9673 -33.1101 68.7208C-33.1101 66.5911 -32.6433 64.6218 -31.7097 62.8129C-30.7469 60.9749 -29.4194 59.5162 -27.7273 58.4367C-26.0352 57.3572 -24.1096 56.8175 -21.9507 56.8175C-19.7042 56.8175 -17.7641 57.3135 -16.1303 58.3054C-14.4674 59.2974 -13.2128 60.654 -12.3668 62.3753C-11.4915 64.0966 -11.0539 66.0367 -11.0539 68.1957C-11.0539 68.6041 -11.0977 69.1147 -11.1852 69.7274H-28.2962C-28.1212 71.7988 -27.3918 73.4034 -26.1081 74.5412C-24.7952 75.6498 -23.2782 76.2042 -21.5568 76.2042C-20.1856 76.2042 -19.004 75.8978 -18.0121 75.2852C-16.991 74.6433 -16.1741 73.7827 -15.5614 72.7032L-11.4915 74.6287C-12.5418 76.4667 -13.913 77.9109 -15.6052 78.9612C-17.2973 80.0115 -19.325 80.5366 -21.6881 80.5366ZM-15.9553 66.0513C-16.0136 65.2636 -16.2616 64.4905 -16.6992 63.7319C-17.1369 62.9442 -17.8079 62.2878 -18.7123 61.7626C-19.5875 61.2375 -20.667 60.9749 -21.9507 60.9749C-23.497 60.9749 -24.8098 61.4417 -25.8893 62.3753C-26.9396 63.2797 -27.669 64.5051 -28.0774 66.0513H-15.9553ZM-6.67017 57.5177H-2.07513V60.7999H-1.85632C-1.36035 59.662 -0.499694 58.7285 0.725647 57.9991C1.95099 57.2405 3.24927 56.8613 4.62048 56.8613C5.69995 56.8613 6.60437 57.0071 7.33374 57.2989V62.2878C6.05005 61.821 4.89764 61.5876 3.87653 61.5876C2.76788 61.5876 1.77594 61.8793 0.900697 62.4628C0.0546269 63.0463 -0.616394 63.834 -1.11237 64.826C-1.60834 65.7888 -1.85632 66.8536 -1.85632 68.0206V79.8364H-6.67017V57.5177ZM22.0672 48.5027H41.1038V53.1852H26.9686V61.8502H39.7034V66.489H26.9686V75.1539H41.1038V79.8364H22.0672V48.5027ZM51.539 68.502L43.8369 57.5177H49.4385L54.3836 64.7822H54.5149L59.2412 57.5177H65.0178L57.2281 68.502L65.1053 79.8364H59.4162L54.4274 72.3093H54.2961L49.4385 79.8364H43.7494L51.539 68.502ZM68.2856 57.5177H72.8806V60.4498H73.0994C73.7413 59.4286 74.6895 58.568 75.944 57.8678C77.1985 57.1676 78.6135 56.8175 80.1889 56.8175C82.202 56.8175 84.0254 57.3281 85.6592 58.3492C87.293 59.3703 88.5767 60.7853 89.5103 62.5941C90.473 64.3738 90.9544 66.4014 90.9544 68.6771C90.9544 70.9527 90.473 72.9949 89.5103 74.8038C88.5767 76.5834 87.293 77.9838 85.6592 79.0049C84.0254 80.0261 82.202 80.5366 80.1889 80.5366C78.6135 80.5366 77.1985 80.1865 75.944 79.4863C74.6895 78.7861 73.7413 77.9401 73.0994 76.9481H72.8806L73.0994 80.0552V89.2891H68.2856V57.5177ZM79.4887 76.1166C80.6557 76.1166 81.7498 75.8103 82.7709 75.1976C83.792 74.585 84.6089 73.7097 85.2216 72.5719C85.8342 71.4341 86.1406 70.1358 86.1406 68.6771C86.1406 67.2183 85.8342 65.9346 85.2216 64.826C84.6089 63.6882 83.792 62.8129 82.7709 62.2003C81.7498 61.5876 80.6557 61.2812 79.4887 61.2812C78.3217 61.2812 77.2277 61.5876 76.2066 62.2003C75.2146 62.8129 74.4123 63.6882 73.7996 64.826C73.187 65.9346 72.8806 67.2183 72.8806 68.6771C72.8806 70.1358 73.187 71.4341 73.7996 72.5719C74.4123 73.7097 75.2146 74.585 76.2066 75.1976C77.2277 75.8103 78.3217 76.1166 79.4887 76.1166ZM105.539 80.5366C103.35 80.5366 101.381 80.0261 99.6306 79.0049C97.9093 77.9838 96.5527 76.5834 95.5607 74.8038C94.598 72.9949 94.1166 70.9673 94.1166 68.7208C94.1166 66.5911 94.5834 64.6218 95.517 62.8129C96.4797 60.9749 97.8072 59.5162 99.4993 58.4367C101.191 57.3572 103.117 56.8175 105.276 56.8175C107.522 56.8175 109.463 57.3135 111.096 58.3054C112.759 59.2974 114.014 60.654 114.86 62.3753C115.735 64.0966 116.173 66.0367 116.173 68.1957C116.173 68.6041 116.129 69.1147 116.041 69.7274H98.9304C99.1055 71.7988 99.8348 73.4034 101.119 74.5412C102.431 75.6498 103.948 76.2042 105.67 76.2042C107.041 76.2042 108.223 75.8978 109.215 75.2852C110.236 74.6433 111.053 73.7827 111.665 72.7032L115.735 74.6287C114.685 76.4667 113.314 77.9109 111.621 78.9612C109.929 80.0115 107.902 80.5366 105.539 80.5366ZM111.271 66.0513C111.213 65.2636 110.965 64.4905 110.527 63.7319C110.09 62.9442 109.419 62.2878 108.514 61.7626C107.639 61.2375 106.56 60.9749 105.276 60.9749C103.73 60.9749 102.417 61.4417 101.337 62.3753C100.287 63.2797 99.5577 64.5051 99.1492 66.0513H111.271ZM120.556 57.5177H125.152V60.7999H125.37C125.954 59.6037 126.858 58.6555 128.084 57.9553C129.338 57.2551 130.695 56.905 132.153 56.905C132.97 56.905 133.568 56.9634 133.948 57.0801V61.9377C133.218 61.7335 132.445 61.6313 131.628 61.6313C129.732 61.6313 128.215 62.2294 127.077 63.4256C125.939 64.6218 125.37 66.1972 125.37 68.1519V79.8364H120.556V57.5177ZM147.645 80.1865C146.653 80.1865 145.72 80.0261 144.845 79.7051C143.969 79.3842 143.254 78.9612 142.7 78.436C141.446 77.1815 140.818 75.4748 140.818 73.3159V61.7626H136.924V57.5177H140.818V51.2159H145.632V57.5177H151.059V61.7626H145.632V72.2656C145.632 73.4617 145.866 74.3078 146.332 74.8038C146.77 75.3873 147.529 75.679 148.608 75.679C149.104 75.679 149.542 75.6207 149.921 75.504C150.3 75.3581 150.709 75.1393 151.146 74.8475V79.5301C150.184 79.9677 149.017 80.1865 147.645 80.1865ZM164.21 80.5366C161.643 80.5366 159.542 79.9823 157.909 78.8737C156.275 77.7358 155.122 76.2917 154.451 74.5412L158.74 72.6594C159.265 73.8264 159.995 74.7162 160.928 75.3289C161.891 75.9416 162.985 76.2479 164.21 76.2479C165.406 76.2479 166.413 76.0437 167.23 75.6353C168.047 75.1976 168.455 74.5558 168.455 73.7097C168.455 72.8928 168.105 72.251 167.405 71.7842C166.705 71.3174 165.625 70.9089 164.167 70.5588L161.497 69.9024C159.717 69.4648 158.244 68.6916 157.077 67.583C155.91 66.4744 155.327 65.074 155.327 63.3818C155.327 62.069 155.706 60.9166 156.464 59.9246C157.252 58.9327 158.302 58.1741 159.615 57.649C160.928 57.0947 162.358 56.8175 163.904 56.8175C165.975 56.8175 167.799 57.2405 169.374 58.0866C170.95 58.9035 172.088 60.0997 172.788 61.6751L168.587 63.5131C167.74 61.7918 166.194 60.9312 163.948 60.9312C162.868 60.9312 161.964 61.15 161.234 61.5876C160.505 62.0252 160.14 62.5941 160.14 63.2943C160.14 63.9653 160.418 64.5197 160.972 64.9573C161.526 65.3657 162.343 65.7158 163.423 66.0076L166.705 66.839C168.893 67.3934 170.541 68.2394 171.65 69.3773C172.788 70.4859 173.357 71.8571 173.357 73.4909C173.357 74.8913 172.948 76.1312 172.131 77.2107C171.344 78.261 170.25 79.0779 168.849 79.6614C167.449 80.2449 165.902 80.5366 164.21 80.5366ZM-83.3236 104.503H-77.8533L-72.9957 124.677L-72.4706 127.39H-72.208L-71.5078 124.677L-65.2498 104.503H-60.3484L-54.3968 124.677L-53.6966 127.347H-53.434L-52.9089 124.677L-48.0513 104.503H-42.581L-50.852 135.836H-56.0598L-62.0114 115.181L-62.6678 112.38H-62.9304L-63.6744 115.181L-69.8886 135.836H-74.965L-83.3236 104.503ZM-31.1481 136.537C-33.3946 136.537 -35.4076 136.026 -37.1873 135.005C-38.967 133.955 -40.3528 132.525 -41.3447 130.716C-42.3367 128.907 -42.8326 126.894 -42.8326 124.677C-42.8326 122.46 -42.3367 120.447 -41.3447 118.638C-40.3528 116.829 -38.967 115.414 -37.1873 114.393C-35.4076 113.343 -33.3946 112.818 -31.1481 112.818C-28.9017 112.818 -26.8886 113.343 -25.1089 114.393C-23.3293 115.443 -21.9435 116.873 -20.9515 118.682C-19.9596 120.49 -19.4636 122.489 -19.4636 124.677C-19.4636 126.894 -19.9596 128.907 -20.9515 130.716C-21.9435 132.525 -23.3293 133.955 -25.1089 135.005C-26.8886 136.026 -28.9017 136.537 -31.1481 136.537ZM-31.1481 132.117C-29.9228 132.117 -28.785 131.825 -27.7347 131.241C-26.6844 130.629 -25.8529 129.768 -25.2402 128.659C-24.5984 127.522 -24.2775 126.194 -24.2775 124.677C-24.2775 123.16 -24.5984 121.847 -25.2402 120.738C-25.8529 119.63 -26.6844 118.784 -27.7347 118.2C-28.785 117.588 -29.9228 117.281 -31.1481 117.281C-32.3735 117.281 -33.5113 117.588 -34.5616 118.2C-35.6119 118.784 -36.4579 119.63 -37.0998 120.738C-37.7124 121.847 -38.0188 123.16 -38.0188 124.677C-38.0188 126.194 -37.7124 127.522 -37.0998 128.659C-36.4579 129.768 -35.6119 130.629 -34.5616 131.241C-33.5113 131.825 -32.3735 132.117 -31.1481 132.117ZM-15.4525 113.518H-10.8575V116.8H-10.6387C-10.1427 115.662 -9.28206 114.728 -8.05672 113.999C-6.83137 113.241 -5.5331 112.861 -4.16188 112.861C-3.08241 112.861 -2.17799 113.007 -1.44862 113.299V118.288C-2.73231 117.821 -3.88472 117.588 -4.90584 117.588C-6.01448 117.588 -7.00642 117.879 -7.88167 118.463C-8.72774 119.046 -9.39876 119.834 -9.89473 120.826C-10.3907 121.789 -10.6387 122.854 -10.6387 124.021V135.836H-15.4525V113.518ZM2.45407 104.503H7.26791V122.752H7.3992L16.5455 113.518H22.5847V113.78L13.9198 122.401L22.8473 135.574V135.836H17.1144L10.5501 125.727L7.26791 128.922V135.836H2.45407V104.503ZM33.5434 136.537C30.976 136.537 28.8754 135.982 27.2416 134.874C25.6078 133.736 24.4554 132.292 23.7844 130.541L28.0731 128.659C28.5982 129.826 29.3276 130.716 30.2612 131.329C31.224 131.942 32.318 132.248 33.5434 132.248C34.7395 132.248 35.7461 132.044 36.563 131.635C37.3799 131.198 37.7883 130.556 37.7883 129.71C37.7883 128.893 37.4382 128.251 36.738 127.784C36.0378 127.317 34.9583 126.909 33.4996 126.559L30.8301 125.902C29.0504 125.465 27.5771 124.692 26.4101 123.583C25.2431 122.474 24.6596 121.074 24.6596 119.382C24.6596 118.069 25.0389 116.917 25.7975 115.925C26.5852 114.933 27.6355 114.174 28.9483 113.649C30.2612 113.095 31.6908 112.818 33.237 112.818C35.3084 112.818 37.1319 113.241 38.7073 114.087C40.2827 114.904 41.4206 116.1 42.1208 117.675L37.9196 119.513C37.0735 117.792 35.5273 116.931 33.2808 116.931C32.2013 116.931 31.2969 117.15 30.5675 117.588C29.8382 118.025 29.4735 118.594 29.4735 119.294C29.4735 119.965 29.7506 120.52 30.305 120.957C30.8593 121.366 31.6762 121.716 32.7556 122.008L36.0378 122.839C38.2259 123.393 39.8743 124.239 40.9829 125.377C42.1208 126.486 42.6897 127.857 42.6897 129.491C42.6897 130.891 42.2812 132.131 41.4643 133.211C40.6766 134.261 39.5826 135.078 38.1822 135.661C36.7818 136.245 35.2355 136.537 33.5434 136.537ZM46.8573 104.503H51.6712V113.036L51.4524 116.45H51.6712C52.313 115.399 53.2612 114.539 54.5157 113.868C55.7994 113.168 57.1706 112.818 58.6294 112.818C61.3426 112.818 63.414 113.62 64.8436 115.224C66.2732 116.8 66.9879 118.959 66.9879 121.701V135.836H62.1741V122.358C62.1741 120.666 61.7219 119.396 60.8175 118.55C59.9422 117.704 58.7898 117.281 57.3603 117.281C56.2808 117.281 55.3034 117.588 54.4282 118.2C53.5821 118.813 52.9111 119.63 52.4151 120.651C51.9192 121.643 51.6712 122.708 51.6712 123.846V135.836H46.8573V104.503ZM82.9157 136.537C80.6692 136.537 78.6562 136.026 76.8765 135.005C75.0968 133.955 73.711 132.525 72.7191 130.716C71.7271 128.907 71.2312 126.894 71.2312 124.677C71.2312 122.46 71.7271 120.447 72.7191 118.638C73.711 116.829 75.0968 115.414 76.8765 114.393C78.6562 113.343 80.6692 112.818 82.9157 112.818C85.1621 112.818 87.1752 113.343 88.9549 114.393C90.7345 115.443 92.1203 116.873 93.1123 118.682C94.1042 120.49 94.6002 122.489 94.6002 124.677C94.6002 126.894 94.1042 128.907 93.1123 130.716C92.1203 132.525 90.7345 133.955 88.9549 135.005C87.1752 136.026 85.1621 136.537 82.9157 136.537ZM82.9157 132.117C84.141 132.117 85.2788 131.825 86.3291 131.241C87.3794 130.629 88.2109 129.768 88.8236 128.659C89.4654 127.522 89.7863 126.194 89.7863 124.677C89.7863 123.16 89.4654 121.847 88.8236 120.738C88.2109 119.63 87.3794 118.784 86.3291 118.2C85.2788 117.588 84.141 117.281 82.9157 117.281C81.6903 117.281 80.5525 117.588 79.5022 118.2C78.4519 118.784 77.6059 119.63 76.964 120.738C76.3513 121.847 76.045 123.16 76.045 124.677C76.045 126.194 76.3513 127.522 76.964 128.659C77.6059 129.768 78.4519 130.629 79.5022 131.241C80.5525 131.825 81.6903 132.117 82.9157 132.117ZM98.6499 113.518H103.245V116.45H103.464C104.106 115.429 105.054 114.568 106.308 113.868C107.563 113.168 108.978 112.818 110.553 112.818C112.566 112.818 114.39 113.328 116.023 114.349C117.657 115.37 118.941 116.785 119.875 118.594C120.837 120.374 121.319 122.401 121.319 124.677C121.319 126.953 120.837 128.995 119.875 130.804C118.941 132.583 117.657 133.984 116.023 135.005C114.39 136.026 112.566 136.537 110.553 136.537C108.978 136.537 107.563 136.187 106.308 135.486C105.054 134.786 104.106 133.94 103.464 132.948H103.245L103.464 136.055V145.289H98.6499V113.518ZM109.853 132.117C111.02 132.117 112.114 131.81 113.135 131.198C114.156 130.585 114.973 129.71 115.586 128.572C116.199 127.434 116.505 126.136 116.505 124.677C116.505 123.218 116.199 121.935 115.586 120.826C114.973 119.688 114.156 118.813 113.135 118.2C112.114 117.588 111.02 117.281 109.853 117.281C108.686 117.281 107.592 117.588 106.571 118.2C105.579 118.813 104.777 119.688 104.164 120.826C103.551 121.935 103.245 123.218 103.245 124.677C103.245 126.136 103.551 127.434 104.164 128.572C104.777 129.71 105.579 130.585 106.571 131.198C107.592 131.81 108.686 132.117 109.853 132.117ZM-96.8472 216.503H-91.0268L-77.0229 239.303H-76.7603L-77.0229 233.264V216.503H-72.1653V247.836H-77.2854L-91.9895 223.855H-92.2521L-91.9895 229.894V247.836H-96.8472V216.503ZM-55.5996 248.537C-57.7877 248.537 -59.757 248.026 -61.5075 247.005C-63.2288 245.984 -64.5854 244.583 -65.5773 242.804C-66.5401 240.995 -67.0215 238.967 -67.0215 236.721C-67.0215 234.591 -66.5547 232.622 -65.6211 230.813C-64.6583 228.975 -63.3309 227.516 -61.6387 226.437C-59.9466 225.357 -58.0211 224.818 -55.8621 224.818C-53.6157 224.818 -51.6756 225.313 -50.0418 226.305C-48.3788 227.297 -47.1243 228.654 -46.2782 230.375C-45.403 232.097 -44.9653 234.037 -44.9653 236.196C-44.9653 236.604 -45.0091 237.115 -45.0966 237.727H-62.2077C-62.0326 239.799 -61.3032 241.403 -60.0195 242.541C-58.7067 243.65 -57.1896 244.204 -55.4683 244.204C-54.0971 244.204 -52.9155 243.898 -51.9235 243.285C-50.9024 242.643 -50.0855 241.783 -49.4729 240.703L-45.403 242.629C-46.4533 244.467 -47.8245 245.911 -49.5166 246.961C-51.2088 248.011 -53.2364 248.537 -55.5996 248.537ZM-49.8667 234.051C-49.9251 233.264 -50.173 232.49 -50.6107 231.732C-51.0483 230.944 -51.7193 230.288 -52.6237 229.763C-53.499 229.237 -54.5784 228.975 -55.8621 228.975C-57.4084 228.975 -58.7213 229.442 -59.8007 230.375C-60.851 231.28 -61.5804 232.505 -61.9888 234.051H-49.8667ZM-32.0764 248.187C-33.0683 248.187 -34.0019 248.026 -34.8771 247.705C-35.7524 247.384 -36.4672 246.961 -37.0215 246.436C-38.276 245.182 -38.9033 243.475 -38.9033 241.316V229.763H-42.7981V225.518H-38.9033V219.216H-34.0894V225.518H-28.6629V229.763H-34.0894V240.266C-34.0894 241.462 -33.856 242.308 -33.3892 242.804C-32.9516 243.387 -32.1931 243.679 -31.1136 243.679C-30.6176 243.679 -30.18 243.621 -29.8007 243.504C-29.4214 243.358 -29.013 243.139 -28.5754 242.848V247.53C-29.5381 247.968 -30.7051 248.187 -32.0764 248.187ZM-25.9387 225.518H-20.731L-16.2235 241.491H-16.0484L-11.0158 225.518H-6.07066L-1.08177 241.491H-0.906721L3.60079 225.518H8.72096L1.58772 247.836H-3.48869L-8.60887 231.819H-8.74016L-13.8166 247.836H-18.8055L-25.9387 225.518ZM21.8452 248.537C19.5987 248.537 17.5857 248.026 15.806 247.005C14.0263 245.955 12.6405 244.525 11.6486 242.716C10.6566 240.907 10.1607 238.894 10.1607 236.677C10.1607 234.46 10.6566 232.447 11.6486 230.638C12.6405 228.829 14.0263 227.414 15.806 226.393C17.5857 225.343 19.5987 224.818 21.8452 224.818C24.0916 224.818 26.1047 225.343 27.8844 226.393C29.664 227.443 31.0498 228.873 32.0418 230.682C33.0337 232.49 33.5297 234.489 33.5297 236.677C33.5297 238.894 33.0337 240.907 32.0418 242.716C31.0498 244.525 29.664 245.955 27.8844 247.005C26.1047 248.026 24.0916 248.537 21.8452 248.537ZM21.8452 244.117C23.0705 244.117 24.2083 243.825 25.2586 243.241C26.3089 242.629 27.1404 241.768 27.7531 240.659C28.3949 239.522 28.7159 238.194 28.7159 236.677C28.7159 235.16 28.3949 233.847 27.7531 232.738C27.1404 231.63 26.3089 230.784 25.2586 230.2C24.2083 229.588 23.0705 229.281 21.8452 229.281C20.6198 229.281 19.482 229.588 18.4317 230.2C17.3814 230.784 16.5354 231.63 15.8935 232.738C15.2809 233.847 14.9745 235.16 14.9745 236.677C14.9745 238.194 15.2809 239.522 15.8935 240.659C16.5354 241.768 17.3814 242.629 18.4317 243.241C19.482 243.825 20.6198 244.117 21.8452 244.117ZM37.5408 225.518H42.1358V228.8H42.3546C42.8506 227.662 43.7112 226.728 44.9366 225.999C46.1619 225.241 47.4602 224.861 48.8314 224.861C49.9109 224.861 50.8153 225.007 51.5447 225.299V230.288C50.261 229.821 49.1086 229.588 48.0875 229.588C46.9788 229.588 45.9869 229.879 45.1116 230.463C44.2656 231.046 43.5945 231.834 43.0986 232.826C42.6026 233.789 42.3546 234.854 42.3546 236.021V247.836H37.5408V225.518ZM55.4474 216.503H60.2612V234.752H60.3925L69.5388 225.518H75.578V225.78L66.9131 234.401L75.8406 247.574V247.836H70.1077L63.5434 237.727L60.2612 240.922V247.836H55.4474V216.503ZM81.5813 222.279C80.6769 222.279 79.9037 221.973 79.2619 221.36C78.6492 220.718 78.3429 219.945 78.3429 219.041C78.3429 218.136 78.6492 217.378 79.2619 216.765C79.9037 216.123 80.6769 215.802 81.5813 215.802C82.4857 215.802 83.2442 216.123 83.8569 216.765C84.4988 217.378 84.8197 218.136 84.8197 219.041C84.8197 219.945 84.4988 220.718 83.8569 221.36C83.2442 221.973 82.4857 222.279 81.5813 222.279ZM79.1744 225.518H83.9882V247.836H79.1744V225.518ZM89.9785 225.518H94.5735V228.45H94.7924C95.4342 227.399 96.3824 226.539 97.6369 225.868C98.9206 225.168 100.277 224.818 101.707 224.818C104.42 224.818 106.477 225.62 107.877 227.224C109.307 228.8 110.022 230.959 110.022 233.701V247.836H105.208V234.358C105.208 232.607 104.77 231.323 103.895 230.507C103.049 229.69 101.867 229.281 100.35 229.281C99.2707 229.281 98.3079 229.588 97.4619 230.2C96.6158 230.784 95.9594 231.571 95.4926 232.563C95.0258 233.555 94.7924 234.62 94.7924 235.758V247.836H89.9785V225.518ZM125.301 257.989C122.559 257.989 120.283 257.362 118.474 256.107C116.695 254.853 115.498 253.365 114.886 251.644L119.393 249.762C119.86 250.929 120.604 251.863 121.625 252.563C122.675 253.292 123.901 253.657 125.301 253.657C127.343 253.657 128.933 253.044 130.071 251.819C131.238 250.623 131.822 248.93 131.822 246.742V244.686H131.559C130.83 245.736 129.852 246.567 128.627 247.18C127.431 247.763 126.045 248.055 124.47 248.055C122.602 248.055 120.867 247.574 119.262 246.611C117.657 245.648 116.374 244.292 115.411 242.541C114.477 240.762 114.01 238.734 114.01 236.458C114.01 234.183 114.477 232.17 115.411 230.419C116.374 228.639 117.657 227.268 119.262 226.305C120.867 225.313 122.602 224.818 124.47 224.818C126.016 224.818 127.402 225.124 128.627 225.737C129.852 226.349 130.83 227.181 131.559 228.231H131.822V225.518H136.417V246.611C136.417 249.033 135.95 251.089 135.016 252.782C134.083 254.503 132.77 255.801 131.078 256.676C129.415 257.552 127.489 257.989 125.301 257.989ZM125.345 243.679C126.512 243.679 127.591 243.402 128.583 242.848C129.575 242.264 130.363 241.433 130.946 240.353C131.53 239.244 131.822 237.946 131.822 236.458C131.822 234.183 131.194 232.418 129.94 231.163C128.715 229.879 127.183 229.237 125.345 229.237C124.149 229.237 123.055 229.529 122.063 230.113C121.071 230.667 120.283 231.484 119.7 232.563C119.116 233.643 118.824 234.941 118.824 236.458C118.824 237.975 119.116 239.274 119.7 240.353C120.283 241.433 121.071 242.264 122.063 242.848C123.055 243.402 124.149 243.679 125.345 243.679ZM-146.998 272.503H-136.145C-134.307 272.503 -132.615 272.911 -131.069 273.728C-129.494 274.545 -128.254 275.683 -127.349 277.141C-126.416 278.6 -125.949 280.249 -125.949 282.087C-125.949 283.925 -126.416 285.573 -127.349 287.032C-128.254 288.49 -129.494 289.628 -131.069 290.445C-132.615 291.262 -134.307 291.671 -136.145 291.671H-142.097V303.836H-146.998V272.503ZM-136.058 287.032C-134.978 287.032 -134.045 286.798 -133.257 286.332C-132.469 285.836 -131.871 285.208 -131.463 284.45C-131.054 283.691 -130.85 282.904 -130.85 282.087C-130.85 281.27 -131.054 280.482 -131.463 279.723C-131.871 278.965 -132.469 278.352 -133.257 277.885C-134.045 277.419 -134.978 277.185 -136.058 277.185H-142.097V287.032H-136.058ZM-115.612 304.537C-117.217 304.537 -118.647 304.23 -119.901 303.618C-121.156 302.976 -122.133 302.086 -122.833 300.948C-123.533 299.781 -123.883 298.468 -123.883 297.01C-123.883 294.705 -123.023 292.881 -121.302 291.539C-119.551 290.197 -117.348 289.526 -114.693 289.526C-113.381 289.526 -112.199 289.657 -111.149 289.92C-110.098 290.153 -109.267 290.416 -108.654 290.708V289.57C-108.654 288.199 -109.165 287.09 -110.186 286.244C-111.207 285.369 -112.52 284.931 -114.125 284.931C-115.262 284.931 -116.342 285.179 -117.363 285.675C-118.355 286.171 -119.157 286.857 -119.77 287.732L-123.14 285.15C-122.148 283.779 -120.864 282.714 -119.288 281.955C-117.713 281.197 -115.963 280.818 -114.037 280.818C-110.799 280.818 -108.304 281.62 -106.554 283.224C-104.803 284.8 -103.928 287.032 -103.928 289.92V303.836H-108.654V301.167H-108.873C-109.515 302.13 -110.419 302.932 -111.586 303.574C-112.753 304.216 -114.095 304.537 -115.612 304.537ZM-114.781 300.554C-113.614 300.554 -112.564 300.277 -111.63 299.723C-110.696 299.168 -109.967 298.424 -109.442 297.491C-108.917 296.557 -108.654 295.551 -108.654 294.471C-109.325 294.092 -110.113 293.786 -111.017 293.552C-111.893 293.319 -112.812 293.202 -113.774 293.202C-115.583 293.202 -116.911 293.567 -117.757 294.296C-118.603 294.996 -119.026 295.915 -119.026 297.053C-119.026 298.074 -118.632 298.92 -117.844 299.591C-117.057 300.233 -116.035 300.554 -114.781 300.554ZM-98.6819 281.518H-94.0869V284.45H-93.8681C-93.2262 283.399 -92.2781 282.539 -91.0235 281.868C-89.7398 281.168 -88.3832 280.818 -86.9537 280.818C-84.2404 280.818 -82.1836 281.62 -80.7832 283.224C-79.3536 284.8 -78.6388 286.959 -78.6388 289.701V303.836H-83.4527V290.358C-83.4527 288.607 -83.8903 287.323 -84.7655 286.507C-85.6116 285.69 -86.7932 285.281 -88.3103 285.281C-89.3897 285.281 -90.3525 285.588 -91.1986 286.2C-92.0447 286.784 -92.7011 287.571 -93.1679 288.563C-93.6347 289.555 -93.8681 290.62 -93.8681 291.758V303.836H-98.6819V281.518ZM-63.0144 304.537C-65.2025 304.537 -67.1718 304.026 -68.9223 303.005C-70.6436 301.984 -72.0002 300.583 -72.9921 298.804C-73.9549 296.995 -74.4363 294.967 -74.4363 292.721C-74.4363 290.591 -73.9695 288.622 -73.0359 286.813C-72.0731 284.975 -70.7457 283.516 -69.0535 282.437C-67.3614 281.357 -65.4359 280.818 -63.2769 280.818C-61.0305 280.818 -59.0903 281.313 -57.4566 282.305C-55.7936 283.297 -54.5391 284.654 -53.693 286.375C-52.8178 288.097 -52.3801 290.037 -52.3801 292.196C-52.3801 292.604 -52.4239 293.115 -52.5114 293.727H-69.6225C-69.4474 295.799 -68.718 297.403 -67.4343 298.541C-66.1215 299.65 -64.6044 300.204 -62.8831 300.204C-61.5119 300.204 -60.3303 299.898 -59.3383 299.285C-58.3172 298.643 -57.5003 297.783 -56.8876 296.703L-52.8178 298.629C-53.8681 300.467 -55.2393 301.911 -56.9314 302.961C-58.6235 304.011 -60.6512 304.537 -63.0144 304.537ZM-57.2815 290.051C-57.3399 289.264 -57.5878 288.49 -58.0255 287.732C-58.4631 286.944 -59.1341 286.288 -60.0385 285.763C-60.9138 285.237 -61.9932 284.975 -63.2769 284.975C-64.8232 284.975 -66.1361 285.442 -67.2155 286.375C-68.2658 287.28 -68.9952 288.505 -69.4036 290.051H-57.2815ZM-47.9964 272.503H-43.1826V303.836H-47.9964V272.503ZM-26.4815 272.503H-16.4599C-13.2215 272.503 -10.3916 273.159 -7.97005 274.472C-5.54854 275.785 -3.69594 277.637 -2.41225 280.03C-1.09938 282.393 -0.442945 285.106 -0.442945 288.17C-0.442945 291.233 -1.09938 293.961 -2.41225 296.353C-3.69594 298.716 -5.54854 300.554 -7.97005 301.867C-10.3916 303.18 -13.2215 303.836 -16.4599 303.836H-26.4815V272.503ZM-16.5474 299.154C-13.0465 299.154 -10.3186 298.191 -8.36391 296.266C-6.38002 294.311 -5.38808 291.612 -5.38808 288.17C-5.38808 284.756 -6.38002 282.072 -8.36391 280.117C-10.3186 278.163 -13.0465 277.185 -16.5474 277.185H-21.5801V299.154H-16.5474ZM7.11287 278.279C6.20845 278.279 5.43532 277.973 4.79347 277.36C4.1808 276.718 3.87447 275.945 3.87447 275.041C3.87447 274.136 4.1808 273.378 4.79347 272.765C5.43532 272.123 6.20845 271.802 7.11287 271.802C8.01729 271.802 8.77583 272.123 9.3885 272.765C10.0303 273.378 10.3513 274.136 10.3513 275.041C10.3513 275.945 10.0303 276.718 9.3885 277.36C8.77583 277.973 8.01729 278.279 7.11287 278.279ZM4.70595 281.518H9.51979V303.836H4.70595V281.518ZM23.6499 304.537C21.0825 304.537 18.9819 303.982 17.3481 302.874C15.7143 301.736 14.5619 300.292 13.8909 298.541L18.1796 296.659C18.7047 297.826 19.4341 298.716 20.3677 299.329C21.3305 299.942 22.4245 300.248 23.6499 300.248C24.846 300.248 25.8526 300.044 26.6694 299.635C27.4863 299.198 27.8948 298.556 27.8948 297.71C27.8948 296.893 27.5447 296.251 26.8445 295.784C26.1443 295.317 25.0648 294.909 23.6061 294.559L20.9366 293.902C19.1569 293.465 17.6836 292.692 16.5166 291.583C15.3496 290.474 14.7661 289.074 14.7661 287.382C14.7661 286.069 15.1454 284.917 15.9039 283.925C16.6917 282.933 17.742 282.174 19.0548 281.649C20.3677 281.095 21.7973 280.818 23.3435 280.818C25.4149 280.818 27.2384 281.241 28.8138 282.087C30.3892 282.904 31.5271 284.1 32.2272 285.675L28.0261 287.513C27.18 285.792 25.6337 284.931 23.3873 284.931C22.3078 284.931 21.4034 285.15 20.674 285.588C19.9447 286.025 19.58 286.594 19.58 287.294C19.58 287.965 19.8571 288.52 20.4115 288.957C20.9658 289.366 21.7827 289.716 22.8621 290.008L26.1443 290.839C28.3324 291.393 29.9808 292.239 31.0894 293.377C32.2273 294.486 32.7962 295.857 32.7962 297.491C32.7962 298.891 32.3877 300.131 31.5708 301.211C30.7831 302.261 29.689 303.078 28.2887 303.661C26.8883 304.245 25.342 304.537 23.6499 304.537ZM47.5054 304.537C45.2881 304.537 43.2896 304.026 41.51 303.005C39.7595 301.984 38.3883 300.583 37.3963 298.804C36.4335 296.995 35.9522 294.953 35.9522 292.677C35.9522 290.401 36.4335 288.374 37.3963 286.594C38.3883 284.785 39.7595 283.37 41.51 282.349C43.2896 281.328 45.2881 280.818 47.5054 280.818C49.9561 280.818 52.0421 281.372 53.7634 282.48C55.4847 283.589 56.71 285.092 57.4394 286.988L53.0194 288.826C52.0275 286.463 50.1457 285.281 47.3741 285.281C46.1779 285.281 45.0693 285.588 44.0482 286.2C43.0562 286.813 42.2539 287.688 41.6413 288.826C41.0578 289.935 40.766 291.218 40.766 292.677C40.766 294.136 41.0578 295.434 41.6413 296.572C42.2539 297.71 43.0562 298.585 44.0482 299.198C45.0693 299.81 46.1779 300.117 47.3741 300.117C48.7745 300.117 49.9707 299.81 50.9626 299.198C51.9837 298.556 52.7569 297.651 53.282 296.484L57.6145 298.366C56.7684 300.263 55.4847 301.765 53.7634 302.874C52.0421 303.982 49.9561 304.537 47.5054 304.537ZM69.8481 304.537C67.1348 304.537 65.0634 303.734 63.6338 302.13C62.2334 300.496 61.5332 298.235 61.5332 295.347V281.518H66.3471V294.69C66.3471 296.499 66.7701 297.856 67.6162 298.76C68.4914 299.664 69.6292 300.117 71.0296 300.117C72.1675 300.117 73.174 299.825 74.0492 299.241C74.9245 298.629 75.5955 297.826 76.0623 296.834C76.5291 295.843 76.7625 294.778 76.7625 293.64V281.518H81.5763V303.836H77.0251V300.948H76.7625C76.1498 301.998 75.2016 302.859 73.9179 303.53C72.6342 304.201 71.2776 304.537 69.8481 304.537ZM95.1053 304.537C92.538 304.537 90.4374 303.982 88.8036 302.874C87.1698 301.736 86.0174 300.292 85.3464 298.541L89.6351 296.659C90.1602 297.826 90.8896 298.716 91.8232 299.329C92.786 299.942 93.88 300.248 95.1053 300.248C96.3015 300.248 97.308 300.044 98.1249 299.635C98.9418 299.198 99.3503 298.556 99.3503 297.71C99.3503 296.893 99.0002 296.251 98.3 295.784C97.5998 295.317 96.5203 294.909 95.0616 294.559L92.3921 293.902C90.6124 293.465 89.1391 292.692 87.9721 291.583C86.8051 290.474 86.2216 289.074 86.2216 287.382C86.2216 286.069 86.6009 284.917 87.3594 283.925C88.1472 282.933 89.1974 282.174 90.5103 281.649C91.8232 281.095 93.2527 280.818 94.799 280.818C96.8704 280.818 98.6938 281.241 100.269 282.087C101.845 282.904 102.983 284.1 103.683 285.675L99.4816 287.513C98.6355 285.792 97.0892 284.931 94.8428 284.931C93.7633 284.931 92.8589 285.15 92.1295 285.588C91.4001 286.025 91.0355 286.594 91.0355 287.294C91.0355 287.965 91.3126 288.52 91.8669 288.957C92.4213 289.366 93.2382 289.716 94.3176 290.008L97.5998 290.839C99.7879 291.393 101.436 292.239 102.545 293.377C103.683 294.486 104.252 295.857 104.252 297.491C104.252 298.891 103.843 300.131 103.026 301.211C102.239 302.261 101.145 303.078 99.7441 303.661C98.3438 304.245 96.7975 304.537 95.1053 304.537ZM116.559 304.537C113.992 304.537 111.891 303.982 110.257 302.874C108.624 301.736 107.471 300.292 106.8 298.541L111.089 296.659C111.614 297.826 112.343 298.716 113.277 299.329C114.24 299.942 115.334 300.248 116.559 300.248C117.755 300.248 118.762 300.044 119.579 299.635C120.396 299.198 120.804 298.556 120.804 297.71C120.804 296.893 120.454 296.251 119.754 295.784C119.054 295.317 117.974 294.909 116.515 294.559L113.846 293.902C112.066 293.465 110.593 292.692 109.426 291.583C108.259 290.474 107.675 289.074 107.675 287.382C107.675 286.069 108.055 284.917 108.813 283.925C109.601 282.933 110.651 282.174 111.964 281.649C113.277 281.095 114.706 280.818 116.253 280.818C118.324 280.818 120.148 281.241 121.723 282.087C123.298 282.904 124.436 284.1 125.136 285.675L120.935 287.513C120.089 285.792 118.543 284.931 116.297 284.931C115.217 284.931 114.313 285.15 113.583 285.588C112.854 286.025 112.489 286.594 112.489 287.294C112.489 287.965 112.766 288.52 113.321 288.957C113.875 289.366 114.692 289.716 115.771 290.008L119.054 290.839C121.242 291.393 122.89 292.239 123.999 293.377C125.136 294.486 125.705 295.857 125.705 297.491C125.705 298.891 125.297 300.131 124.48 301.211C123.692 302.261 122.598 303.078 121.198 303.661C119.797 304.245 118.251 304.537 116.559 304.537ZM132.416 278.279C131.512 278.279 130.739 277.973 130.097 277.36C129.484 276.718 129.178 275.945 129.178 275.041C129.178 274.136 129.484 273.378 130.097 272.765C130.739 272.123 131.512 271.802 132.416 271.802C133.321 271.802 134.079 272.123 134.692 272.765C135.334 273.378 135.655 274.136 135.655 275.041C135.655 275.945 135.334 276.718 134.692 277.36C134.079 277.973 133.321 278.279 132.416 278.279ZM130.009 281.518H134.823V303.836H130.009V281.518ZM151.059 304.537C148.813 304.537 146.8 304.026 145.02 303.005C143.24 301.955 141.854 300.525 140.862 298.716C139.871 296.907 139.375 294.894 139.375 292.677C139.375 290.46 139.871 288.447 140.862 286.638C141.854 284.829 143.24 283.414 145.02 282.393C146.8 281.343 148.813 280.818 151.059 280.818C153.306 280.818 155.319 281.343 157.098 282.393C158.878 283.443 160.264 284.873 161.256 286.682C162.248 288.49 162.744 290.489 162.744 292.677C162.744 294.894 162.248 296.907 161.256 298.716C160.264 300.525 158.878 301.955 157.098 303.005C155.319 304.026 153.306 304.537 151.059 304.537ZM151.059 300.117C152.284 300.117 153.422 299.825 154.473 299.241C155.523 298.629 156.354 297.768 156.967 296.659C157.609 295.522 157.93 294.194 157.93 292.677C157.93 291.16 157.609 289.847 156.967 288.738C156.354 287.63 155.523 286.784 154.473 286.2C153.422 285.588 152.284 285.281 151.059 285.281C149.834 285.281 148.696 285.588 147.646 286.2C146.595 286.784 145.749 287.63 145.107 288.738C144.495 289.847 144.188 291.16 144.188 292.677C144.188 294.194 144.495 295.522 145.107 296.659C145.749 297.768 146.595 298.629 147.646 299.241C148.696 299.825 149.834 300.117 151.059 300.117ZM166.755 281.518H171.35V284.45H171.569C172.21 283.399 173.159 282.539 174.413 281.868C175.697 281.168 177.053 280.818 178.483 280.818C181.196 280.818 183.253 281.62 184.653 283.224C186.083 284.8 186.798 286.959 186.798 289.701V303.836H181.984V290.358C181.984 288.607 181.546 287.323 180.671 286.507C179.825 285.69 178.643 285.281 177.126 285.281C176.047 285.281 175.084 285.588 174.238 286.2C173.392 286.784 172.736 287.571 172.269 288.563C171.802 289.555 171.569 290.62 171.569 291.758V303.836H166.755V281.518Z" fill="#C73130"/>
<path d="M-159.5 166.104H-168.252V160.503H-144.839V166.104H-153.592V191.836H-159.5V166.104ZM-133.951 192.537C-136.168 192.537 -138.167 192.026 -139.946 191.005C-141.726 189.984 -143.126 188.583 -144.147 186.804C-145.139 184.995 -145.635 182.967 -145.635 180.721C-145.635 178.591 -145.139 176.622 -144.147 174.813C-143.155 172.975 -141.784 171.516 -140.034 170.437C-138.283 169.357 -136.329 168.818 -134.17 168.818C-131.865 168.818 -129.881 169.313 -128.218 170.305C-126.555 171.297 -125.301 172.654 -124.454 174.375C-123.579 176.097 -123.142 178.008 -123.142 180.108C-123.142 180.779 -123.185 181.421 -123.273 182.034H-140.034C-139.742 183.813 -139.042 185.17 -137.933 186.104C-136.795 187.008 -135.439 187.46 -133.863 187.46C-132.55 187.46 -131.427 187.183 -130.494 186.629C-129.531 186.045 -128.772 185.272 -128.218 184.309L-123.579 186.585C-125.855 190.553 -129.312 192.537 -133.951 192.537ZM-128.656 177.964C-128.714 177.264 -128.977 176.578 -129.443 175.907C-129.881 175.207 -130.508 174.638 -131.325 174.2C-132.113 173.733 -133.046 173.5 -134.126 173.5C-135.497 173.5 -136.679 173.909 -137.671 174.725C-138.633 175.513 -139.334 176.593 -139.771 177.964H-128.656ZM-108.009 192.537C-110.255 192.537 -112.268 192.041 -114.048 191.049C-115.828 190.028 -117.228 188.613 -118.249 186.804C-119.241 184.995 -119.737 182.953 -119.737 180.677C-119.737 178.401 -119.241 176.374 -118.249 174.594C-117.228 172.785 -115.828 171.37 -114.048 170.349C-112.268 169.328 -110.255 168.818 -108.009 168.818C-105.529 168.818 -103.399 169.357 -101.619 170.437C-99.8398 171.487 -98.5561 172.99 -97.7684 174.944L-103.02 177.132C-103.953 175.148 -105.616 174.156 -108.009 174.156C-109.759 174.156 -111.203 174.755 -112.341 175.951C-113.45 177.147 -114.004 178.722 -114.004 180.677C-114.004 182.661 -113.45 184.251 -112.341 185.447C-111.203 186.643 -109.759 187.241 -108.009 187.241C-105.587 187.241 -103.837 186.191 -102.757 184.091L-97.5496 186.366C-98.5123 188.321 -99.8835 189.838 -101.663 190.917C-103.443 191.997 -105.558 192.537 -108.009 192.537ZM-93.4253 160.503H-87.6925V168.424L-88.0426 172.318H-87.6925C-87.0506 171.268 -86.117 170.422 -84.8917 169.78C-83.6663 169.138 -82.3389 168.818 -80.9093 168.818C-78.1961 168.818 -76.1247 169.634 -74.6951 171.268C-73.2363 172.873 -72.507 175.105 -72.507 177.964V191.836H-78.2398V178.664C-78.2398 177.234 -78.6337 176.126 -79.4214 175.338C-80.18 174.55 -81.2011 174.156 -82.4848 174.156C-84.0019 174.156 -85.2564 174.769 -86.2483 175.995C-87.2111 177.22 -87.6925 178.722 -87.6925 180.502V191.836H-93.4253V160.503ZM-42.0745 192.537C-45.1086 192.537 -47.8803 191.822 -50.3893 190.392C-52.8983 188.934 -54.8822 186.964 -56.3409 184.484C-57.7705 181.975 -58.4853 179.204 -58.4853 176.17C-58.4853 173.135 -57.7705 170.378 -56.3409 167.898C-54.8822 165.389 -52.8983 163.42 -50.3893 161.991C-47.8803 160.532 -45.1086 159.802 -42.0745 159.802C-37.3482 159.802 -33.4387 161.509 -30.3462 164.923L-34.5036 168.949C-36.5167 166.586 -39.0257 165.404 -42.0307 165.404C-43.9854 165.404 -45.7651 165.856 -47.3697 166.761C-48.9743 167.636 -50.2434 168.89 -51.177 170.524C-52.0814 172.158 -52.5336 174.04 -52.5336 176.17C-52.5336 178.299 -52.0814 180.181 -51.177 181.815C-50.2434 183.449 -48.9743 184.718 -47.3697 185.622C-45.7651 186.497 -43.9854 186.935 -42.0307 186.935C-38.734 186.935 -35.9769 185.564 -33.7597 182.821L-29.5585 186.804C-31.1047 188.671 -32.9428 190.101 -35.0725 191.092C-37.1731 192.055 -39.5071 192.537 -42.0745 192.537ZM-15.0527 192.537C-17.3575 192.537 -19.4143 192.026 -21.2231 191.005C-23.032 189.955 -24.447 188.54 -25.4681 186.76C-26.46 184.951 -26.956 182.924 -26.956 180.677C-26.956 178.46 -26.46 176.447 -25.4681 174.638C-24.447 172.829 -23.032 171.414 -21.2231 170.393C-19.4143 169.343 -17.3575 168.818 -15.0527 168.818C-12.777 168.818 -10.7348 169.343 -8.92596 170.393C-7.11712 171.414 -5.71673 172.829 -4.72479 174.638C-3.70367 176.447 -3.19311 178.46 -3.19311 180.677C-3.19311 182.924 -3.70367 184.951 -4.72479 186.76C-5.71673 188.54 -7.11712 189.955 -8.92596 191.005C-10.7348 192.026 -12.777 192.537 -15.0527 192.537ZM-15.0527 187.241C-13.944 187.241 -12.9229 186.979 -11.9893 186.454C-11.0557 185.929 -10.3118 185.17 -9.75745 184.178C-9.20312 183.186 -8.92596 182.019 -8.92596 180.677C-8.92596 179.364 -9.20312 178.212 -9.75745 177.22C-10.3118 176.228 -11.0557 175.469 -11.9893 174.944C-12.9229 174.419 -13.944 174.156 -15.0527 174.156C-16.1613 174.156 -17.1824 174.419 -18.116 174.944C-19.0496 175.469 -19.8082 176.228 -20.3917 177.22C-20.946 178.212 -21.2231 179.364 -21.2231 180.677C-21.2231 181.99 -20.946 183.157 -20.3917 184.178C-19.8082 185.17 -19.0496 185.929 -18.116 186.454C-17.1824 186.979 -16.1613 187.241 -15.0527 187.241ZM0.765991 169.518H6.14874V172.318H6.49884C7.16986 171.239 8.11804 170.393 9.34338 169.78C10.5687 169.138 11.8962 168.818 13.3257 168.818C16.0098 168.818 18.0521 169.634 19.4525 171.268C20.8528 172.902 21.553 175.134 21.553 177.964V191.836H15.8202V178.664C15.8202 177.234 15.4555 176.126 14.7261 175.338C13.9968 174.55 12.9756 174.156 11.6628 174.156C10.1165 174.156 8.862 174.755 7.89923 175.951C6.96564 177.147 6.49884 178.649 6.49884 180.458V191.836H0.765991V169.518ZM28.943 174.419H24.9607V169.518H28.943V168.292C28.943 165.754 29.7016 163.77 31.2187 162.341C32.7358 160.882 34.7197 160.153 37.1703 160.153C38.5707 160.153 39.7815 160.313 40.8026 160.634V166.236C40.2483 166.002 39.7523 165.827 39.3147 165.71C38.9062 165.594 38.4249 165.535 37.8705 165.535C36.9078 165.535 36.1346 165.812 35.5511 166.367C34.9676 166.921 34.6759 167.68 34.6759 168.642V169.518H40.1462V174.419H34.6759V191.836H28.943V174.419ZM53.748 192.537C51.5307 192.537 49.5323 192.026 47.7526 191.005C45.9729 189.984 44.5725 188.583 43.5514 186.804C42.5595 184.995 42.0635 182.967 42.0635 180.721C42.0635 178.591 42.5595 176.622 43.5514 174.813C44.5434 172.975 45.9146 171.516 47.6651 170.437C49.4156 169.357 51.3703 168.818 53.5292 168.818C55.834 168.818 57.8179 169.313 59.4809 170.305C61.1438 171.297 62.3983 172.654 63.2444 174.375C64.1197 176.097 64.5573 178.008 64.5573 180.108C64.5573 180.779 64.5135 181.421 64.426 182.034H47.6651C47.9568 183.813 48.657 185.17 49.7657 186.104C50.9035 187.008 52.2601 187.46 53.8355 187.46C55.1484 187.46 56.2716 187.183 57.2052 186.629C58.168 186.045 58.9265 185.272 59.4809 184.309L64.1197 186.585C61.844 190.553 58.3868 192.537 53.748 192.537ZM59.0432 177.964C58.9849 177.264 58.7223 176.578 58.2555 175.907C57.8179 175.207 57.1906 174.638 56.3737 174.2C55.586 173.733 54.6524 173.5 53.573 173.5C52.2018 173.5 51.0202 173.909 50.0282 174.725C49.0655 175.513 48.3653 176.593 47.9276 177.964H59.0432ZM68.9735 169.518H74.3562V172.494H74.7063C75.2607 171.443 76.1213 170.583 77.2883 169.912C78.4553 169.211 79.739 168.861 81.1394 168.861C82.1605 168.861 83.0941 169.022 83.9402 169.343V175.075C83.1525 174.784 82.4814 174.58 81.9271 174.463C81.402 174.317 80.8331 174.244 80.2204 174.244C78.5282 174.244 77.1862 174.857 76.1943 176.082C75.2023 177.307 74.7063 178.854 74.7063 180.721V191.836H68.9735V169.518ZM96.7837 192.537C94.5664 192.537 92.5679 192.026 90.7883 191.005C89.0086 189.984 87.6082 188.583 86.5871 186.804C85.5952 184.995 85.0992 182.967 85.0992 180.721C85.0992 178.591 85.5952 176.622 86.5871 174.813C87.579 172.975 88.9503 171.516 90.7007 170.437C92.4512 169.357 94.4059 168.818 96.5649 168.818C98.8697 168.818 100.854 169.313 102.517 170.305C104.18 171.297 105.434 172.654 106.28 174.375C107.155 176.097 107.593 178.008 107.593 180.108C107.593 180.779 107.549 181.421 107.462 182.034H90.7007C90.9925 183.813 91.6927 185.17 92.8013 186.104C93.9391 187.008 95.2958 187.46 96.8712 187.46C98.1841 187.46 99.3073 187.183 100.241 186.629C101.204 186.045 101.962 185.272 102.517 184.309L107.155 186.585C104.88 190.553 101.422 192.537 96.7837 192.537ZM102.079 177.964C102.021 177.264 101.758 176.578 101.291 175.907C100.854 175.207 100.226 174.638 99.4094 174.2C98.6217 173.733 97.6881 173.5 96.6086 173.5C95.2374 173.5 94.0558 173.909 93.0639 174.725C92.1011 175.513 91.4009 176.593 90.9633 177.964H102.079ZM112.009 169.518H117.392V172.318H117.742C118.413 171.239 119.361 170.393 120.587 169.78C121.812 169.138 123.139 168.818 124.569 168.818C127.253 168.818 129.295 169.634 130.696 171.268C132.096 172.902 132.796 175.134 132.796 177.964V191.836H127.063V178.664C127.063 177.234 126.699 176.126 125.969 175.338C125.24 174.55 124.219 174.156 122.906 174.156C121.36 174.156 120.105 174.755 119.142 175.951C118.209 177.147 117.742 178.649 117.742 180.458V191.836H112.009V169.518ZM148.71 192.537C146.463 192.537 144.45 192.041 142.67 191.049C140.891 190.028 139.49 188.613 138.469 186.804C137.477 184.995 136.981 182.953 136.981 180.677C136.981 178.401 137.477 176.374 138.469 174.594C139.49 172.785 140.891 171.37 142.67 170.349C144.45 169.328 146.463 168.818 148.71 168.818C151.189 168.818 153.319 169.357 155.099 170.437C156.879 171.487 158.162 172.99 158.95 174.944L153.698 177.132C152.765 175.148 151.102 174.156 148.71 174.156C146.959 174.156 145.515 174.755 144.377 175.951C143.268 177.147 142.714 178.722 142.714 180.677C142.714 182.661 143.268 184.251 144.377 185.447C145.515 186.643 146.959 187.241 148.71 187.241C151.131 187.241 152.882 186.191 153.961 184.091L159.169 186.366C158.206 188.321 156.835 189.838 155.055 190.917C153.275 191.997 151.16 192.537 148.71 192.537ZM173.539 192.537C171.321 192.537 169.323 192.026 167.543 191.005C165.763 189.984 164.363 188.583 163.342 186.804C162.35 184.995 161.854 182.967 161.854 180.721C161.854 178.591 162.35 176.622 163.342 174.813C164.334 172.975 165.705 171.516 167.456 170.437C169.206 169.357 171.161 168.818 173.32 168.818C175.625 168.818 177.608 169.313 179.271 170.305C180.934 171.297 182.189 172.654 183.035 174.375C183.91 176.097 184.348 178.008 184.348 180.108C184.348 180.779 184.304 181.421 184.216 182.034H167.456C167.747 183.813 168.448 185.17 169.556 186.104C170.694 187.008 172.051 187.46 173.626 187.46C174.939 187.46 176.062 187.183 176.996 186.629C177.958 186.045 178.717 185.272 179.271 184.309L183.91 186.585C181.635 190.553 178.177 192.537 173.539 192.537ZM178.834 177.964C178.775 177.264 178.513 176.578 178.046 175.907C177.608 175.207 176.981 174.638 176.164 174.2C175.377 173.733 174.443 173.5 173.363 173.5C171.992 173.5 170.811 173.909 169.819 174.725C168.856 175.513 168.156 176.593 167.718 177.964H178.834ZM197.468 192.537C194.754 192.537 192.552 191.982 190.859 190.874C189.196 189.765 188.029 188.321 187.358 186.541L192.479 184.309C192.945 185.36 193.602 186.162 194.448 186.716C195.323 187.241 196.33 187.504 197.468 187.504C198.518 187.504 199.393 187.344 200.093 187.023C200.793 186.672 201.144 186.118 201.144 185.36C201.144 184.63 200.823 184.091 200.181 183.74C199.539 183.361 198.576 183.026 197.292 182.734L194.667 182.165C192.858 181.727 191.355 180.94 190.159 179.802C188.963 178.635 188.365 177.191 188.365 175.469C188.365 174.186 188.744 173.033 189.503 172.012C190.291 170.991 191.341 170.203 192.654 169.649C193.996 169.095 195.469 168.818 197.074 168.818C201.683 168.818 204.761 170.437 206.307 173.675L201.406 175.819C200.531 174.244 199.13 173.456 197.205 173.456C196.213 173.456 195.425 173.646 194.842 174.025C194.258 174.375 193.967 174.828 193.967 175.382C193.967 176.432 194.958 177.22 196.942 177.745L200.225 178.533C202.442 179.087 204.105 179.933 205.213 181.071C206.351 182.209 206.92 183.609 206.92 185.272C206.92 186.702 206.497 187.971 205.651 189.079C204.834 190.159 203.696 191.005 202.238 191.618C200.808 192.23 199.218 192.537 197.468 192.537Z" fill="#FCF5F5"/>
<rect x="-194.349" y="1.65123" width="427.668" height="299.698" rx="28.0708" stroke="#FF807F" stroke-width="3.30245"/>
</g>
</svg>
