<svg width="13" height="181" viewBox="0 0 13 181" fill="none" xmlns="http://www.w3.org/2000/svg">
<mask id="mask0_1162_4309" style="mask-type:alpha" maskUnits="userSpaceOnUse" x="0" y="0" width="110" height="181">
<rect x="-0.724" y="0.724" width="108.238" height="179.552" rx="12.308" transform="matrix(-1 0 0 1 108.238 0)" fill="#EA4335" stroke="#FF807F" stroke-width="1.448"/>
</mask>
<g mask="url(#mask0_1162_4309)">
<rect width="109.686" height="181" rx="13.032" transform="matrix(-1 0 0 1 109.686 0)" fill="#FAF6D7"/>
<path d="M-78.1291 168.03H-75.8514C-75.1486 168.03 -74.5369 168.171 -74.0161 168.453C-73.4953 168.735 -73.0937 169.131 -72.8113 169.639C-72.529 170.147 -72.3878 170.734 -72.3878 171.399C-72.3878 172.064 -72.529 172.651 -72.8113 173.159C-73.0937 173.667 -73.4953 174.063 -74.0161 174.345C-74.5369 174.627 -75.1486 174.769 -75.8514 174.769H-78.1291V168.03ZM-75.9079 173.564C-75.18 173.564 -74.6247 173.372 -74.242 172.99C-73.8592 172.601 -73.6678 172.07 -73.6678 171.399C-73.6678 170.728 -73.8592 170.201 -74.242 169.818C-74.6247 169.429 -75.18 169.234 -75.9079 169.234H-76.8585V173.564H-75.9079ZM-69.6147 174.919C-70.0916 174.919 -70.5214 174.809 -70.9041 174.59C-71.2869 174.37 -71.5881 174.069 -71.8077 173.686C-72.021 173.297 -72.1277 172.861 -72.1277 172.378C-72.1277 171.92 -72.021 171.496 -71.8077 171.107C-71.5944 170.712 -71.2995 170.398 -70.923 170.166C-70.5465 169.934 -70.1261 169.818 -69.6618 169.818C-69.1661 169.818 -68.7394 169.925 -68.3817 170.138C-68.0241 170.351 -67.7543 170.643 -67.5723 171.013C-67.3841 171.383 -67.2899 171.794 -67.2899 172.246C-67.2899 172.39 -67.2994 172.528 -67.3182 172.66H-70.923C-70.8602 173.043 -70.7096 173.335 -70.4712 173.536C-70.2265 173.73 -69.9347 173.827 -69.5959 173.827C-69.3135 173.827 -69.0719 173.768 -68.8712 173.649C-68.6641 173.523 -68.501 173.357 -68.3817 173.15L-67.3841 173.639C-67.8735 174.492 -68.617 174.919 -69.6147 174.919ZM-68.4759 171.785C-68.4884 171.634 -68.5449 171.487 -68.6453 171.343C-68.7394 171.192 -68.8743 171.07 -69.05 170.976C-69.2194 170.875 -69.4202 170.825 -69.6524 170.825C-69.9473 170.825 -70.2014 170.913 -70.4147 171.088C-70.6218 171.258 -70.7724 171.49 -70.8665 171.785H-68.4759ZM-67.345 169.968H-65.9426L-64.7285 173.093H-64.6532L-63.4202 169.968H-62.0366L-64.0885 174.769H-65.312L-67.345 169.968ZM-61.5743 168.03H-57.3012V169.234H-60.3037V170.872H-57.6024V172.077H-60.3037V174.769H-61.5743V168.03ZM-54.7603 174.919C-55.2372 174.919 -55.667 174.809 -56.0497 174.59C-56.4325 174.37 -56.7337 174.069 -56.9533 173.686C-57.1666 173.297 -57.2733 172.861 -57.2733 172.378C-57.2733 171.92 -57.1666 171.496 -56.9533 171.107C-56.7399 170.712 -56.445 170.398 -56.0686 170.166C-55.6921 169.934 -55.2717 169.818 -54.8073 169.818C-54.3117 169.818 -53.885 169.925 -53.5273 170.138C-53.1697 170.351 -52.8999 170.643 -52.7179 171.013C-52.5296 171.383 -52.4355 171.794 -52.4355 172.246C-52.4355 172.39 -52.4449 172.528 -52.4638 172.66H-56.0686C-56.0058 173.043 -55.8552 173.335 -55.6168 173.536C-55.3721 173.73 -55.0803 173.827 -54.7415 173.827C-54.4591 173.827 -54.2175 173.768 -54.0167 173.649C-53.8097 173.523 -53.6465 173.357 -53.5273 173.15L-52.5296 173.639C-53.0191 174.492 -53.7626 174.919 -54.7603 174.919ZM-53.6214 171.785C-53.634 171.634 -53.6905 171.487 -53.7909 171.343C-53.885 171.192 -54.0199 171.07 -54.1956 170.976C-54.365 170.875 -54.5658 170.825 -54.7979 170.825C-55.0928 170.825 -55.347 170.913 -55.5603 171.088C-55.7674 171.258 -55.918 171.49 -56.0121 171.785H-53.6214ZM-49.9903 174.919C-50.5739 174.919 -51.0476 174.8 -51.4115 174.561C-51.7692 174.323 -52.0202 174.012 -52.1645 173.63L-51.0633 173.15C-50.9629 173.376 -50.8217 173.548 -50.6397 173.667C-50.4515 173.78 -50.235 173.837 -49.9903 173.837C-49.7644 173.837 -49.5762 173.802 -49.4256 173.733C-49.275 173.658 -49.1997 173.539 -49.1997 173.376C-49.1997 173.219 -49.2687 173.103 -49.4068 173.027C-49.5448 172.946 -49.7519 172.874 -50.028 172.811L-50.5927 172.689C-50.9817 172.594 -51.3049 172.425 -51.5621 172.18C-51.8194 171.929 -51.948 171.619 -51.948 171.248C-51.948 170.972 -51.8664 170.725 -51.7033 170.505C-51.5339 170.285 -51.308 170.116 -51.0256 169.997C-50.737 169.877 -50.4201 169.818 -50.075 169.818C-49.0836 169.818 -48.4217 170.166 -48.0891 170.863L-49.1432 171.324C-49.3315 170.985 -49.6327 170.816 -50.0468 170.816C-50.2601 170.816 -50.4295 170.856 -50.555 170.938C-50.6805 171.013 -50.7433 171.11 -50.7433 171.23C-50.7433 171.456 -50.5299 171.625 -50.1033 171.738L-49.3974 171.907C-48.9205 172.027 -48.5628 172.208 -48.3244 172.453C-48.0797 172.698 -47.9573 172.999 -47.9573 173.357C-47.9573 173.664 -48.0483 173.937 -48.2303 174.176C-48.406 174.408 -48.6507 174.59 -48.9644 174.721C-49.2719 174.853 -49.6138 174.919 -49.9903 174.919ZM-45.3973 174.844C-45.6357 174.844 -45.8553 174.809 -46.0561 174.74C-46.2569 174.665 -46.42 174.565 -46.5455 174.439C-46.8404 174.157 -46.9879 173.755 -46.9879 173.234V171.023H-47.8256V169.968H-46.9879V168.613H-45.7549V169.968H-44.5784V171.023H-45.7549V173.009C-45.7549 173.253 -45.7016 173.429 -45.5949 173.536C-45.5071 173.636 -45.3565 173.686 -45.1431 173.686C-45.0239 173.686 -44.9267 173.67 -44.8514 173.639C-44.7698 173.608 -44.6663 173.554 -44.5408 173.479V174.684C-44.8106 174.791 -45.0961 174.844 -45.3973 174.844ZM-41.9304 168.03H-39.295C-38.9186 168.03 -38.5735 168.108 -38.2597 168.265C-37.9397 168.422 -37.6887 168.635 -37.5068 168.905C-37.3248 169.175 -37.2338 169.47 -37.2338 169.79C-37.2338 170.128 -37.3185 170.423 -37.4879 170.674C-37.6511 170.919 -37.8676 171.107 -38.1374 171.239V171.314C-37.786 171.44 -37.5068 171.641 -37.2997 171.917C-37.0926 172.187 -36.9891 172.513 -36.9891 172.896C-36.9891 173.266 -37.0895 173.595 -37.2903 173.884C-37.4848 174.166 -37.7515 174.386 -38.0903 174.543C-38.4229 174.693 -38.7931 174.769 -39.2009 174.769H-41.9304V168.03ZM-39.3892 170.778C-39.1131 170.778 -38.8935 170.703 -38.7303 170.552C-38.5609 170.395 -38.4762 170.201 -38.4762 169.968C-38.4762 169.743 -38.5578 169.554 -38.7209 169.404C-38.8778 169.247 -39.088 169.168 -39.3515 169.168H-40.6598V170.778H-39.3892ZM-39.248 173.611C-38.9405 173.611 -38.7021 173.532 -38.5327 173.376C-38.357 173.212 -38.2691 173.002 -38.2691 172.745C-38.2691 172.488 -38.357 172.278 -38.5327 172.114C-38.7084 171.951 -38.9594 171.87 -39.2856 171.87H-40.6598V173.611H-39.248ZM-34.9141 174.919C-35.4224 174.919 -35.8396 174.772 -36.1659 174.477C-36.4922 174.176 -36.6554 173.783 -36.6554 173.3C-36.6554 172.98 -36.5706 172.698 -36.4012 172.453C-36.2318 172.208 -35.9996 172.02 -35.7047 171.888C-35.4098 171.757 -35.0835 171.691 -34.7259 171.691C-34.2302 171.691 -33.8067 171.763 -33.4553 171.907V171.7C-33.4553 171.437 -33.5557 171.223 -33.7565 171.06C-33.951 170.897 -34.2145 170.816 -34.5471 170.816C-34.773 170.816 -34.9926 170.869 -35.2059 170.976C-35.413 171.076 -35.5855 171.211 -35.7236 171.38L-36.5142 170.759C-36.282 170.458 -35.9902 170.226 -35.6389 170.063C-35.2875 169.899 -34.9047 169.818 -34.4906 169.818C-33.7565 169.818 -33.198 169.987 -32.8153 170.326C-32.4325 170.665 -32.2411 171.161 -32.2411 171.813V174.769H-33.4553V174.279H-33.5306C-33.6749 174.467 -33.8663 174.621 -34.1047 174.74C-34.3369 174.86 -34.6067 174.919 -34.9141 174.919ZM-34.6224 173.959C-34.2647 173.959 -33.9823 173.846 -33.7753 173.62C-33.5619 173.388 -33.4553 173.118 -33.4553 172.811C-33.7753 172.66 -34.111 172.585 -34.4624 172.585C-35.1024 172.585 -35.4224 172.823 -35.4224 173.3C-35.4224 173.495 -35.3534 173.655 -35.2153 173.78C-35.0773 173.9 -34.8796 173.959 -34.6224 173.959ZM-31.483 169.968H-30.3253V170.571H-30.25C-30.1057 170.339 -29.9018 170.157 -29.6383 170.025C-29.3747 169.887 -29.0892 169.818 -28.7818 169.818C-28.2045 169.818 -27.7653 169.994 -27.4641 170.345C-27.1629 170.696 -27.0123 171.176 -27.0123 171.785V174.769H-28.2453V171.936C-28.2453 171.628 -28.3237 171.39 -28.4806 171.22C-28.6375 171.051 -28.8571 170.966 -29.1394 170.966C-29.472 170.966 -29.7418 171.095 -29.9489 171.352C-30.1496 171.609 -30.25 171.932 -30.25 172.321V174.769H-31.483V169.968ZM-24.1639 174.919C-24.5969 174.919 -24.9922 174.812 -25.3498 174.599C-25.7012 174.38 -25.9804 174.078 -26.1875 173.696C-26.3883 173.307 -26.4887 172.864 -26.4887 172.368C-26.4887 171.879 -26.3883 171.44 -26.1875 171.051C-25.9804 170.662 -25.7012 170.361 -25.3498 170.147C-24.9922 169.928 -24.5969 169.818 -24.1639 169.818C-23.8377 169.818 -23.549 169.89 -23.298 170.034C-23.047 170.172 -22.8557 170.345 -22.7239 170.552H-22.6486L-22.7239 169.874V168.03H-21.5003V174.769H-22.6486V174.194H-22.7239C-22.8494 174.401 -23.0408 174.574 -23.298 174.712C-23.549 174.85 -23.8377 174.919 -24.1639 174.919ZM-23.9569 173.78C-23.7247 173.78 -23.5082 173.721 -23.3074 173.601C-23.1067 173.482 -22.9466 173.316 -22.8274 173.103C-22.7082 172.889 -22.6486 172.645 -22.6486 172.368C-22.6486 172.092 -22.7082 171.848 -22.8274 171.634C-22.9466 171.421 -23.1067 171.258 -23.3074 171.145C-23.5082 171.026 -23.7247 170.966 -23.9569 170.966C-24.1828 170.966 -24.3961 171.026 -24.5969 171.145C-24.7977 171.258 -24.9577 171.421 -25.0769 171.634C-25.1961 171.848 -25.2557 172.092 -25.2557 172.368C-25.2557 172.645 -25.1961 172.889 -25.0769 173.103C-24.9577 173.316 -24.7977 173.482 -24.5969 173.601C-24.3961 173.721 -24.1828 173.78 -23.9569 173.78ZM-18.9322 174.919C-19.5095 174.919 -19.9487 174.74 -20.2499 174.383C-20.551 174.025 -20.7016 173.526 -20.7016 172.886V169.968H-19.4687V172.736C-19.4687 173.062 -19.3902 173.319 -19.2334 173.507C-19.0765 173.689 -18.8694 173.78 -18.6122 173.78C-18.2608 173.78 -17.9816 173.652 -17.7745 173.394C-17.5674 173.137 -17.4639 172.811 -17.4639 172.416V169.968H-16.2309V174.769H-17.3886V174.166H-17.4639C-17.6082 174.398 -17.8122 174.583 -18.0757 174.721C-18.333 174.853 -18.6185 174.919 -18.9322 174.919ZM-15.4061 169.968H-14.2485V170.571H-14.1732C-14.0289 170.339 -13.8249 170.157 -13.5614 170.025C-13.2979 169.887 -13.0124 169.818 -12.7049 169.818C-12.1276 169.818 -11.6884 169.994 -11.3872 170.345C-11.086 170.696 -10.9354 171.176 -10.9354 171.785V174.769H-12.1684V171.936C-12.1684 171.628 -12.2468 171.39 -12.4037 171.22C-12.5606 171.051 -12.7802 170.966 -13.0626 170.966C-13.3951 170.966 -13.6649 171.095 -13.872 171.352C-14.0728 171.609 -14.1732 171.932 -14.1732 172.321V174.769H-15.4061V169.968ZM-7.98243 176.952C-8.59107 176.952 -9.09618 176.814 -9.49776 176.538C-9.89934 176.268 -10.1691 175.942 -10.3072 175.559L-9.14952 175.089C-9.04912 175.327 -8.89539 175.515 -8.68833 175.653C-8.48126 175.791 -8.24596 175.86 -7.98243 175.86C-7.5934 175.86 -7.28594 175.741 -7.06005 175.503C-6.82789 175.264 -6.71181 174.925 -6.71181 174.486V174.11H-6.7871C-6.9377 174.323 -7.13535 174.486 -7.38006 174.599C-7.62477 174.712 -7.90399 174.769 -8.21773 174.769C-8.61303 174.769 -8.98324 174.668 -9.32834 174.467C-9.66718 174.26 -9.94012 173.972 -10.1472 173.601C-10.3543 173.225 -10.4578 172.789 -10.4578 172.293C-10.4578 171.797 -10.3543 171.365 -10.1472 170.994C-9.94012 170.618 -9.66718 170.329 -9.32834 170.128C-8.98324 169.921 -8.61303 169.818 -8.21773 169.818C-7.90399 169.818 -7.62477 169.874 -7.38006 169.987C-7.13535 170.1 -6.9377 170.263 -6.7871 170.477H-6.71181V169.968H-5.5259V174.439C-5.5259 174.954 -5.62629 175.399 -5.82708 175.776C-6.02787 176.152 -6.31337 176.441 -6.68357 176.642C-7.05378 176.849 -7.48673 176.952 -7.98243 176.952ZM-7.9636 173.649C-7.6185 173.649 -7.32359 173.529 -7.07888 173.291C-6.83416 173.046 -6.71181 172.714 -6.71181 172.293C-6.71181 171.86 -6.83416 171.528 -7.07888 171.296C-7.31731 171.057 -7.61222 170.938 -7.9636 170.938C-8.31498 170.938 -8.61303 171.057 -8.85774 171.296C-9.10246 171.534 -9.22481 171.867 -9.22481 172.293C-9.22481 172.72 -9.10246 173.052 -8.85774 173.291C-8.61303 173.529 -8.31498 173.649 -7.9636 173.649ZM-2.98091 173.649C-2.77384 173.441 -2.3754 173.043 -1.78558 172.453C-1.18949 171.857 -0.806733 171.468 -0.637317 171.286C-0.411429 171.041 -0.2577 170.837 -0.176129 170.674C-0.0882835 170.511 -0.0443608 170.326 -0.0443608 170.119C-0.0443608 169.899 -0.125931 169.714 -0.289073 169.564C-0.452214 169.413 -0.66869 169.338 -0.938501 169.338C-1.20204 169.338 -1.41538 169.413 -1.57852 169.564C-1.74166 169.714 -1.85774 169.903 -1.92676 170.128L-3.03738 169.667C-2.96836 169.423 -2.84286 169.187 -2.6609 168.961C-2.47266 168.729 -2.23108 168.541 -1.93617 168.397C-1.64126 168.252 -1.30243 168.18 -0.919677 168.18C-0.493 168.18 -0.119657 168.265 0.200351 168.434C0.520359 168.597 0.768208 168.823 0.943899 169.112C1.11959 169.394 1.20744 169.711 1.20744 170.063C1.20744 170.759 0.868603 171.44 0.190939 172.105C-0.0851461 172.375 -0.596532 172.883 -1.34322 173.63L-1.31498 173.686H1.29214V174.769H-2.98091V173.649ZM4.55495 174.919C4.01533 174.919 3.54159 174.775 3.13373 174.486C2.72588 174.191 2.40901 173.79 2.18312 173.281C1.96351 172.767 1.8537 172.19 1.8537 171.55C1.8537 170.91 1.96351 170.336 2.18312 169.827C2.40901 169.313 2.72588 168.911 3.13373 168.623C3.54159 168.328 4.01533 168.18 4.55495 168.18C5.09457 168.18 5.56831 168.328 5.97616 168.623C6.38401 168.911 6.69775 169.313 6.91736 169.827C7.14325 170.336 7.25619 170.91 7.25619 171.55C7.25619 172.19 7.14325 172.767 6.91736 173.281C6.69775 173.79 6.38401 174.191 5.97616 174.486C5.56831 174.775 5.09457 174.919 4.55495 174.919ZM4.55495 173.761C4.85613 173.761 5.11653 173.667 5.33614 173.479C5.56203 173.285 5.73145 173.021 5.84439 172.689C5.96361 172.35 6.02322 171.97 6.02322 171.55C6.02322 170.897 5.89145 170.367 5.62792 169.959C5.36438 169.545 5.00672 169.338 4.55495 169.338C4.10945 169.338 3.75493 169.545 3.49139 169.959C3.22785 170.373 3.09609 170.903 3.09609 171.55C3.09609 171.97 3.15256 172.35 3.2655 172.689C3.38472 173.021 3.55414 173.285 3.77375 173.479C3.99964 173.667 4.26004 173.761 4.55495 173.761ZM7.75539 173.649C7.96246 173.441 8.3609 173.043 8.95072 172.453C9.54681 171.857 9.92956 171.468 10.099 171.286C10.3249 171.041 10.4786 170.837 10.5602 170.674C10.648 170.511 10.6919 170.326 10.6919 170.119C10.6919 169.899 10.6104 169.714 10.4472 169.564C10.2841 169.413 10.0676 169.338 9.7978 169.338C9.53426 169.338 9.32092 169.413 9.15778 169.564C8.99464 169.714 8.87856 169.903 8.80954 170.128L7.69892 169.667C7.76794 169.423 7.89344 169.187 8.0754 168.961C8.26364 168.729 8.50522 168.541 8.80012 168.397C9.09503 168.252 9.43387 168.18 9.81662 168.18C10.2433 168.18 10.6166 168.265 10.9366 168.434C11.2567 168.597 11.5045 168.823 11.6802 169.112C11.8559 169.394 11.9437 169.711 11.9437 170.063C11.9437 170.759 11.6049 171.44 10.9272 172.105C10.6512 172.375 10.1398 172.883 9.39308 173.63L9.42132 173.686H12.0284V174.769H7.75539V173.649ZM14.8395 174.919C14.5006 174.919 14.1744 174.856 13.8606 174.731C13.5469 174.599 13.2708 174.405 13.0324 174.147C12.8002 173.884 12.6402 173.561 12.5524 173.178L13.663 172.745C13.7383 173.065 13.8763 173.319 14.0771 173.507C14.2779 173.689 14.5289 173.78 14.8301 173.78C15.1312 173.78 15.3822 173.68 15.583 173.479C15.7838 173.278 15.8842 173.024 15.8842 172.717C15.8842 172.416 15.7838 172.165 15.583 171.964C15.3885 171.757 15.1375 171.653 14.8301 171.653C14.6418 171.653 14.4693 171.694 14.3124 171.776C14.1618 171.851 14.0332 171.954 13.9265 172.086L12.7312 171.55L13.0982 168.331H16.7313V169.413H14.1242L13.8889 170.919L13.9642 170.938C14.2779 170.681 14.6512 170.552 15.0842 170.552C15.4418 170.552 15.7744 170.643 16.0819 170.825C16.3956 171.007 16.6466 171.264 16.8348 171.597C17.0231 171.923 17.1172 172.296 17.1172 172.717C17.1172 173.143 17.0199 173.523 16.8254 173.856C16.6309 174.188 16.3611 174.449 16.016 174.637C15.6709 174.825 15.2787 174.919 14.8395 174.919Z" fill="#1F2123"/>
<rect x="-0.724" y="0.724" width="53.576" height="162.9" transform="matrix(-1 0 0 1 53.5759 0)" fill="#FBBD03" stroke="#FFE003" stroke-width="1.448"/>
<path d="M0.361794 55.0234V109.324H54.6626V55.0234H0.361794Z" stroke="#FFE003" stroke-width="1.448"/>
<path d="M0.366676 55.0283C30.177 55.4151 54.2694 79.5081 54.6567 109.318C24.8466 108.931 0.753494 84.8387 0.366676 55.0283Z" stroke="#FFE003" stroke-width="1.448"/>
<path d="M0.361794 0.723633V55.0244H54.6626V0.723633H0.361794Z" fill="#FAF6D7" stroke="#FFE003" stroke-width="1.448"/>
<g clip-path="url(#clip0_1162_4309)">
<path d="M50.4919 35.1686C50.5844 34.8949 50.3808 34.6113 50.0919 34.6113H4.86322C4.58409 34.6113 4.38179 34.8774 4.45637 35.1463L6.4657 42.3927C6.5164 42.5756 6.68282 42.7021 6.87254 42.7021H47.6443C47.8255 42.7021 47.9864 42.5866 48.0443 42.415L50.4919 35.1686Z" fill="#1F2123"/>
<path d="M43.5406 28.4224C43.6134 28.1539 43.4112 27.8896 43.1331 27.8896H11.5858C11.3063 27.8896 11.1039 28.1564 11.1792 28.4256L12.2886 32.3898C12.3396 32.5722 12.5058 32.6983 12.6952 32.6983H42.058C42.2486 32.6983 42.4155 32.5705 42.4654 32.3866L43.5406 28.4224Z" fill="#1F2123"/>
<path d="M50.6802 34.6112L42.3813 32.6982H12.3753L4.30802 34.6112H50.6802Z" fill="#FAF6D7"/>
<path d="M36.8345 26.0156L43.685 27.8893H11.0293L17.4713 26.0156H36.8345Z" fill="#FAF6D7"/>
<path d="M9.74755 38.0654H45.2432C45.8669 38.0654 46.3725 38.5709 46.3725 39.1944V48.1565C46.3725 48.7801 45.8669 49.2855 45.2432 49.2855H9.74755C9.12381 49.2855 8.61818 48.7801 8.61818 48.1565V39.1944C8.61818 38.5709 9.12381 38.0654 9.74755 38.0654Z" fill="#FAF6D7"/>
<path d="M11.3117 40.4131H14.1319C14.5312 40.4131 14.855 40.7367 14.855 41.1359V46.3376C14.855 46.7368 14.5312 47.0604 14.1319 47.0604H11.3117C10.9124 47.0604 10.5887 46.7368 10.5887 46.3376V41.1359C10.5887 40.7367 10.9124 40.4131 11.3117 40.4131Z" fill="#1F2123"/>
</g>
<path d="M0.361794 109.323V163.624H54.6626V109.323H0.361794Z" stroke="#FFE003" stroke-width="1.448"/>
<path d="M55.3862 136.474C39.9918 136.474 27.5122 123.994 27.5122 108.6C27.5122 123.994 15.0326 136.474 -0.361794 136.474C15.0326 136.474 27.5122 148.953 27.5122 164.348C27.5122 148.953 39.9918 136.474 55.3862 136.474Z" fill="#FBBD03" stroke="#FFE003" stroke-width="1.448"/>
<rect x="-0.724" y="0.724" width="108.238" height="179.552" rx="12.308" transform="matrix(-1 0 0 1 108.238 0)" stroke="#FFE003" stroke-width="1.448"/>
</g>
<defs>
<clipPath id="clip0_1162_4309">
<rect width="46.336" height="36.6255" fill="white" transform="matrix(-1 0 0 1 50.6802 8.53027)"/>
</clipPath>
</defs>
</svg>
