<svg width="309" height="330" viewBox="0 0 309 330" fill="none" xmlns="http://www.w3.org/2000/svg">
<path d="M165.218 164.782V327.826H2.17383V164.782H165.218Z" stroke="#FFE003" stroke-width="4.34783"/>
<path d="M56.9121 215.826L29.8366 235.765C24.1635 239.943 22.869 248.043 26.9454 253.857L26.9603 253.878C31.0367 259.692 38.9403 261.018 44.6134 256.84L71.689 236.901C77.3621 232.723 78.6565 224.623 74.5801 218.809L74.5653 218.788C70.4889 212.974 62.5853 211.648 56.9121 215.826Z" fill="#FBBD03" stroke="#FFE003" stroke-width="4.34783" stroke-miterlimit="10"/>
<path d="M26.9622 238.731L26.9474 238.752C22.871 244.566 24.1654 252.666 29.8386 256.844L56.9141 276.783C62.5873 280.961 70.4908 279.635 74.5672 273.821L74.5821 273.8C78.6585 267.986 77.3641 259.886 71.6909 255.708L44.6154 235.768C38.9422 231.59 31.0386 232.917 26.9622 238.731Z" fill="#FBBD03" stroke="#FFE003" stroke-width="4.34783" stroke-miterlimit="10"/>
<path d="M122.281 235.752L95.2043 255.69C89.5309 259.867 88.2365 267.967 92.3133 273.78L92.3281 273.801C96.4049 279.615 104.309 280.941 109.982 276.764L137.059 256.826C142.733 252.649 144.027 244.549 139.95 238.736L139.935 238.714C135.859 232.901 127.954 231.574 122.281 235.752Z" fill="#FBBD03" stroke="#FFE003" stroke-width="4.34783" stroke-miterlimit="10"/>
<path d="M92.3262 218.798L92.3113 218.82C88.2346 224.633 89.5289 232.733 95.2023 236.91L122.279 256.848C127.953 261.025 135.857 259.699 139.933 253.885L139.948 253.864C144.025 248.051 142.731 239.951 137.057 235.774L109.98 215.836C104.307 211.658 96.4029 212.985 92.3262 218.798Z" fill="#FBBD03" stroke="#FFE003" stroke-width="4.34783" stroke-miterlimit="10"/>
<path d="M328.261 164.782V327.826H165.217V164.782H328.261Z" stroke="#FFE003" stroke-width="4.34783"/>
<path d="M163.043 246.304C209.267 246.304 246.739 208.832 246.739 162.609C246.739 208.832 284.21 246.304 330.434 246.304C284.21 246.304 246.739 283.776 246.739 330C246.739 283.776 209.267 246.304 163.043 246.304Z" fill="#FBBD03" stroke="#FFE003" stroke-width="4.34783"/>
<path d="M165.218 2.17383V165.218H2.17383V2.17383H165.218Z" stroke="#FFE003" stroke-width="4.34783"/>
<path d="M83.6934 1.08813C106.116 1.08813 124.468 18.4961 125.98 40.5344C148.431 41.614 166.302 60.1576 166.302 82.8752C166.302 105.565 148.475 124.091 126.063 125.212C125.377 148.023 106.671 166.305 83.6934 166.305C60.7162 166.305 42.0098 148.023 41.3232 125.212C18.9112 124.092 1.08411 105.565 1.08398 82.8752C1.08421 60.1571 18.9553 41.6133 41.4062 40.5344C42.9182 18.4962 61.2714 1.08836 83.6934 1.08813ZM83.6934 5.43579C62.683 5.43602 45.6506 22.4684 45.6504 43.4788H45.6494V44.8323H43.4746C22.4642 44.8325 5.43187 61.8648 5.43164 82.8752C5.43177 103.886 22.4641 120.919 43.4746 120.919H45.6494V121.74H45.6504V123.913C45.6505 144.924 62.6829 161.956 83.6934 161.956C104.679 161.956 121.696 144.965 121.736 123.989V120.919H123.91C144.921 120.919 161.953 103.886 161.953 82.8752C161.953 61.8647 144.921 44.8323 123.91 44.8323H121.736V43.4026C121.695 22.4268 104.679 5.43579 83.6934 5.43579Z" fill="#FFE003"/>
<path d="M327.825 2.17383V165.218H164.781V2.17383H327.825Z" stroke="#FFE003" stroke-width="4.34783"/>
<path d="M164.796 2.18848C254.306 3.35049 326.647 75.6925 327.81 165.202C238.3 164.04 165.958 91.6983 164.796 2.18848Z" stroke="#FFE003" stroke-width="4.34783"/>
</svg>
