<svg width="33" height="36" viewBox="0 0 33 36" fill="none" xmlns="http://www.w3.org/2000/svg">
<path d="M4.78369 10.2088C4.80506 8.06997 5.4781 6.09998 6.42891 4.224C6.96308 3.17063 7.93525 2.51895 8.96084 2.02966C10.6125 1.24337 12.3346 0.647245 14.1273 0.228461C16.3494 -0.295018 18.4604 0.151542 20.5329 0.856637C21.8854 1.31602 23.2615 1.76258 24.4452 2.61937C25.0904 3.0873 25.6972 3.59155 26.0476 4.31374C26.9472 6.16835 27.5711 8.10416 27.6822 10.181C27.7933 10.416 27.6565 10.5421 27.4792 10.651C26.9151 10.8647 26.4664 10.5677 26.0135 10.3092C24.2657 9.31136 22.394 8.58918 20.5458 7.8093C19.5672 7.39693 18.8706 7.60204 18.3023 8.4567C17.9391 9.00155 17.4839 9.47375 17.1122 10.0143C16.375 11.0848 16.1079 11.0848 15.3217 9.99723C14.8858 9.39256 14.373 8.86267 13.8837 8.30714C13.2726 7.617 12.6145 7.51658 11.777 7.84776C10.1531 8.48875 8.55274 9.17462 6.99726 9.96518C6.57207 10.181 6.18106 10.478 5.66399 10.431C5.52938 10.4075 5.414 10.3498 5.31358 10.2579C5.25803 9.65964 5.78792 9.51862 6.1191 9.22376C8.49719 7.92468 11.012 6.95464 13.5824 6.12348C15.4734 5.51026 17.3472 5.52095 19.1313 6.2239C16.7789 4.63637 14.17 3.40566 11.3518 2.63433C9.33049 2.19204 7.47587 3.29883 6.55711 5.47608C5.91184 7.00805 5.77937 8.6896 5.14692 10.2216C5.02086 10.3049 4.90121 10.2985 4.78369 10.2088Z" fill="#232F40"/>
<path d="M4.78374 10.2089C4.9098 10.2025 5.03586 10.1961 5.15979 10.1897L5.29012 10.1961C5.41405 10.2175 5.54011 10.2388 5.66404 10.2623C5.60421 10.7559 5.15765 10.7901 4.82861 10.9632C3.96754 11.2666 3.07014 11.4439 2.19198 11.6896C1.63859 11.8456 1.1087 12.04 0.89076 12.6511C0.598039 13.5378 0.965543 14.1916 1.65782 14.6895C2.22617 15.0997 2.60435 15.4886 1.9484 16.1403C1.69628 16.3903 1.44202 16.7962 1.83089 17.0248C2.25394 17.2727 2.37146 16.7321 2.54453 16.4736C3.02955 15.7514 3.40773 14.9544 3.94617 14.2664C4.21539 13.9203 4.46324 13.2601 5.03159 13.6639C5.49311 13.9929 5.07219 14.4673 4.85211 14.8155C4.03805 16.1082 3.30304 17.4436 2.5894 18.794C1.82448 20.2426 1.34373 21.7639 1.10443 23.375C0.959133 23.8707 0.980499 24.3899 0.914263 24.8984C0.83307 25.1484 0.798884 25.4454 0.422833 25.4219C0.0702861 23.1934 0.664275 21.14 1.57876 19.1444C1.7561 18.7555 1.93986 18.4735 1.49116 18.0333C0.555306 17.1124 0.587355 16.6958 1.36296 15.5335C1.04674 15.089 0.506163 14.8412 0.256175 14.3006C-0.380548 12.9225 0.200621 11.5294 1.65568 11.0593C2.68555 10.7239 3.80515 10.726 4.78374 10.2089Z" fill="#403534"/>
<path d="M27.3852 10.4932C27.4835 10.3907 27.5839 10.286 27.6822 10.1813C28.5027 10.7454 29.5005 10.709 30.4107 10.9633C31.3081 11.2154 32.0687 11.5765 32.3144 12.538C32.573 13.5486 32.3294 14.4567 31.4854 15.1127C31.1051 15.4097 31.0239 15.5656 31.3487 16.0143C31.8444 16.7002 31.7931 17.2215 31.103 17.8604C30.5688 18.3582 30.6137 18.7471 30.8936 19.3005C31.4876 20.465 31.7675 21.7256 31.9256 23.0161C31.9961 23.2854 32.0687 23.5546 31.7034 23.6721C31.5773 23.6251 31.4854 23.5418 31.4192 23.4264C30.8701 20.4522 29.4941 17.839 27.8788 15.3306C27.8083 15.2195 27.7249 15.1148 27.6694 14.9994C27.4643 14.5849 26.9771 14.0572 27.4472 13.7217C27.9471 13.3692 28.2569 14.0144 28.5283 14.3755C29.0817 15.1063 29.5454 15.899 29.9834 16.7045C30.103 16.9245 30.2675 17.2279 30.5667 17.0891C30.8893 16.9395 30.7632 16.6147 30.5966 16.4246C29.9556 15.6917 30.1372 15.1298 30.8444 14.5571C31.6179 13.9268 31.7504 13.1106 31.3017 12.2111C30.6115 11.5915 29.7099 11.5744 28.8809 11.3607C28.3787 11.2304 27.8488 11.1919 27.4215 10.85C27.3361 10.7389 27.3211 10.6193 27.3852 10.4932Z" fill="#423736"/>
<path d="M31.6208 23.61C31.8772 23.4903 31.8388 23.2232 31.9242 23.016C32.4263 24.2296 32.1016 25.4069 31.7191 26.5586C31.1871 28.1504 30.2576 29.5007 29.0205 30.6396C28.7385 30.9002 28.3646 31.0754 28.2278 31.4729C28.0334 31.3853 27.839 31.2998 27.6445 31.2143C27.5975 30.7378 27.9864 30.5349 28.2599 30.2806C30.0055 28.6546 31.2896 26.8021 31.3067 24.2958C31.3067 24.0352 31.3858 23.7788 31.6208 23.61Z" fill="#726666"/>
<path d="M0.422363 25.4222L0.653122 24.8923C1.06336 24.8987 1.1125 25.2299 1.18942 25.5141C1.63384 27.1871 2.45859 28.6272 3.72563 29.8173C4.03117 30.1036 4.38799 30.3985 4.30679 30.9091C4.2897 31.0352 4.27047 31.1634 4.25338 31.2895C2.21715 29.8301 0.900973 27.8986 0.422363 25.4222Z" fill="#726666"/>
<path d="M28.5029 23.0442C29.4746 22.9331 30.4603 23.1503 31.1641 23.6877C31.1729 23.7095 31.1843 23.7297 31.1953 23.7502C31.3207 26.1903 30.2783 28.1119 28.5801 29.8L28.2266 30.1399C27.9599 30.3884 27.6848 30.6104 27.3877 30.8655C24.9357 32.4315 22.3284 33.6374 19.54 34.4407L18.9785 34.5959C17.1131 35.091 15.2793 35.0794 13.4053 34.5852C10.2327 33.747 7.31988 32.3534 4.56836 30.5637C2.81807 29.03 1.65942 27.1429 1.09668 24.8879C1.12579 24.745 1.13127 24.6093 1.12793 24.4905C1.12428 24.3611 1.10554 24.1661 1.10059 24.0784C1.08905 23.8727 1.1091 23.7624 1.1748 23.6702C2.78377 22.6978 4.62116 22.8192 6.33008 24.0725C6.33913 24.1792 6.2999 24.3094 6.21484 24.5627C5.91264 25.4636 5.91382 26.3582 6.2207 27.1458C6.52817 27.9347 7.13014 28.5848 7.97266 29.0139C8.65692 29.3627 9.41598 29.6515 10.2451 29.7131C11.3523 29.7976 12.4298 29.8887 13.458 30.134L13.8955 30.2493C15.0846 30.591 16.2304 30.5523 17.3271 30.4045C17.8737 30.3309 18.4168 30.2286 18.9453 30.1311C19.478 30.0328 19.9979 29.939 20.5176 29.8762H20.5186C20.9698 29.8204 21.3688 29.7559 21.7832 29.7356H21.7852C23.4686 29.6461 24.7808 29.0859 25.5576 28.0579C26.3027 27.0716 26.4872 25.743 26.1523 24.2112C26.6826 23.5665 27.5526 23.1529 28.5029 23.0442Z" fill="white" stroke="black" stroke-width="0.863251"/>
<path d="M6.576 23.8943C4.76839 22.7789 2.84754 22.8366 0.88396 23.3409C0.879686 22.0461 1.26642 20.8431 1.80272 19.6915C2.61465 17.948 3.52059 16.2536 4.5825 14.6447C4.74275 14.4032 5.0312 14.211 4.97992 13.8456C4.6231 13.6084 4.53763 13.9503 4.42012 14.1362C3.78767 15.1297 3.17018 16.1361 2.55055 17.136C2.35398 17.4501 2.25569 17.9608 1.71298 17.6659C1.27497 17.4266 1.10403 16.6788 1.32411 16.2835C1.51427 15.9416 1.98647 15.8626 2.10612 15.4566C0.4374 14.2131 0.234418 13.8157 0.633971 12.5871C1.92023 11.7303 3.57187 11.7153 4.82181 10.7731C4.99274 10.4227 5.47776 10.5893 5.66365 10.2624C7.6956 9.25819 9.7361 8.28175 11.8557 7.46768C12.7552 7.12154 13.33 7.21769 14.0115 7.9292C14.8256 8.77531 15.4452 9.76885 16.2743 10.7133C16.9687 9.60647 17.7186 8.65139 18.5156 7.73476C19.0156 7.16 19.5049 7.03608 20.2335 7.33948C22.3658 8.2326 24.5495 9.01462 26.5216 10.2517C26.7951 10.4227 27.0708 10.5103 27.3848 10.4932C27.4083 10.5637 27.4148 10.6342 27.3998 10.7068C28.6497 11.6256 30.0706 12.0145 31.6005 12.0658C32.2073 13.6212 32.0427 14.0721 30.3633 15.4267C30.3462 15.8412 30.7223 15.9951 30.9488 16.2322C31.2693 16.5698 31.3163 16.8839 31.0748 17.2856C30.718 17.8774 30.3804 17.9373 30.0044 17.3668C29.5236 16.6382 29.1454 15.8455 28.6604 15.1212C28.3527 14.6596 28.1476 14.102 27.5472 13.7302C27.4468 14.2451 27.7438 14.5379 27.9532 14.8648C29.0642 16.5912 30.1304 18.3432 30.8462 20.279C31.2223 21.2982 31.6304 22.3153 31.547 23.4391C30.0834 23.0011 28.6155 22.6785 27.122 23.3259C26.6498 23.5289 26.1477 23.6849 25.8379 24.1421C25.3636 24.3194 25.0367 23.9797 24.6649 23.8024C24.4833 23.6592 24.3059 23.4391 24.3978 23.2468C24.8914 22.2213 25.2076 21.1615 25.3529 20.0226C25.4341 19.3987 26.0729 19.3432 26.6221 19.3667C27.2182 19.3923 27.5622 19.6936 27.7203 20.2919C27.8293 20.6957 27.5173 21.4991 28.2032 21.4157C28.8292 21.3367 28.6027 20.5504 28.6134 20.059C28.6561 18.2642 28.6433 18.2642 26.8656 18.1937C25.5089 18.1381 25.2738 17.9074 25.214 16.5698C25.105 14.1105 23.5709 12.8691 21.1031 13.2986C20.507 13.4012 19.8959 13.4781 19.3211 13.7131C18.0819 14.2195 17.552 14.9545 17.5285 16.3027C17.5071 17.5698 17.5306 18.8368 17.5157 20.1038C17.5071 20.9478 17.2571 21.5653 16.2636 21.576C15.2893 21.5845 14.9474 21.0247 14.9816 20.1508C15.0371 18.7065 14.8171 17.2792 14.7273 15.8455C14.6718 14.9438 14.2551 14.3648 13.5308 13.9631C11.9369 13.0807 10.2809 13.0422 8.62077 13.743C7.33451 14.2879 7.05461 14.8434 7.21486 16.2728C7.36442 17.5975 6.92641 18.1061 5.56109 18.1873C5.25555 18.2044 4.95001 18.2108 4.64447 18.2022C3.93723 18.1851 3.59323 18.5035 3.61246 19.2257C3.62742 19.794 3.58041 20.3624 3.64238 20.9286C3.68297 21.2811 3.91159 21.4777 4.26628 21.467C4.5996 21.4542 4.67011 21.1871 4.70643 20.9179C4.77266 20.4478 4.7342 19.9393 5.1594 19.5974C5.92432 18.9864 7.14648 19.4479 7.23195 20.4436C7.30673 21.3239 7.4392 22.1379 7.86226 22.9392C8.3195 23.8045 7.62937 23.9669 6.97341 24.0652C6.82812 24.0395 6.69565 23.9819 6.576 23.8943Z" fill="#726666"/>
<path d="M27.3641 10.1427C26.0736 9.50387 24.9305 8.89065 23.7489 8.36718C22.7084 7.90566 21.7469 7.38645 20.8879 6.6023C19.7598 5.5703 18.3923 4.85452 17.0441 4.13447C16.6745 3.9379 16.3112 3.72423 15.7557 3.41228C17.9906 2.59608 20.0931 1.94013 22.2554 2.04483C23.6528 2.1132 24.8514 3.09392 25.595 4.33532C26.6355 6.07241 27.0436 8.02745 27.3641 10.1427ZM11.3713 2.37814C13.5015 2.77983 15.4203 3.71355 17.3048 4.72846C18.3346 5.28185 19.3474 5.87157 20.435 6.75828C19.3325 6.80315 18.5739 6.35018 17.7642 6.16856C16.7151 5.93353 15.713 5.9143 14.666 6.18352C12.0721 6.85015 9.62352 7.88429 7.21337 9.0274C6.85869 9.19406 6.50401 9.35858 6.14932 9.52524C5.69422 9.0274 5.98266 8.53811 6.19847 8.07659C6.67494 7.04886 7.19842 6.04464 7.71762 5.03827C8.48896 3.54262 9.74317 2.70078 11.3713 2.37814Z" fill="#0086FF"/>
<path d="M20.9606 1.57079C19.106 1.96607 17.3048 2.42545 15.5399 3.02371C15.2857 3.10918 15.0229 3.1861 14.7771 3.07072C13.555 2.49596 12.2473 2.16478 10.8286 1.72036C14.2793 0.0537676 17.6082 -0.0124685 20.9606 1.57079Z" fill="#0089FC"/>
<path d="M11.3707 2.37836C11.3109 2.44032 11.2618 2.53219 11.1891 2.55783C8.12729 3.62616 7.35596 6.47859 6.17439 9.00839C6.10602 9.15154 6.15303 9.35239 6.14875 9.52545C5.86244 9.7498 5.57613 9.97201 5.28982 10.1964L5.22572 10.1814L5.16162 10.19C5.20435 8.06185 5.84108 6.09186 6.8624 4.25434C7.43074 3.23088 8.45847 2.65612 9.48834 2.18606C10.0951 1.90829 10.7682 2.05999 11.3707 2.37836Z" fill="#00C5FD"/>
<path d="M13.6743 6.9656C15.4221 6.14299 17.0139 6.1259 18.7745 6.96133C17.8472 7.90573 16.9626 8.82876 16.2511 10.068C15.4371 8.90996 14.6187 7.96555 13.6743 6.9656Z" fill="#0084FC"/>
<path d="M4.82211 10.7731C4.43538 11.4888 3.70678 11.7346 3.02733 11.9931C2.26027 12.2815 1.46757 12.5379 0.634277 12.5871C0.651371 11.8948 1.13639 11.6448 1.70047 11.4824C2.72606 11.1876 3.76233 10.9248 4.82211 10.7731Z" fill="#AB9B99"/>
<path d="M31.6006 12.0656C30.1861 12.6104 28.4554 12.0506 27.3999 10.7067C28.3229 10.9075 29.2524 11.0849 30.1669 11.3199C30.6903 11.4566 31.2886 11.4994 31.6006 12.0656Z" fill="#AC9C9A"/>
<path d="M25.0222 23.6528C25.2936 23.8152 25.567 23.9797 25.8384 24.1421C26.8875 25.8322 26.4687 27.6441 24.7508 28.7765C23.971 29.2915 23.0928 29.5521 22.1698 29.6419C20.6057 29.7936 19.0588 30.0072 17.5183 30.3448C16.5888 30.5478 15.6081 30.5371 14.6616 30.3021C13.3454 29.9773 12.0057 29.8085 10.6575 29.6846C10.1832 29.6397 9.70669 29.5564 9.24517 29.4367C6.37779 28.6846 5.37142 26.5865 6.5765 23.8943C6.69828 23.8985 6.82007 23.9028 6.94186 23.9071C7.15553 23.9861 7.288 24.1229 7.26877 24.3665C6.41197 26.4924 7.11279 28.1548 9.38619 28.5928C12.7065 29.2316 16.0504 30.1162 19.484 29.1825C20.3686 28.9432 21.3151 29.0692 22.2104 28.8385C22.5907 28.7423 22.9838 28.6911 23.3556 28.5629C25.5841 27.7958 26.1354 26.0245 24.738 24.125C24.6718 23.8708 24.8235 23.7468 25.0222 23.6528Z" fill="#4E3823"/>
<path d="M7.20238 24.1528C7.11478 24.0694 7.02931 23.9883 6.94171 23.9071C7.19597 23.7404 7.46092 23.593 7.95235 23.5545C7.08487 22.5759 6.78146 21.5418 6.89684 20.3837C6.95453 19.7961 6.60412 19.6316 6.0785 19.6594C5.60203 19.685 5.06359 19.5867 5.07641 20.3346C5.08069 20.5974 5.06787 20.8581 5.06146 21.1209C5.04864 21.5952 4.96104 22.0631 4.35209 21.9713C3.87134 21.8986 3.25171 21.8965 3.27094 21.1145C3.29017 20.3282 3.27094 19.5419 3.27094 18.7535C3.27094 18.1125 3.57221 17.7877 4.23671 17.8048C4.80292 17.8197 5.37341 17.824 5.94176 17.7962C6.77719 17.7578 6.8947 17.6189 6.87975 16.7536C6.87547 16.4929 6.85838 16.2215 6.78146 15.9779C6.45883 14.9566 6.94598 14.2537 7.73441 13.7622C9.60611 12.5999 12.0761 12.6127 13.9563 13.7451C14.7383 14.2173 15.1101 14.9011 15.1422 15.9096C15.1892 17.433 15.3815 18.9543 15.3174 20.482C15.2875 21.1935 15.6827 21.2341 16.2276 21.2341C16.7703 21.2341 17.157 21.1978 17.1485 20.4906C17.1293 19.0056 17.1998 17.5185 17.1656 16.0314C17.1421 14.9374 17.6271 14.1725 18.5394 13.6917C20.5223 12.649 22.5393 12.6084 24.5434 13.6533C25.3041 14.0486 25.6716 14.6575 25.6203 15.5698C25.5818 16.2493 25.287 17.0933 25.7571 17.5933C26.2357 18.1039 27.0861 17.7685 27.7698 17.7962C28.9919 17.8475 29.0005 17.8283 29.0154 19.059C29.0261 19.7577 29.039 20.4585 29.0026 21.1572C28.977 21.6956 28.5005 22.0418 27.9258 22.0054C27.3275 21.9648 27.4365 21.5055 27.413 21.1294C27.4023 20.9563 27.4151 20.779 27.4065 20.6038C27.3617 19.7171 27.2848 19.6765 26.4066 19.653C25.7891 19.6359 25.5263 19.8645 25.5562 20.4884C25.6032 21.4755 25.4173 22.3815 24.693 23.1443C24.4003 23.4541 24.7892 23.5566 25.022 23.6507C24.9216 23.7425 24.8212 23.8323 24.7208 23.9242C24.0477 24.3344 23.2849 24.5331 22.5628 24.8301C20.6312 25.6249 18.907 25.251 17.3557 23.8836C16.1357 22.811 16.0545 22.8003 14.8815 23.9049C13.5525 25.1527 12.0355 25.5822 10.3112 24.9925C9.28989 24.6442 8.26857 24.3237 7.20238 24.1528Z" fill="#262D1F"/>
<path d="M7.20399 24.1532C7.92831 23.8733 8.62059 23.8177 9.32568 24.2686C9.88121 24.6232 10.5393 24.7835 11.1824 24.8583C12.6524 25.0271 13.9473 24.6318 14.9258 23.4524C15.7207 22.493 16.46 22.2409 17.4813 23.4652C18.8167 25.0655 20.8871 25.2941 22.9767 24.3241C23.5494 24.057 24.0942 23.8605 24.7224 23.9246C26.2651 24.9694 26.4509 26.3368 25.2459 27.7598C24.6861 28.4222 23.9639 28.8581 23.137 28.9991C20.9918 29.3602 18.8359 29.6786 16.6758 29.9414C15.7698 30.0503 14.8596 29.8815 13.9494 29.6999C12.5862 29.4264 11.1888 29.3239 9.8107 29.1166C8.88767 28.9777 8.04369 28.638 7.37065 27.9543C6.15276 26.7214 6.0972 25.4929 7.20399 24.1532Z" fill="#FFA100"/>
<path d="M14.8807 22.0373C15.793 21.4689 16.5302 21.3899 17.169 21.8599C17.466 21.7339 17.4639 21.5416 17.4489 21.3813C17.2673 19.4519 17.7651 17.5503 17.6861 15.6273C17.6605 14.9436 18.0002 14.4564 18.5728 14.1317C20.421 13.0804 22.3333 13.1317 24.2435 13.9095C24.9293 14.1894 25.3567 14.7363 25.2755 15.5632C25.2327 15.997 25.284 16.4414 25.2456 16.8751C25.1387 18.1101 25.1302 18.1101 26.4058 18.1272C26.4485 18.1272 26.4934 18.1229 26.5361 18.1272C27.2156 18.2105 28.1877 17.8003 28.5146 18.3708C28.9783 19.1806 28.6898 20.2425 28.6364 21.1976C28.6279 21.3728 28.4527 21.4775 28.2497 21.4604C28.0318 21.4412 27.957 21.2895 27.9335 21.11C27.8779 20.7211 27.8352 20.3322 27.7925 19.9412C27.7284 19.3579 27.4143 19.1678 26.8224 19.1507C25.1302 19.0994 24.9956 19.1229 25.0832 20.8472C25.1494 22.1398 24.5148 22.9069 23.5683 23.5372C21.7372 24.7572 18.9339 24.9047 17.3912 22.9347C16.6797 22.0245 15.8785 22.0672 15.011 22.7979C14.8785 22.9112 14.7439 23.0308 14.6414 23.1697C13.0239 25.3961 9.32965 24.3491 7.97715 22.8941C7.2977 22.1612 7.34684 21.2104 7.22291 20.3087C7.1695 19.9156 7.44299 19.3109 6.81909 19.2212C6.14818 19.1229 5.42172 18.9797 4.78713 19.3878C4.54783 19.5438 4.59056 19.8558 4.57774 20.1143C4.56065 20.4647 4.55851 20.8151 4.5286 21.1613C4.5115 21.36 4.36621 21.4625 4.17391 21.4668C3.97948 21.4711 3.81495 21.3621 3.81282 21.1719C3.79359 20.3002 3.7829 19.4263 3.80213 18.5524C3.81068 18.2276 4.09058 18.1486 4.37048 18.1443C5.02644 18.1336 5.68452 18.0952 6.33834 18.1315C7.04557 18.1721 7.26565 17.8473 7.22078 17.1956C7.18659 16.6721 7.23573 16.1423 7.18445 15.6209C7.10112 14.7983 7.51563 14.2706 8.18654 13.9458C10.0454 13.0441 11.9257 13.1574 13.7397 14.0483C14.4127 14.3795 14.8294 14.9607 14.8037 15.8495C14.7674 17.108 14.7268 18.3772 15.0089 19.6335C15.167 20.3386 14.9619 21.0801 14.8807 22.0373Z" fill="#01A72D"/>
<path d="M24.725 25.3685C24.2293 26.7146 23.1717 27.3064 21.8961 27.5457C21.1696 27.6825 20.4196 27.7637 19.6846 27.7445C18.3578 27.7103 17.1527 27.9004 16.2339 29.2187C15.2233 27.7487 13.796 27.7487 12.3282 27.7359C11.4243 27.7274 10.4906 27.6739 9.62956 27.3064C8.71508 26.9133 7.92238 26.3855 7.53564 25.3856C7.77922 25.2937 7.89033 25.3343 7.97152 25.4476C9.0313 26.9112 10.5676 27.2829 12.2427 27.2723C13.5631 27.2637 14.875 27.2082 15.9305 28.2167C16.1763 28.4496 16.4113 28.3256 16.6164 28.1312C17.4048 27.3791 18.3706 27.2295 19.4069 27.2787C19.8428 27.2979 20.2808 27.2787 20.7166 27.2616C22.317 27.1953 23.678 26.6313 24.725 25.3685Z" fill="#55350D"/>
<path d="M13.4815 14.9846C14.1567 14.9761 14.2486 15.444 14.2592 15.9568C14.2849 17.0508 14.2891 18.1447 14.3148 19.2387C14.3276 19.8455 14.3169 20.4502 14.4238 21.0634C14.6267 22.245 14.0007 23.2001 12.8768 23.6082C11.5008 24.106 10.221 23.9116 9.03512 23.0676C8.43472 22.6381 8.04372 22.0228 8.00312 21.3134C7.89842 19.4417 7.62707 17.5764 7.70613 15.6919C7.72749 15.1214 7.96893 14.7966 8.46464 14.6022C9.99021 14.0018 11.5265 13.989 13.067 14.5274C13.2721 14.6 13.443 14.7496 13.4879 14.991C12.9324 15.3222 12.3768 15.0573 11.8341 14.9633C11.176 14.8479 10.5436 14.8586 9.88551 14.9804C8.88983 15.162 8.48387 15.6641 8.57788 16.7025C8.68685 17.9183 8.54583 19.149 8.63557 20.369C8.79154 22.5078 10.7188 23.6594 12.6995 22.8326C13.4751 22.5078 13.6482 21.8433 13.6353 21.1125C13.599 19.2836 13.8383 17.4418 13.4302 15.6256C13.3811 15.412 13.3832 15.1919 13.4815 14.9846Z" fill="#2F442F"/>
<path d="M17.9833 20.2406C18.0047 18.8069 18.2953 17.3839 18.1885 15.9417C18.1457 15.337 18.4641 14.9374 18.9748 14.7024C20.652 13.9353 22.34 13.9204 24.0194 14.7109C24.4873 14.9332 24.8377 15.2964 24.7202 15.8434C24.3933 17.3583 24.498 18.8945 24.545 20.4073C24.6412 23.452 21.2503 24.6015 19.0688 23.3857C18.3338 22.9755 18.0966 22.2961 17.994 21.5482C17.9342 21.1209 17.9833 20.6765 17.9833 20.2406Z" fill="#344131"/>
<path d="M13.4792 14.9847C13.8317 15.459 13.9193 16.0081 13.9343 16.5765C13.9706 18.1448 14.0219 19.711 14.0283 21.2793C14.0347 22.5442 13.5497 23.0997 12.3339 23.3582C11.6823 23.4971 11.0306 23.4821 10.3917 23.3326C9.21017 23.0548 8.42174 22.2728 8.33414 21.0934C8.20167 19.3157 8.19312 17.5273 8.11834 15.7432C8.09056 15.1001 8.57131 14.9441 9.02 14.7945C10.2977 14.3693 11.5818 14.4142 12.8596 14.8373C13.0625 14.9056 13.2762 14.9398 13.4856 14.9911L13.4792 14.9847Z" fill="#FEFDFD"/>
<path d="M24.2747 17.717C24.1359 19.0247 24.2576 20.0738 24.0418 21.1143C23.779 22.3771 23.2192 23.0587 21.9928 23.3279C21.4843 23.4411 20.9693 23.4625 20.4352 23.4112C18.9481 23.2702 18.2088 22.3749 18.3712 20.8494C18.5336 19.3366 18.5293 17.8004 18.525 16.2748C18.5229 15.5569 18.7729 15.1317 19.4395 14.8902C20.8005 14.3945 22.1595 14.371 23.529 14.8432C24.0333 15.0163 24.3239 15.2983 24.2854 15.8923C24.2384 16.5867 24.2747 17.2876 24.2747 17.717Z" fill="#FEFEFE"/>
<path d="M10.8315 19.1915C10.8315 18.4928 10.8508 17.792 10.8251 17.0933C10.8102 16.6425 10.9768 16.4224 11.4298 16.5058C11.808 16.5741 12.4319 16.2707 12.4575 16.9609C12.5195 18.5762 12.5152 20.1958 12.5216 21.8132C12.5238 22.4115 12.0601 22.341 11.6734 22.3431C11.2867 22.3452 10.8337 22.4179 10.8294 21.8153C10.8209 20.9414 10.8273 20.0654 10.8273 19.1915H10.8315Z" fill="#241817"/>
<path d="M19.8288 19.373C19.8309 18.6359 19.8437 17.8966 19.8266 17.1594C19.8074 16.3881 20.3736 16.5462 20.8223 16.4949C21.333 16.4351 21.6492 16.5569 21.6364 17.1701C21.6043 18.6893 21.6022 20.2084 21.6022 21.7276C21.6022 22.3857 21.1578 22.3515 20.7112 22.3515C20.2604 22.3515 19.816 22.375 19.8266 21.7191C19.8395 20.937 19.8288 20.155 19.8288 19.373Z" fill="#2B201F"/>
<path d="M12.2211 17.5336C12.2746 17.9609 12.1228 18.1575 11.6592 18.1575C11.1977 18.1553 11.0695 17.9609 11.093 17.5357C11.1186 17.0977 11.219 16.7986 11.7532 16.8135C12.3066 16.8263 12.1912 17.2152 12.2211 17.5336Z" fill="#EFEFEF"/>
<path d="M20.74 16.822C21.2143 16.8028 21.3532 17.0592 21.3532 17.478C21.3554 17.8711 21.2913 18.1446 20.7998 18.1553C20.3148 18.1681 20.2016 17.9331 20.2251 17.5165C20.2464 17.1575 20.2272 16.7857 20.74 16.822Z" fill="#E6E5E5"/>
</svg>
