<svg width="51" height="42" viewBox="0 0 51 42" fill="none" xmlns="http://www.w3.org/2000/svg">
<g clip-path="url(#clip0_943_324)">
<path d="M25.6457 0.0228253C27.7701 -0.0603524 29.872 0.0767785 31.947 0.57135C32.799 0.775922 33.6398 1.0277 34.3839 1.49979C35.645 2.29785 35.6271 3.29599 34.3299 4.02211C33.1834 4.6628 31.9043 4.87187 30.6184 4.96854C29.5641 5.04722 28.503 5.06745 27.4464 5.02474C26.7787 5.00001 26.473 5.10342 26.455 5.88349C26.3898 8.61262 26.3583 8.61262 28.6356 10.1975C34.4513 14.2417 40.2693 18.2837 46.0782 22.337C46.5233 22.6472 47.0674 22.8495 47.3281 23.3846C47.5125 23.769 47.8677 23.6656 48.1734 23.6633C48.7714 23.6633 49.3694 23.6184 49.9674 23.6229C50.9115 23.6274 50.9318 23.6543 51.0487 24.6255C51.0756 24.8525 51.0846 25.0841 51.1004 25.3134C51.1318 25.7518 50.9745 26.026 50.4912 26.0193C50.4462 26.0193 50.399 26.0238 50.354 26.0238C49.3896 26.0642 48.2454 25.7945 47.5102 26.2238C46.7347 26.6757 46.0265 27.4176 45.2599 27.9886C39.0958 32.5746 32.9226 37.1471 26.7562 41.7287C25.358 42.7673 25.5985 42.6436 24.3126 41.6904C17.8405 36.9043 11.3391 32.1565 4.95017 27.2602C3.76095 26.3497 2.65491 25.9541 1.24988 26.0215C0.860964 26.0418 0.280967 26.2126 0.125851 25.7652C-0.0832172 25.1673 -0.0135282 24.4816 0.204533 23.8701C0.303447 23.5981 0.658639 23.6116 0.941893 23.6139C1.81189 23.6206 2.82801 23.8994 3.51366 23.5442C4.17684 23.2025 4.76358 22.5191 5.43574 22.0492C11.5145 17.8206 17.5887 13.5808 23.6899 9.38371C24.4183 8.88014 24.7892 8.36759 24.6678 7.47511C24.5622 6.71077 24.978 5.72613 24.4925 5.21582C24.0001 4.69652 23.0155 5.08319 22.2512 5.0652C20.6326 5.02923 19.0275 4.91458 17.501 4.34807C16.7389 4.06482 15.8262 3.76583 15.8352 2.74746C15.8442 1.82576 16.6603 1.46383 17.3796 1.16483C19.5355 0.261119 21.8173 0.0273217 24.1305 0.0228253L25.6457 0.0228253ZM25.639 86.2108C27.7634 86.1276 29.8653 86.2625 31.938 86.7571C32.7473 86.9504 33.5341 87.1977 34.2602 87.6113C34.793 87.9148 35.3101 88.297 35.3056 88.9624C35.3011 89.6368 34.766 90.001 34.2198 90.2753C33.0935 90.844 31.8661 91.0666 30.6274 91.1543C29.5281 91.233 28.4176 91.2644 27.3183 91.206C26.6056 91.1678 26.482 91.433 26.4618 92.0625C26.3741 94.7984 26.3561 94.7984 28.6289 96.3787C34.4446 100.425 40.2625 104.467 46.0715 108.52C46.5166 108.828 47.0629 109.031 47.3237 109.564C47.5102 109.95 47.8587 109.854 48.1644 109.851C48.8096 109.849 49.4548 109.847 50.0955 109.797C50.7519 109.746 51.0217 110.045 51.0329 110.667C51.0374 110.942 51.0779 111.216 51.1004 111.492C51.1341 111.926 50.9857 112.21 50.5001 112.207C50.4529 112.207 50.408 112.21 50.3608 112.212C49.3986 112.25 48.2588 111.982 47.517 112.41C46.7392 112.855 46.0333 113.599 45.2667 114.17C39.1385 118.729 33.0058 123.277 26.8731 127.827C26.6146 128.02 26.3538 128.207 26.0998 128.407C25.7176 128.708 25.3512 128.681 24.9825 128.382C24.769 128.207 24.5374 128.052 24.3171 127.887C17.8517 123.092 11.3481 118.347 4.95466 113.455C3.76994 112.549 2.6684 112.126 1.25887 112.21C0.869956 112.232 0.285463 112.396 0.128099 111.96C-0.0877134 111.364 -0.00903141 110.679 0.202285 110.067C0.298951 109.788 0.651894 109.802 0.932901 109.802C1.80514 109.809 2.81677 110.087 3.50917 109.737C4.17234 109.402 4.75683 108.709 5.429 108.242C11.51 104.013 17.582 99.7733 23.6832 95.5739C24.407 95.0749 24.7937 94.5691 24.6678 93.6698C24.5599 92.9055 24.9758 91.9209 24.4992 91.4061C24.0091 90.88 23.0245 91.2734 22.2579 91.2532C20.6865 91.215 19.1264 91.1116 17.6382 90.581C16.8311 90.2933 15.8375 90.0213 15.8397 88.9422C15.8442 87.9665 16.7344 87.6136 17.4988 87.3034C19.576 86.4581 21.7633 86.2266 23.9844 86.2108C24.5352 86.2063 25.0882 86.2108 25.639 86.2108Z" fill="#24211A"/>
</g>
<path d="M41.0671 19.8997C42.5463 20.9024 44.0188 21.9162 45.5092 22.9031C46.1049 23.2965 46.2938 23.7933 46.323 24.5127C46.3702 25.7199 45.9723 26.5067 44.9584 27.2464C38.6954 31.8166 32.493 36.4656 26.2682 41.0831C25.1217 41.9329 25.1172 41.9261 23.9257 41.0291C22.2779 39.7905 20.6323 38.5518 18.9845 37.3154C19.5038 36.6409 20.2164 36.2251 20.9448 35.8227C22.2576 36.0205 23.0602 37.0568 24.0358 37.7785C24.8586 38.3877 25.4589 38.3247 26.2322 37.7402C31.605 33.6713 37.0768 29.7304 42.4406 25.6457C43.6186 24.7465 43.5602 24.7915 42.3822 23.8361C41.3638 23.0088 40.0285 22.5794 39.3113 21.3789C39.7047 20.6596 40.3409 20.2257 41.0671 19.8997ZM9.57639 30.3621C7.98926 29.1954 6.3909 28.0422 4.81951 26.8552C3.61006 25.938 3.63479 23.7079 4.85323 22.8604C11.2557 18.4003 17.6604 13.9446 24.0696 9.4935C25.1531 8.74041 25.1666 8.74715 26.203 9.47552C27.8508 10.6378 29.4919 11.8112 31.1374 12.978C30.7013 13.6187 29.9909 13.9514 29.4469 14.4707C28.1947 14.1762 27.3225 13.2545 26.3513 12.5194C25.4836 11.8629 24.8137 11.8607 23.9122 12.5081C18.5888 16.3343 13.2137 20.0908 7.84314 23.8518C6.63819 24.6948 6.67191 24.7016 7.82066 25.6682C8.99414 26.6529 10.5003 27.2576 11.3029 28.6739C10.8218 29.3325 10.1879 29.8361 9.57639 30.3621Z" fill="#00AD2D"/>
<path d="M29.1735 0.795901C30.3379 0.802645 31.4485 1.09264 32.541 1.45458C33.0199 1.61419 33.4897 1.81427 33.8809 2.14923C34.4204 2.61682 34.4316 2.96077 33.8741 3.35868C33.5796 3.56999 33.2379 3.7341 32.894 3.84875C30.8483 4.52991 28.7328 4.51867 26.6129 4.46697C26.0891 4.45348 26.0172 4.13875 26.0487 3.7386C26.1071 2.95628 25.5901 3.01248 25.0573 2.99225C24.493 2.97201 24.1648 3.11814 24.221 3.74984C24.2592 4.16798 24.1513 4.45573 23.6455 4.46697C21.5728 4.50968 19.5023 4.5389 17.4948 3.89371C17.4072 3.86674 17.315 3.84875 17.2318 3.81054C16.7417 3.57899 16.0471 3.4486 16.0044 2.83713C15.9549 2.129 16.6721 1.91993 17.2026 1.67714C18.7313 0.980241 20.3768 0.732956 22.0269 0.652026C23.7804 0.568848 25.5384 0.634042 27.2963 0.634042C27.9078 0.856599 28.5597 0.598073 29.1735 0.795901Z" fill="#FDFEFE"/>
<path d="M9.57568 30.3622C9.82072 29.4832 10.4367 28.9796 11.2685 28.7009C11.835 28.5862 12.2329 28.9212 12.5926 29.2539C13.6784 30.2588 15.2048 30.7331 16.0141 32.073C15.7646 32.9924 15.2902 33.6758 14.2404 33.7478C12.6016 32.7339 11.1313 31.4885 9.57568 30.3622ZM29.4709 14.3246C29.7047 13.4771 30.4308 13.241 31.1367 12.978C32.7486 14.0234 34.3402 15.0979 35.8599 16.2782C35.8599 17.2201 35.2124 17.5978 34.4571 17.881C32.517 17.0852 30.795 15.9837 29.4709 14.3246Z" fill="#00E560"/>
<path d="M20.902 35.9148C20.4389 36.6251 19.7892 37.077 18.9844 37.313C18.1369 36.6813 17.2894 36.0451 16.4419 35.4112C16.5386 34.2512 17.2714 33.8151 18.3325 33.7499C19.3711 34.2534 20.4839 34.6738 20.902 35.9148ZM41.067 19.8997C40.6961 20.5741 40.1004 20.9832 39.4192 21.2934C38.1108 21.1698 37.2498 20.3785 36.535 19.3646C36.7328 18.4092 37.3735 18.0113 38.2952 17.9708C39.2753 18.5328 40.1903 19.1893 41.067 19.8997Z" fill="#00E35F"/>
<path d="M18.3921 33.9974C17.3895 33.984 16.9601 34.7595 16.443 35.4115C15.654 34.9304 14.8986 34.4021 14.2422 33.7479C14.8806 33.2916 15.4606 32.7768 15.9012 32.1181C17.086 32.2777 17.9155 32.9004 18.3921 33.9974ZM38.2963 17.9711C37.7276 18.4027 37.0127 18.659 36.6463 19.3334C35.5627 19.2615 34.7287 18.8411 34.4094 17.7148C34.9782 17.3192 35.4975 16.8763 35.8617 16.2783C36.698 16.8066 37.5432 17.3214 38.2963 17.9711Z" fill="#00AC2E"/>
<path d="M48.3768 25.4997H47.4191C47.0414 25.4974 46.8346 25.3423 46.8301 24.9309C46.8279 24.5173 46.938 24.1868 47.3989 24.1621C48.08 24.1216 48.7634 24.1171 49.4446 24.1194C49.9954 24.1216 50.1055 24.497 50.1055 24.9534C50.1033 25.3873 49.8178 25.4704 49.4671 25.4727C49.1051 25.4772 48.741 25.4749 48.3768 25.4749V25.4997Z" fill="#E43133"/>
<path d="M24.7505 5.76834C24.7505 5.21757 24.7438 4.66455 24.755 4.11378C24.7595 3.88448 24.7865 3.63045 25.0855 3.60572C25.3575 3.58324 25.5149 3.75634 25.5171 4.01711C25.5194 5.30524 25.5104 6.59113 25.4969 7.87926C25.4946 8.07484 25.3822 8.24794 25.1822 8.27042C24.8877 8.30189 24.7843 8.08383 24.7798 7.8388C24.7685 7.14865 24.7753 6.45849 24.7753 5.76834H24.7505Z" fill="#D19003"/>
<path d="M3.41568 24.8433C3.47413 25.221 3.36397 25.4907 2.93684 25.4907C2.19948 25.493 1.46437 25.4862 0.727011 25.466C0.0773251 25.448 0.189727 24.9849 0.23244 24.5713C1.32274 24.3195 2.42204 23.9553 3.41568 24.8433Z" fill="#FA0405"/>
<path d="M3.41371 24.8431C2.37511 24.4655 1.2893 24.6768 0.230469 24.5734C0.266438 24.4475 0.279926 24.2272 0.342871 24.2114C1.26682 23.9866 2.20201 24.0586 3.12596 24.198C3.44518 24.2474 3.4834 24.5531 3.41371 24.8431Z" fill="#C34D4F"/>
<path d="M29.1733 0.795742C28.5394 0.842951 27.8919 1.03179 27.2939 0.633883C27.9301 0.586674 28.5686 0.492256 29.1733 0.795742Z" fill="#ABDAFB"/>
<path d="M34.408 17.7145C35.0419 18.4069 35.8715 18.8317 36.6448 19.333C37.5193 20.0569 38.4522 20.6999 39.4189 21.2933C40.6059 22.1499 41.7906 23.0086 42.982 23.8629C44.1151 24.6767 44.1285 24.7801 43.0338 25.5984C38.4095 29.0604 33.7785 32.5134 29.152 35.9686C28.2348 36.6543 27.3176 37.3444 26.4027 38.0346C25.164 38.9653 25.1393 38.9473 23.9118 38.0773C22.9047 37.3647 21.992 36.5149 20.9017 35.9147C20.1351 35.184 19.2651 34.5883 18.3906 33.9971C17.5589 33.3721 16.7293 32.7449 15.8998 32.1177C14.3554 30.9802 12.8132 29.8404 11.2688 28.7007C9.88176 27.6463 8.48797 26.5965 7.10317 25.5377C6.13202 24.7958 6.12303 24.6609 7.11217 23.9618C10.3763 21.6508 13.6517 19.3578 16.9182 17.0558C19.2494 15.4169 21.5739 13.7714 23.9006 12.128C25.0786 11.2963 25.1168 11.294 26.3128 12.1236C27.3693 12.8542 28.4192 13.5915 29.4713 14.3244C31.1146 15.4574 32.6702 16.7186 34.408 17.7145Z" fill="#231E19"/>
<path d="M32.3914 2.8416C32.2273 3.17206 32.1913 3.31369 32.1014 3.40586C32.0137 3.49578 31.8743 3.58795 31.7574 3.58795C30.0714 3.59919 28.3854 3.5947 26.6948 3.52276C27.6907 3.08664 28.8417 3.63741 29.8646 2.97199C29.2059 2.43021 28.5562 1.9244 28.1066 1.17804C28.8552 0.930759 29.5971 1.40735 30.3726 1.47029C30.4513 1.47479 30.5907 1.57145 30.5862 1.61641C30.4648 2.9023 31.4877 2.73819 32.3914 2.8416Z" fill="#ABDAFB"/>
<path d="M22.2178 1.5557C21.4332 2.03679 20.6217 2.47516 19.7337 2.96298C20.6959 3.12035 21.6558 3.27771 22.6202 3.43282C21.7704 3.87794 21.0084 3.46654 20.217 3.38786C19.401 3.30469 18.5984 3.21476 17.688 2.97197C19.2234 2.36051 20.316 0.800358 22.2178 1.5557Z" fill="#A7DBFF"/>
<path d="M43.2223 24.7331C37.872 28.7346 32.6902 32.6103 27.5084 36.4882C26.9936 36.8726 26.4316 37.2098 25.973 37.6527C25.3863 38.2192 24.9299 38.1517 24.3095 37.6751C22.0502 35.9396 19.7504 34.2626 17.4709 32.5563C14.0561 29.998 10.6458 27.433 7.25801 24.8882C7.24003 24.4296 7.57948 24.306 7.82227 24.1351C13.1569 20.3831 18.4938 16.6356 23.8374 12.8971C25.1772 11.9574 25.1705 11.9957 26.4631 12.9106C30.9614 16.0916 35.4755 19.2546 39.9806 22.4289C41.0282 23.1662 42.0691 23.9126 43.2223 24.7331Z" fill="#726666"/>
<path d="M30.8255 21.952C30.8255 22.8692 30.8143 23.7864 30.83 24.7036C30.8413 25.3736 30.5805 25.7422 29.8634 25.7242C29.1754 25.7063 28.4875 25.7085 27.8019 25.7242C27.2286 25.7355 26.9611 25.4994 26.9746 24.9082C26.9993 23.8988 26.9544 22.8872 27.0106 21.8823C27.0645 20.9247 27.2511 19.976 27.2017 19.0093C27.1769 18.499 27.4355 18.3057 27.9435 18.2495C30.7851 17.9393 30.848 17.9842 30.8368 20.8505C30.8345 21.2192 30.8368 21.5856 30.8368 21.952H30.8255Z" fill="#34261E"/>
<path d="M19.4707 21.9498C19.4707 20.9877 19.482 20.0277 19.4685 19.0656C19.4595 18.4833 19.7337 18.2923 20.3003 18.2473C23.1058 18.0292 23.1058 18.0157 23.1216 20.7966C23.1283 22.1229 23.1081 23.4515 23.1463 24.7779C23.1665 25.4973 22.863 25.7378 22.1706 25.7243C18.9582 25.6726 19.5741 26.1132 19.482 23.184C19.4707 22.7726 19.482 22.3612 19.482 21.9498H19.4707Z" fill="#2F2018"/>
<path d="M25.1679 29.8431C25.903 29.8431 26.6404 29.8499 27.3755 29.8409C27.9038 29.8364 28.0769 30.1039 28.1151 30.6075C28.2073 31.8462 28.1039 31.9136 26.8787 32.1496C25.4939 32.4172 24.1361 32.2913 22.7692 32.1092C22.0409 32.0125 21.9892 31.8776 22.0027 30.8143C22.0094 30.2343 22.1106 29.8162 22.8209 29.8364C23.6033 29.8566 24.3856 29.8409 25.1679 29.8409V29.8431Z" fill="#392713"/>
<path d="M24.9996 29.3278C24.3567 29.3278 23.7115 29.3526 23.0708 29.3234C22.3244 29.2896 22.1603 29.0356 22.0772 28.0037C22.0299 27.4058 22.266 26.9224 22.8437 26.8955C24.3544 26.828 25.8741 26.855 27.3871 26.8752C27.8119 26.8797 28.0457 27.1675 28.0727 27.5924C28.0884 27.8689 28.0682 28.1454 28.0862 28.4196C28.1289 29.0536 27.8614 29.3548 27.205 29.3323C26.4721 29.3076 25.7347 29.3256 24.9996 29.3256V29.3278Z" fill="#302219"/>
<path d="M30.2135 21.8913C30.2135 22.6691 30.1753 23.4492 30.2225 24.2248C30.2697 24.9734 29.9325 25.1375 29.2491 25.142C27.5608 25.1532 27.5631 25.1824 27.6215 23.5144C27.6643 22.2802 27.68 21.0438 27.7272 19.8118C27.7609 18.8632 27.7744 18.8452 28.7546 18.8384C30.5283 18.8294 30.299 18.7463 30.263 20.3828C30.2495 20.8864 30.2608 21.39 30.2608 21.8913H30.2135Z" fill="#FBAB01"/>
<path d="M20.0135 21.77C20.0135 21.3114 19.9866 20.8506 20.0203 20.3965C20.0562 19.9109 19.7483 19.2545 20.2181 18.9802C20.8071 18.6362 21.5512 18.8498 22.2301 18.8925C22.4279 18.9038 22.5381 19.0904 22.5403 19.2814C22.5493 21.0664 22.5538 22.8536 22.5516 24.6385C22.5516 24.8903 22.4212 25.0702 22.1424 25.0904C22.0076 25.1016 21.8704 25.1039 21.7333 25.1129C20.0675 25.2073 20.0652 25.2073 20.045 23.555C20.0383 22.9592 20.045 22.3635 20.045 21.77H20.0135Z" fill="#FCB900"/>
<path d="M25.2905 30.4072C25.8368 30.4072 26.3853 30.4117 26.9316 30.4049C27.3048 30.4027 27.5229 30.5308 27.5274 30.9535C27.5318 31.3446 27.3947 31.5627 26.9878 31.5649C25.7559 31.5762 24.5262 31.5896 23.2943 31.5986C22.8537 31.6031 22.6311 31.4098 22.6378 30.9377C22.6446 30.4049 22.9908 30.3824 23.3775 30.3824H25.2905V30.4072Z" fill="#FFB600"/>
<path d="M24.9615 28.7547C24.458 28.7547 23.9544 28.7412 23.4509 28.7592C22.999 28.7772 22.7899 28.6198 22.7877 28.1343C22.7832 27.6712 22.954 27.4868 23.4171 27.4531C24.6086 27.3609 25.7956 27.3946 26.987 27.4396C27.3984 27.4553 27.5468 27.6644 27.5198 28.0556C27.4951 28.3905 27.4614 28.7187 27.023 28.7255C26.3351 28.7367 25.6495 28.73 24.9615 28.73V28.7547Z" fill="#F6D100"/>
<defs>
<clipPath id="clip0_943_324">
<rect width="50.9318" height="41.8677" fill="white"/>
</clipPath>
</defs>
</svg>
