<svg width="25" height="25" viewBox="0 0 25 25" fill="none" xmlns="http://www.w3.org/2000/svg">
<path d="M17.4999 8.85449C18.3283 8.85449 18.9999 8.15494 18.9999 7.29199C18.9999 6.42905 18.3283 5.72949 17.4999 5.72949C16.6715 5.72949 15.9999 6.42905 15.9999 7.29199C15.9999 8.15494 16.6715 8.85449 17.4999 8.85449Z" fill="white"/>
<path d="M16.5 3.125C19.26 3.125 21.5 5.45833 21.5 8.33333V16.6667C21.5 19.5417 19.26 21.875 16.5 21.875H8.49997C5.73997 21.875 3.49997 19.5417 3.49997 16.6667V8.33333C3.49997 5.45833 5.73997 3.125 8.49997 3.125H12.5H16.5Z" stroke="white" stroke-width="1.82692" stroke-linecap="round" stroke-linejoin="round"/>
<path d="M12.4999 8.33301C14.7099 8.33301 16.4999 10.1976 16.4999 12.4997C16.4999 14.8018 14.7099 16.6663 12.4999 16.6663C10.2899 16.6663 8.49988 14.8018 8.49988 12.4997C8.49988 10.1976 10.2899 8.33301 12.4999 8.33301Z" stroke="white" stroke-width="1.82692" stroke-linecap="round" stroke-linejoin="round"/>
</svg>
