<svg width="22" height="20" viewBox="0 0 22 20" fill="none" xmlns="http://www.w3.org/2000/svg">
<path fill-rule="evenodd" clip-rule="evenodd" d="M7.25 4.56812C7.25 3.57355 7.64509 2.61973 8.34835 1.91646C9.05161 1.2132 10.0054 0.818115 11 0.818115C11.9946 0.818115 12.9484 1.2132 13.6517 1.91646C14.3549 2.61973 14.75 3.57355 14.75 4.56812C14.75 5.56268 14.3549 6.5165 13.6517 7.21977C12.9484 7.92303 11.9946 8.31812 11 8.31812C10.0054 8.31812 9.05161 7.92303 8.34835 7.21977C7.64509 6.5165 7.25 5.56268 7.25 4.56812ZM14.75 7.56812C14.75 6.77247 15.0661 6.0094 15.6287 5.44679C16.1913 4.88419 16.9544 4.56812 17.75 4.56812C18.5456 4.56812 19.3087 4.88419 19.8713 5.44679C20.4339 6.0094 20.75 6.77247 20.75 7.56812C20.75 8.36376 20.4339 9.12683 19.8713 9.68944C19.3087 10.252 18.5456 10.5681 17.75 10.5681C16.9544 10.5681 16.1913 10.252 15.6287 9.68944C15.0661 9.12683 14.75 8.36376 14.75 7.56812ZM1.25 7.56812C1.25 6.77247 1.56607 6.0094 2.12868 5.44679C2.69129 4.88419 3.45435 4.56812 4.25 4.56812C5.04565 4.56812 5.80871 4.88419 6.37132 5.44679C6.93393 6.0094 7.25 6.77247 7.25 7.56812C7.25 8.36376 6.93393 9.12683 6.37132 9.68944C5.80871 10.252 5.04565 10.5681 4.25 10.5681C3.45435 10.5681 2.69129 10.252 2.12868 9.68944C1.56607 9.12683 1.25 8.36376 1.25 7.56812ZM5.31 12.9361C5.92017 11.9803 6.76132 11.1936 7.7558 10.6486C8.75027 10.1037 9.866 9.81804 11 9.81812C11.9498 9.81725 12.8891 10.017 13.7564 10.4043C14.6237 10.7916 15.3994 11.3576 16.0327 12.0655C16.6661 12.7733 17.1428 13.6069 17.4317 14.5118C17.7205 15.4166 17.815 16.3722 17.709 17.3161C17.696 17.4334 17.6556 17.5459 17.591 17.6446C17.5263 17.7433 17.4393 17.8254 17.337 17.8841C15.4085 18.9905 13.2233 19.5712 11 19.5681C8.77668 19.5712 6.59151 18.9905 4.663 17.8841C4.56069 17.8254 4.47368 17.7433 4.40904 17.6446C4.34441 17.5459 4.30396 17.4334 4.291 17.3161C4.1241 15.7828 4.48343 14.2383 5.31 12.9361Z" fill="#E9F9FA"/>
<path d="M4.082 12.072L4.046 12.127C3.08526 13.6388 2.6394 15.4209 2.775 17.207C2.17418 17.116 1.58325 16.9687 1.01 16.767L0.895 16.727C0.79219 16.6909 0.70214 16.6256 0.635887 16.5391C0.569633 16.4526 0.530054 16.3487 0.522 16.24L0.512 16.119C0.504 16.0184 0.5 15.918 0.5 15.818C0.50006 14.8526 0.872463 13.9244 1.53968 13.2266C2.20691 12.5288 3.11753 12.1153 4.082 12.072ZM19.226 17.207C19.3628 15.3984 18.9034 13.5948 17.918 12.072C18.4212 12.0946 18.9146 12.2183 19.3689 12.4357C19.8232 12.6531 20.2291 12.9598 20.5623 13.3375C20.8955 13.7152 21.1491 14.1562 21.3082 14.6341C21.4672 15.112 21.5284 15.617 21.488 16.119L21.478 16.24C21.4698 16.3485 21.4301 16.4522 21.3639 16.5386C21.2976 16.6249 21.2077 16.69 21.105 16.726L20.99 16.766C20.4227 16.9674 19.8347 17.1144 19.226 17.207Z" fill="#E9F9FA"/>
</svg>
