<svg width="18" height="15" viewBox="0 0 18 15" fill="none" xmlns="http://www.w3.org/2000/svg">
<path d="M8.79192 11.4295C9.04103 11.4295 9.24984 11.3452 9.41835 11.1767C9.58686 11.0082 9.67112 10.7994 9.67112 10.5503C9.67112 10.3012 9.58686 10.0924 9.41835 9.92388C9.24984 9.75537 9.04103 9.67112 8.79192 9.67112C8.54282 9.67112 8.33401 9.75537 8.1655 9.92388C7.99699 10.0924 7.91273 10.3012 7.91273 10.5503C7.91273 10.7994 7.99699 11.0082 8.1655 11.1767C8.33401 11.3452 8.54282 11.4295 8.79192 11.4295ZM8.79192 7.91273C9.04103 7.91273 9.24984 7.82848 9.41835 7.65996C9.58686 7.49145 9.67112 7.28264 9.67112 7.03354C9.67112 6.78443 9.58686 6.57563 9.41835 6.40711C9.24984 6.2386 9.04103 6.15435 8.79192 6.15435C8.54282 6.15435 8.33401 6.2386 8.1655 6.40711C7.99699 6.57563 7.91273 6.78443 7.91273 7.03354C7.91273 7.28264 7.99699 7.49145 8.1655 7.65996C8.33401 7.82848 8.54282 7.91273 8.79192 7.91273ZM8.79192 4.39596C9.04103 4.39596 9.24984 4.31171 9.41835 4.14319C9.58686 3.97468 9.67112 3.76587 9.67112 3.51677C9.67112 3.26767 9.58686 3.05886 9.41835 2.89035C9.24984 2.72183 9.04103 2.63758 8.79192 2.63758C8.54282 2.63758 8.33401 2.72183 8.1655 2.89035C7.99699 3.05886 7.91273 3.26767 7.91273 3.51677C7.91273 3.76587 7.99699 3.97468 8.1655 4.14319C8.33401 4.31171 8.54282 4.39596 8.79192 4.39596ZM15.8255 14.0671H1.75838C1.27483 14.0671 0.860876 13.8949 0.516526 13.5506C0.172175 13.2062 0 12.7922 0 12.3087V8.79192C0.483556 8.79192 0.897509 8.61975 1.24186 8.2754C1.58621 7.93105 1.75838 7.5171 1.75838 7.03354C1.75838 6.54998 1.58621 6.13603 1.24186 5.79168C0.897509 5.44733 0.483556 5.27515 0 5.27515V1.75838C0 1.27483 0.172175 0.860876 0.516526 0.516526C0.860876 0.172175 1.27483 0 1.75838 0H15.8255C16.309 0 16.723 0.172175 17.0673 0.516526C17.4117 0.860876 17.5838 1.27483 17.5838 1.75838V5.27515C17.1003 5.27515 16.6863 5.44733 16.342 5.79168C15.9976 6.13603 15.8255 6.54998 15.8255 7.03354C15.8255 7.5171 15.9976 7.93105 16.342 8.2754C16.6863 8.61975 17.1003 8.79192 17.5838 8.79192V12.3087C17.5838 12.7922 17.4117 13.2062 17.0673 13.5506C16.723 13.8949 16.309 14.0671 15.8255 14.0671ZM15.8255 12.3087V10.0668C15.2833 9.74438 14.8547 9.31578 14.5396 8.78093C14.2246 8.24609 14.0671 7.66363 14.0671 7.03354C14.0671 6.40345 14.2246 5.82099 14.5396 5.28614C14.8547 4.7513 15.2833 4.3227 15.8255 4.00033V1.75838H1.75838V4.00033C2.30055 4.3227 2.72916 4.7513 3.0442 5.28614C3.35925 5.82099 3.51677 6.40345 3.51677 7.03354C3.51677 7.66363 3.35925 8.24609 3.0442 8.78093C2.72916 9.31578 2.30055 9.74438 1.75838 10.0668V12.3087H15.8255Z" fill="#1F2123"/>
</svg>
