<svg width="26" height="25" viewBox="0 0 26 25" fill="none" xmlns="http://www.w3.org/2000/svg">
<path d="M13.0417 2.08331C7.35422 2.08331 2.7188 6.71872 2.7188 12.4062C2.7188 14.2291 3.19797 16 4.0938 17.5625L2.63547 22.9166L8.10422 21.4791C9.61463 22.3021 11.3126 22.7396 13.0417 22.7396C18.7292 22.7396 23.3646 18.1041 23.3646 12.4166C23.3646 9.65622 22.2917 7.06247 20.3438 5.11456C19.3887 4.15008 18.2511 3.38536 16.9975 2.86494C15.7438 2.34451 14.3991 2.07881 13.0417 2.08331ZM13.0521 3.82289C15.3438 3.82289 17.4896 4.71872 19.1146 6.34372C19.9119 7.14114 20.544 8.08801 20.9748 9.1301C21.4056 10.1722 21.6266 11.289 21.6251 12.4166C21.6251 17.1458 17.7709 20.9896 13.0417 20.9896C11.5001 20.9896 9.98963 20.5833 8.67713 19.7916L8.36463 19.6146L5.11463 20.4687L5.97922 17.3021L5.77088 16.9687C4.91104 15.6025 4.45596 14.0205 4.45838 12.4062C4.4688 7.67706 8.31255 3.82289 13.0521 3.82289ZM9.38547 7.63539C9.2188 7.63539 8.93755 7.69789 8.69797 7.95831C8.4688 8.21872 7.79172 8.85414 7.79172 10.1146C7.79172 11.3854 8.7188 12.6041 8.83338 12.7812C8.97922 12.9583 10.6667 15.5625 13.2605 16.6666C13.8751 16.9479 14.3542 17.1041 14.7292 17.2187C15.3438 17.4166 15.9063 17.3854 16.3542 17.3229C16.8542 17.25 17.875 16.6979 18.0938 16.0937C18.3125 15.4896 18.3126 14.9791 18.2501 14.8646C18.1771 14.7604 18.0105 14.6979 17.75 14.5833C17.4896 14.4375 16.2188 13.8125 15.9896 13.7291C15.75 13.6458 15.6042 13.6041 15.4063 13.8541C15.2396 14.1146 14.7396 14.6979 14.5938 14.8646C14.4375 15.0416 14.2917 15.0625 14.0417 14.9375C13.7709 14.8021 12.9376 14.5312 11.9584 13.6562C11.1876 12.9687 10.6771 12.125 10.5209 11.8646C10.3959 11.6146 10.5105 11.4583 10.6355 11.3437C10.75 11.2291 10.9167 11.0416 11.0209 10.8854C11.1563 10.7396 11.198 10.625 11.2813 10.4583C11.3646 10.2812 11.323 10.1354 11.2605 10.0104C11.198 9.89581 10.6771 8.60414 10.4584 8.09372C10.2501 7.59372 10.0417 7.65622 9.87505 7.64581C9.72922 7.64581 9.56255 7.63539 9.38547 7.63539Z" fill="white"/>
</svg>
