<svg width="200" height="200" viewBox="0 0 200 200" fill="none" xmlns="http://www.w3.org/2000/svg">
<path d="M100.965 16.6666C104.035 16.6667 106.524 19.1553 106.524 22.2252C106.524 22.4112 106.528 22.6547 106.538 22.9528L106.589 24.0104L106.59 24.0231L106.591 24.0367C106.675 25.6065 106.88 28.1435 107.395 31.276L107.579 32.3531C108.571 37.8982 110.622 45.8539 114.878 54.0758C126.261 76.0107 147.169 89.3463 177.751 93.358L179.215 93.5416L179.44 93.5739C181.678 93.9542 183.333 95.8975 183.333 98.1881V101.848C183.333 104.139 181.678 106.081 179.44 106.462L179.215 106.494C147.818 110.268 126.443 123.676 114.879 145.96L114.878 145.959C110.338 154.71 108.307 163.178 107.395 168.741V168.742C106.88 171.874 106.675 174.411 106.591 175.981L106.59 175.994L106.589 176.007C106.539 176.819 106.524 177.419 106.524 177.81V178.733C106.524 181.015 104.853 182.939 102.619 183.278L102.401 183.306L102.316 183.315L102.145 183.333H99.3242C96.1341 183.333 93.5479 180.746 93.5479 177.556C93.5478 177.263 93.5196 176.81 93.4795 175.959V175.958C93.3947 174.435 93.1727 171.904 92.6582 168.736V168.735C91.746 163.16 89.6978 154.695 85.1582 145.962C73.5767 123.677 52.1649 110.268 20.7852 106.494L20.5596 106.462C18.3221 106.081 16.667 104.138 16.667 101.847V98.1881C16.6672 95.8974 18.3223 93.9542 20.5596 93.5739L20.7852 93.5416C52.1822 89.7671 73.5765 76.3586 85.1582 54.0739C89.6984 45.3394 91.7471 36.8547 92.6592 31.278C93.1765 28.0912 93.397 25.5685 93.4805 24.0348C93.5194 23.2122 93.5478 22.7335 93.5479 22.3883C93.5481 19.2284 96.1096 16.6667 99.2695 16.6666H100.965ZM94.9922 163.322C95.1961 164.215 95.3757 165.072 95.5342 165.887L95.2803 164.633C95.19 164.206 95.0941 163.768 94.9922 163.321V163.322ZM91.8457 152.819C92.0491 153.361 92.2439 153.899 92.4307 154.432L92.1445 153.629C92.047 153.36 91.9474 153.089 91.8457 152.818V152.819ZM90.5205 149.514L90.1562 148.675C90.1146 148.581 90.0715 148.488 90.0293 148.393C90.1969 148.768 90.3612 149.142 90.5205 149.514ZM89.8779 148.059C89.7525 147.782 89.6252 147.504 89.4951 147.226C89.6251 147.504 89.7525 147.782 89.8779 148.059ZM89.2979 146.806C89.1602 146.517 89.0188 146.227 88.876 145.936C89.0187 146.227 89.1603 146.517 89.2979 146.806ZM88.7285 145.634C88.5287 145.232 88.3251 144.828 88.1152 144.424C88.3251 144.828 88.5287 145.232 88.7285 145.634ZM87.5029 143.272C87.4292 143.136 87.3528 143.001 87.2783 142.866C87.3528 143.001 87.4292 143.136 87.5029 143.272ZM112.844 142.702C112.753 142.865 112.663 143.029 112.573 143.193C112.663 143.029 112.753 142.865 112.844 142.702ZM113.403 141.706C113.259 141.958 113.116 142.212 112.974 142.466C113.116 142.212 113.259 141.958 113.403 141.706ZM86.8486 142.091C86.768 141.949 86.686 141.807 86.6045 141.665C86.686 141.807 86.768 141.949 86.8486 142.091ZM86.2178 140.996C86.1116 140.815 86.004 140.635 85.8965 140.456C86.004 140.635 86.1116 140.815 86.2178 140.996ZM85.5508 139.883C85.4484 139.716 85.3457 139.549 85.2422 139.382C85.3457 139.549 85.4484 139.716 85.5508 139.883ZM84.8027 138.686C84.7197 138.556 84.6365 138.426 84.5527 138.297C84.6365 138.426 84.7197 138.556 84.8027 138.686ZM84.1182 137.633C84.0206 137.486 83.9237 137.338 83.8252 137.192C83.9237 137.338 84.0206 137.486 84.1182 137.633ZM83.4111 136.586C83.2997 136.424 83.1897 136.261 83.0771 136.1C83.1897 136.261 83.2997 136.424 83.4111 136.586ZM80.9092 133.168V133.167C80.6773 132.869 80.4424 132.575 80.2061 132.282C80.4425 132.575 80.6771 132.87 80.9092 133.168ZM80.1064 132.159C79.9509 131.967 79.7942 131.776 79.6367 131.586C79.7942 131.776 79.9509 131.967 80.1064 132.159ZM75.3418 126.858C75.3545 126.871 75.3672 126.883 75.3799 126.896C75.9412 127.46 76.4927 128.034 77.0342 128.617C77.3049 128.908 77.5731 129.202 77.8389 129.499C78.2494 129.956 78.6541 130.419 79.0527 130.888C77.8681 129.495 76.631 128.152 75.3418 126.858ZM73.9932 125.542C73.8546 125.41 73.7158 125.279 73.5762 125.148C73.7158 125.279 73.8547 125.41 73.9932 125.542ZM73.2852 124.879C73.1571 124.76 73.0284 124.642 72.8994 124.525C73.0284 124.642 73.1571 124.76 73.2852 124.879ZM72.7139 124.356C72.5434 124.202 72.3723 124.049 72.2002 123.896C72.3723 124.049 72.5434 124.202 72.7139 124.356ZM72.0654 123.777C71.8637 123.599 71.661 123.422 71.457 123.247C71.661 123.422 71.8637 123.599 72.0654 123.777ZM71.4072 123.204C71.2243 123.047 71.0402 122.89 70.8555 122.735C71.0402 122.89 71.2243 123.047 71.4072 123.204ZM70.7197 122.621C70.5558 122.483 70.3909 122.347 70.2256 122.212C70.3909 122.347 70.5559 122.483 70.7197 122.621ZM68.583 120.9C68.8432 121.101 69.1015 121.305 69.3584 121.509C69.1014 121.305 68.8433 121.101 68.583 120.9ZM67.709 120.236C67.5645 120.128 67.4199 120.019 67.2744 119.912C67.4199 120.019 67.5645 120.128 67.709 120.236ZM67.0908 119.777C66.8536 119.603 66.6148 119.431 66.375 119.259C66.6148 119.431 66.8536 119.603 67.0908 119.777ZM65.1826 118.424C65.4985 118.641 65.8125 118.859 66.124 119.08C65.8125 118.859 65.4985 118.641 65.1826 118.424ZM32.9717 105.142L32.8018 105.105C32.7157 105.087 32.6292 105.07 32.543 105.051C32.6861 105.082 32.829 105.112 32.9717 105.142ZM31.6299 104.862C31.5037 104.836 31.3775 104.81 31.251 104.785C31.3775 104.81 31.5037 104.836 31.6299 104.862ZM178.816 96.8512C178.859 96.8564 178.901 96.8638 178.941 96.8727C178.901 96.8638 178.859 96.8564 178.817 96.8512C178.254 96.7834 177.693 96.7112 177.136 96.6373C177.693 96.7112 178.253 96.7834 178.816 96.8512ZM143.288 86.6373C143.413 86.7014 143.539 86.7633 143.665 86.8268C143.453 86.7194 143.241 86.6111 143.03 86.5026L143.288 86.6373ZM86.7676 58.0885C86.825 57.9874 86.8844 57.8873 86.9414 57.7858L86.9502 57.7692C86.8902 57.8762 86.8281 57.9819 86.7676 58.0885ZM79.5586 131.491C79.3909 131.289 79.2225 131.088 79.0527 130.888C79.2226 131.088 79.3909 131.289 79.5586 131.491ZM74.6904 126.214C74.5117 126.039 74.3321 125.865 74.1514 125.692C74.3321 125.865 74.5117 126.039 74.6904 126.214ZM74.6904 126.214C74.7163 126.239 74.7427 126.263 74.7686 126.289C74.7427 126.263 74.7163 126.239 74.6904 126.214ZM68.583 120.9C68.3824 120.745 68.181 120.59 67.9785 120.437C68.181 120.59 68.3824 120.745 68.583 120.9ZM65.1826 118.424C64.91 118.238 64.6352 118.053 64.3594 117.87C64.6352 118.053 64.91 118.238 65.1826 118.424ZM63.1396 117.074C62.8433 116.885 62.5451 116.698 62.2451 116.512C62.545 116.698 62.8433 116.885 63.1396 117.074Z" fill="white"/>
<path d="M100.965 16.6666C104.035 16.6667 106.524 19.1553 106.524 22.2252C106.524 22.4112 106.528 22.6547 106.538 22.9528L106.589 24.0104L106.59 24.0231L106.591 24.0367C106.675 25.6065 106.88 28.1435 107.395 31.276L107.579 32.3531C108.571 37.8982 110.622 45.8539 114.878 54.0758C126.261 76.0107 147.169 89.3463 177.751 93.358L179.215 93.5416L179.44 93.5739C181.678 93.9542 183.333 95.8975 183.333 98.1881V101.848C183.333 104.139 181.678 106.081 179.44 106.462L179.215 106.494C147.818 110.268 126.443 123.676 114.879 145.96L114.878 145.959C110.338 154.71 108.307 163.178 107.395 168.741V168.742C106.88 171.874 106.675 174.411 106.591 175.981L106.59 175.994L106.589 176.007C106.539 176.819 106.524 177.419 106.524 177.81V178.733C106.524 181.015 104.853 182.939 102.619 183.278L102.401 183.306L102.316 183.315L102.145 183.333H99.3242C96.1341 183.333 93.5479 180.746 93.5479 177.556C93.5478 177.263 93.5196 176.81 93.4795 175.959V175.958C93.3947 174.435 93.1727 171.904 92.6582 168.736V168.735C91.746 163.16 89.6978 154.695 85.1582 145.962C73.5767 123.677 52.1649 110.268 20.7852 106.494L20.5596 106.462C18.3221 106.081 16.667 104.138 16.667 101.847V98.1881C16.6672 95.8974 18.3223 93.9542 20.5596 93.5739L20.7852 93.5416C52.1822 89.7671 73.5765 76.3586 85.1582 54.0739C89.6984 45.3394 91.7471 36.8547 92.6592 31.278C93.1765 28.0912 93.397 25.5685 93.4805 24.0348C93.5194 23.2122 93.5478 22.7335 93.5479 22.3883C93.5481 19.2284 96.1096 16.6667 99.2695 16.6666H100.965ZM94.9922 163.322C95.1961 164.215 95.3757 165.072 95.5342 165.887L95.2803 164.633C95.19 164.206 95.0941 163.768 94.9922 163.321V163.322ZM91.8457 152.819C92.0491 153.361 92.2439 153.899 92.4307 154.432L92.1445 153.629C92.047 153.36 91.9474 153.089 91.8457 152.818V152.819ZM90.5205 149.514L90.1562 148.675C90.1146 148.581 90.0715 148.488 90.0293 148.393C90.1969 148.768 90.3612 149.142 90.5205 149.514ZM89.8779 148.059C89.7525 147.782 89.6252 147.504 89.4951 147.226C89.6251 147.504 89.7525 147.782 89.8779 148.059ZM89.2979 146.806C89.1602 146.517 89.0188 146.227 88.876 145.936C89.0187 146.227 89.1603 146.517 89.2979 146.806ZM88.7285 145.634C88.5287 145.232 88.3251 144.828 88.1152 144.424C88.3251 144.828 88.5287 145.232 88.7285 145.634ZM87.5029 143.272C87.4292 143.136 87.3528 143.001 87.2783 142.866C87.3528 143.001 87.4292 143.136 87.5029 143.272ZM112.844 142.702C112.753 142.865 112.663 143.029 112.573 143.193C112.663 143.029 112.753 142.865 112.844 142.702ZM113.403 141.706C113.259 141.958 113.116 142.212 112.974 142.466C113.116 142.212 113.259 141.958 113.403 141.706ZM86.8486 142.091C86.768 141.949 86.686 141.807 86.6045 141.665C86.686 141.807 86.768 141.949 86.8486 142.091ZM86.2178 140.996C86.1116 140.815 86.004 140.635 85.8965 140.456C86.004 140.635 86.1116 140.815 86.2178 140.996ZM85.5508 139.883C85.4484 139.716 85.3457 139.549 85.2422 139.382C85.3457 139.549 85.4484 139.716 85.5508 139.883ZM84.8027 138.686C84.7197 138.556 84.6365 138.426 84.5527 138.297C84.6365 138.426 84.7197 138.556 84.8027 138.686ZM84.1182 137.633C84.0206 137.486 83.9237 137.338 83.8252 137.192C83.9237 137.338 84.0206 137.486 84.1182 137.633ZM83.4111 136.586C83.2997 136.424 83.1897 136.261 83.0771 136.1C83.1897 136.261 83.2997 136.424 83.4111 136.586ZM80.9092 133.168V133.167C80.6773 132.869 80.4424 132.575 80.2061 132.282C80.4425 132.575 80.6771 132.87 80.9092 133.168ZM80.1064 132.159C79.9509 131.967 79.7942 131.776 79.6367 131.586C79.7942 131.776 79.9509 131.967 80.1064 132.159ZM75.3418 126.858C75.3545 126.871 75.3672 126.883 75.3799 126.896C75.9412 127.46 76.4927 128.034 77.0342 128.617C77.3049 128.908 77.5731 129.202 77.8389 129.499C78.2494 129.956 78.6541 130.419 79.0527 130.888C77.8681 129.495 76.631 128.152 75.3418 126.858ZM73.9932 125.542C73.8546 125.41 73.7158 125.279 73.5762 125.148C73.7158 125.279 73.8547 125.41 73.9932 125.542ZM73.2852 124.879C73.1571 124.76 73.0284 124.642 72.8994 124.525C73.0284 124.642 73.1571 124.76 73.2852 124.879ZM72.7139 124.356C72.5434 124.202 72.3723 124.049 72.2002 123.896C72.3723 124.049 72.5434 124.202 72.7139 124.356ZM72.0654 123.777C71.8637 123.599 71.661 123.422 71.457 123.247C71.661 123.422 71.8637 123.599 72.0654 123.777ZM71.4072 123.204C71.2243 123.047 71.0402 122.89 70.8555 122.735C71.0402 122.89 71.2243 123.047 71.4072 123.204ZM70.7197 122.621C70.5558 122.483 70.3909 122.347 70.2256 122.212C70.3909 122.347 70.5559 122.483 70.7197 122.621ZM68.583 120.9C68.8432 121.101 69.1015 121.305 69.3584 121.509C69.1014 121.305 68.8433 121.101 68.583 120.9ZM67.709 120.236C67.5645 120.128 67.4199 120.019 67.2744 119.912C67.4199 120.019 67.5645 120.128 67.709 120.236ZM67.0908 119.777C66.8536 119.603 66.6148 119.431 66.375 119.259C66.6148 119.431 66.8536 119.603 67.0908 119.777ZM65.1826 118.424C65.4985 118.641 65.8125 118.859 66.124 119.08C65.8125 118.859 65.4985 118.641 65.1826 118.424ZM32.9717 105.142L32.8018 105.105C32.7157 105.087 32.6292 105.07 32.543 105.051C32.6861 105.082 32.829 105.112 32.9717 105.142ZM31.6299 104.862C31.5037 104.836 31.3775 104.81 31.251 104.785C31.3775 104.81 31.5037 104.836 31.6299 104.862ZM178.816 96.8512C178.859 96.8564 178.901 96.8638 178.941 96.8727C178.901 96.8638 178.859 96.8564 178.817 96.8512C178.254 96.7834 177.693 96.7112 177.136 96.6373C177.693 96.7112 178.253 96.7834 178.816 96.8512ZM143.288 86.6373C143.413 86.7014 143.539 86.7633 143.665 86.8268C143.453 86.7194 143.241 86.6111 143.03 86.5026L143.288 86.6373ZM86.7676 58.0885C86.825 57.9874 86.8844 57.8873 86.9414 57.7858L86.9502 57.7692C86.8902 57.8762 86.8281 57.9819 86.7676 58.0885ZM79.5586 131.491C79.3909 131.289 79.2225 131.088 79.0527 130.888C79.2226 131.088 79.3909 131.289 79.5586 131.491ZM74.6904 126.214C74.5117 126.039 74.3321 125.865 74.1514 125.692C74.3321 125.865 74.5117 126.039 74.6904 126.214ZM74.6904 126.214C74.7163 126.239 74.7427 126.263 74.7686 126.289C74.7427 126.263 74.7163 126.239 74.6904 126.214ZM68.583 120.9C68.3824 120.745 68.181 120.59 67.9785 120.437C68.181 120.59 68.3824 120.745 68.583 120.9ZM65.1826 118.424C64.91 118.238 64.6352 118.053 64.3594 117.87C64.6352 118.053 64.91 118.238 65.1826 118.424ZM63.1396 117.074C62.8433 116.885 62.5451 116.698 62.2451 116.512C62.545 116.698 62.8433 116.885 63.1396 117.074Z" fill="url(#paint0_radial_1307_1813)"/>
<path d="M100.965 16.6666C104.035 16.6667 106.524 19.1553 106.524 22.2252C106.524 22.4112 106.528 22.6547 106.538 22.9528L106.589 24.0104L106.59 24.0231L106.591 24.0367C106.675 25.6065 106.88 28.1435 107.395 31.276L107.579 32.3531C108.571 37.8982 110.622 45.8539 114.878 54.0758C126.261 76.0107 147.169 89.3463 177.751 93.358L179.215 93.5416L179.44 93.5739C181.678 93.9542 183.333 95.8975 183.333 98.1881V101.848C183.333 104.139 181.678 106.081 179.44 106.462L179.215 106.494C147.818 110.268 126.443 123.676 114.879 145.96L114.878 145.959C110.338 154.71 108.307 163.178 107.395 168.741V168.742C106.88 171.874 106.675 174.411 106.591 175.981L106.59 175.994L106.589 176.007C106.539 176.819 106.524 177.419 106.524 177.81V178.733C106.524 181.015 104.853 182.939 102.619 183.278L102.401 183.306L102.316 183.315L102.145 183.333H99.3242C96.1341 183.333 93.5479 180.746 93.5479 177.556C93.5478 177.263 93.5196 176.81 93.4795 175.959V175.958C93.3947 174.435 93.1727 171.904 92.6582 168.736V168.735C91.746 163.16 89.6978 154.695 85.1582 145.962C73.5767 123.677 52.1649 110.268 20.7852 106.494L20.5596 106.462C18.3221 106.081 16.667 104.138 16.667 101.847V98.1881C16.6672 95.8974 18.3223 93.9542 20.5596 93.5739L20.7852 93.5416C52.1822 89.7671 73.5765 76.3586 85.1582 54.0739C89.6984 45.3394 91.7471 36.8547 92.6592 31.278C93.1765 28.0912 93.397 25.5685 93.4805 24.0348C93.5194 23.2122 93.5478 22.7335 93.5479 22.3883C93.5481 19.2284 96.1096 16.6667 99.2695 16.6666H100.965ZM94.9922 163.322C95.1961 164.215 95.3757 165.072 95.5342 165.887L95.2803 164.633C95.19 164.206 95.0941 163.768 94.9922 163.321V163.322ZM91.8457 152.819C92.0491 153.361 92.2439 153.899 92.4307 154.432L92.1445 153.629C92.047 153.36 91.9474 153.089 91.8457 152.818V152.819ZM90.5205 149.514L90.1562 148.675C90.1146 148.581 90.0715 148.488 90.0293 148.393C90.1969 148.768 90.3612 149.142 90.5205 149.514ZM89.8779 148.059C89.7525 147.782 89.6252 147.504 89.4951 147.226C89.6251 147.504 89.7525 147.782 89.8779 148.059ZM89.2979 146.806C89.1602 146.517 89.0188 146.227 88.876 145.936C89.0187 146.227 89.1603 146.517 89.2979 146.806ZM88.7285 145.634C88.5287 145.232 88.3251 144.828 88.1152 144.424C88.3251 144.828 88.5287 145.232 88.7285 145.634ZM87.5029 143.272C87.4292 143.136 87.3528 143.001 87.2783 142.866C87.3528 143.001 87.4292 143.136 87.5029 143.272ZM112.844 142.702C112.753 142.865 112.663 143.029 112.573 143.193C112.663 143.029 112.753 142.865 112.844 142.702ZM113.403 141.706C113.259 141.958 113.116 142.212 112.974 142.466C113.116 142.212 113.259 141.958 113.403 141.706ZM86.8486 142.091C86.768 141.949 86.686 141.807 86.6045 141.665C86.686 141.807 86.768 141.949 86.8486 142.091ZM86.2178 140.996C86.1116 140.815 86.004 140.635 85.8965 140.456C86.004 140.635 86.1116 140.815 86.2178 140.996ZM85.5508 139.883C85.4484 139.716 85.3457 139.549 85.2422 139.382C85.3457 139.549 85.4484 139.716 85.5508 139.883ZM84.8027 138.686C84.7197 138.556 84.6365 138.426 84.5527 138.297C84.6365 138.426 84.7197 138.556 84.8027 138.686ZM84.1182 137.633C84.0206 137.486 83.9237 137.338 83.8252 137.192C83.9237 137.338 84.0206 137.486 84.1182 137.633ZM83.4111 136.586C83.2997 136.424 83.1897 136.261 83.0771 136.1C83.1897 136.261 83.2997 136.424 83.4111 136.586ZM80.9092 133.168V133.167C80.6773 132.869 80.4424 132.575 80.2061 132.282C80.4425 132.575 80.6771 132.87 80.9092 133.168ZM80.1064 132.159C79.9509 131.967 79.7942 131.776 79.6367 131.586C79.7942 131.776 79.9509 131.967 80.1064 132.159ZM75.3418 126.858C75.3545 126.871 75.3672 126.883 75.3799 126.896C75.9412 127.46 76.4927 128.034 77.0342 128.617C77.3049 128.908 77.5731 129.202 77.8389 129.499C78.2494 129.956 78.6541 130.419 79.0527 130.888C77.8681 129.495 76.631 128.152 75.3418 126.858ZM73.9932 125.542C73.8546 125.41 73.7158 125.279 73.5762 125.148C73.7158 125.279 73.8547 125.41 73.9932 125.542ZM73.2852 124.879C73.1571 124.76 73.0284 124.642 72.8994 124.525C73.0284 124.642 73.1571 124.76 73.2852 124.879ZM72.7139 124.356C72.5434 124.202 72.3723 124.049 72.2002 123.896C72.3723 124.049 72.5434 124.202 72.7139 124.356ZM72.0654 123.777C71.8637 123.599 71.661 123.422 71.457 123.247C71.661 123.422 71.8637 123.599 72.0654 123.777ZM71.4072 123.204C71.2243 123.047 71.0402 122.89 70.8555 122.735C71.0402 122.89 71.2243 123.047 71.4072 123.204ZM70.7197 122.621C70.5558 122.483 70.3909 122.347 70.2256 122.212C70.3909 122.347 70.5559 122.483 70.7197 122.621ZM68.583 120.9C68.8432 121.101 69.1015 121.305 69.3584 121.509C69.1014 121.305 68.8433 121.101 68.583 120.9ZM67.709 120.236C67.5645 120.128 67.4199 120.019 67.2744 119.912C67.4199 120.019 67.5645 120.128 67.709 120.236ZM67.0908 119.777C66.8536 119.603 66.6148 119.431 66.375 119.259C66.6148 119.431 66.8536 119.603 67.0908 119.777ZM65.1826 118.424C65.4985 118.641 65.8125 118.859 66.124 119.08C65.8125 118.859 65.4985 118.641 65.1826 118.424ZM32.9717 105.142L32.8018 105.105C32.7157 105.087 32.6292 105.07 32.543 105.051C32.6861 105.082 32.829 105.112 32.9717 105.142ZM31.6299 104.862C31.5037 104.836 31.3775 104.81 31.251 104.785C31.3775 104.81 31.5037 104.836 31.6299 104.862ZM178.816 96.8512C178.859 96.8564 178.901 96.8638 178.941 96.8727C178.901 96.8638 178.859 96.8564 178.817 96.8512C178.254 96.7834 177.693 96.7112 177.136 96.6373C177.693 96.7112 178.253 96.7834 178.816 96.8512ZM143.288 86.6373C143.413 86.7014 143.539 86.7633 143.665 86.8268C143.453 86.7194 143.241 86.6111 143.03 86.5026L143.288 86.6373ZM86.7676 58.0885C86.825 57.9874 86.8844 57.8873 86.9414 57.7858L86.9502 57.7692C86.8902 57.8762 86.8281 57.9819 86.7676 58.0885ZM79.5586 131.491C79.3909 131.289 79.2225 131.088 79.0527 130.888C79.2226 131.088 79.3909 131.289 79.5586 131.491ZM74.6904 126.214C74.5117 126.039 74.3321 125.865 74.1514 125.692C74.3321 125.865 74.5117 126.039 74.6904 126.214ZM74.6904 126.214C74.7163 126.239 74.7427 126.263 74.7686 126.289C74.7427 126.263 74.7163 126.239 74.6904 126.214ZM68.583 120.9C68.3824 120.745 68.181 120.59 67.9785 120.437C68.181 120.59 68.3824 120.745 68.583 120.9ZM65.1826 118.424C64.91 118.238 64.6352 118.053 64.3594 117.87C64.6352 118.053 64.91 118.238 65.1826 118.424ZM63.1396 117.074C62.8433 116.885 62.5451 116.698 62.2451 116.512C62.545 116.698 62.8433 116.885 63.1396 117.074Z" fill="url(#paint1_radial_1307_1813)"/>
<path d="M100.965 16.6666C104.035 16.6667 106.524 19.1553 106.524 22.2252C106.524 22.4112 106.528 22.6547 106.538 22.9528L106.589 24.0104L106.59 24.0231L106.591 24.0367C106.675 25.6065 106.88 28.1435 107.395 31.276L107.579 32.3531C108.571 37.8982 110.622 45.8539 114.878 54.0758C126.261 76.0107 147.169 89.3463 177.751 93.358L179.215 93.5416L179.44 93.5739C181.678 93.9542 183.333 95.8975 183.333 98.1881V101.848C183.333 104.139 181.678 106.081 179.44 106.462L179.215 106.494C147.818 110.268 126.443 123.676 114.879 145.96L114.878 145.959C110.338 154.71 108.307 163.178 107.395 168.741V168.742C106.88 171.874 106.675 174.411 106.591 175.981L106.59 175.994L106.589 176.007C106.539 176.819 106.524 177.419 106.524 177.81V178.733C106.524 181.015 104.853 182.939 102.619 183.278L102.401 183.306L102.316 183.315L102.145 183.333H99.3242C96.1341 183.333 93.5479 180.746 93.5479 177.556C93.5478 177.263 93.5196 176.81 93.4795 175.959V175.958C93.3947 174.435 93.1727 171.904 92.6582 168.736V168.735C91.746 163.16 89.6978 154.695 85.1582 145.962C73.5767 123.677 52.1649 110.268 20.7852 106.494L20.5596 106.462C18.3221 106.081 16.667 104.138 16.667 101.847V98.1881C16.6672 95.8974 18.3223 93.9542 20.5596 93.5739L20.7852 93.5416C52.1822 89.7671 73.5765 76.3586 85.1582 54.0739C89.6984 45.3394 91.7471 36.8547 92.6592 31.278C93.1765 28.0912 93.397 25.5685 93.4805 24.0348C93.5194 23.2122 93.5478 22.7335 93.5479 22.3883C93.5481 19.2284 96.1096 16.6667 99.2695 16.6666H100.965ZM94.9922 163.322C95.1961 164.215 95.3757 165.072 95.5342 165.887L95.2803 164.633C95.19 164.206 95.0941 163.768 94.9922 163.321V163.322ZM91.8457 152.819C92.0491 153.361 92.2439 153.899 92.4307 154.432L92.1445 153.629C92.047 153.36 91.9474 153.089 91.8457 152.818V152.819ZM90.5205 149.514L90.1562 148.675C90.1146 148.581 90.0715 148.488 90.0293 148.393C90.1969 148.768 90.3612 149.142 90.5205 149.514ZM89.8779 148.059C89.7525 147.782 89.6252 147.504 89.4951 147.226C89.6251 147.504 89.7525 147.782 89.8779 148.059ZM89.2979 146.806C89.1602 146.517 89.0188 146.227 88.876 145.936C89.0187 146.227 89.1603 146.517 89.2979 146.806ZM88.7285 145.634C88.5287 145.232 88.3251 144.828 88.1152 144.424C88.3251 144.828 88.5287 145.232 88.7285 145.634ZM87.5029 143.272C87.4292 143.136 87.3528 143.001 87.2783 142.866C87.3528 143.001 87.4292 143.136 87.5029 143.272ZM112.844 142.702C112.753 142.865 112.663 143.029 112.573 143.193C112.663 143.029 112.753 142.865 112.844 142.702ZM113.403 141.706C113.259 141.958 113.116 142.212 112.974 142.466C113.116 142.212 113.259 141.958 113.403 141.706ZM86.8486 142.091C86.768 141.949 86.686 141.807 86.6045 141.665C86.686 141.807 86.768 141.949 86.8486 142.091ZM86.2178 140.996C86.1116 140.815 86.004 140.635 85.8965 140.456C86.004 140.635 86.1116 140.815 86.2178 140.996ZM85.5508 139.883C85.4484 139.716 85.3457 139.549 85.2422 139.382C85.3457 139.549 85.4484 139.716 85.5508 139.883ZM84.8027 138.686C84.7197 138.556 84.6365 138.426 84.5527 138.297C84.6365 138.426 84.7197 138.556 84.8027 138.686ZM84.1182 137.633C84.0206 137.486 83.9237 137.338 83.8252 137.192C83.9237 137.338 84.0206 137.486 84.1182 137.633ZM83.4111 136.586C83.2997 136.424 83.1897 136.261 83.0771 136.1C83.1897 136.261 83.2997 136.424 83.4111 136.586ZM80.9092 133.168V133.167C80.6773 132.869 80.4424 132.575 80.2061 132.282C80.4425 132.575 80.6771 132.87 80.9092 133.168ZM80.1064 132.159C79.9509 131.967 79.7942 131.776 79.6367 131.586C79.7942 131.776 79.9509 131.967 80.1064 132.159ZM75.3418 126.858C75.3545 126.871 75.3672 126.883 75.3799 126.896C75.9412 127.46 76.4927 128.034 77.0342 128.617C77.3049 128.908 77.5731 129.202 77.8389 129.499C78.2494 129.956 78.6541 130.419 79.0527 130.888C77.8681 129.495 76.631 128.152 75.3418 126.858ZM73.9932 125.542C73.8546 125.41 73.7158 125.279 73.5762 125.148C73.7158 125.279 73.8547 125.41 73.9932 125.542ZM73.2852 124.879C73.1571 124.76 73.0284 124.642 72.8994 124.525C73.0284 124.642 73.1571 124.76 73.2852 124.879ZM72.7139 124.356C72.5434 124.202 72.3723 124.049 72.2002 123.896C72.3723 124.049 72.5434 124.202 72.7139 124.356ZM72.0654 123.777C71.8637 123.599 71.661 123.422 71.457 123.247C71.661 123.422 71.8637 123.599 72.0654 123.777ZM71.4072 123.204C71.2243 123.047 71.0402 122.89 70.8555 122.735C71.0402 122.89 71.2243 123.047 71.4072 123.204ZM70.7197 122.621C70.5558 122.483 70.3909 122.347 70.2256 122.212C70.3909 122.347 70.5559 122.483 70.7197 122.621ZM68.583 120.9C68.8432 121.101 69.1015 121.305 69.3584 121.509C69.1014 121.305 68.8433 121.101 68.583 120.9ZM67.709 120.236C67.5645 120.128 67.4199 120.019 67.2744 119.912C67.4199 120.019 67.5645 120.128 67.709 120.236ZM67.0908 119.777C66.8536 119.603 66.6148 119.431 66.375 119.259C66.6148 119.431 66.8536 119.603 67.0908 119.777ZM65.1826 118.424C65.4985 118.641 65.8125 118.859 66.124 119.08C65.8125 118.859 65.4985 118.641 65.1826 118.424ZM32.9717 105.142L32.8018 105.105C32.7157 105.087 32.6292 105.07 32.543 105.051C32.6861 105.082 32.829 105.112 32.9717 105.142ZM31.6299 104.862C31.5037 104.836 31.3775 104.81 31.251 104.785C31.3775 104.81 31.5037 104.836 31.6299 104.862ZM178.816 96.8512C178.859 96.8564 178.901 96.8638 178.941 96.8727C178.901 96.8638 178.859 96.8564 178.817 96.8512C178.254 96.7834 177.693 96.7112 177.136 96.6373C177.693 96.7112 178.253 96.7834 178.816 96.8512ZM143.288 86.6373C143.413 86.7014 143.539 86.7633 143.665 86.8268C143.453 86.7194 143.241 86.6111 143.03 86.5026L143.288 86.6373ZM86.7676 58.0885C86.825 57.9874 86.8844 57.8873 86.9414 57.7858L86.9502 57.7692C86.8902 57.8762 86.8281 57.9819 86.7676 58.0885ZM79.5586 131.491C79.3909 131.289 79.2225 131.088 79.0527 130.888C79.2226 131.088 79.3909 131.289 79.5586 131.491ZM74.6904 126.214C74.5117 126.039 74.3321 125.865 74.1514 125.692C74.3321 125.865 74.5117 126.039 74.6904 126.214ZM74.6904 126.214C74.7163 126.239 74.7427 126.263 74.7686 126.289C74.7427 126.263 74.7163 126.239 74.6904 126.214ZM68.583 120.9C68.3824 120.745 68.181 120.59 67.9785 120.437C68.181 120.59 68.3824 120.745 68.583 120.9ZM65.1826 118.424C64.91 118.238 64.6352 118.053 64.3594 117.87C64.6352 118.053 64.91 118.238 65.1826 118.424ZM63.1396 117.074C62.8433 116.885 62.5451 116.698 62.2451 116.512C62.545 116.698 62.8433 116.885 63.1396 117.074Z" fill="url(#paint2_radial_1307_1813)"/>
<path d="M100.965 16.6666C104.035 16.6667 106.524 19.1553 106.524 22.2252C106.524 22.4112 106.528 22.6547 106.538 22.9528L106.589 24.0104L106.59 24.0231L106.591 24.0367C106.675 25.6065 106.88 28.1435 107.395 31.276L107.579 32.3531C108.571 37.8982 110.622 45.8539 114.878 54.0758C126.261 76.0107 147.169 89.3463 177.751 93.358L179.215 93.5416L179.44 93.5739C181.678 93.9542 183.333 95.8975 183.333 98.1881V101.848C183.333 104.139 181.678 106.081 179.44 106.462L179.215 106.494C147.818 110.268 126.443 123.676 114.879 145.96L114.878 145.959C110.338 154.71 108.307 163.178 107.395 168.741V168.742C106.88 171.874 106.675 174.411 106.591 175.981L106.59 175.994L106.589 176.007C106.539 176.819 106.524 177.419 106.524 177.81V178.733C106.524 181.015 104.853 182.939 102.619 183.278L102.401 183.306L102.316 183.315L102.145 183.333H99.3242C96.1341 183.333 93.5479 180.746 93.5479 177.556C93.5478 177.263 93.5196 176.81 93.4795 175.959V175.958C93.3947 174.435 93.1727 171.904 92.6582 168.736V168.735C91.746 163.16 89.6978 154.695 85.1582 145.962C73.5767 123.677 52.1649 110.268 20.7852 106.494L20.5596 106.462C18.3221 106.081 16.667 104.138 16.667 101.847V98.1881C16.6672 95.8974 18.3223 93.9542 20.5596 93.5739L20.7852 93.5416C52.1822 89.7671 73.5765 76.3586 85.1582 54.0739C89.6984 45.3394 91.7471 36.8547 92.6592 31.278C93.1765 28.0912 93.397 25.5685 93.4805 24.0348C93.5194 23.2122 93.5478 22.7335 93.5479 22.3883C93.5481 19.2284 96.1096 16.6667 99.2695 16.6666H100.965ZM94.9922 163.322C95.1961 164.215 95.3757 165.072 95.5342 165.887L95.2803 164.633C95.19 164.206 95.0941 163.768 94.9922 163.321V163.322ZM91.8457 152.819C92.0491 153.361 92.2439 153.899 92.4307 154.432L92.1445 153.629C92.047 153.36 91.9474 153.089 91.8457 152.818V152.819ZM90.5205 149.514L90.1562 148.675C90.1146 148.581 90.0715 148.488 90.0293 148.393C90.1969 148.768 90.3612 149.142 90.5205 149.514ZM89.8779 148.059C89.7525 147.782 89.6252 147.504 89.4951 147.226C89.6251 147.504 89.7525 147.782 89.8779 148.059ZM89.2979 146.806C89.1602 146.517 89.0188 146.227 88.876 145.936C89.0187 146.227 89.1603 146.517 89.2979 146.806ZM88.7285 145.634C88.5287 145.232 88.3251 144.828 88.1152 144.424C88.3251 144.828 88.5287 145.232 88.7285 145.634ZM87.5029 143.272C87.4292 143.136 87.3528 143.001 87.2783 142.866C87.3528 143.001 87.4292 143.136 87.5029 143.272ZM112.844 142.702C112.753 142.865 112.663 143.029 112.573 143.193C112.663 143.029 112.753 142.865 112.844 142.702ZM113.403 141.706C113.259 141.958 113.116 142.212 112.974 142.466C113.116 142.212 113.259 141.958 113.403 141.706ZM86.8486 142.091C86.768 141.949 86.686 141.807 86.6045 141.665C86.686 141.807 86.768 141.949 86.8486 142.091ZM86.2178 140.996C86.1116 140.815 86.004 140.635 85.8965 140.456C86.004 140.635 86.1116 140.815 86.2178 140.996ZM85.5508 139.883C85.4484 139.716 85.3457 139.549 85.2422 139.382C85.3457 139.549 85.4484 139.716 85.5508 139.883ZM84.8027 138.686C84.7197 138.556 84.6365 138.426 84.5527 138.297C84.6365 138.426 84.7197 138.556 84.8027 138.686ZM84.1182 137.633C84.0206 137.486 83.9237 137.338 83.8252 137.192C83.9237 137.338 84.0206 137.486 84.1182 137.633ZM83.4111 136.586C83.2997 136.424 83.1897 136.261 83.0771 136.1C83.1897 136.261 83.2997 136.424 83.4111 136.586ZM80.9092 133.168V133.167C80.6773 132.869 80.4424 132.575 80.2061 132.282C80.4425 132.575 80.6771 132.87 80.9092 133.168ZM80.1064 132.159C79.9509 131.967 79.7942 131.776 79.6367 131.586C79.7942 131.776 79.9509 131.967 80.1064 132.159ZM75.3418 126.858C75.3545 126.871 75.3672 126.883 75.3799 126.896C75.9412 127.46 76.4927 128.034 77.0342 128.617C77.3049 128.908 77.5731 129.202 77.8389 129.499C78.2494 129.956 78.6541 130.419 79.0527 130.888C77.8681 129.495 76.631 128.152 75.3418 126.858ZM73.9932 125.542C73.8546 125.41 73.7158 125.279 73.5762 125.148C73.7158 125.279 73.8547 125.41 73.9932 125.542ZM73.2852 124.879C73.1571 124.76 73.0284 124.642 72.8994 124.525C73.0284 124.642 73.1571 124.76 73.2852 124.879ZM72.7139 124.356C72.5434 124.202 72.3723 124.049 72.2002 123.896C72.3723 124.049 72.5434 124.202 72.7139 124.356ZM72.0654 123.777C71.8637 123.599 71.661 123.422 71.457 123.247C71.661 123.422 71.8637 123.599 72.0654 123.777ZM71.4072 123.204C71.2243 123.047 71.0402 122.89 70.8555 122.735C71.0402 122.89 71.2243 123.047 71.4072 123.204ZM70.7197 122.621C70.5558 122.483 70.3909 122.347 70.2256 122.212C70.3909 122.347 70.5559 122.483 70.7197 122.621ZM68.583 120.9C68.8432 121.101 69.1015 121.305 69.3584 121.509C69.1014 121.305 68.8433 121.101 68.583 120.9ZM67.709 120.236C67.5645 120.128 67.4199 120.019 67.2744 119.912C67.4199 120.019 67.5645 120.128 67.709 120.236ZM67.0908 119.777C66.8536 119.603 66.6148 119.431 66.375 119.259C66.6148 119.431 66.8536 119.603 67.0908 119.777ZM65.1826 118.424C65.4985 118.641 65.8125 118.859 66.124 119.08C65.8125 118.859 65.4985 118.641 65.1826 118.424ZM32.9717 105.142L32.8018 105.105C32.7157 105.087 32.6292 105.07 32.543 105.051C32.6861 105.082 32.829 105.112 32.9717 105.142ZM31.6299 104.862C31.5037 104.836 31.3775 104.81 31.251 104.785C31.3775 104.81 31.5037 104.836 31.6299 104.862ZM178.816 96.8512C178.859 96.8564 178.901 96.8638 178.941 96.8727C178.901 96.8638 178.859 96.8564 178.817 96.8512C178.254 96.7834 177.693 96.7112 177.136 96.6373C177.693 96.7112 178.253 96.7834 178.816 96.8512ZM143.288 86.6373C143.413 86.7014 143.539 86.7633 143.665 86.8268C143.453 86.7194 143.241 86.6111 143.03 86.5026L143.288 86.6373ZM86.7676 58.0885C86.825 57.9874 86.8844 57.8873 86.9414 57.7858L86.9502 57.7692C86.8902 57.8762 86.8281 57.9819 86.7676 58.0885ZM79.5586 131.491C79.3909 131.289 79.2225 131.088 79.0527 130.888C79.2226 131.088 79.3909 131.289 79.5586 131.491ZM74.6904 126.214C74.5117 126.039 74.3321 125.865 74.1514 125.692C74.3321 125.865 74.5117 126.039 74.6904 126.214ZM74.6904 126.214C74.7163 126.239 74.7427 126.263 74.7686 126.289C74.7427 126.263 74.7163 126.239 74.6904 126.214ZM68.583 120.9C68.3824 120.745 68.181 120.59 67.9785 120.437C68.181 120.59 68.3824 120.745 68.583 120.9ZM65.1826 118.424C64.91 118.238 64.6352 118.053 64.3594 117.87C64.6352 118.053 64.91 118.238 65.1826 118.424ZM63.1396 117.074C62.8433 116.885 62.5451 116.698 62.2451 116.512C62.545 116.698 62.8433 116.885 63.1396 117.074Z" fill="url(#paint3_radial_1307_1813)"/>
<path d="M100.965 16.667C104.035 16.667 106.524 19.1556 106.524 22.2256C106.524 22.4116 106.528 22.655 106.538 22.9531L106.589 24.0107L106.59 24.0234L106.591 24.0371C106.675 25.6068 106.88 28.1439 107.395 31.2764L107.579 32.3535C108.571 37.8986 110.622 45.8543 114.878 54.0762C126.261 76.011 147.169 89.3466 177.751 93.3584L179.215 93.542L179.44 93.5742C181.678 93.9546 183.333 95.8978 183.333 98.1885V101.849C183.333 104.139 181.678 106.082 179.44 106.462L179.215 106.494C147.818 110.269 126.443 123.677 114.879 145.96L114.878 145.959C110.338 154.711 108.307 163.178 107.395 168.741V168.742C106.88 171.875 106.675 174.412 106.591 175.981L106.59 175.994L106.589 176.008C106.539 176.819 106.524 177.42 106.524 177.811V178.733C106.524 181.015 104.853 182.939 102.619 183.278L102.401 183.307L102.316 183.315L102.145 183.333H99.3242C96.1343 183.333 93.5479 180.747 93.5479 177.557C93.5478 177.263 93.5196 176.81 93.4795 175.959V175.958C93.3948 174.436 93.1727 171.905 92.6582 168.736V168.735C91.746 163.16 89.6977 154.695 85.1582 145.962C73.5766 123.678 52.1648 110.269 20.7852 106.494L20.5596 106.462C18.3224 106.081 16.667 104.138 16.667 101.848V98.1885C16.6671 95.8979 18.3225 93.9548 20.5596 93.5742L20.7852 93.542C52.1823 89.7675 73.5765 76.359 85.1582 54.0742C89.6985 45.3397 91.7471 36.8551 92.6592 31.2783C93.1765 28.0914 93.397 25.5688 93.4805 24.0352C93.5194 23.2125 93.5478 22.7338 93.5479 22.3887C93.548 19.2289 96.1098 16.6673 99.2695 16.667H100.965ZM96.8936 177.807L96.8945 177.808C96.8862 177.725 96.8818 177.642 96.8818 177.558L96.8809 177.557C96.8809 177.641 96.8853 177.725 96.8936 177.807ZM99.6533 176.647C99.6592 176.659 99.666 176.669 99.6719 176.678C99.666 176.669 99.6592 176.659 99.6533 176.647ZM100.614 174.946C100.598 175.193 100.584 175.424 100.573 175.639C100.553 176.004 100.505 176.299 100.451 176.487C100.506 176.299 100.554 176.005 100.574 175.64C100.597 175.21 100.628 174.714 100.671 174.16V174.159C100.649 174.437 100.63 174.699 100.614 174.946ZM99.6133 176.548C99.6207 176.571 99.6301 176.592 99.6377 176.61C99.6301 176.592 99.6207 176.571 99.6133 176.548ZM99.3945 174.459C99.3872 174.365 99.3821 174.269 99.374 174.172C99.3673 174.091 99.3578 174.009 99.3506 173.926C99.3664 174.11 99.381 174.288 99.3945 174.459ZM99.2852 173.208C99.2706 173.056 99.2564 172.9 99.2402 172.74C99.2563 172.9 99.2706 173.056 99.2852 173.208ZM101.259 168.994V168.995C101.319 168.591 101.383 168.175 101.452 167.75V167.749C101.383 168.174 101.318 168.59 101.259 168.994ZM100.011 41.376C98.6373 46.472 96.5616 52.3659 93.4209 58.3965L93.4219 58.3975C85.6353 73.3817 70.4341 91.8687 39.5918 100.115C69.8639 108.161 85.0734 125.946 92.9922 140.786L93.4219 141.603L93.4229 141.604C96.5576 147.645 98.6365 153.55 100.014 158.653C101.38 153.558 103.444 147.654 106.576 141.606L106.577 141.605C114.345 126.626 129.199 108.314 159.95 100.115C129.187 91.8668 114.338 73.3768 106.576 58.3936C103.449 52.357 101.379 46.4686 100.011 41.376ZM91.7852 152.66C91.7256 152.502 91.6646 152.344 91.6035 152.186C91.6645 152.344 91.7256 152.502 91.7852 152.66ZM90.7383 150.03C90.7039 149.948 90.6695 149.866 90.6348 149.784C90.6695 149.866 90.7039 149.948 90.7383 150.03ZM88.1152 144.425C88.3378 144.853 88.5552 145.28 88.7666 145.707L88.1162 144.425C87.9255 144.058 87.7319 143.693 87.5361 143.331L88.1152 144.425ZM60.0186 115.187C60.3777 115.392 60.7346 115.6 61.0889 115.811L60.0186 115.186C59.6594 114.98 59.2976 114.777 58.9336 114.576L60.0186 115.187ZM65.8936 115.406C65.785 115.333 65.6757 115.26 65.5664 115.187C65.6758 115.26 65.785 115.333 65.8936 115.406ZM64.9424 114.772C64.8631 114.72 64.7847 114.667 64.7051 114.615C64.6585 114.585 64.6112 114.556 64.5645 114.525C64.691 114.607 64.8168 114.69 64.9424 114.772ZM54.4473 112.28C54.8308 112.462 55.2122 112.646 55.5908 112.832H55.5918C54.8726 112.478 54.144 112.134 53.4072 111.797C53.7558 111.956 54.1026 112.117 54.4473 112.28ZM140.724 111.199C140.321 111.417 139.923 111.637 139.529 111.859V111.86C139.961 111.617 140.398 111.376 140.841 111.137C140.802 111.158 140.763 111.178 140.724 111.199ZM142.119 110.462C141.79 110.632 141.465 110.805 141.142 110.978C141.465 110.805 141.79 110.632 142.119 110.462ZM143.36 109.832C143.261 109.881 143.163 109.931 143.064 109.98C143.163 109.931 143.261 109.881 143.36 109.832ZM145.764 108.687C145.718 108.707 145.673 108.728 145.628 108.749C145.695 108.718 145.763 108.687 145.831 108.656C145.809 108.666 145.786 108.676 145.764 108.687ZM147.188 108.051C147.114 108.083 147.041 108.116 146.967 108.148C147.041 108.116 147.114 108.083 147.188 108.051ZM148.447 107.514C148.415 107.527 148.384 107.541 148.352 107.555C148.42 107.526 148.487 107.497 148.556 107.469C148.52 107.484 148.483 107.499 148.447 107.514ZM149.867 106.936C149.848 106.943 149.829 106.95 149.811 106.958C149.829 106.95 149.848 106.943 149.867 106.936ZM32.5527 101.88C33.1295 101.999 33.7012 102.12 34.2676 102.246L32.5527 101.879C31.9759 101.76 31.3939 101.645 30.8066 101.533L32.5527 101.88ZM176.015 100.364C174.755 100.529 173.518 100.709 172.303 100.904V100.905C173.518 100.71 174.756 100.53 176.016 100.365C176.041 100.362 176.066 100.354 176.088 100.343L176.015 100.364ZM23.4219 100.338C23.4477 100.352 23.4765 100.361 23.5068 100.365V100.364C23.4764 100.36 23.4478 100.351 23.4219 100.337V100.338ZM176.155 100.295C176.172 100.279 176.185 100.259 176.197 100.239C176.185 100.259 176.172 100.279 176.155 100.295ZM176.201 100.232C176.212 100.212 176.221 100.191 176.226 100.168C176.221 100.191 176.212 100.212 176.201 100.232ZM176.227 100.077C176.229 100.092 176.23 100.107 176.23 100.122L176.228 100.151C176.229 100.142 176.231 100.132 176.231 100.122C176.231 100.107 176.229 100.092 176.227 100.077ZM20.0518 97.8203C20.0418 97.8553 20.0326 97.8907 20.0254 97.9268C20.0347 97.8796 20.0474 97.8334 20.0615 97.7881C20.0583 97.7988 20.0548 97.8095 20.0518 97.8203ZM20.0898 97.7041C20.0855 97.7153 20.0821 97.7269 20.0781 97.7383C20.0957 97.6888 20.1157 97.6405 20.1387 97.5938L20.0898 97.7041ZM179.456 97.1084C179.445 97.1002 179.434 97.0918 179.423 97.084C179.434 97.0918 179.445 97.1002 179.456 97.1084ZM20.6094 97.0615C20.5961 97.0702 20.5833 97.0797 20.5703 97.0889C20.6162 97.0565 20.6639 97.0266 20.7139 97L20.6094 97.0615ZM42.0889 92.5254C41.2698 92.7773 40.4427 93.0223 39.6064 93.2568C40.4427 93.0223 41.2698 92.7773 42.0889 92.5254ZM42.4785 92.4043C42.7853 92.3086 43.0911 92.2124 43.3955 92.1143C43.0912 92.2125 42.7853 92.3085 42.4785 92.4043ZM43.6729 92.0234C43.9725 91.9258 44.2711 91.8275 44.5684 91.7275C44.2711 91.8275 43.9725 91.9258 43.6729 92.0234ZM44.9746 91.5898C45.2305 91.5025 45.4851 91.4133 45.7393 91.3242C45.4851 91.4133 45.2305 91.5025 44.9746 91.5898ZM46.1846 91.168C46.4348 91.0788 46.6841 90.9884 46.9326 90.8975C46.6841 90.9883 46.4349 91.0788 46.1846 91.168ZM47.3838 90.7324C47.7653 90.5906 48.1451 90.4477 48.5225 90.3018C48.1451 90.4477 47.7653 90.5907 47.3838 90.7324ZM51.6787 89.0088C51.7498 88.9782 51.8206 88.9468 51.8916 88.916C51.8206 88.9468 51.7499 88.9782 51.6787 89.0088ZM52.9395 88.4531C53.0107 88.4211 53.0822 88.3896 53.1533 88.3574C53.0822 88.3896 53.0107 88.4211 52.9395 88.4531ZM54.1904 87.8789C54.2524 87.8498 54.3151 87.8222 54.377 87.793C54.3151 87.8222 54.2524 87.8498 54.1904 87.8789ZM63.1914 82.9346H63.1924C63.5369 82.7145 63.8792 82.4924 64.2188 82.2676H64.2178C63.8782 82.4924 63.5359 82.7145 63.1914 82.9346ZM68.1758 79.4541C67.8559 79.698 67.5337 79.9396 67.209 80.1787L68.1768 79.4541C68.4967 79.2102 68.8139 78.9635 69.1289 78.7148L68.1758 79.4541ZM80.166 67.8086C79.6646 68.4294 79.1532 69.0407 78.6318 69.6426L79.4072 68.7324C79.6628 68.4269 79.9154 68.1188 80.166 67.8086ZM88.1152 55.6123C88.0236 55.7886 87.9297 55.9635 87.8369 56.1387C87.9298 55.9633 88.0245 55.7887 88.1162 55.6123C88.2647 55.3266 88.4103 55.041 88.5537 54.7559L88.1152 55.6123ZM100.573 24.3613C100.584 24.576 100.599 24.8076 100.615 25.0547C100.599 24.8075 100.585 24.5761 100.574 24.3613C100.571 24.3116 100.567 24.2641 100.561 24.2188L100.573 24.3613ZM103.207 23.0654C103.218 23.3979 103.236 23.7826 103.263 24.2168V24.2158C103.236 23.782 103.218 23.3977 103.207 23.0654ZM100.233 23.498C100.22 23.4895 100.207 23.4822 100.192 23.4756C100.207 23.4822 100.22 23.4895 100.233 23.498ZM100.166 23.4639C100.142 23.455 100.117 23.4476 100.092 23.4434C100.117 23.4476 100.142 23.455 100.166 23.4639ZM99.5811 176.429C99.5879 176.458 99.5954 176.485 99.6025 176.51C99.5954 176.485 99.588 176.458 99.5811 176.429Z" fill="white"/>
<path d="M100.965 16.667C104.035 16.667 106.524 19.1556 106.524 22.2256C106.524 22.4116 106.528 22.655 106.538 22.9531L106.589 24.0107L106.59 24.0234L106.591 24.0371C106.675 25.6068 106.88 28.1439 107.395 31.2764L107.579 32.3535C108.571 37.8986 110.622 45.8543 114.878 54.0762C126.261 76.011 147.169 89.3466 177.751 93.3584L179.215 93.542L179.44 93.5742C181.678 93.9546 183.333 95.8978 183.333 98.1885V101.849C183.333 104.139 181.678 106.082 179.44 106.462L179.215 106.494C147.818 110.269 126.443 123.677 114.879 145.96L114.878 145.959C110.338 154.711 108.307 163.178 107.395 168.741V168.742C106.88 171.875 106.675 174.412 106.591 175.981L106.59 175.994L106.589 176.008C106.539 176.819 106.524 177.42 106.524 177.811V178.733C106.524 181.015 104.853 182.939 102.619 183.278L102.401 183.307L102.316 183.315L102.145 183.333H99.3242C96.1343 183.333 93.5479 180.747 93.5479 177.557C93.5478 177.263 93.5196 176.81 93.4795 175.959V175.958C93.3948 174.436 93.1727 171.905 92.6582 168.736V168.735C91.746 163.16 89.6977 154.695 85.1582 145.962C73.5766 123.678 52.1648 110.269 20.7852 106.494L20.5596 106.462C18.3224 106.081 16.667 104.138 16.667 101.848V98.1885C16.6671 95.8979 18.3225 93.9548 20.5596 93.5742L20.7852 93.542C52.1823 89.7675 73.5765 76.359 85.1582 54.0742C89.6985 45.3397 91.7471 36.8551 92.6592 31.2783C93.1765 28.0914 93.397 25.5688 93.4805 24.0352C93.5194 23.2125 93.5478 22.7338 93.5479 22.3887C93.548 19.2289 96.1098 16.6673 99.2695 16.667H100.965ZM96.8936 177.807L96.8945 177.808C96.8862 177.725 96.8818 177.642 96.8818 177.558L96.8809 177.557C96.8809 177.641 96.8853 177.725 96.8936 177.807ZM99.6533 176.647C99.6592 176.659 99.666 176.669 99.6719 176.678C99.666 176.669 99.6592 176.659 99.6533 176.647ZM100.614 174.946C100.598 175.193 100.584 175.424 100.573 175.639C100.553 176.004 100.505 176.299 100.451 176.487C100.506 176.299 100.554 176.005 100.574 175.64C100.597 175.21 100.628 174.714 100.671 174.16V174.159C100.649 174.437 100.63 174.699 100.614 174.946ZM99.6133 176.548C99.6207 176.571 99.6301 176.592 99.6377 176.61C99.6301 176.592 99.6207 176.571 99.6133 176.548ZM99.3945 174.459C99.3872 174.365 99.3821 174.269 99.374 174.172C99.3673 174.091 99.3578 174.009 99.3506 173.926C99.3664 174.11 99.381 174.288 99.3945 174.459ZM99.2852 173.208C99.2706 173.056 99.2564 172.9 99.2402 172.74C99.2563 172.9 99.2706 173.056 99.2852 173.208ZM101.259 168.994V168.995C101.319 168.591 101.383 168.175 101.452 167.75V167.749C101.383 168.174 101.318 168.59 101.259 168.994ZM100.011 41.376C98.6373 46.472 96.5616 52.3659 93.4209 58.3965L93.4219 58.3975C85.6353 73.3817 70.4341 91.8687 39.5918 100.115C69.8639 108.161 85.0734 125.946 92.9922 140.786L93.4219 141.603L93.4229 141.604C96.5576 147.645 98.6365 153.55 100.014 158.653C101.38 153.558 103.444 147.654 106.576 141.606L106.577 141.605C114.345 126.626 129.199 108.314 159.95 100.115C129.187 91.8668 114.338 73.3768 106.576 58.3936C103.449 52.357 101.379 46.4686 100.011 41.376ZM91.7852 152.66C91.7256 152.502 91.6646 152.344 91.6035 152.186C91.6645 152.344 91.7256 152.502 91.7852 152.66ZM90.7383 150.03C90.7039 149.948 90.6695 149.866 90.6348 149.784C90.6695 149.866 90.7039 149.948 90.7383 150.03ZM88.1152 144.425C88.3378 144.853 88.5552 145.28 88.7666 145.707L88.1162 144.425C87.9255 144.058 87.7319 143.693 87.5361 143.331L88.1152 144.425ZM60.0186 115.187C60.3777 115.392 60.7346 115.6 61.0889 115.811L60.0186 115.186C59.6594 114.98 59.2976 114.777 58.9336 114.576L60.0186 115.187ZM65.8936 115.406C65.785 115.333 65.6757 115.26 65.5664 115.187C65.6758 115.26 65.785 115.333 65.8936 115.406ZM64.9424 114.772C64.8631 114.72 64.7847 114.667 64.7051 114.615C64.6585 114.585 64.6112 114.556 64.5645 114.525C64.691 114.607 64.8168 114.69 64.9424 114.772ZM54.4473 112.28C54.8308 112.462 55.2122 112.646 55.5908 112.832H55.5918C54.8726 112.478 54.144 112.134 53.4072 111.797C53.7558 111.956 54.1026 112.117 54.4473 112.28ZM140.724 111.199C140.321 111.417 139.923 111.637 139.529 111.859V111.86C139.961 111.617 140.398 111.376 140.841 111.137C140.802 111.158 140.763 111.178 140.724 111.199ZM142.119 110.462C141.79 110.632 141.465 110.805 141.142 110.978C141.465 110.805 141.79 110.632 142.119 110.462ZM143.36 109.832C143.261 109.881 143.163 109.931 143.064 109.98C143.163 109.931 143.261 109.881 143.36 109.832ZM145.764 108.687C145.718 108.707 145.673 108.728 145.628 108.749C145.695 108.718 145.763 108.687 145.831 108.656C145.809 108.666 145.786 108.676 145.764 108.687ZM147.188 108.051C147.114 108.083 147.041 108.116 146.967 108.148C147.041 108.116 147.114 108.083 147.188 108.051ZM148.447 107.514C148.415 107.527 148.384 107.541 148.352 107.555C148.42 107.526 148.487 107.497 148.556 107.469C148.52 107.484 148.483 107.499 148.447 107.514ZM149.867 106.936C149.848 106.943 149.829 106.95 149.811 106.958C149.829 106.95 149.848 106.943 149.867 106.936ZM32.5527 101.88C33.1295 101.999 33.7012 102.12 34.2676 102.246L32.5527 101.879C31.9759 101.76 31.3939 101.645 30.8066 101.533L32.5527 101.88ZM176.015 100.364C174.755 100.529 173.518 100.709 172.303 100.904V100.905C173.518 100.71 174.756 100.53 176.016 100.365C176.041 100.362 176.066 100.354 176.088 100.343L176.015 100.364ZM23.4219 100.338C23.4477 100.352 23.4765 100.361 23.5068 100.365V100.364C23.4764 100.36 23.4478 100.351 23.4219 100.337V100.338ZM176.155 100.295C176.172 100.279 176.185 100.259 176.197 100.239C176.185 100.259 176.172 100.279 176.155 100.295ZM176.201 100.232C176.212 100.212 176.221 100.191 176.226 100.168C176.221 100.191 176.212 100.212 176.201 100.232ZM176.227 100.077C176.229 100.092 176.23 100.107 176.23 100.122L176.228 100.151C176.229 100.142 176.231 100.132 176.231 100.122C176.231 100.107 176.229 100.092 176.227 100.077ZM20.0518 97.8203C20.0418 97.8553 20.0326 97.8907 20.0254 97.9268C20.0347 97.8796 20.0474 97.8334 20.0615 97.7881C20.0583 97.7988 20.0548 97.8095 20.0518 97.8203ZM20.0898 97.7041C20.0855 97.7153 20.0821 97.7269 20.0781 97.7383C20.0957 97.6888 20.1157 97.6405 20.1387 97.5938L20.0898 97.7041ZM179.456 97.1084C179.445 97.1002 179.434 97.0918 179.423 97.084C179.434 97.0918 179.445 97.1002 179.456 97.1084ZM20.6094 97.0615C20.5961 97.0702 20.5833 97.0797 20.5703 97.0889C20.6162 97.0565 20.6639 97.0266 20.7139 97L20.6094 97.0615ZM42.0889 92.5254C41.2698 92.7773 40.4427 93.0223 39.6064 93.2568C40.4427 93.0223 41.2698 92.7773 42.0889 92.5254ZM42.4785 92.4043C42.7853 92.3086 43.0911 92.2124 43.3955 92.1143C43.0912 92.2125 42.7853 92.3085 42.4785 92.4043ZM43.6729 92.0234C43.9725 91.9258 44.2711 91.8275 44.5684 91.7275C44.2711 91.8275 43.9725 91.9258 43.6729 92.0234ZM44.9746 91.5898C45.2305 91.5025 45.4851 91.4133 45.7393 91.3242C45.4851 91.4133 45.2305 91.5025 44.9746 91.5898ZM46.1846 91.168C46.4348 91.0788 46.6841 90.9884 46.9326 90.8975C46.6841 90.9883 46.4349 91.0788 46.1846 91.168ZM47.3838 90.7324C47.7653 90.5906 48.1451 90.4477 48.5225 90.3018C48.1451 90.4477 47.7653 90.5907 47.3838 90.7324ZM51.6787 89.0088C51.7498 88.9782 51.8206 88.9468 51.8916 88.916C51.8206 88.9468 51.7499 88.9782 51.6787 89.0088ZM52.9395 88.4531C53.0107 88.4211 53.0822 88.3896 53.1533 88.3574C53.0822 88.3896 53.0107 88.4211 52.9395 88.4531ZM54.1904 87.8789C54.2524 87.8498 54.3151 87.8222 54.377 87.793C54.3151 87.8222 54.2524 87.8498 54.1904 87.8789ZM63.1914 82.9346H63.1924C63.5369 82.7145 63.8792 82.4924 64.2188 82.2676H64.2178C63.8782 82.4924 63.5359 82.7145 63.1914 82.9346ZM68.1758 79.4541C67.8559 79.698 67.5337 79.9396 67.209 80.1787L68.1768 79.4541C68.4967 79.2102 68.8139 78.9635 69.1289 78.7148L68.1758 79.4541ZM80.166 67.8086C79.6646 68.4294 79.1532 69.0407 78.6318 69.6426L79.4072 68.7324C79.6628 68.4269 79.9154 68.1188 80.166 67.8086ZM88.1152 55.6123C88.0236 55.7886 87.9297 55.9635 87.8369 56.1387C87.9298 55.9633 88.0245 55.7887 88.1162 55.6123C88.2647 55.3266 88.4103 55.041 88.5537 54.7559L88.1152 55.6123ZM100.573 24.3613C100.584 24.576 100.599 24.8076 100.615 25.0547C100.599 24.8075 100.585 24.5761 100.574 24.3613C100.571 24.3116 100.567 24.2641 100.561 24.2188L100.573 24.3613ZM103.207 23.0654C103.218 23.3979 103.236 23.7826 103.263 24.2168V24.2158C103.236 23.782 103.218 23.3977 103.207 23.0654ZM100.233 23.498C100.22 23.4895 100.207 23.4822 100.192 23.4756C100.207 23.4822 100.22 23.4895 100.233 23.498ZM100.166 23.4639C100.142 23.455 100.117 23.4476 100.092 23.4434C100.117 23.4476 100.142 23.455 100.166 23.4639ZM99.5811 176.429C99.5879 176.458 99.5954 176.485 99.6025 176.51C99.5954 176.485 99.588 176.458 99.5811 176.429Z" fill="url(#paint4_radial_1307_1813)"/>
<path d="M100.965 16.667C104.035 16.667 106.524 19.1556 106.524 22.2256C106.524 22.4116 106.528 22.655 106.538 22.9531L106.589 24.0107L106.59 24.0234L106.591 24.0371C106.675 25.6068 106.88 28.1439 107.395 31.2764L107.579 32.3535C108.571 37.8986 110.622 45.8543 114.878 54.0762C126.261 76.011 147.169 89.3466 177.751 93.3584L179.215 93.542L179.44 93.5742C181.678 93.9546 183.333 95.8978 183.333 98.1885V101.849C183.333 104.139 181.678 106.082 179.44 106.462L179.215 106.494C147.818 110.269 126.443 123.677 114.879 145.96L114.878 145.959C110.338 154.711 108.307 163.178 107.395 168.741V168.742C106.88 171.875 106.675 174.412 106.591 175.981L106.59 175.994L106.589 176.008C106.539 176.819 106.524 177.42 106.524 177.811V178.733C106.524 181.015 104.853 182.939 102.619 183.278L102.401 183.307L102.316 183.315L102.145 183.333H99.3242C96.1343 183.333 93.5479 180.747 93.5479 177.557C93.5478 177.263 93.5196 176.81 93.4795 175.959V175.958C93.3948 174.436 93.1727 171.905 92.6582 168.736V168.735C91.746 163.16 89.6977 154.695 85.1582 145.962C73.5766 123.678 52.1648 110.269 20.7852 106.494L20.5596 106.462C18.3224 106.081 16.667 104.138 16.667 101.848V98.1885C16.6671 95.8979 18.3225 93.9548 20.5596 93.5742L20.7852 93.542C52.1823 89.7675 73.5765 76.359 85.1582 54.0742C89.6985 45.3397 91.7471 36.8551 92.6592 31.2783C93.1765 28.0914 93.397 25.5688 93.4805 24.0352C93.5194 23.2125 93.5478 22.7338 93.5479 22.3887C93.548 19.2289 96.1098 16.6673 99.2695 16.667H100.965ZM96.8936 177.807L96.8945 177.808C96.8862 177.725 96.8818 177.642 96.8818 177.558L96.8809 177.557C96.8809 177.641 96.8853 177.725 96.8936 177.807ZM99.6533 176.647C99.6592 176.659 99.666 176.669 99.6719 176.678C99.666 176.669 99.6592 176.659 99.6533 176.647ZM100.614 174.946C100.598 175.193 100.584 175.424 100.573 175.639C100.553 176.004 100.505 176.299 100.451 176.487C100.506 176.299 100.554 176.005 100.574 175.64C100.597 175.21 100.628 174.714 100.671 174.16V174.159C100.649 174.437 100.63 174.699 100.614 174.946ZM99.6133 176.548C99.6207 176.571 99.6301 176.592 99.6377 176.61C99.6301 176.592 99.6207 176.571 99.6133 176.548ZM99.3945 174.459C99.3872 174.365 99.3821 174.269 99.374 174.172C99.3673 174.091 99.3578 174.009 99.3506 173.926C99.3664 174.11 99.381 174.288 99.3945 174.459ZM99.2852 173.208C99.2706 173.056 99.2564 172.9 99.2402 172.74C99.2563 172.9 99.2706 173.056 99.2852 173.208ZM101.259 168.994V168.995C101.319 168.591 101.383 168.175 101.452 167.75V167.749C101.383 168.174 101.318 168.59 101.259 168.994ZM100.011 41.376C98.6373 46.472 96.5616 52.3659 93.4209 58.3965L93.4219 58.3975C85.6353 73.3817 70.4341 91.8687 39.5918 100.115C69.8639 108.161 85.0734 125.946 92.9922 140.786L93.4219 141.603L93.4229 141.604C96.5576 147.645 98.6365 153.55 100.014 158.653C101.38 153.558 103.444 147.654 106.576 141.606L106.577 141.605C114.345 126.626 129.199 108.314 159.95 100.115C129.187 91.8668 114.338 73.3768 106.576 58.3936C103.449 52.357 101.379 46.4686 100.011 41.376ZM91.7852 152.66C91.7256 152.502 91.6646 152.344 91.6035 152.186C91.6645 152.344 91.7256 152.502 91.7852 152.66ZM90.7383 150.03C90.7039 149.948 90.6695 149.866 90.6348 149.784C90.6695 149.866 90.7039 149.948 90.7383 150.03ZM88.1152 144.425C88.3378 144.853 88.5552 145.28 88.7666 145.707L88.1162 144.425C87.9255 144.058 87.7319 143.693 87.5361 143.331L88.1152 144.425ZM60.0186 115.187C60.3777 115.392 60.7346 115.6 61.0889 115.811L60.0186 115.186C59.6594 114.98 59.2976 114.777 58.9336 114.576L60.0186 115.187ZM65.8936 115.406C65.785 115.333 65.6757 115.26 65.5664 115.187C65.6758 115.26 65.785 115.333 65.8936 115.406ZM64.9424 114.772C64.8631 114.72 64.7847 114.667 64.7051 114.615C64.6585 114.585 64.6112 114.556 64.5645 114.525C64.691 114.607 64.8168 114.69 64.9424 114.772ZM54.4473 112.28C54.8308 112.462 55.2122 112.646 55.5908 112.832H55.5918C54.8726 112.478 54.144 112.134 53.4072 111.797C53.7558 111.956 54.1026 112.117 54.4473 112.28ZM140.724 111.199C140.321 111.417 139.923 111.637 139.529 111.859V111.86C139.961 111.617 140.398 111.376 140.841 111.137C140.802 111.158 140.763 111.178 140.724 111.199ZM142.119 110.462C141.79 110.632 141.465 110.805 141.142 110.978C141.465 110.805 141.79 110.632 142.119 110.462ZM143.36 109.832C143.261 109.881 143.163 109.931 143.064 109.98C143.163 109.931 143.261 109.881 143.36 109.832ZM145.764 108.687C145.718 108.707 145.673 108.728 145.628 108.749C145.695 108.718 145.763 108.687 145.831 108.656C145.809 108.666 145.786 108.676 145.764 108.687ZM147.188 108.051C147.114 108.083 147.041 108.116 146.967 108.148C147.041 108.116 147.114 108.083 147.188 108.051ZM148.447 107.514C148.415 107.527 148.384 107.541 148.352 107.555C148.42 107.526 148.487 107.497 148.556 107.469C148.52 107.484 148.483 107.499 148.447 107.514ZM149.867 106.936C149.848 106.943 149.829 106.95 149.811 106.958C149.829 106.95 149.848 106.943 149.867 106.936ZM32.5527 101.88C33.1295 101.999 33.7012 102.12 34.2676 102.246L32.5527 101.879C31.9759 101.76 31.3939 101.645 30.8066 101.533L32.5527 101.88ZM176.015 100.364C174.755 100.529 173.518 100.709 172.303 100.904V100.905C173.518 100.71 174.756 100.53 176.016 100.365C176.041 100.362 176.066 100.354 176.088 100.343L176.015 100.364ZM23.4219 100.338C23.4477 100.352 23.4765 100.361 23.5068 100.365V100.364C23.4764 100.36 23.4478 100.351 23.4219 100.337V100.338ZM176.155 100.295C176.172 100.279 176.185 100.259 176.197 100.239C176.185 100.259 176.172 100.279 176.155 100.295ZM176.201 100.232C176.212 100.212 176.221 100.191 176.226 100.168C176.221 100.191 176.212 100.212 176.201 100.232ZM176.227 100.077C176.229 100.092 176.23 100.107 176.23 100.122L176.228 100.151C176.229 100.142 176.231 100.132 176.231 100.122C176.231 100.107 176.229 100.092 176.227 100.077ZM20.0518 97.8203C20.0418 97.8553 20.0326 97.8907 20.0254 97.9268C20.0347 97.8796 20.0474 97.8334 20.0615 97.7881C20.0583 97.7988 20.0548 97.8095 20.0518 97.8203ZM20.0898 97.7041C20.0855 97.7153 20.0821 97.7269 20.0781 97.7383C20.0957 97.6888 20.1157 97.6405 20.1387 97.5938L20.0898 97.7041ZM179.456 97.1084C179.445 97.1002 179.434 97.0918 179.423 97.084C179.434 97.0918 179.445 97.1002 179.456 97.1084ZM20.6094 97.0615C20.5961 97.0702 20.5833 97.0797 20.5703 97.0889C20.6162 97.0565 20.6639 97.0266 20.7139 97L20.6094 97.0615ZM42.0889 92.5254C41.2698 92.7773 40.4427 93.0223 39.6064 93.2568C40.4427 93.0223 41.2698 92.7773 42.0889 92.5254ZM42.4785 92.4043C42.7853 92.3086 43.0911 92.2124 43.3955 92.1143C43.0912 92.2125 42.7853 92.3085 42.4785 92.4043ZM43.6729 92.0234C43.9725 91.9258 44.2711 91.8275 44.5684 91.7275C44.2711 91.8275 43.9725 91.9258 43.6729 92.0234ZM44.9746 91.5898C45.2305 91.5025 45.4851 91.4133 45.7393 91.3242C45.4851 91.4133 45.2305 91.5025 44.9746 91.5898ZM46.1846 91.168C46.4348 91.0788 46.6841 90.9884 46.9326 90.8975C46.6841 90.9883 46.4349 91.0788 46.1846 91.168ZM47.3838 90.7324C47.7653 90.5906 48.1451 90.4477 48.5225 90.3018C48.1451 90.4477 47.7653 90.5907 47.3838 90.7324ZM51.6787 89.0088C51.7498 88.9782 51.8206 88.9468 51.8916 88.916C51.8206 88.9468 51.7499 88.9782 51.6787 89.0088ZM52.9395 88.4531C53.0107 88.4211 53.0822 88.3896 53.1533 88.3574C53.0822 88.3896 53.0107 88.4211 52.9395 88.4531ZM54.1904 87.8789C54.2524 87.8498 54.3151 87.8222 54.377 87.793C54.3151 87.8222 54.2524 87.8498 54.1904 87.8789ZM63.1914 82.9346H63.1924C63.5369 82.7145 63.8792 82.4924 64.2188 82.2676H64.2178C63.8782 82.4924 63.5359 82.7145 63.1914 82.9346ZM68.1758 79.4541C67.8559 79.698 67.5337 79.9396 67.209 80.1787L68.1768 79.4541C68.4967 79.2102 68.8139 78.9635 69.1289 78.7148L68.1758 79.4541ZM80.166 67.8086C79.6646 68.4294 79.1532 69.0407 78.6318 69.6426L79.4072 68.7324C79.6628 68.4269 79.9154 68.1188 80.166 67.8086ZM88.1152 55.6123C88.0236 55.7886 87.9297 55.9635 87.8369 56.1387C87.9298 55.9633 88.0245 55.7887 88.1162 55.6123C88.2647 55.3266 88.4103 55.041 88.5537 54.7559L88.1152 55.6123ZM100.573 24.3613C100.584 24.576 100.599 24.8076 100.615 25.0547C100.599 24.8075 100.585 24.5761 100.574 24.3613C100.571 24.3116 100.567 24.2641 100.561 24.2188L100.573 24.3613ZM103.207 23.0654C103.218 23.3979 103.236 23.7826 103.263 24.2168V24.2158C103.236 23.782 103.218 23.3977 103.207 23.0654ZM100.233 23.498C100.22 23.4895 100.207 23.4822 100.192 23.4756C100.207 23.4822 100.22 23.4895 100.233 23.498ZM100.166 23.4639C100.142 23.455 100.117 23.4476 100.092 23.4434C100.117 23.4476 100.142 23.455 100.166 23.4639ZM99.5811 176.429C99.5879 176.458 99.5954 176.485 99.6025 176.51C99.5954 176.485 99.588 176.458 99.5811 176.429Z" fill="url(#paint5_radial_1307_1813)"/>
<path d="M100.965 16.667C104.035 16.667 106.524 19.1556 106.524 22.2256C106.524 22.4116 106.528 22.655 106.538 22.9531L106.589 24.0107L106.59 24.0234L106.591 24.0371C106.675 25.6068 106.88 28.1439 107.395 31.2764L107.579 32.3535C108.571 37.8986 110.622 45.8543 114.878 54.0762C126.261 76.011 147.169 89.3466 177.751 93.3584L179.215 93.542L179.44 93.5742C181.678 93.9546 183.333 95.8978 183.333 98.1885V101.849C183.333 104.139 181.678 106.082 179.44 106.462L179.215 106.494C147.818 110.269 126.443 123.677 114.879 145.96L114.878 145.959C110.338 154.711 108.307 163.178 107.395 168.741V168.742C106.88 171.875 106.675 174.412 106.591 175.981L106.59 175.994L106.589 176.008C106.539 176.819 106.524 177.42 106.524 177.811V178.733C106.524 181.015 104.853 182.939 102.619 183.278L102.401 183.307L102.316 183.315L102.145 183.333H99.3242C96.1343 183.333 93.5479 180.747 93.5479 177.557C93.5478 177.263 93.5196 176.81 93.4795 175.959V175.958C93.3948 174.436 93.1727 171.905 92.6582 168.736V168.735C91.746 163.16 89.6977 154.695 85.1582 145.962C73.5766 123.678 52.1648 110.269 20.7852 106.494L20.5596 106.462C18.3224 106.081 16.667 104.138 16.667 101.848V98.1885C16.6671 95.8979 18.3225 93.9548 20.5596 93.5742L20.7852 93.542C52.1823 89.7675 73.5765 76.359 85.1582 54.0742C89.6985 45.3397 91.7471 36.8551 92.6592 31.2783C93.1765 28.0914 93.397 25.5688 93.4805 24.0352C93.5194 23.2125 93.5478 22.7338 93.5479 22.3887C93.548 19.2289 96.1098 16.6673 99.2695 16.667H100.965ZM96.8936 177.807L96.8945 177.808C96.8862 177.725 96.8818 177.642 96.8818 177.558L96.8809 177.557C96.8809 177.641 96.8853 177.725 96.8936 177.807ZM99.6533 176.647C99.6592 176.659 99.666 176.669 99.6719 176.678C99.666 176.669 99.6592 176.659 99.6533 176.647ZM100.614 174.946C100.598 175.193 100.584 175.424 100.573 175.639C100.553 176.004 100.505 176.299 100.451 176.487C100.506 176.299 100.554 176.005 100.574 175.64C100.597 175.21 100.628 174.714 100.671 174.16V174.159C100.649 174.437 100.63 174.699 100.614 174.946ZM99.6133 176.548C99.6207 176.571 99.6301 176.592 99.6377 176.61C99.6301 176.592 99.6207 176.571 99.6133 176.548ZM99.3945 174.459C99.3872 174.365 99.3821 174.269 99.374 174.172C99.3673 174.091 99.3578 174.009 99.3506 173.926C99.3664 174.11 99.381 174.288 99.3945 174.459ZM99.2852 173.208C99.2706 173.056 99.2564 172.9 99.2402 172.74C99.2563 172.9 99.2706 173.056 99.2852 173.208ZM101.259 168.994V168.995C101.319 168.591 101.383 168.175 101.452 167.75V167.749C101.383 168.174 101.318 168.59 101.259 168.994ZM100.011 41.376C98.6373 46.472 96.5616 52.3659 93.4209 58.3965L93.4219 58.3975C85.6353 73.3817 70.4341 91.8687 39.5918 100.115C69.8639 108.161 85.0734 125.946 92.9922 140.786L93.4219 141.603L93.4229 141.604C96.5576 147.645 98.6365 153.55 100.014 158.653C101.38 153.558 103.444 147.654 106.576 141.606L106.577 141.605C114.345 126.626 129.199 108.314 159.95 100.115C129.187 91.8668 114.338 73.3768 106.576 58.3936C103.449 52.357 101.379 46.4686 100.011 41.376ZM91.7852 152.66C91.7256 152.502 91.6646 152.344 91.6035 152.186C91.6645 152.344 91.7256 152.502 91.7852 152.66ZM90.7383 150.03C90.7039 149.948 90.6695 149.866 90.6348 149.784C90.6695 149.866 90.7039 149.948 90.7383 150.03ZM88.1152 144.425C88.3378 144.853 88.5552 145.28 88.7666 145.707L88.1162 144.425C87.9255 144.058 87.7319 143.693 87.5361 143.331L88.1152 144.425ZM60.0186 115.187C60.3777 115.392 60.7346 115.6 61.0889 115.811L60.0186 115.186C59.6594 114.98 59.2976 114.777 58.9336 114.576L60.0186 115.187ZM65.8936 115.406C65.785 115.333 65.6757 115.26 65.5664 115.187C65.6758 115.26 65.785 115.333 65.8936 115.406ZM64.9424 114.772C64.8631 114.72 64.7847 114.667 64.7051 114.615C64.6585 114.585 64.6112 114.556 64.5645 114.525C64.691 114.607 64.8168 114.69 64.9424 114.772ZM54.4473 112.28C54.8308 112.462 55.2122 112.646 55.5908 112.832H55.5918C54.8726 112.478 54.144 112.134 53.4072 111.797C53.7558 111.956 54.1026 112.117 54.4473 112.28ZM140.724 111.199C140.321 111.417 139.923 111.637 139.529 111.859V111.86C139.961 111.617 140.398 111.376 140.841 111.137C140.802 111.158 140.763 111.178 140.724 111.199ZM142.119 110.462C141.79 110.632 141.465 110.805 141.142 110.978C141.465 110.805 141.79 110.632 142.119 110.462ZM143.36 109.832C143.261 109.881 143.163 109.931 143.064 109.98C143.163 109.931 143.261 109.881 143.36 109.832ZM145.764 108.687C145.718 108.707 145.673 108.728 145.628 108.749C145.695 108.718 145.763 108.687 145.831 108.656C145.809 108.666 145.786 108.676 145.764 108.687ZM147.188 108.051C147.114 108.083 147.041 108.116 146.967 108.148C147.041 108.116 147.114 108.083 147.188 108.051ZM148.447 107.514C148.415 107.527 148.384 107.541 148.352 107.555C148.42 107.526 148.487 107.497 148.556 107.469C148.52 107.484 148.483 107.499 148.447 107.514ZM149.867 106.936C149.848 106.943 149.829 106.95 149.811 106.958C149.829 106.95 149.848 106.943 149.867 106.936ZM32.5527 101.88C33.1295 101.999 33.7012 102.12 34.2676 102.246L32.5527 101.879C31.9759 101.76 31.3939 101.645 30.8066 101.533L32.5527 101.88ZM176.015 100.364C174.755 100.529 173.518 100.709 172.303 100.904V100.905C173.518 100.71 174.756 100.53 176.016 100.365C176.041 100.362 176.066 100.354 176.088 100.343L176.015 100.364ZM23.4219 100.338C23.4477 100.352 23.4765 100.361 23.5068 100.365V100.364C23.4764 100.36 23.4478 100.351 23.4219 100.337V100.338ZM176.155 100.295C176.172 100.279 176.185 100.259 176.197 100.239C176.185 100.259 176.172 100.279 176.155 100.295ZM176.201 100.232C176.212 100.212 176.221 100.191 176.226 100.168C176.221 100.191 176.212 100.212 176.201 100.232ZM176.227 100.077C176.229 100.092 176.23 100.107 176.23 100.122L176.228 100.151C176.229 100.142 176.231 100.132 176.231 100.122C176.231 100.107 176.229 100.092 176.227 100.077ZM20.0518 97.8203C20.0418 97.8553 20.0326 97.8907 20.0254 97.9268C20.0347 97.8796 20.0474 97.8334 20.0615 97.7881C20.0583 97.7988 20.0548 97.8095 20.0518 97.8203ZM20.0898 97.7041C20.0855 97.7153 20.0821 97.7269 20.0781 97.7383C20.0957 97.6888 20.1157 97.6405 20.1387 97.5938L20.0898 97.7041ZM179.456 97.1084C179.445 97.1002 179.434 97.0918 179.423 97.084C179.434 97.0918 179.445 97.1002 179.456 97.1084ZM20.6094 97.0615C20.5961 97.0702 20.5833 97.0797 20.5703 97.0889C20.6162 97.0565 20.6639 97.0266 20.7139 97L20.6094 97.0615ZM42.0889 92.5254C41.2698 92.7773 40.4427 93.0223 39.6064 93.2568C40.4427 93.0223 41.2698 92.7773 42.0889 92.5254ZM42.4785 92.4043C42.7853 92.3086 43.0911 92.2124 43.3955 92.1143C43.0912 92.2125 42.7853 92.3085 42.4785 92.4043ZM43.6729 92.0234C43.9725 91.9258 44.2711 91.8275 44.5684 91.7275C44.2711 91.8275 43.9725 91.9258 43.6729 92.0234ZM44.9746 91.5898C45.2305 91.5025 45.4851 91.4133 45.7393 91.3242C45.4851 91.4133 45.2305 91.5025 44.9746 91.5898ZM46.1846 91.168C46.4348 91.0788 46.6841 90.9884 46.9326 90.8975C46.6841 90.9883 46.4349 91.0788 46.1846 91.168ZM47.3838 90.7324C47.7653 90.5906 48.1451 90.4477 48.5225 90.3018C48.1451 90.4477 47.7653 90.5907 47.3838 90.7324ZM51.6787 89.0088C51.7498 88.9782 51.8206 88.9468 51.8916 88.916C51.8206 88.9468 51.7499 88.9782 51.6787 89.0088ZM52.9395 88.4531C53.0107 88.4211 53.0822 88.3896 53.1533 88.3574C53.0822 88.3896 53.0107 88.4211 52.9395 88.4531ZM54.1904 87.8789C54.2524 87.8498 54.3151 87.8222 54.377 87.793C54.3151 87.8222 54.2524 87.8498 54.1904 87.8789ZM63.1914 82.9346H63.1924C63.5369 82.7145 63.8792 82.4924 64.2188 82.2676H64.2178C63.8782 82.4924 63.5359 82.7145 63.1914 82.9346ZM68.1758 79.4541C67.8559 79.698 67.5337 79.9396 67.209 80.1787L68.1768 79.4541C68.4967 79.2102 68.8139 78.9635 69.1289 78.7148L68.1758 79.4541ZM80.166 67.8086C79.6646 68.4294 79.1532 69.0407 78.6318 69.6426L79.4072 68.7324C79.6628 68.4269 79.9154 68.1188 80.166 67.8086ZM88.1152 55.6123C88.0236 55.7886 87.9297 55.9635 87.8369 56.1387C87.9298 55.9633 88.0245 55.7887 88.1162 55.6123C88.2647 55.3266 88.4103 55.041 88.5537 54.7559L88.1152 55.6123ZM100.573 24.3613C100.584 24.576 100.599 24.8076 100.615 25.0547C100.599 24.8075 100.585 24.5761 100.574 24.3613C100.571 24.3116 100.567 24.2641 100.561 24.2188L100.573 24.3613ZM103.207 23.0654C103.218 23.3979 103.236 23.7826 103.263 24.2168V24.2158C103.236 23.782 103.218 23.3977 103.207 23.0654ZM100.233 23.498C100.22 23.4895 100.207 23.4822 100.192 23.4756C100.207 23.4822 100.22 23.4895 100.233 23.498ZM100.166 23.4639C100.142 23.455 100.117 23.4476 100.092 23.4434C100.117 23.4476 100.142 23.455 100.166 23.4639ZM99.5811 176.429C99.5879 176.458 99.5954 176.485 99.6025 176.51C99.5954 176.485 99.588 176.458 99.5811 176.429Z" fill="url(#paint6_radial_1307_1813)"/>
<path d="M100.965 16.667C104.035 16.667 106.524 19.1556 106.524 22.2256C106.524 22.4116 106.528 22.655 106.538 22.9531L106.589 24.0107L106.59 24.0234L106.591 24.0371C106.675 25.6068 106.88 28.1439 107.395 31.2764L107.579 32.3535C108.571 37.8986 110.622 45.8543 114.878 54.0762C126.261 76.011 147.169 89.3466 177.751 93.3584L179.215 93.542L179.44 93.5742C181.678 93.9546 183.333 95.8978 183.333 98.1885V101.849C183.333 104.139 181.678 106.082 179.44 106.462L179.215 106.494C147.818 110.269 126.443 123.677 114.879 145.96L114.878 145.959C110.338 154.711 108.307 163.178 107.395 168.741V168.742C106.88 171.875 106.675 174.412 106.591 175.981L106.59 175.994L106.589 176.008C106.539 176.819 106.524 177.42 106.524 177.811V178.733C106.524 181.015 104.853 182.939 102.619 183.278L102.401 183.307L102.316 183.315L102.145 183.333H99.3242C96.1343 183.333 93.5479 180.747 93.5479 177.557C93.5478 177.263 93.5196 176.81 93.4795 175.959V175.958C93.3948 174.436 93.1727 171.905 92.6582 168.736V168.735C91.746 163.16 89.6977 154.695 85.1582 145.962C73.5766 123.678 52.1648 110.269 20.7852 106.494L20.5596 106.462C18.3224 106.081 16.667 104.138 16.667 101.848V98.1885C16.6671 95.8979 18.3225 93.9548 20.5596 93.5742L20.7852 93.542C52.1823 89.7675 73.5765 76.359 85.1582 54.0742C89.6985 45.3397 91.7471 36.8551 92.6592 31.2783C93.1765 28.0914 93.397 25.5688 93.4805 24.0352C93.5194 23.2125 93.5478 22.7338 93.5479 22.3887C93.548 19.2289 96.1098 16.6673 99.2695 16.667H100.965ZM96.8936 177.807L96.8945 177.808C96.8862 177.725 96.8818 177.642 96.8818 177.558L96.8809 177.557C96.8809 177.641 96.8853 177.725 96.8936 177.807ZM99.6533 176.647C99.6592 176.659 99.666 176.669 99.6719 176.678C99.666 176.669 99.6592 176.659 99.6533 176.647ZM100.614 174.946C100.598 175.193 100.584 175.424 100.573 175.639C100.553 176.004 100.505 176.299 100.451 176.487C100.506 176.299 100.554 176.005 100.574 175.64C100.597 175.21 100.628 174.714 100.671 174.16V174.159C100.649 174.437 100.63 174.699 100.614 174.946ZM99.6133 176.548C99.6207 176.571 99.6301 176.592 99.6377 176.61C99.6301 176.592 99.6207 176.571 99.6133 176.548ZM99.3945 174.459C99.3872 174.365 99.3821 174.269 99.374 174.172C99.3673 174.091 99.3578 174.009 99.3506 173.926C99.3664 174.11 99.381 174.288 99.3945 174.459ZM99.2852 173.208C99.2706 173.056 99.2564 172.9 99.2402 172.74C99.2563 172.9 99.2706 173.056 99.2852 173.208ZM101.259 168.994V168.995C101.319 168.591 101.383 168.175 101.452 167.75V167.749C101.383 168.174 101.318 168.59 101.259 168.994ZM100.011 41.376C98.6373 46.472 96.5616 52.3659 93.4209 58.3965L93.4219 58.3975C85.6353 73.3817 70.4341 91.8687 39.5918 100.115C69.8639 108.161 85.0734 125.946 92.9922 140.786L93.4219 141.603L93.4229 141.604C96.5576 147.645 98.6365 153.55 100.014 158.653C101.38 153.558 103.444 147.654 106.576 141.606L106.577 141.605C114.345 126.626 129.199 108.314 159.95 100.115C129.187 91.8668 114.338 73.3768 106.576 58.3936C103.449 52.357 101.379 46.4686 100.011 41.376ZM91.7852 152.66C91.7256 152.502 91.6646 152.344 91.6035 152.186C91.6645 152.344 91.7256 152.502 91.7852 152.66ZM90.7383 150.03C90.7039 149.948 90.6695 149.866 90.6348 149.784C90.6695 149.866 90.7039 149.948 90.7383 150.03ZM88.1152 144.425C88.3378 144.853 88.5552 145.28 88.7666 145.707L88.1162 144.425C87.9255 144.058 87.7319 143.693 87.5361 143.331L88.1152 144.425ZM60.0186 115.187C60.3777 115.392 60.7346 115.6 61.0889 115.811L60.0186 115.186C59.6594 114.98 59.2976 114.777 58.9336 114.576L60.0186 115.187ZM65.8936 115.406C65.785 115.333 65.6757 115.26 65.5664 115.187C65.6758 115.26 65.785 115.333 65.8936 115.406ZM64.9424 114.772C64.8631 114.72 64.7847 114.667 64.7051 114.615C64.6585 114.585 64.6112 114.556 64.5645 114.525C64.691 114.607 64.8168 114.69 64.9424 114.772ZM54.4473 112.28C54.8308 112.462 55.2122 112.646 55.5908 112.832H55.5918C54.8726 112.478 54.144 112.134 53.4072 111.797C53.7558 111.956 54.1026 112.117 54.4473 112.28ZM140.724 111.199C140.321 111.417 139.923 111.637 139.529 111.859V111.86C139.961 111.617 140.398 111.376 140.841 111.137C140.802 111.158 140.763 111.178 140.724 111.199ZM142.119 110.462C141.79 110.632 141.465 110.805 141.142 110.978C141.465 110.805 141.79 110.632 142.119 110.462ZM143.36 109.832C143.261 109.881 143.163 109.931 143.064 109.98C143.163 109.931 143.261 109.881 143.36 109.832ZM145.764 108.687C145.718 108.707 145.673 108.728 145.628 108.749C145.695 108.718 145.763 108.687 145.831 108.656C145.809 108.666 145.786 108.676 145.764 108.687ZM147.188 108.051C147.114 108.083 147.041 108.116 146.967 108.148C147.041 108.116 147.114 108.083 147.188 108.051ZM148.447 107.514C148.415 107.527 148.384 107.541 148.352 107.555C148.42 107.526 148.487 107.497 148.556 107.469C148.52 107.484 148.483 107.499 148.447 107.514ZM149.867 106.936C149.848 106.943 149.829 106.95 149.811 106.958C149.829 106.95 149.848 106.943 149.867 106.936ZM32.5527 101.88C33.1295 101.999 33.7012 102.12 34.2676 102.246L32.5527 101.879C31.9759 101.76 31.3939 101.645 30.8066 101.533L32.5527 101.88ZM176.015 100.364C174.755 100.529 173.518 100.709 172.303 100.904V100.905C173.518 100.71 174.756 100.53 176.016 100.365C176.041 100.362 176.066 100.354 176.088 100.343L176.015 100.364ZM23.4219 100.338C23.4477 100.352 23.4765 100.361 23.5068 100.365V100.364C23.4764 100.36 23.4478 100.351 23.4219 100.337V100.338ZM176.155 100.295C176.172 100.279 176.185 100.259 176.197 100.239C176.185 100.259 176.172 100.279 176.155 100.295ZM176.201 100.232C176.212 100.212 176.221 100.191 176.226 100.168C176.221 100.191 176.212 100.212 176.201 100.232ZM176.227 100.077C176.229 100.092 176.23 100.107 176.23 100.122L176.228 100.151C176.229 100.142 176.231 100.132 176.231 100.122C176.231 100.107 176.229 100.092 176.227 100.077ZM20.0518 97.8203C20.0418 97.8553 20.0326 97.8907 20.0254 97.9268C20.0347 97.8796 20.0474 97.8334 20.0615 97.7881C20.0583 97.7988 20.0548 97.8095 20.0518 97.8203ZM20.0898 97.7041C20.0855 97.7153 20.0821 97.7269 20.0781 97.7383C20.0957 97.6888 20.1157 97.6405 20.1387 97.5938L20.0898 97.7041ZM179.456 97.1084C179.445 97.1002 179.434 97.0918 179.423 97.084C179.434 97.0918 179.445 97.1002 179.456 97.1084ZM20.6094 97.0615C20.5961 97.0702 20.5833 97.0797 20.5703 97.0889C20.6162 97.0565 20.6639 97.0266 20.7139 97L20.6094 97.0615ZM42.0889 92.5254C41.2698 92.7773 40.4427 93.0223 39.6064 93.2568C40.4427 93.0223 41.2698 92.7773 42.0889 92.5254ZM42.4785 92.4043C42.7853 92.3086 43.0911 92.2124 43.3955 92.1143C43.0912 92.2125 42.7853 92.3085 42.4785 92.4043ZM43.6729 92.0234C43.9725 91.9258 44.2711 91.8275 44.5684 91.7275C44.2711 91.8275 43.9725 91.9258 43.6729 92.0234ZM44.9746 91.5898C45.2305 91.5025 45.4851 91.4133 45.7393 91.3242C45.4851 91.4133 45.2305 91.5025 44.9746 91.5898ZM46.1846 91.168C46.4348 91.0788 46.6841 90.9884 46.9326 90.8975C46.6841 90.9883 46.4349 91.0788 46.1846 91.168ZM47.3838 90.7324C47.7653 90.5906 48.1451 90.4477 48.5225 90.3018C48.1451 90.4477 47.7653 90.5907 47.3838 90.7324ZM51.6787 89.0088C51.7498 88.9782 51.8206 88.9468 51.8916 88.916C51.8206 88.9468 51.7499 88.9782 51.6787 89.0088ZM52.9395 88.4531C53.0107 88.4211 53.0822 88.3896 53.1533 88.3574C53.0822 88.3896 53.0107 88.4211 52.9395 88.4531ZM54.1904 87.8789C54.2524 87.8498 54.3151 87.8222 54.377 87.793C54.3151 87.8222 54.2524 87.8498 54.1904 87.8789ZM63.1914 82.9346H63.1924C63.5369 82.7145 63.8792 82.4924 64.2188 82.2676H64.2178C63.8782 82.4924 63.5359 82.7145 63.1914 82.9346ZM68.1758 79.4541C67.8559 79.698 67.5337 79.9396 67.209 80.1787L68.1768 79.4541C68.4967 79.2102 68.8139 78.9635 69.1289 78.7148L68.1758 79.4541ZM80.166 67.8086C79.6646 68.4294 79.1532 69.0407 78.6318 69.6426L79.4072 68.7324C79.6628 68.4269 79.9154 68.1188 80.166 67.8086ZM88.1152 55.6123C88.0236 55.7886 87.9297 55.9635 87.8369 56.1387C87.9298 55.9633 88.0245 55.7887 88.1162 55.6123C88.2647 55.3266 88.4103 55.041 88.5537 54.7559L88.1152 55.6123ZM100.573 24.3613C100.584 24.576 100.599 24.8076 100.615 25.0547C100.599 24.8075 100.585 24.5761 100.574 24.3613C100.571 24.3116 100.567 24.2641 100.561 24.2188L100.573 24.3613ZM103.207 23.0654C103.218 23.3979 103.236 23.7826 103.263 24.2168V24.2158C103.236 23.782 103.218 23.3977 103.207 23.0654ZM100.233 23.498C100.22 23.4895 100.207 23.4822 100.192 23.4756C100.207 23.4822 100.22 23.4895 100.233 23.498ZM100.166 23.4639C100.142 23.455 100.117 23.4476 100.092 23.4434C100.117 23.4476 100.142 23.455 100.166 23.4639ZM99.5811 176.429C99.5879 176.458 99.5954 176.485 99.6025 176.51C99.5954 176.485 99.588 176.458 99.5811 176.429Z" fill="url(#paint7_radial_1307_1813)"/>
<defs>
<radialGradient id="paint0_radial_1307_1813" cx="0" cy="0" r="1" gradientUnits="userSpaceOnUse" gradientTransform="translate(99.8872 16.6666) rotate(116.663) scale(147.255 123.614)">
<stop stop-color="#F94543"/>
<stop offset="1" stop-color="#F7306E" stop-opacity="0"/>
</radialGradient>
<radialGradient id="paint1_radial_1307_1813" cx="0" cy="0" r="1" gradientUnits="userSpaceOnUse" gradientTransform="translate(78.8003 181.416) rotate(-43.8925) scale(90.7572 123.183)">
<stop stop-color="#08B962"/>
<stop offset="1" stop-color="#08B962" stop-opacity="0"/>
</radialGradient>
<radialGradient id="paint2_radial_1307_1813" cx="0" cy="0" r="1" gradientUnits="userSpaceOnUse" gradientTransform="translate(41.2497 94.2486) rotate(-180) scale(60.7801 88.6996)">
<stop stop-color="#FABC12"/>
<stop offset="1" stop-color="#FABC12" stop-opacity="0"/>
</radialGradient>
<radialGradient id="paint3_radial_1307_1813" cx="0" cy="0" r="1" gradientUnits="userSpaceOnUse" gradientTransform="translate(157.848 97.6316) rotate(-159.675) scale(101.613 177.145)">
<stop stop-color="#3186FF"/>
<stop offset="1" stop-color="#3186FF" stop-opacity="0"/>
</radialGradient>
<radialGradient id="paint4_radial_1307_1813" cx="0" cy="0" r="1" gradientUnits="userSpaceOnUse" gradientTransform="translate(99.8872 16.667) rotate(116.663) scale(147.255 123.614)">
<stop stop-color="#F94543"/>
<stop offset="1" stop-color="#F7306E" stop-opacity="0"/>
</radialGradient>
<radialGradient id="paint5_radial_1307_1813" cx="0" cy="0" r="1" gradientUnits="userSpaceOnUse" gradientTransform="translate(78.8003 181.416) rotate(-43.8925) scale(90.7572 123.183)">
<stop stop-color="#08B962"/>
<stop offset="1" stop-color="#08B962" stop-opacity="0"/>
</radialGradient>
<radialGradient id="paint6_radial_1307_1813" cx="0" cy="0" r="1" gradientUnits="userSpaceOnUse" gradientTransform="translate(41.2497 94.249) rotate(-180) scale(60.7801 88.6996)">
<stop stop-color="#FABC12"/>
<stop offset="1" stop-color="#FABC12" stop-opacity="0"/>
</radialGradient>
<radialGradient id="paint7_radial_1307_1813" cx="0" cy="0" r="1" gradientUnits="userSpaceOnUse" gradientTransform="translate(157.848 97.6319) rotate(-159.675) scale(101.613 177.145)">
<stop stop-color="#3186FF"/>
<stop offset="1" stop-color="#3186FF" stop-opacity="0"/>
</radialGradient>
</defs>
</svg>
