<svg width="60" height="60" viewBox="0 0 60 60" fill="none" xmlns="http://www.w3.org/2000/svg">
<path d="M30.2891 5C31.2101 5 31.957 5.74691 31.957 6.66797C31.957 6.72371 31.9579 6.7965 31.9609 6.88574L31.9766 7.20312L31.9775 7.21094C32.0029 7.68185 32.0635 8.44308 32.2178 9.38281H32.2188C32.4925 11.0514 33.1017 13.5915 34.4639 16.2227L34.7979 16.8418C38.3372 23.1564 44.645 26.9655 53.7646 28.0625H53.7666C54.4707 28.1487 54.9998 28.7468 55 29.4561V30.5547C54.9999 31.264 54.4707 31.8621 53.7666 31.9482H53.7646C44.3457 33.0806 37.9331 37.103 34.4639 43.7881C33.1019 46.4134 32.4926 48.9532 32.2188 50.6221H32.2178C32.0635 51.5616 32.0029 52.323 31.9775 52.7939L31.9766 52.8027C31.9615 53.0458 31.957 53.2255 31.957 53.3428V53.6201C31.957 54.3266 31.4234 54.919 30.7207 54.9922L30.6953 54.9951L30.6436 55H29.7969C28.8401 54.9998 28.0647 54.2243 28.0645 53.2676C28.0645 53.1805 28.0558 53.0462 28.0439 52.7959L28.0166 52.3975C27.9801 51.9462 27.9141 51.3384 27.7979 50.6221L27.6787 49.9561C27.3592 48.3135 26.74 46.0814 25.5479 43.7881C22.0734 37.1028 15.6493 33.0806 6.23535 31.9482H6.2334C5.5293 31.8621 5.00012 31.264 5 30.5547V29.4561C5.00018 28.7468 5.52933 28.1487 6.2334 28.0625H6.23535C15.6545 26.9301 22.0733 22.9081 25.5479 16.2227C26.9099 13.6024 27.5242 11.0568 27.7979 9.38379C27.9531 8.42784 28.0189 7.67114 28.0439 7.21094C28.0556 6.964 28.0644 6.8204 28.0645 6.7168C28.0645 5.76876 28.8332 5 29.7812 5H30.2891ZM51.8672 31.208C51.649 31.2441 51.4327 31.2829 51.2178 31.3223C51.7191 31.2305 52.2292 31.1471 52.748 31.0732L51.8672 31.208ZM51.8682 28.8027C52.4491 28.8988 53.0419 28.9831 53.6455 29.0557C53.3438 29.0194 53.045 28.9796 52.749 28.9375C52.4529 28.8953 52.1596 28.8507 51.8691 28.8027H51.8682ZM48.5195 28.0859H48.5205C48.253 28.0146 47.9883 27.9404 47.7266 27.8633H47.7256C47.9874 27.9404 48.252 28.0146 48.5195 28.0859ZM25.6729 18.0322C25.6855 18.0115 25.6993 17.9915 25.7119 17.9707L25.7236 17.9512C25.7071 17.9785 25.6894 18.005 25.6729 18.0322ZM32.2832 13.6738C32.3059 13.7388 32.33 13.8037 32.3535 13.8691C32.3227 13.7834 32.2921 13.6982 32.2627 13.6133L32.2832 13.6738Z" fill="white"/>
<path d="M30.2891 5C31.2101 5 31.957 5.74691 31.957 6.66797C31.957 6.72371 31.9579 6.7965 31.9609 6.88574L31.9766 7.20312L31.9775 7.21094C32.0029 7.68185 32.0635 8.44308 32.2178 9.38281H32.2188C32.4925 11.0514 33.1017 13.5915 34.4639 16.2227L34.7979 16.8418C38.3372 23.1564 44.645 26.9655 53.7646 28.0625H53.7666C54.4707 28.1487 54.9998 28.7468 55 29.4561V30.5547C54.9999 31.264 54.4707 31.8621 53.7666 31.9482H53.7646C44.3457 33.0806 37.9331 37.103 34.4639 43.7881C33.1019 46.4134 32.4926 48.9532 32.2188 50.6221H32.2178C32.0635 51.5616 32.0029 52.323 31.9775 52.7939L31.9766 52.8027C31.9615 53.0458 31.957 53.2255 31.957 53.3428V53.6201C31.957 54.3266 31.4234 54.919 30.7207 54.9922L30.6953 54.9951L30.6436 55H29.7969C28.8401 54.9998 28.0647 54.2243 28.0645 53.2676C28.0645 53.1805 28.0558 53.0462 28.0439 52.7959L28.0166 52.3975C27.9801 51.9462 27.9141 51.3384 27.7979 50.6221L27.6787 49.9561C27.3592 48.3135 26.74 46.0814 25.5479 43.7881C22.0734 37.1028 15.6493 33.0806 6.23535 31.9482H6.2334C5.5293 31.8621 5.00012 31.264 5 30.5547V29.4561C5.00018 28.7468 5.52933 28.1487 6.2334 28.0625H6.23535C15.6545 26.9301 22.0733 22.9081 25.5479 16.2227C26.9099 13.6024 27.5242 11.0568 27.7979 9.38379C27.9531 8.42784 28.0189 7.67114 28.0439 7.21094C28.0556 6.964 28.0644 6.8204 28.0645 6.7168C28.0645 5.76876 28.8332 5 29.7812 5H30.2891ZM51.8672 31.208C51.649 31.2441 51.4327 31.2829 51.2178 31.3223C51.7191 31.2305 52.2292 31.1471 52.748 31.0732L51.8672 31.208ZM51.8682 28.8027C52.4491 28.8988 53.0419 28.9831 53.6455 29.0557C53.3438 29.0194 53.045 28.9796 52.749 28.9375C52.4529 28.8953 52.1596 28.8507 51.8691 28.8027H51.8682ZM48.5195 28.0859H48.5205C48.253 28.0146 47.9883 27.9404 47.7266 27.8633H47.7256C47.9874 27.9404 48.252 28.0146 48.5195 28.0859ZM25.6729 18.0322C25.6855 18.0115 25.6993 17.9915 25.7119 17.9707L25.7236 17.9512C25.7071 17.9785 25.6894 18.005 25.6729 18.0322ZM32.2832 13.6738C32.3059 13.7388 32.33 13.8037 32.3535 13.8691C32.3227 13.7834 32.2921 13.6982 32.2627 13.6133L32.2832 13.6738Z" fill="url(#paint0_radial_1261_3424)"/>
<path d="M30.2891 5C31.2101 5 31.957 5.74691 31.957 6.66797C31.957 6.72371 31.9579 6.7965 31.9609 6.88574L31.9766 7.20312L31.9775 7.21094C32.0029 7.68185 32.0635 8.44308 32.2178 9.38281H32.2188C32.4925 11.0514 33.1017 13.5915 34.4639 16.2227L34.7979 16.8418C38.3372 23.1564 44.645 26.9655 53.7646 28.0625H53.7666C54.4707 28.1487 54.9998 28.7468 55 29.4561V30.5547C54.9999 31.264 54.4707 31.8621 53.7666 31.9482H53.7646C44.3457 33.0806 37.9331 37.103 34.4639 43.7881C33.1019 46.4134 32.4926 48.9532 32.2188 50.6221H32.2178C32.0635 51.5616 32.0029 52.323 31.9775 52.7939L31.9766 52.8027C31.9615 53.0458 31.957 53.2255 31.957 53.3428V53.6201C31.957 54.3266 31.4234 54.919 30.7207 54.9922L30.6953 54.9951L30.6436 55H29.7969C28.8401 54.9998 28.0647 54.2243 28.0645 53.2676C28.0645 53.1805 28.0558 53.0462 28.0439 52.7959L28.0166 52.3975C27.9801 51.9462 27.9141 51.3384 27.7979 50.6221L27.6787 49.9561C27.3592 48.3135 26.74 46.0814 25.5479 43.7881C22.0734 37.1028 15.6493 33.0806 6.23535 31.9482H6.2334C5.5293 31.8621 5.00012 31.264 5 30.5547V29.4561C5.00018 28.7468 5.52933 28.1487 6.2334 28.0625H6.23535C15.6545 26.9301 22.0733 22.9081 25.5479 16.2227C26.9099 13.6024 27.5242 11.0568 27.7979 9.38379C27.9531 8.42784 28.0189 7.67114 28.0439 7.21094C28.0556 6.964 28.0644 6.8204 28.0645 6.7168C28.0645 5.76876 28.8332 5 29.7812 5H30.2891ZM51.8672 31.208C51.649 31.2441 51.4327 31.2829 51.2178 31.3223C51.7191 31.2305 52.2292 31.1471 52.748 31.0732L51.8672 31.208ZM51.8682 28.8027C52.4491 28.8988 53.0419 28.9831 53.6455 29.0557C53.3438 29.0194 53.045 28.9796 52.749 28.9375C52.4529 28.8953 52.1596 28.8507 51.8691 28.8027H51.8682ZM48.5195 28.0859H48.5205C48.253 28.0146 47.9883 27.9404 47.7266 27.8633H47.7256C47.9874 27.9404 48.252 28.0146 48.5195 28.0859ZM25.6729 18.0322C25.6855 18.0115 25.6993 17.9915 25.7119 17.9707L25.7236 17.9512C25.7071 17.9785 25.6894 18.005 25.6729 18.0322ZM32.2832 13.6738C32.3059 13.7388 32.33 13.8037 32.3535 13.8691C32.3227 13.7834 32.2921 13.6982 32.2627 13.6133L32.2832 13.6738Z" fill="url(#paint1_radial_1261_3424)"/>
<path d="M30.2891 5C31.2101 5 31.957 5.74691 31.957 6.66797C31.957 6.72371 31.9579 6.7965 31.9609 6.88574L31.9766 7.20312L31.9775 7.21094C32.0029 7.68185 32.0635 8.44308 32.2178 9.38281H32.2188C32.4925 11.0514 33.1017 13.5915 34.4639 16.2227L34.7979 16.8418C38.3372 23.1564 44.645 26.9655 53.7646 28.0625H53.7666C54.4707 28.1487 54.9998 28.7468 55 29.4561V30.5547C54.9999 31.264 54.4707 31.8621 53.7666 31.9482H53.7646C44.3457 33.0806 37.9331 37.103 34.4639 43.7881C33.1019 46.4134 32.4926 48.9532 32.2188 50.6221H32.2178C32.0635 51.5616 32.0029 52.323 31.9775 52.7939L31.9766 52.8027C31.9615 53.0458 31.957 53.2255 31.957 53.3428V53.6201C31.957 54.3266 31.4234 54.919 30.7207 54.9922L30.6953 54.9951L30.6436 55H29.7969C28.8401 54.9998 28.0647 54.2243 28.0645 53.2676C28.0645 53.1805 28.0558 53.0462 28.0439 52.7959L28.0166 52.3975C27.9801 51.9462 27.9141 51.3384 27.7979 50.6221L27.6787 49.9561C27.3592 48.3135 26.74 46.0814 25.5479 43.7881C22.0734 37.1028 15.6493 33.0806 6.23535 31.9482H6.2334C5.5293 31.8621 5.00012 31.264 5 30.5547V29.4561C5.00018 28.7468 5.52933 28.1487 6.2334 28.0625H6.23535C15.6545 26.9301 22.0733 22.9081 25.5479 16.2227C26.9099 13.6024 27.5242 11.0568 27.7979 9.38379C27.9531 8.42784 28.0189 7.67114 28.0439 7.21094C28.0556 6.964 28.0644 6.8204 28.0645 6.7168C28.0645 5.76876 28.8332 5 29.7812 5H30.2891ZM51.8672 31.208C51.649 31.2441 51.4327 31.2829 51.2178 31.3223C51.7191 31.2305 52.2292 31.1471 52.748 31.0732L51.8672 31.208ZM51.8682 28.8027C52.4491 28.8988 53.0419 28.9831 53.6455 29.0557C53.3438 29.0194 53.045 28.9796 52.749 28.9375C52.4529 28.8953 52.1596 28.8507 51.8691 28.8027H51.8682ZM48.5195 28.0859H48.5205C48.253 28.0146 47.9883 27.9404 47.7266 27.8633H47.7256C47.9874 27.9404 48.252 28.0146 48.5195 28.0859ZM25.6729 18.0322C25.6855 18.0115 25.6993 17.9915 25.7119 17.9707L25.7236 17.9512C25.7071 17.9785 25.6894 18.005 25.6729 18.0322ZM32.2832 13.6738C32.3059 13.7388 32.33 13.8037 32.3535 13.8691C32.3227 13.7834 32.2921 13.6982 32.2627 13.6133L32.2832 13.6738Z" fill="url(#paint2_radial_1261_3424)"/>
<path d="M30.2891 5C31.2101 5 31.957 5.74691 31.957 6.66797C31.957 6.72371 31.9579 6.7965 31.9609 6.88574L31.9766 7.20312L31.9775 7.21094C32.0029 7.68185 32.0635 8.44308 32.2178 9.38281H32.2188C32.4925 11.0514 33.1017 13.5915 34.4639 16.2227L34.7979 16.8418C38.3372 23.1564 44.645 26.9655 53.7646 28.0625H53.7666C54.4707 28.1487 54.9998 28.7468 55 29.4561V30.5547C54.9999 31.264 54.4707 31.8621 53.7666 31.9482H53.7646C44.3457 33.0806 37.9331 37.103 34.4639 43.7881C33.1019 46.4134 32.4926 48.9532 32.2188 50.6221H32.2178C32.0635 51.5616 32.0029 52.323 31.9775 52.7939L31.9766 52.8027C31.9615 53.0458 31.957 53.2255 31.957 53.3428V53.6201C31.957 54.3266 31.4234 54.919 30.7207 54.9922L30.6953 54.9951L30.6436 55H29.7969C28.8401 54.9998 28.0647 54.2243 28.0645 53.2676C28.0645 53.1805 28.0558 53.0462 28.0439 52.7959L28.0166 52.3975C27.9801 51.9462 27.9141 51.3384 27.7979 50.6221L27.6787 49.9561C27.3592 48.3135 26.74 46.0814 25.5479 43.7881C22.0734 37.1028 15.6493 33.0806 6.23535 31.9482H6.2334C5.5293 31.8621 5.00012 31.264 5 30.5547V29.4561C5.00018 28.7468 5.52933 28.1487 6.2334 28.0625H6.23535C15.6545 26.9301 22.0733 22.9081 25.5479 16.2227C26.9099 13.6024 27.5242 11.0568 27.7979 9.38379C27.9531 8.42784 28.0189 7.67114 28.0439 7.21094C28.0556 6.964 28.0644 6.8204 28.0645 6.7168C28.0645 5.76876 28.8332 5 29.7812 5H30.2891ZM51.8672 31.208C51.649 31.2441 51.4327 31.2829 51.2178 31.3223C51.7191 31.2305 52.2292 31.1471 52.748 31.0732L51.8672 31.208ZM51.8682 28.8027C52.4491 28.8988 53.0419 28.9831 53.6455 29.0557C53.3438 29.0194 53.045 28.9796 52.749 28.9375C52.4529 28.8953 52.1596 28.8507 51.8691 28.8027H51.8682ZM48.5195 28.0859H48.5205C48.253 28.0146 47.9883 27.9404 47.7266 27.8633H47.7256C47.9874 27.9404 48.252 28.0146 48.5195 28.0859ZM25.6729 18.0322C25.6855 18.0115 25.6993 17.9915 25.7119 17.9707L25.7236 17.9512C25.7071 17.9785 25.6894 18.005 25.6729 18.0322ZM32.2832 13.6738C32.3059 13.7388 32.33 13.8037 32.3535 13.8691C32.3227 13.7834 32.2921 13.6982 32.2627 13.6133L32.2832 13.6738Z" fill="url(#paint3_radial_1261_3424)"/>
<path d="M30.2891 5C31.2101 5 31.957 5.74691 31.957 6.66797C31.957 6.72371 31.9579 6.7965 31.9609 6.88574L31.9766 7.20312L31.9775 7.21094C32.0029 7.68185 32.0635 8.44308 32.2178 9.38281H32.2188C32.4925 11.0514 33.1017 13.5915 34.4639 16.2227L34.7979 16.8418C38.3372 23.1564 44.645 26.9655 53.7646 28.0625H53.7666C54.4707 28.1487 54.9998 28.7468 55 29.4561V30.5547C54.9999 31.264 54.4707 31.8621 53.7666 31.9482H53.7646C44.3457 33.0806 37.9331 37.103 34.4639 43.7881C33.1019 46.4134 32.4926 48.9532 32.2188 50.6221H32.2178C32.0635 51.5616 32.0029 52.323 31.9775 52.7939L31.9766 52.8027C31.9615 53.0458 31.957 53.2255 31.957 53.3428V53.6201C31.957 54.3266 31.4234 54.919 30.7207 54.9922L30.6953 54.9951L30.6436 55H29.7969C28.8401 54.9998 28.0647 54.2243 28.0645 53.2676C28.0645 53.1805 28.0558 53.0462 28.0439 52.7959L28.0166 52.3975C27.9801 51.9462 27.9141 51.3384 27.7979 50.6221L27.6787 49.9561C27.3592 48.3135 26.74 46.0814 25.5479 43.7881C22.0734 37.1028 15.6493 33.0806 6.23535 31.9482H6.2334C5.5293 31.8621 5.00012 31.264 5 30.5547V29.4561C5.00018 28.7468 5.52933 28.1487 6.2334 28.0625H6.23535C15.6545 26.9301 22.0733 22.9081 25.5479 16.2227C26.9099 13.6024 27.5242 11.0568 27.7979 9.38379C27.9531 8.42784 28.0189 7.67114 28.0439 7.21094C28.0556 6.964 28.0644 6.8204 28.0645 6.7168C28.0645 5.76876 28.8332 5 29.7812 5H30.2891ZM30.0967 53.0146L30.1074 53.0088C30.1109 53.0051 30.1136 52.9992 30.1172 52.9922C30.1099 53.0063 30.1034 53.0143 30.0967 53.0146ZM29.7598 51.7041C29.7809 51.9036 29.7978 52.0868 29.8115 52.252V52.251C29.7978 52.0858 29.7809 51.9026 29.7598 51.7031V51.7041ZM30.0029 12.4121C29.5908 13.9413 28.969 15.7108 28.0264 17.5205L28.0254 17.5195C25.6893 22.0147 21.1295 27.5604 11.877 30.0342C21.1261 32.4921 25.6881 37.9809 28.0264 42.4805V42.4814C28.967 44.2939 29.5908 46.0655 30.0039 47.5967C30.4137 46.0679 31.0328 44.296 31.9727 42.4814C34.3031 37.9875 38.7592 32.4939 47.9844 30.0342C38.7559 27.5596 34.3011 22.0134 31.9727 17.5186C31.0344 15.7073 30.4133 13.9401 30.0029 12.4121ZM9.99316 31.5654C9.68228 31.4975 9.36785 31.4328 9.0498 31.3721C9.36785 31.4328 9.68224 31.4975 9.99316 31.5654ZM51.8672 31.208C51.6698 31.2406 51.4741 31.2772 51.2793 31.3125C51.5202 31.2688 51.763 31.2266 52.0078 31.1865L51.8672 31.208ZM8.27148 31.2324C8.20234 31.2207 8.13295 31.2096 8.06348 31.1982C8.13295 31.2096 8.20233 31.2207 8.27148 31.2324ZM7.41602 31.0977C7.3436 31.087 7.271 31.0767 7.19824 31.0664C7.271 31.0767 7.3436 31.087 7.41602 31.0977ZM52.8301 30.1006V30.1016V30.1006ZM48.5195 28.0859H48.5205C48.253 28.0146 47.9883 27.9404 47.7266 27.8633H47.7256C47.9874 27.9404 48.252 28.0146 48.5195 28.0859ZM39.2637 24.7793C39.5387 24.9893 39.8247 25.1934 40.1182 25.3965C39.8243 25.1931 39.5381 24.9886 39.2627 24.7783L39.2637 24.7793Z" fill="white"/>
<path d="M30.2891 5C31.2101 5 31.957 5.74691 31.957 6.66797C31.957 6.72371 31.9579 6.7965 31.9609 6.88574L31.9766 7.20312L31.9775 7.21094C32.0029 7.68185 32.0635 8.44308 32.2178 9.38281H32.2188C32.4925 11.0514 33.1017 13.5915 34.4639 16.2227L34.7979 16.8418C38.3372 23.1564 44.645 26.9655 53.7646 28.0625H53.7666C54.4707 28.1487 54.9998 28.7468 55 29.4561V30.5547C54.9999 31.264 54.4707 31.8621 53.7666 31.9482H53.7646C44.3457 33.0806 37.9331 37.103 34.4639 43.7881C33.1019 46.4134 32.4926 48.9532 32.2188 50.6221H32.2178C32.0635 51.5616 32.0029 52.323 31.9775 52.7939L31.9766 52.8027C31.9615 53.0458 31.957 53.2255 31.957 53.3428V53.6201C31.957 54.3266 31.4234 54.919 30.7207 54.9922L30.6953 54.9951L30.6436 55H29.7969C28.8401 54.9998 28.0647 54.2243 28.0645 53.2676C28.0645 53.1805 28.0558 53.0462 28.0439 52.7959L28.0166 52.3975C27.9801 51.9462 27.9141 51.3384 27.7979 50.6221L27.6787 49.9561C27.3592 48.3135 26.74 46.0814 25.5479 43.7881C22.0734 37.1028 15.6493 33.0806 6.23535 31.9482H6.2334C5.5293 31.8621 5.00012 31.264 5 30.5547V29.4561C5.00018 28.7468 5.52933 28.1487 6.2334 28.0625H6.23535C15.6545 26.9301 22.0733 22.9081 25.5479 16.2227C26.9099 13.6024 27.5242 11.0568 27.7979 9.38379C27.9531 8.42784 28.0189 7.67114 28.0439 7.21094C28.0556 6.964 28.0644 6.8204 28.0645 6.7168C28.0645 5.76876 28.8332 5 29.7812 5H30.2891ZM30.0967 53.0146L30.1074 53.0088C30.1109 53.0051 30.1136 52.9992 30.1172 52.9922C30.1099 53.0063 30.1034 53.0143 30.0967 53.0146ZM29.7598 51.7041C29.7809 51.9036 29.7978 52.0868 29.8115 52.252V52.251C29.7978 52.0858 29.7809 51.9026 29.7598 51.7031V51.7041ZM30.0029 12.4121C29.5908 13.9413 28.969 15.7108 28.0264 17.5205L28.0254 17.5195C25.6893 22.0147 21.1295 27.5604 11.877 30.0342C21.1261 32.4921 25.6881 37.9809 28.0264 42.4805V42.4814C28.967 44.2939 29.5908 46.0655 30.0039 47.5967C30.4137 46.0679 31.0328 44.296 31.9727 42.4814C34.3031 37.9875 38.7592 32.4939 47.9844 30.0342C38.7559 27.5596 34.3011 22.0134 31.9727 17.5186C31.0344 15.7073 30.4133 13.9401 30.0029 12.4121ZM9.99316 31.5654C9.68228 31.4975 9.36785 31.4328 9.0498 31.3721C9.36785 31.4328 9.68224 31.4975 9.99316 31.5654ZM51.8672 31.208C51.6698 31.2406 51.4741 31.2772 51.2793 31.3125C51.5202 31.2688 51.763 31.2266 52.0078 31.1865L51.8672 31.208ZM8.27148 31.2324C8.20234 31.2207 8.13295 31.2096 8.06348 31.1982C8.13295 31.2096 8.20233 31.2207 8.27148 31.2324ZM7.41602 31.0977C7.3436 31.087 7.271 31.0767 7.19824 31.0664C7.271 31.0767 7.3436 31.087 7.41602 31.0977ZM52.8301 30.1006V30.1016V30.1006ZM48.5195 28.0859H48.5205C48.253 28.0146 47.9883 27.9404 47.7266 27.8633H47.7256C47.9874 27.9404 48.252 28.0146 48.5195 28.0859ZM39.2637 24.7793C39.5387 24.9893 39.8247 25.1934 40.1182 25.3965C39.8243 25.1931 39.5381 24.9886 39.2627 24.7783L39.2637 24.7793Z" fill="url(#paint4_radial_1261_3424)"/>
<path d="M30.2891 5C31.2101 5 31.957 5.74691 31.957 6.66797C31.957 6.72371 31.9579 6.7965 31.9609 6.88574L31.9766 7.20312L31.9775 7.21094C32.0029 7.68185 32.0635 8.44308 32.2178 9.38281H32.2188C32.4925 11.0514 33.1017 13.5915 34.4639 16.2227L34.7979 16.8418C38.3372 23.1564 44.645 26.9655 53.7646 28.0625H53.7666C54.4707 28.1487 54.9998 28.7468 55 29.4561V30.5547C54.9999 31.264 54.4707 31.8621 53.7666 31.9482H53.7646C44.3457 33.0806 37.9331 37.103 34.4639 43.7881C33.1019 46.4134 32.4926 48.9532 32.2188 50.6221H32.2178C32.0635 51.5616 32.0029 52.323 31.9775 52.7939L31.9766 52.8027C31.9615 53.0458 31.957 53.2255 31.957 53.3428V53.6201C31.957 54.3266 31.4234 54.919 30.7207 54.9922L30.6953 54.9951L30.6436 55H29.7969C28.8401 54.9998 28.0647 54.2243 28.0645 53.2676C28.0645 53.1805 28.0558 53.0462 28.0439 52.7959L28.0166 52.3975C27.9801 51.9462 27.9141 51.3384 27.7979 50.6221L27.6787 49.9561C27.3592 48.3135 26.74 46.0814 25.5479 43.7881C22.0734 37.1028 15.6493 33.0806 6.23535 31.9482H6.2334C5.5293 31.8621 5.00012 31.264 5 30.5547V29.4561C5.00018 28.7468 5.52933 28.1487 6.2334 28.0625H6.23535C15.6545 26.9301 22.0733 22.9081 25.5479 16.2227C26.9099 13.6024 27.5242 11.0568 27.7979 9.38379C27.9531 8.42784 28.0189 7.67114 28.0439 7.21094C28.0556 6.964 28.0644 6.8204 28.0645 6.7168C28.0645 5.76876 28.8332 5 29.7812 5H30.2891ZM30.0967 53.0146L30.1074 53.0088C30.1109 53.0051 30.1136 52.9992 30.1172 52.9922C30.1099 53.0063 30.1034 53.0143 30.0967 53.0146ZM29.7598 51.7041C29.7809 51.9036 29.7978 52.0868 29.8115 52.252V52.251C29.7978 52.0858 29.7809 51.9026 29.7598 51.7031V51.7041ZM30.0029 12.4121C29.5908 13.9413 28.969 15.7108 28.0264 17.5205L28.0254 17.5195C25.6893 22.0147 21.1295 27.5604 11.877 30.0342C21.1261 32.4921 25.6881 37.9809 28.0264 42.4805V42.4814C28.967 44.2939 29.5908 46.0655 30.0039 47.5967C30.4137 46.0679 31.0328 44.296 31.9727 42.4814C34.3031 37.9875 38.7592 32.4939 47.9844 30.0342C38.7559 27.5596 34.3011 22.0134 31.9727 17.5186C31.0344 15.7073 30.4133 13.9401 30.0029 12.4121ZM9.99316 31.5654C9.68228 31.4975 9.36785 31.4328 9.0498 31.3721C9.36785 31.4328 9.68224 31.4975 9.99316 31.5654ZM51.8672 31.208C51.6698 31.2406 51.4741 31.2772 51.2793 31.3125C51.5202 31.2688 51.763 31.2266 52.0078 31.1865L51.8672 31.208ZM8.27148 31.2324C8.20234 31.2207 8.13295 31.2096 8.06348 31.1982C8.13295 31.2096 8.20233 31.2207 8.27148 31.2324ZM7.41602 31.0977C7.3436 31.087 7.271 31.0767 7.19824 31.0664C7.271 31.0767 7.3436 31.087 7.41602 31.0977ZM52.8301 30.1006V30.1016V30.1006ZM48.5195 28.0859H48.5205C48.253 28.0146 47.9883 27.9404 47.7266 27.8633H47.7256C47.9874 27.9404 48.252 28.0146 48.5195 28.0859ZM39.2637 24.7793C39.5387 24.9893 39.8247 25.1934 40.1182 25.3965C39.8243 25.1931 39.5381 24.9886 39.2627 24.7783L39.2637 24.7793Z" fill="url(#paint5_radial_1261_3424)"/>
<path d="M30.2891 5C31.2101 5 31.957 5.74691 31.957 6.66797C31.957 6.72371 31.9579 6.7965 31.9609 6.88574L31.9766 7.20312L31.9775 7.21094C32.0029 7.68185 32.0635 8.44308 32.2178 9.38281H32.2188C32.4925 11.0514 33.1017 13.5915 34.4639 16.2227L34.7979 16.8418C38.3372 23.1564 44.645 26.9655 53.7646 28.0625H53.7666C54.4707 28.1487 54.9998 28.7468 55 29.4561V30.5547C54.9999 31.264 54.4707 31.8621 53.7666 31.9482H53.7646C44.3457 33.0806 37.9331 37.103 34.4639 43.7881C33.1019 46.4134 32.4926 48.9532 32.2188 50.6221H32.2178C32.0635 51.5616 32.0029 52.323 31.9775 52.7939L31.9766 52.8027C31.9615 53.0458 31.957 53.2255 31.957 53.3428V53.6201C31.957 54.3266 31.4234 54.919 30.7207 54.9922L30.6953 54.9951L30.6436 55H29.7969C28.8401 54.9998 28.0647 54.2243 28.0645 53.2676C28.0645 53.1805 28.0558 53.0462 28.0439 52.7959L28.0166 52.3975C27.9801 51.9462 27.9141 51.3384 27.7979 50.6221L27.6787 49.9561C27.3592 48.3135 26.74 46.0814 25.5479 43.7881C22.0734 37.1028 15.6493 33.0806 6.23535 31.9482H6.2334C5.5293 31.8621 5.00012 31.264 5 30.5547V29.4561C5.00018 28.7468 5.52933 28.1487 6.2334 28.0625H6.23535C15.6545 26.9301 22.0733 22.9081 25.5479 16.2227C26.9099 13.6024 27.5242 11.0568 27.7979 9.38379C27.9531 8.42784 28.0189 7.67114 28.0439 7.21094C28.0556 6.964 28.0644 6.8204 28.0645 6.7168C28.0645 5.76876 28.8332 5 29.7812 5H30.2891ZM30.0967 53.0146L30.1074 53.0088C30.1109 53.0051 30.1136 52.9992 30.1172 52.9922C30.1099 53.0063 30.1034 53.0143 30.0967 53.0146ZM29.7598 51.7041C29.7809 51.9036 29.7978 52.0868 29.8115 52.252V52.251C29.7978 52.0858 29.7809 51.9026 29.7598 51.7031V51.7041ZM30.0029 12.4121C29.5908 13.9413 28.969 15.7108 28.0264 17.5205L28.0254 17.5195C25.6893 22.0147 21.1295 27.5604 11.877 30.0342C21.1261 32.4921 25.6881 37.9809 28.0264 42.4805V42.4814C28.967 44.2939 29.5908 46.0655 30.0039 47.5967C30.4137 46.0679 31.0328 44.296 31.9727 42.4814C34.3031 37.9875 38.7592 32.4939 47.9844 30.0342C38.7559 27.5596 34.3011 22.0134 31.9727 17.5186C31.0344 15.7073 30.4133 13.9401 30.0029 12.4121ZM9.99316 31.5654C9.68228 31.4975 9.36785 31.4328 9.0498 31.3721C9.36785 31.4328 9.68224 31.4975 9.99316 31.5654ZM51.8672 31.208C51.6698 31.2406 51.4741 31.2772 51.2793 31.3125C51.5202 31.2688 51.763 31.2266 52.0078 31.1865L51.8672 31.208ZM8.27148 31.2324C8.20234 31.2207 8.13295 31.2096 8.06348 31.1982C8.13295 31.2096 8.20233 31.2207 8.27148 31.2324ZM7.41602 31.0977C7.3436 31.087 7.271 31.0767 7.19824 31.0664C7.271 31.0767 7.3436 31.087 7.41602 31.0977ZM52.8301 30.1006V30.1016V30.1006ZM48.5195 28.0859H48.5205C48.253 28.0146 47.9883 27.9404 47.7266 27.8633H47.7256C47.9874 27.9404 48.252 28.0146 48.5195 28.0859ZM39.2637 24.7793C39.5387 24.9893 39.8247 25.1934 40.1182 25.3965C39.8243 25.1931 39.5381 24.9886 39.2627 24.7783L39.2637 24.7793Z" fill="url(#paint6_radial_1261_3424)"/>
<path d="M30.2891 5C31.2101 5 31.957 5.74691 31.957 6.66797C31.957 6.72371 31.9579 6.7965 31.9609 6.88574L31.9766 7.20312L31.9775 7.21094C32.0029 7.68185 32.0635 8.44308 32.2178 9.38281H32.2188C32.4925 11.0514 33.1017 13.5915 34.4639 16.2227L34.7979 16.8418C38.3372 23.1564 44.645 26.9655 53.7646 28.0625H53.7666C54.4707 28.1487 54.9998 28.7468 55 29.4561V30.5547C54.9999 31.264 54.4707 31.8621 53.7666 31.9482H53.7646C44.3457 33.0806 37.9331 37.103 34.4639 43.7881C33.1019 46.4134 32.4926 48.9532 32.2188 50.6221H32.2178C32.0635 51.5616 32.0029 52.323 31.9775 52.7939L31.9766 52.8027C31.9615 53.0458 31.957 53.2255 31.957 53.3428V53.6201C31.957 54.3266 31.4234 54.919 30.7207 54.9922L30.6953 54.9951L30.6436 55H29.7969C28.8401 54.9998 28.0647 54.2243 28.0645 53.2676C28.0645 53.1805 28.0558 53.0462 28.0439 52.7959L28.0166 52.3975C27.9801 51.9462 27.9141 51.3384 27.7979 50.6221L27.6787 49.9561C27.3592 48.3135 26.74 46.0814 25.5479 43.7881C22.0734 37.1028 15.6493 33.0806 6.23535 31.9482H6.2334C5.5293 31.8621 5.00012 31.264 5 30.5547V29.4561C5.00018 28.7468 5.52933 28.1487 6.2334 28.0625H6.23535C15.6545 26.9301 22.0733 22.9081 25.5479 16.2227C26.9099 13.6024 27.5242 11.0568 27.7979 9.38379C27.9531 8.42784 28.0189 7.67114 28.0439 7.21094C28.0556 6.964 28.0644 6.8204 28.0645 6.7168C28.0645 5.76876 28.8332 5 29.7812 5H30.2891ZM30.0967 53.0146L30.1074 53.0088C30.1109 53.0051 30.1136 52.9992 30.1172 52.9922C30.1099 53.0063 30.1034 53.0143 30.0967 53.0146ZM29.7598 51.7041C29.7809 51.9036 29.7978 52.0868 29.8115 52.252V52.251C29.7978 52.0858 29.7809 51.9026 29.7598 51.7031V51.7041ZM30.0029 12.4121C29.5908 13.9413 28.969 15.7108 28.0264 17.5205L28.0254 17.5195C25.6893 22.0147 21.1295 27.5604 11.877 30.0342C21.1261 32.4921 25.6881 37.9809 28.0264 42.4805V42.4814C28.967 44.2939 29.5908 46.0655 30.0039 47.5967C30.4137 46.0679 31.0328 44.296 31.9727 42.4814C34.3031 37.9875 38.7592 32.4939 47.9844 30.0342C38.7559 27.5596 34.3011 22.0134 31.9727 17.5186C31.0344 15.7073 30.4133 13.9401 30.0029 12.4121ZM9.99316 31.5654C9.68228 31.4975 9.36785 31.4328 9.0498 31.3721C9.36785 31.4328 9.68224 31.4975 9.99316 31.5654ZM51.8672 31.208C51.6698 31.2406 51.4741 31.2772 51.2793 31.3125C51.5202 31.2688 51.763 31.2266 52.0078 31.1865L51.8672 31.208ZM8.27148 31.2324C8.20234 31.2207 8.13295 31.2096 8.06348 31.1982C8.13295 31.2096 8.20233 31.2207 8.27148 31.2324ZM7.41602 31.0977C7.3436 31.087 7.271 31.0767 7.19824 31.0664C7.271 31.0767 7.3436 31.087 7.41602 31.0977ZM52.8301 30.1006V30.1016V30.1006ZM48.5195 28.0859H48.5205C48.253 28.0146 47.9883 27.9404 47.7266 27.8633H47.7256C47.9874 27.9404 48.252 28.0146 48.5195 28.0859ZM39.2637 24.7793C39.5387 24.9893 39.8247 25.1934 40.1182 25.3965C39.8243 25.1931 39.5381 24.9886 39.2627 24.7783L39.2637 24.7793Z" fill="url(#paint7_radial_1261_3424)"/>
<defs>
<radialGradient id="paint0_radial_1261_3424" cx="0" cy="0" r="1" gradientUnits="userSpaceOnUse" gradientTransform="translate(29.9662 5) rotate(116.663) scale(44.1768 37.0844)">
<stop stop-color="#F94543"/>
<stop offset="1" stop-color="#F7306E" stop-opacity="0"/>
</radialGradient>
<radialGradient id="paint1_radial_1261_3424" cx="0" cy="0" r="1" gradientUnits="userSpaceOnUse" gradientTransform="translate(23.6401 54.4249) rotate(-43.8925) scale(27.2273 36.955)">
<stop stop-color="#08B962"/>
<stop offset="1" stop-color="#08B962" stop-opacity="0"/>
</radialGradient>
<radialGradient id="paint2_radial_1261_3424" cx="0" cy="0" r="1" gradientUnits="userSpaceOnUse" gradientTransform="translate(12.3748 28.2747) rotate(-180) scale(18.2341 26.61)">
<stop stop-color="#FABC12"/>
<stop offset="1" stop-color="#FABC12" stop-opacity="0"/>
</radialGradient>
<radialGradient id="paint3_radial_1261_3424" cx="0" cy="0" r="1" gradientUnits="userSpaceOnUse" gradientTransform="translate(47.3545 29.2896) rotate(-159.675) scale(30.484 53.1437)">
<stop stop-color="#3186FF"/>
<stop offset="1" stop-color="#3186FF" stop-opacity="0"/>
</radialGradient>
<radialGradient id="paint4_radial_1261_3424" cx="0" cy="0" r="1" gradientUnits="userSpaceOnUse" gradientTransform="translate(29.9662 5) rotate(116.663) scale(44.1768 37.0844)">
<stop stop-color="#F94543"/>
<stop offset="1" stop-color="#F7306E" stop-opacity="0"/>
</radialGradient>
<radialGradient id="paint5_radial_1261_3424" cx="0" cy="0" r="1" gradientUnits="userSpaceOnUse" gradientTransform="translate(23.6401 54.4249) rotate(-43.8925) scale(27.2273 36.955)">
<stop stop-color="#08B962"/>
<stop offset="1" stop-color="#08B962" stop-opacity="0"/>
</radialGradient>
<radialGradient id="paint6_radial_1261_3424" cx="0" cy="0" r="1" gradientUnits="userSpaceOnUse" gradientTransform="translate(12.3748 28.2747) rotate(-180) scale(18.2341 26.61)">
<stop stop-color="#FABC12"/>
<stop offset="1" stop-color="#FABC12" stop-opacity="0"/>
</radialGradient>
<radialGradient id="paint7_radial_1261_3424" cx="0" cy="0" r="1" gradientUnits="userSpaceOnUse" gradientTransform="translate(47.3545 29.2896) rotate(-159.675) scale(30.484 53.1437)">
<stop stop-color="#3186FF"/>
<stop offset="1" stop-color="#3186FF" stop-opacity="0"/>
</radialGradient>
</defs>
</svg>
