<svg width="60" height="60" viewBox="0 0 60 60" fill="none" xmlns="http://www.w3.org/2000/svg">
<path d="M26.7295 43.2708C26.417 43.2708 26.1253 43.1875 25.8545 43C25.417 42.7083 25.167 42.2292 25.167 41.7083C25.167 41.3958 25.1461 41.0625 25.1045 40.7292C24.917 39.25 24.2503 37.9583 23.1253 36.8333C22.0003 35.7083 20.6045 35 19.1045 34.8125C18.8545 34.7917 18.5003 34.7708 18.167 34.7917C17.6253 34.8333 17.1253 34.6042 16.8128 34.1667C16.5003 33.75 16.417 33.1875 16.5836 32.6875C16.8961 31.8333 17.3545 31.0625 17.8961 30.4375L21.1045 26.3958C26.6253 19.5 37.8128 11.2083 46.0003 7.91667C47.7295 7.25 49.5836 7.64583 50.8545 8.89583C52.167 10.2083 52.5628 12.0833 51.8753 13.7917C48.5836 22 40.3128 33.1667 33.417 38.6875L29.3128 41.9792C28.542 42.5417 27.917 42.8958 27.292 43.1458C27.1253 43.2292 26.917 43.2708 26.7295 43.2708Z" fill="#63BDFD"/>
<path d="M13.5002 52.3958C11.9377 52.3958 10.4377 51.7708 9.31267 50.6458C8.021 49.3542 7.396 47.5625 7.60434 45.7292L8.16684 40.6042C8.7085 35.5208 12.8752 31.75 18.0418 31.6458C18.4377 31.625 18.9585 31.6458 19.4377 31.6875C21.7085 31.9792 23.7293 33 25.3543 34.625C26.9585 36.2292 27.9168 38.1458 28.2085 40.2917C28.271 40.75 28.3127 41.25 28.3127 41.6875C28.3127 44.4375 27.2502 47 25.3335 48.9375C23.7293 50.5208 21.6668 51.5 19.3335 51.7917L14.1877 52.3542C13.9585 52.375 13.7293 52.3958 13.5002 52.3958Z" fill="#63BDFD"/>
<path d="M34.6667 36.7083C33.8125 36.7083 33.1042 36 33.1042 35.1458C33.1042 30.5625 29.375 26.8542 24.8125 26.8542C23.9583 26.8542 23.25 26.1458 23.25 25.2917C23.25 24.4375 23.9375 23.7292 24.7917 23.7292C31.0833 23.7292 36.2083 28.8542 36.2083 35.1458C36.2292 36.0208 35.5208 36.7083 34.6667 36.7083Z" fill="#63BDFD"/>
<path d="M26.7295 43.2708C26.417 43.2708 26.1253 43.1875 25.8545 43C25.417 42.7083 25.167 42.2292 25.167 41.7083C25.167 41.3958 25.1461 41.0625 25.1045 40.7292C24.917 39.25 24.2503 37.9583 23.1253 36.8333C22.0003 35.7083 20.6045 35 19.1045 34.8125C18.8545 34.7917 18.5003 34.7708 18.167 34.7917C17.6253 34.8333 17.1253 34.6042 16.8128 34.1667C16.5003 33.75 16.417 33.1875 16.5836 32.6875C16.8961 31.8333 17.3545 31.0625 17.8961 30.4375L21.1045 26.3958C26.6253 19.5 37.8128 11.2083 46.0003 7.91667C47.7295 7.25 49.5836 7.64583 50.8545 8.89583C52.167 10.2083 52.5628 12.0833 51.8753 13.7917C48.5836 22 40.3128 33.1667 33.417 38.6875L29.3128 41.9792C28.542 42.5417 27.917 42.8958 27.292 43.1458C27.1253 43.2292 26.917 43.2708 26.7295 43.2708ZM20.7086 31.9583C22.4586 32.4167 24.0211 33.3333 25.3336 34.6458C26.6461 35.9375 27.5211 37.4375 27.9586 39.1042L31.4795 36.2708C38.0211 31.0417 45.8753 20.4375 48.9795 12.6458C49.292 11.875 48.8545 11.3333 48.6461 11.1458C48.5003 11 47.9586 10.5417 47.1253 10.8542C39.3753 13.9792 28.7711 21.8333 23.5211 28.375L20.7086 31.9583Z" fill="#0057E5"/>
<path d="M13.5002 52.3958C11.9377 52.3958 10.4377 51.7708 9.31267 50.6458C8.021 49.3542 7.396 47.5625 7.60434 45.7292L8.16684 40.6042C8.7085 35.5208 12.8752 31.75 18.0418 31.6458C18.4377 31.625 18.9585 31.6458 19.4377 31.6875C21.7085 31.9792 23.7293 33 25.3543 34.625C26.9585 36.2292 27.9168 38.1458 28.2085 40.2917C28.271 40.75 28.3127 41.25 28.3127 41.6875C28.3127 44.4375 27.2502 47 25.3335 48.9375C23.7293 50.5208 21.6668 51.5 19.3335 51.7917L14.1877 52.3542C13.9585 52.375 13.7293 52.3958 13.5002 52.3958ZM18.4377 34.7917C18.3543 34.7917 18.2502 34.7917 18.1668 34.7917C15.021 34.8542 11.6877 37 11.271 40.9583L10.7085 46.0833C10.6043 46.9583 10.9168 47.8125 11.521 48.4375C12.1252 49.0417 12.9793 49.3542 13.8335 49.25L18.9585 48.6875C20.5627 48.4792 22.0002 47.8125 23.0835 46.7292C24.4168 45.3958 25.1668 43.6042 25.1668 41.6875C25.1668 41.375 25.146 41.0417 25.1043 40.7083C24.9168 39.2292 24.2502 37.9375 23.1252 36.8125C22.0002 35.6875 20.6043 34.9792 19.1043 34.7917C18.9377 34.7917 18.6877 34.7917 18.4377 34.7917Z" fill="#0057E5"/>
<path d="M34.6667 36.7083C33.8125 36.7083 33.1042 36 33.1042 35.1458C33.1042 30.5625 29.375 26.8542 24.8125 26.8542C23.9583 26.8542 23.25 26.1458 23.25 25.2917C23.25 24.4375 23.9375 23.7292 24.7917 23.7292C31.0833 23.7292 36.2083 28.8542 36.2083 35.1458C36.2292 36.0208 35.5208 36.7083 34.6667 36.7083Z" fill="#0057E5"/>
</svg>
