<svg width="60" height="60" viewBox="0 0 60 60" fill="none" xmlns="http://www.w3.org/2000/svg">
<rect x="25" y="44" width="9" height="9" fill="#FF807F"/>
<path d="M21.5206 31.9478C18.5594 15.9697 30.856 6.67744 31.0639 7.00856C37.0963 16.6178 49.7879 23.8508 48.3939 37.0218C47.297 47.3857 37.7543 51.2721 37.7543 51.2721C37.7543 51.2721 24.2216 46.5216 21.5206 31.9478Z" fill="#FF807F"/>
<path d="M12.5267 40.9076C9.56509 30.851 13.9526 25.5777 13.9526 25.5777C13.9526 25.5777 25.2504 22.3392 30.625 33.3506C35.9996 44.3622 23.1663 51.7033 23.1663 51.7033C23.1663 51.7033 14.7204 48.3567 12.5267 40.9076Z" fill="#FF807F"/>
<path d="M44.7745 45.8736C44.7745 45.8736 39.1805 52.8908 29.9668 52.9988C20.7531 53.1068 15.2688 45.8736 15.2688 45.8736M31.0639 7.00856C30.856 6.67744 18.5594 15.9697 21.5206 31.9478C24.2216 46.5216 37.7543 51.2721 37.7543 51.2721C37.7543 51.2721 47.297 47.3857 48.3939 37.0218C49.7879 23.8508 37.0963 16.6178 31.0639 7.00856ZM13.9526 25.5777C13.9526 25.5777 9.56509 30.851 12.5267 40.9076C14.7204 48.3567 23.1663 51.7033 23.1663 51.7033C23.1663 51.7033 35.9996 44.3622 30.625 33.3506C25.2504 22.3392 13.9526 25.5777 13.9526 25.5777Z" stroke="#C73130" stroke-width="3"/>
</svg>
