<svg width="60" height="60" viewBox="0 0 60 60" fill="none" xmlns="http://www.w3.org/2000/svg">
<path d="M30.5618 9.67702C30.5618 9.67556 30.5606 9.67438 30.5592 9.67438C30.469 9.67435 30.3794 9.67315 30.2898 9.6719C30.1308 9.66968 30.0059 9.53336 30.0137 9.37457C30.0461 8.71299 30.0139 8.0467 30.0226 7.3823C30.0305 6.78152 30.5289 6.78152 30.537 7.3823C30.5474 8.14808 30.5026 8.91594 30.5618 9.67702Z" fill="#0057E5"/>
<path d="M2.08917 37.1509C2.04538 37.0213 2.14181 36.8869 2.27865 36.8869H57.7365C57.8687 36.8869 57.9646 37.013 57.9292 37.1404L55.3309 46.5109C55.3069 46.5975 55.2281 46.6575 55.1382 46.6575H5.44369C5.3579 46.6575 5.28166 46.6028 5.25421 46.5215L2.08917 37.1509Z" fill="#0057E5"/>
<path d="M10.5157 29.0221C10.4812 28.8949 10.577 28.7697 10.7087 28.7697H49.6191C49.7515 28.7697 49.8474 28.8961 49.8117 29.0236L48.2986 34.4306C48.2745 34.517 48.1957 34.5767 48.106 34.5767H12.1751C12.0848 34.5767 12.0057 34.5162 11.9821 34.429L10.5157 29.0221Z" fill="#0057E5"/>
<path d="M2 36.887L12.0218 34.5768H48.2574L57.9995 36.887H2Z" fill="#63BDFD"/>
<path d="M18.72 26.507L10.4473 28.7696H49.8828L42.1033 26.507H18.72Z" fill="#63BDFD"/>
<path d="M17.7808 21.7751C17.7563 21.6514 17.8509 21.5362 17.977 21.5362H42.5647C42.6861 21.5362 42.7795 21.6435 42.7628 21.7637L42.1272 26.3347C42.1135 26.4335 42.029 26.5071 41.9291 26.5071H18.8842C18.7888 26.5071 18.7066 26.4397 18.688 26.3461L17.7808 21.7751Z" fill="#0057E5"/>
<path d="M28.8104 19.0257L17.7334 21.5362H42.7944L31.7175 19.0257H28.8104Z" fill="#63BDFD"/>
<path d="M30.5 8H30V18H30.5V8Z" fill="#63BDFD"/>
<path d="M30.2794 9.74037C30.9204 9.74037 31.4401 9.32123 31.4401 8.80419C31.4401 8.28715 30.9204 7.86801 30.2794 7.86801C29.6383 7.86801 29.1187 8.28715 29.1187 8.80419C29.1187 9.32123 29.6383 9.74037 30.2794 9.74037Z" fill="#0057E5"/>
<path d="M30.2638 11.3833C30.9048 11.3833 31.4245 10.9642 31.4245 10.4471C31.4245 9.9301 30.9048 9.51096 30.2638 9.51096C29.6227 9.51096 29.103 9.9301 29.103 10.4471C29.103 10.9642 29.6227 11.3833 30.2638 11.3833Z" fill="#0057E5"/>
<path d="M30.2662 13.0868C30.9072 13.0868 31.4269 12.6677 31.4269 12.1506C31.4269 11.6336 30.9072 11.2144 30.2662 11.2144C29.6251 11.2144 29.1055 11.6336 29.1055 12.1506C29.1055 12.6677 29.6251 13.0868 30.2662 13.0868Z" fill="#0057E5"/>
<path d="M30.2638 14.8273C30.9048 14.8273 31.4245 14.4082 31.4245 13.8911C31.4245 13.3741 30.9048 12.955 30.2638 12.955C29.6227 12.955 29.103 13.3741 29.103 13.8911C29.103 14.4082 29.6227 14.8273 30.2638 14.8273Z" fill="#0057E5"/>
<path d="M30.2638 16.4991C30.9048 16.4991 31.4245 16.08 31.4245 15.5629C31.4245 15.0459 30.9048 14.6268 30.2638 14.6268C29.6227 14.6268 29.103 15.0459 29.103 15.5629C29.103 16.08 29.6227 16.4991 30.2638 16.4991Z" fill="#0057E5"/>
<path d="M30.2662 18.2424C30.9072 18.2424 31.4269 17.8233 31.4269 17.3063C31.4269 16.7892 30.9072 16.3701 30.2662 16.3701C29.6251 16.3701 29.1055 16.7892 29.1055 17.3063C29.1055 17.8233 29.6251 18.2424 30.2662 18.2424Z" fill="#0057E5"/>
<path d="M51.4309 41.0587H8.56599C7.81276 41.0587 7.20215 41.6691 7.20215 42.4221V53.2449C7.20215 53.9978 7.81276 54.6082 8.56599 54.6082H51.4309C52.1841 54.6082 52.7947 53.9978 52.7947 53.2449V42.4221C52.7947 41.6691 52.1841 41.0587 51.4309 41.0587Z" fill="#63BDFD"/>
<path d="M14.1929 43.8937H10.7872C10.305 43.8937 9.91406 44.2845 9.91406 44.7666V51.0483C9.91406 51.5303 10.305 51.9211 10.7872 51.9211H14.1929C14.6751 51.9211 15.0661 51.5303 15.0661 51.0483V44.7666C15.0661 44.2845 14.6751 43.8937 14.1929 43.8937Z" fill="#0057E5"/>
<path d="M49.542 43.8937H46.1364C45.6541 43.8937 45.2632 44.2845 45.2632 44.7666V51.0483C45.2632 51.5303 45.6541 51.9211 46.1364 51.9211H49.542C50.0243 51.9211 50.4152 51.5303 50.4152 51.0483V44.7666C50.4152 44.2845 50.0243 43.8937 49.542 43.8937Z" fill="#0057E5"/>
<path d="M23.0962 43.8199H19.6906C19.2083 43.8199 18.8174 44.2107 18.8174 44.6928V50.9744C18.8174 51.4565 19.2083 51.8473 19.6906 51.8473H23.0962C23.5785 51.8473 23.9694 51.4565 23.9694 50.9744V44.6928C23.9694 44.2107 23.5785 43.8199 23.0962 43.8199Z" fill="#0057E5"/>
<path d="M40.8369 43.8937H37.4313C36.949 43.8937 36.5581 44.2845 36.5581 44.7666V51.0483C36.5581 51.5303 36.949 51.9211 37.4313 51.9211H40.8369C41.3192 51.9211 41.7101 51.5303 41.7101 51.0483V44.7666C41.7101 44.2845 41.3192 43.8937 40.8369 43.8937Z" fill="#0057E5"/>
<path d="M31.8677 43.8937H28.462C27.9798 43.8937 27.5889 44.2845 27.5889 44.7666V51.0483C27.5889 51.5303 27.9798 51.9211 28.462 51.9211H31.8677C32.35 51.9211 32.7409 51.5303 32.7409 51.0483V44.7666C32.7409 44.2845 32.35 43.8937 31.8677 43.8937Z" fill="#0057E5"/>
<path d="M31.1082 18.0391H29.4248C29.1524 18.0391 28.9316 18.2599 28.9316 18.5323C28.9316 18.8046 29.1524 19.0254 29.4248 19.0254H31.1082C31.3805 19.0254 31.6013 18.8046 31.6013 18.5323C31.6013 18.2599 31.3805 18.0391 31.1082 18.0391Z" fill="#0057E5"/>
</svg>
