<svg width="62" height="60" viewBox="0 0 62 60" fill="none" xmlns="http://www.w3.org/2000/svg">
<path d="M8.2417 10.8365L14.7815 21.9588" stroke="#047D5F" stroke-width="3" stroke-linecap="round" stroke-linejoin="round"/>
<path d="M53.7274 10.8366L46.9971 22.4127" stroke="#047D5F" stroke-width="3" stroke-linecap="round" stroke-linejoin="round"/>
<path d="M60.5 49.1635C59.0607 30.9748 47.7688 18.3777 30.043 18.3777C12.3173 18.3777 2.93927 30.9748 1.5 49.1635H60.5Z" fill="#14D364" stroke="#047D5F" stroke-width="3" stroke-linecap="round" stroke-linejoin="round"/>
<path d="M43.2089 38.8442C44.8433 38.8442 46.1682 37.519 46.1682 35.8843C46.1682 34.2496 44.8433 32.9244 43.2089 32.9244C41.5745 32.9244 40.2495 34.2496 40.2495 35.8843C40.2495 37.519 41.5745 38.8442 43.2089 38.8442Z" fill="#047D5F"/>
<path d="M18.7057 38.7634C20.2955 38.7634 21.5842 37.4744 21.5842 35.8843C21.5842 34.2943 20.2955 33.0053 18.7057 33.0053C17.1159 33.0053 15.8271 34.2943 15.8271 35.8843C15.8271 37.4744 17.1159 38.7634 18.7057 38.7634Z" fill="#047D5F"/>
</svg>
