<svg width="60" height="60" viewBox="0 0 60 60" fill="none" xmlns="http://www.w3.org/2000/svg">
<path d="M30 54.3886C43.531 54.3886 54.5 43.4694 54.5 30C54.5 16.5305 43.531 5.61133 30 5.61133C16.469 5.61133 5.5 16.5305 5.5 30C5.5 43.4694 16.469 54.3886 30 54.3886Z" fill="#FFE003" stroke="#EF870B" stroke-width="3" stroke-linejoin="round"/>
<path d="M30.0003 54.3887C35.841 54.3887 40.5759 43.4695 40.5759 30.0001C40.5759 16.5306 35.841 5.61142 30.0003 5.61142C24.1596 5.61142 19.4248 16.5306 19.4248 30.0001C19.4248 43.4695 24.1596 54.3887 30.0003 54.3887Z" fill="#FFE003" stroke="#EF870B" stroke-width="3" stroke-linejoin="round"/>
<path d="M7.22266 20.9635H52.7627" stroke="#EF870B" stroke-width="3" stroke-linejoin="round"/>
<path d="M7.22266 38.9954H52.7627" stroke="#EF870B" stroke-width="3" stroke-linejoin="round"/>
</svg>
