<svg width="378" height="377" viewBox="0 0 378 377" fill="none" xmlns="http://www.w3.org/2000/svg">
<mask id="path-1-outside-1_1144_4196" maskUnits="userSpaceOnUse" x="0" y="0" width="378" height="377" fill="black">
<rect fill="white" width="378" height="377"/>
<path d="M374 287.219C374 295.933 366.936 302.997 358.222 302.997H309.772C301.058 302.997 293.994 310.061 293.994 318.775V356.644C293.994 365.358 286.93 372.422 278.216 372.422H19.7783C11.0642 372.422 4 365.358 4 356.644V90.1386C4 81.4245 11.0642 74.3604 19.7783 74.3604H103.131C111.845 74.3604 118.909 67.2962 118.909 58.5821V19.7783C118.909 11.0642 125.973 4 134.687 4H358.222C366.936 4 374 11.0642 374 19.7783V287.219Z"/>
</mask>
<path d="M374 287.219C374 295.933 366.936 302.997 358.222 302.997H309.772C301.058 302.997 293.994 310.061 293.994 318.775V356.644C293.994 365.358 286.93 372.422 278.216 372.422H19.7783C11.0642 372.422 4 365.358 4 356.644V90.1386C4 81.4245 11.0642 74.3604 19.7783 74.3604H103.131C111.845 74.3604 118.909 67.2962 118.909 58.5821V19.7783C118.909 11.0642 125.973 4 134.687 4H358.222C366.936 4 374 11.0642 374 19.7783V287.219Z" fill="white"/>
<path d="M358.222 302.997V298.997H309.772V302.997V306.997H358.222V302.997ZM293.994 318.775H289.994V356.644H293.994H297.994V318.775H293.994ZM278.216 372.422V368.422H19.7783V372.422V376.422H278.216V372.422ZM4 356.644H8V90.1386H4H0V356.644H4ZM19.7783 74.3604V78.3604H103.131V74.3604V70.3604H19.7783V74.3604ZM118.909 58.5821H122.909V19.7783H118.909H114.909V58.5821H118.909ZM134.687 4V8H358.222V4V0H134.687V4ZM374 19.7783H370V287.219H374H378V19.7783H374ZM358.222 4V8C364.727 8 370 13.2733 370 19.7783H374H378C378 8.85502 369.145 0 358.222 0V4ZM118.909 19.7783H122.909C122.909 13.2733 128.182 8 134.687 8V4V0C123.764 0 114.909 8.85502 114.909 19.7783H118.909ZM103.131 74.3604V78.3604C114.054 78.3604 122.909 69.5053 122.909 58.5821H118.909H114.909C114.909 65.087 109.636 70.3604 103.131 70.3604V74.3604ZM4 90.1386H8C8 83.6337 13.2733 78.3604 19.7783 78.3604V74.3604V70.3604C8.85502 70.3604 0 79.2154 0 90.1386H4ZM19.7783 372.422V368.422C13.2733 368.422 8 363.149 8 356.644H4H0C0 367.567 8.85504 376.422 19.7783 376.422V372.422ZM293.994 356.644H289.994C289.994 363.149 284.721 368.422 278.216 368.422V372.422V376.422C289.139 376.422 297.994 367.567 297.994 356.644H293.994ZM309.772 302.997V298.997C298.849 298.997 289.994 307.852 289.994 318.775H293.994H297.994C297.994 312.27 303.267 306.997 309.772 306.997V302.997ZM358.222 302.997V306.997C369.145 306.997 378 298.142 378 287.219H374H370C370 293.724 364.727 298.997 358.222 298.997V302.997Z" fill="white" mask="url(#path-1-outside-1_1144_4196)"/>
<path d="M358.222 302.997V298.997H309.772V302.997V306.997H358.222V302.997ZM293.994 318.775H289.994V356.644H293.994H297.994V318.775H293.994ZM278.216 372.422V368.422H19.7783V372.422V376.422H278.216V372.422ZM4 356.644H8V90.1386H4H0V356.644H4ZM19.7783 74.3604V78.3604H103.131V74.3604V70.3604H19.7783V74.3604ZM118.909 58.5821H122.909V19.7783H118.909H114.909V58.5821H118.909ZM134.687 4V8H358.222V4V0H134.687V4ZM374 19.7783H370V287.219H374H378V19.7783H374ZM358.222 4V8C364.727 8 370 13.2733 370 19.7783H374H378C378 8.85502 369.145 0 358.222 0V4ZM118.909 19.7783H122.909C122.909 13.2733 128.182 8 134.687 8V4V0C123.764 0 114.909 8.85502 114.909 19.7783H118.909ZM103.131 74.3604V78.3604C114.054 78.3604 122.909 69.5053 122.909 58.5821H118.909H114.909C114.909 65.087 109.636 70.3604 103.131 70.3604V74.3604ZM4 90.1386H8C8 83.6337 13.2733 78.3604 19.7783 78.3604V74.3604V70.3604C8.85502 70.3604 0 79.2154 0 90.1386H4ZM19.7783 372.422V368.422C13.2733 368.422 8 363.149 8 356.644H4H0C0 367.567 8.85504 376.422 19.7783 376.422V372.422ZM293.994 356.644H289.994C289.994 363.149 284.721 368.422 278.216 368.422V372.422V376.422C289.139 376.422 297.994 367.567 297.994 356.644H293.994ZM309.772 302.997V298.997C298.849 298.997 289.994 307.852 289.994 318.775H293.994H297.994C297.994 312.27 303.267 306.997 309.772 306.997V302.997ZM358.222 302.997V306.997C369.145 306.997 378 298.142 378 287.219H374H370C370 293.724 364.727 298.997 358.222 298.997V302.997Z" fill="url(#paint0_radial_1144_4196)" mask="url(#path-1-outside-1_1144_4196)"/>
<path d="M358.222 302.997V298.997H309.772V302.997V306.997H358.222V302.997ZM293.994 318.775H289.994V356.644H293.994H297.994V318.775H293.994ZM278.216 372.422V368.422H19.7783V372.422V376.422H278.216V372.422ZM4 356.644H8V90.1386H4H0V356.644H4ZM19.7783 74.3604V78.3604H103.131V74.3604V70.3604H19.7783V74.3604ZM118.909 58.5821H122.909V19.7783H118.909H114.909V58.5821H118.909ZM134.687 4V8H358.222V4V0H134.687V4ZM374 19.7783H370V287.219H374H378V19.7783H374ZM358.222 4V8C364.727 8 370 13.2733 370 19.7783H374H378C378 8.85502 369.145 0 358.222 0V4ZM118.909 19.7783H122.909C122.909 13.2733 128.182 8 134.687 8V4V0C123.764 0 114.909 8.85502 114.909 19.7783H118.909ZM103.131 74.3604V78.3604C114.054 78.3604 122.909 69.5053 122.909 58.5821H118.909H114.909C114.909 65.087 109.636 70.3604 103.131 70.3604V74.3604ZM4 90.1386H8C8 83.6337 13.2733 78.3604 19.7783 78.3604V74.3604V70.3604C8.85502 70.3604 0 79.2154 0 90.1386H4ZM19.7783 372.422V368.422C13.2733 368.422 8 363.149 8 356.644H4H0C0 367.567 8.85504 376.422 19.7783 376.422V372.422ZM293.994 356.644H289.994C289.994 363.149 284.721 368.422 278.216 368.422V372.422V376.422C289.139 376.422 297.994 367.567 297.994 356.644H293.994ZM309.772 302.997V298.997C298.849 298.997 289.994 307.852 289.994 318.775H293.994H297.994C297.994 312.27 303.267 306.997 309.772 306.997V302.997ZM358.222 302.997V306.997C369.145 306.997 378 298.142 378 287.219H374H370C370 293.724 364.727 298.997 358.222 298.997V302.997Z" fill="url(#paint1_radial_1144_4196)" mask="url(#path-1-outside-1_1144_4196)"/>
<path d="M358.222 302.997V298.997H309.772V302.997V306.997H358.222V302.997ZM293.994 318.775H289.994V356.644H293.994H297.994V318.775H293.994ZM278.216 372.422V368.422H19.7783V372.422V376.422H278.216V372.422ZM4 356.644H8V90.1386H4H0V356.644H4ZM19.7783 74.3604V78.3604H103.131V74.3604V70.3604H19.7783V74.3604ZM118.909 58.5821H122.909V19.7783H118.909H114.909V58.5821H118.909ZM134.687 4V8H358.222V4V0H134.687V4ZM374 19.7783H370V287.219H374H378V19.7783H374ZM358.222 4V8C364.727 8 370 13.2733 370 19.7783H374H378C378 8.85502 369.145 0 358.222 0V4ZM118.909 19.7783H122.909C122.909 13.2733 128.182 8 134.687 8V4V0C123.764 0 114.909 8.85502 114.909 19.7783H118.909ZM103.131 74.3604V78.3604C114.054 78.3604 122.909 69.5053 122.909 58.5821H118.909H114.909C114.909 65.087 109.636 70.3604 103.131 70.3604V74.3604ZM4 90.1386H8C8 83.6337 13.2733 78.3604 19.7783 78.3604V74.3604V70.3604C8.85502 70.3604 0 79.2154 0 90.1386H4ZM19.7783 372.422V368.422C13.2733 368.422 8 363.149 8 356.644H4H0C0 367.567 8.85504 376.422 19.7783 376.422V372.422ZM293.994 356.644H289.994C289.994 363.149 284.721 368.422 278.216 368.422V372.422V376.422C289.139 376.422 297.994 367.567 297.994 356.644H293.994ZM309.772 302.997V298.997C298.849 298.997 289.994 307.852 289.994 318.775H293.994H297.994C297.994 312.27 303.267 306.997 309.772 306.997V302.997ZM358.222 302.997V306.997C369.145 306.997 378 298.142 378 287.219H374H370C370 293.724 364.727 298.997 358.222 298.997V302.997Z" fill="url(#paint2_radial_1144_4196)" mask="url(#path-1-outside-1_1144_4196)"/>
<path d="M358.222 302.997V298.997H309.772V302.997V306.997H358.222V302.997ZM293.994 318.775H289.994V356.644H293.994H297.994V318.775H293.994ZM278.216 372.422V368.422H19.7783V372.422V376.422H278.216V372.422ZM4 356.644H8V90.1386H4H0V356.644H4ZM19.7783 74.3604V78.3604H103.131V74.3604V70.3604H19.7783V74.3604ZM118.909 58.5821H122.909V19.7783H118.909H114.909V58.5821H118.909ZM134.687 4V8H358.222V4V0H134.687V4ZM374 19.7783H370V287.219H374H378V19.7783H374ZM358.222 4V8C364.727 8 370 13.2733 370 19.7783H374H378C378 8.85502 369.145 0 358.222 0V4ZM118.909 19.7783H122.909C122.909 13.2733 128.182 8 134.687 8V4V0C123.764 0 114.909 8.85502 114.909 19.7783H118.909ZM103.131 74.3604V78.3604C114.054 78.3604 122.909 69.5053 122.909 58.5821H118.909H114.909C114.909 65.087 109.636 70.3604 103.131 70.3604V74.3604ZM4 90.1386H8C8 83.6337 13.2733 78.3604 19.7783 78.3604V74.3604V70.3604C8.85502 70.3604 0 79.2154 0 90.1386H4ZM19.7783 372.422V368.422C13.2733 368.422 8 363.149 8 356.644H4H0C0 367.567 8.85504 376.422 19.7783 376.422V372.422ZM293.994 356.644H289.994C289.994 363.149 284.721 368.422 278.216 368.422V372.422V376.422C289.139 376.422 297.994 367.567 297.994 356.644H293.994ZM309.772 302.997V298.997C298.849 298.997 289.994 307.852 289.994 318.775H293.994H297.994C297.994 312.27 303.267 306.997 309.772 306.997V302.997ZM358.222 302.997V306.997C369.145 306.997 378 298.142 378 287.219H374H370C370 293.724 364.727 298.997 358.222 298.997V302.997Z" fill="url(#paint3_radial_1144_4196)" mask="url(#path-1-outside-1_1144_4196)"/>
<defs>
<radialGradient id="paint0_radial_1144_4196" cx="0" cy="0" r="1" gradientTransform="matrix(-146.698 290.899 -245.242 -122.621 188.75 4)" gradientUnits="userSpaceOnUse">
<stop stop-color="#F94543"/>
<stop offset="1" stop-color="#F7306E" stop-opacity="0"/>
</radialGradient>
<radialGradient id="paint1_radial_1144_4196" cx="0" cy="0" r="1" gradientTransform="matrix(145.196 -139.093 189.597 196.231 141.936 368.184)" gradientUnits="userSpaceOnUse">
<stop stop-color="#08B962"/>
<stop offset="1" stop-color="#08B962" stop-opacity="0"/>
</radialGradient>
<radialGradient id="paint2_radial_1144_4196" cx="0" cy="0" r="1" gradientUnits="userSpaceOnUse" gradientTransform="translate(58.5737 175.498) rotate(-180) scale(134.932 196.074)">
<stop stop-color="#FABC12"/>
<stop offset="1" stop-color="#FABC12" stop-opacity="0"/>
</radialGradient>
<radialGradient id="paint3_radial_1144_4196" cx="0" cy="0" r="1" gradientTransform="matrix(-211.536 -78.0217 136.6 -367.204 317.424 182.976)" gradientUnits="userSpaceOnUse">
<stop stop-color="#3186FF"/>
<stop offset="1" stop-color="#3186FF" stop-opacity="0"/>
</radialGradient>
</defs>
</svg>
